<svg width="42" height="42" viewBox="0 0 42 42" fill="none" xmlns="http://www.w3.org/2000/svg">
<path fill-rule="evenodd" clip-rule="evenodd" d="M9.50541 0.20602C9.23701 0.339543 9.00415 0.537082 8.8532 0.759292L8.61845 1.10478L8.59284 4.58834C8.57544 6.96602 8.59612 8.16993 8.65818 8.38067C8.76431 8.74148 9.15813 9.21697 9.49482 9.39082C9.62476 9.45795 9.96744 9.53492 10.2562 9.56188C11.2226 9.65196 11.9294 9.33943 12.2923 8.6614C12.4726 8.32452 12.4767 8.25411 12.5011 5.05268C12.5287 1.43748 12.4986 1.11347 12.0896 0.6179C11.7224 0.173152 11.2946 0.0022525 10.5429 3.94152e-05C10.0415 -0.00143598 9.84309 0.0379898 9.50541 0.20602ZM30.7802 0.1093C30.452 0.258643 30.0897 0.629376 29.9274 0.98183C29.8146 1.22658 29.7915 1.73477 29.7703 4.44343C29.7387 8.45165 29.7617 8.59665 30.5263 9.21467C30.8086 9.44287 30.8994 9.46795 31.5398 9.49475C32.345 9.52852 32.7549 9.43123 33.1274 9.1182C33.6876 8.64747 33.6903 8.62739 33.6922 4.74916C33.694 1.29322 33.6924 1.25929 33.5094 0.901503C33.4077 0.702981 33.1828 0.427739 33.0095 0.289872C32.7102 0.051842 32.6524 0.0381537 31.8604 0.0182359C31.2896 0.00389184 30.9487 0.03258 30.7802 0.1093ZM1.92487 3.47049C1.19164 3.66794 0.514891 4.25507 0.175406 4.98817L0 5.36702V22.252V39.1371L0.217595 39.6006C0.474507 40.1477 0.966826 40.6512 1.50265 40.9148L1.88785 41.1043H20.9716H40.0553L40.4405 40.9148C40.9763 40.6512 41.4686 40.1477 41.7255 39.6006L41.9431 39.1371V22.252V5.36702L41.7158 4.90457C41.4504 4.36507 40.9005 3.82778 40.357 3.57696C39.995 3.40991 39.8318 3.39836 37.4903 3.37393L35.0073 3.34803V6.08471C35.0073 8.34477 34.9851 8.88648 34.8798 9.19525C34.5777 10.0804 33.703 10.6675 32.446 10.8289C30.6799 11.0556 29.3808 10.449 28.736 9.09648L28.4819 8.5637L28.4553 5.96127L28.4287 3.35885H21.1297H13.8306L13.8292 5.75636C13.8279 8.35452 13.776 8.7964 13.3964 9.44328C13.1118 9.92819 12.598 10.3797 12.0346 10.6397C11.4252 10.9211 10.1607 10.9897 9.44016 10.7806C8.58636 10.5327 7.92036 9.97483 7.52752 9.17845L7.30516 8.72763L7.28144 6.04324L7.25772 3.35885L4.77799 3.36434C3.09304 3.36811 2.17858 3.40213 1.92487 3.47049ZM39.2755 26.2684V38.5223H20.9716H2.66762V26.2684V14.0145H20.9716H39.2755V26.2684ZM22.0934 17.4297C22.0632 17.4597 22.0386 18.5036 22.0386 19.7494C22.0386 21.4017 22.0653 22.041 22.1371 22.1127C22.278 22.2534 27.2987 22.2534 27.4395 22.1127C27.5799 21.9725 27.5799 17.6137 27.4395 17.4734C27.367 17.401 26.6546 17.3751 24.7446 17.3751C23.3164 17.3751 22.1234 17.3997 22.0934 17.4297ZM29.9731 17.4297C29.943 17.4597 29.9183 18.5036 29.9183 19.7494C29.9183 21.4017 29.945 22.041 30.0168 22.1127C30.1577 22.2534 35.1784 22.2534 35.3192 22.1127C35.4597 21.9725 35.4597 17.6137 35.3192 17.4734C35.2468 17.401 34.5343 17.3751 32.6243 17.3751C31.1962 17.3751 30.0031 17.3997 29.9731 17.4297ZM6.36994 24.2907C6.30386 24.3703 6.28293 25.0708 6.29836 26.6882L6.3202 28.9733L8.93692 28.9949C10.7995 29.0103 11.5862 28.9897 11.6661 28.9234C11.8193 28.7964 11.8325 24.4288 11.6801 24.2766C11.527 24.1237 6.49766 24.1371 6.36994 24.2907ZM14.2497 24.2907C14.1836 24.3703 14.1627 25.0708 14.1781 26.6882L14.1999 28.9733L16.8167 28.9949C18.6792 29.0103 19.4659 28.9897 19.5458 28.9234C19.6991 28.7964 19.7122 24.4288 19.5598 24.2766C19.4067 24.1237 14.3774 24.1371 14.2497 24.2907ZM22.1294 24.2907C22.0633 24.3703 22.0424 25.0708 22.0578 26.6882L22.0797 28.9733L24.6964 28.9949C26.5589 29.0103 27.3456 28.9897 27.4256 28.9234C27.5788 28.7964 27.5919 24.4288 27.4395 24.2766C27.2864 24.1237 22.2571 24.1371 22.1294 24.2907ZM30.0091 24.2907C29.943 24.3703 29.9221 25.0708 29.9375 26.6882L29.9594 28.9733L32.5761 28.9949C34.4387 29.0103 35.2253 28.9897 35.3053 28.9234C35.4585 28.7964 35.4717 24.4288 35.3192 24.2766C35.1661 24.1237 30.1368 24.1371 30.0091 24.2907ZM6.4228 31.07C6.29147 31.1464 6.27916 31.3483 6.27916 33.4281C6.27916 35.088 6.30575 35.7293 6.37765 35.8011C6.44997 35.8733 7.14609 35.8994 8.9984 35.8994C11.1818 35.8994 11.5379 35.8821 11.6496 35.7706C11.7604 35.6599 11.7785 35.3323 11.7785 33.4392C11.7785 31.256 11.7769 31.2355 11.5961 31.1091C11.4408 31.0004 11.0536 30.9819 8.99003 30.9839C7.49715 30.9855 6.51128 31.0185 6.4228 31.07ZM14.3025 31.07C14.1712 31.1464 14.1589 31.3483 14.1589 33.4281C14.1589 35.088 14.1855 35.7293 14.2574 35.8011C14.3297 35.8733 15.0258 35.8994 16.8781 35.8994C19.0616 35.8994 19.4176 35.8821 19.5293 35.7706C19.6401 35.6599 19.6583 35.3323 19.6583 33.4392C19.6583 31.256 19.6566 31.2355 19.4758 31.1091C19.3205 31.0004 18.9333 30.9819 16.8698 30.9839C15.3769 30.9855 14.391 31.0185 14.3025 31.07ZM22.1823 31.07C22.0508 31.1464 22.0386 31.349 22.0386 33.4417C22.0386 35.6199 22.0462 35.7338 22.1974 35.8146C22.2967 35.8676 23.2779 35.8994 24.8181 35.8994C26.9468 35.8994 27.2975 35.882 27.4091 35.7706C27.5199 35.6599 27.538 35.3323 27.538 33.4392C27.538 31.256 27.5364 31.2355 27.3555 31.1091C27.2002 31.0004 26.8131 30.9819 24.7495 30.9839C23.2566 30.9855 22.2707 31.0185 22.1823 31.07ZM30.062 31.07C29.9306 31.1464 29.9183 31.349 29.9183 33.4417C29.9183 35.6199 29.926 35.7338 30.0771 35.8146C30.1764 35.8676 31.1577 35.8994 32.6978 35.8994C34.8265 35.8994 35.1772 35.882 35.2888 35.7706C35.3996 35.6599 35.4177 35.3323 35.4177 33.4392C35.4177 31.256 35.4161 31.2355 35.2353 31.1091C35.08 31.0004 34.6928 30.9819 32.6292 30.9839C31.1363 30.9855 30.1505 31.0185 30.062 31.07Z" fill="white"/>
</svg>
