<svg width="48" height="47" viewBox="0 0 48 47" fill="none" xmlns="http://www.w3.org/2000/svg">
<path fill-rule="evenodd" clip-rule="evenodd" d="M7.44159 0.0744139C6.91361 0.230606 2.24244 3.05899 1.80404 3.48803C0.507045 4.75725 0.001318 6.3781 3.44289e-06 9.26991C-0.000841627 11.1042 0.153712 12.2284 0.651364 14.0061C2.30648 19.9187 6.6939 26.34 13.8977 33.3931C21.1047 40.4492 27.6574 44.741 33.699 46.3623C35.5147 46.8495 36.6629 47.0008 38.5364 47C41.4908 46.9987 43.1448 46.5038 44.443 45.2328C44.7282 44.9535 45.4269 43.9153 46.4111 42.3082C47.7681 40.0922 47.9429 39.7604 47.9905 39.3092C48.0597 38.6528 47.7467 37.9351 47.2122 37.5248C46.4483 36.9383 36.878 30.7417 36.5646 30.6307C35.9074 30.3979 35.0905 30.5239 34.5913 30.9352C34.4325 31.0661 33.5649 32.0953 32.6634 33.2225C31.646 34.4946 30.8908 35.3532 30.6724 35.4862C30.3854 35.6608 30.1904 35.7004 29.6162 35.7004H28.912L27.5974 34.9783C24.8201 33.4527 22.7103 31.8218 19.4444 28.6758C15.7548 25.1217 13.5701 22.4007 11.8722 19.2445C11.5044 18.5607 11.479 18.4671 11.5106 17.9108C11.5346 17.4896 11.609 17.2106 11.7617 16.9687C11.897 16.7543 12.7667 16.0208 14.0719 15.0201C15.2232 14.1374 16.2745 13.288 16.4082 13.1324C16.8282 12.6437 16.9569 11.8439 16.7191 11.2005C16.6058 10.8939 10.2771 1.524 9.67868 0.776866C9.17953 0.153567 8.20676 -0.151831 7.44159 0.0744139ZM26.7428 5.91541C26.553 6.1012 26.5126 6.22071 26.5358 6.52684C26.5813 7.12735 26.8318 7.25265 28.1743 7.34614C31.7021 7.59178 34.6113 8.85815 37.113 11.2372C39.6566 13.6559 41.0933 16.743 41.3484 20.3377C41.4221 21.3759 41.4421 21.4561 41.6771 21.654C42.1091 22.0178 42.6754 21.9096 42.9464 21.4116C43.178 20.9861 42.9025 18.533 42.4439 16.9373C41.391 13.2735 38.9905 10.1299 35.6522 8.04372C33.3561 6.60885 30.209 5.68456 27.6191 5.68456C27.0603 5.68456 26.9485 5.71398 26.7428 5.91541ZM26.7428 10.7878C26.553 10.9736 26.5126 11.0931 26.5358 11.3992C26.5789 11.9691 26.8221 12.101 28.0376 12.2135C31.3402 12.519 34.0588 14.3458 35.491 17.222C35.9952 18.2346 36.2594 19.2126 36.3722 20.4836C36.4499 21.3602 36.4806 21.4688 36.7042 21.6571C37.175 22.0535 37.8818 21.8387 38.0318 21.2535C38.1822 20.667 37.8452 18.6265 37.4079 17.4751C37.1483 16.7917 36.6349 15.7957 36.2232 15.1769C35.7481 14.4631 34.0311 12.7952 33.2782 12.3164C31.5845 11.2393 29.3922 10.5581 27.6167 10.5572C27.0603 10.557 26.9484 10.5865 26.7428 10.7878ZM26.7481 15.655C26.5807 15.8189 26.5176 15.9807 26.5176 16.2459C26.5176 16.7294 26.8121 16.9597 27.5319 17.0393C28.675 17.1657 29.5204 17.5528 30.2531 18.2854C30.967 18.9993 31.2351 19.6212 31.4532 21.0705C31.5825 21.9298 32.5821 22.1676 32.9812 21.434C33.2401 20.958 32.9585 19.4421 32.4312 18.4736C31.4477 16.6668 29.441 15.4294 27.4946 15.4294C27.0719 15.4294 26.9369 15.4702 26.7481 15.655Z" fill="white"/>
</svg>
