<svg width="263" height="271" viewBox="0 0 263 271" fill="none" xmlns="http://www.w3.org/2000/svg">
<path d="M229.672 127.932C225.187 113.473 212.377 103.836 198.862 98.0355C190.603 94.7394 181.9 92.7873 173.078 91.5614C164.981 90.4548 155.118 89.207 147.054 91.5362C146.426 91.7312 146.512 92.5658 147.238 92.6851C154.706 93.9868 162.737 93.2183 170.422 94.1081C178.627 95.0088 186.712 96.6357 194.255 99.2921C209.244 104.291 222.054 113.928 229.043 128.127C229.032 128.648 229.975 128.355 229.672 127.932Z" fill="white"/>
<path d="M209.207 66.3991C196.851 64.8908 183.79 67.2194 172.257 71.1414C166.491 73.1024 160.811 75.898 155.543 78.9105C152.909 80.4167 150.481 82.0313 148.259 83.7543C146.676 84.7621 144.671 86.0733 143.598 87.6123C145.962 79.1259 142.646 68.4386 139.58 60.7753C135.723 51.1176 129.221 43.4864 121.342 36.9713C121.136 36.8629 121.028 37.0688 121.234 37.1772C128.072 43.6705 133.306 52.212 136.87 60.9267C138.647 65.5442 139.904 70.1508 140.738 75.0608C141.474 79.6564 141.17 84.2303 142.221 88.7284C142.318 89.0428 142.524 89.1512 142.73 89.2596C142.622 89.4655 142.405 89.8774 142.503 90.1917C142.394 90.3976 142.6 90.506 142.806 90.6144C144.681 90.5497 146.058 89.4335 147.64 88.4257C150.491 86.5076 153.45 84.3837 156.301 82.4656C161.678 79.2473 167.357 76.4517 173.232 74.2847C185.09 69.745 196.991 68.1208 209.499 67.3421C209.608 67.1361 209.618 66.6159 209.207 66.3991Z" fill="white"/>
<path d="M140.551 88.9014C139.078 84.7067 136.531 82.0509 133.052 79.1673C127.828 75.1022 122.279 71.6547 116.308 68.5107C104.993 62.0277 93.3096 58.2435 80.889 54.8602C80.6831 54.7518 80.4663 55.1636 80.6722 55.272C91.6295 58.9369 102.034 64.1517 112.33 69.5724C117.478 72.2827 122.409 75.4049 127.232 78.733C131.751 81.6384 136.368 84.8581 139.185 89.4974C139.38 90.126 140.638 89.736 140.551 88.9014Z" fill="white"/>
<path d="M189.328 150.613C189.384 138.018 184.747 125.846 177.15 115.797C172.891 110.399 167.679 105.814 162.141 101.846C157.524 98.6263 149.818 93.7804 144.182 94.495C143.662 94.4841 143.434 95.4162 143.846 95.633C145.688 97.129 148.17 97.9097 150.338 98.7879C153.535 100.208 156.624 101.834 159.604 103.667C165.153 107.114 170.051 111.797 174.321 116.675C182.135 126.311 186.674 138.169 188.71 150.287C188.797 151.122 189.426 150.927 189.328 150.613Z" fill="white"/>
<path d="M139.63 93.1503C135.403 91.1879 128.39 93.0187 123.892 94.0694C118.039 95.1958 112.478 97.2653 106.907 99.855C96.0785 104.937 85.6074 112.837 78.9403 123.002C78.8319 123.208 79.0378 123.317 79.1462 123.111C87.6447 114.961 96.5333 108.069 107.156 102.879C112.413 100.387 117.865 98.5233 123.306 97.18C126.027 96.5084 128.639 96.0427 131.251 95.577C133.863 95.1113 136.876 95.3826 139.402 94.0823C139.825 93.7789 140.041 93.3671 139.63 93.1503Z" fill="white"/>
<path d="M142.166 96.3262C141.971 95.6976 140.822 95.8817 140.908 96.7163C141.493 103.599 142.814 110.081 142.878 116.952C143.04 124.138 142.367 131.411 140.968 138.564C145.923 125.656 147.724 109.247 142.166 96.3262Z" fill="white"/>
<path d="M232.381 127.781C232.836 130.913 233.692 134.783 232.282 137.46C232.358 138.814 232.228 140.061 232.304 141.416C231.134 137.644 229.747 134.284 227.634 130.804C225.618 127.639 222.28 122.989 218.454 121.763C218.465 121.243 217.848 120.918 217.425 121.221C216.785 121.937 216.568 122.349 216.352 122.76C215.03 121.275 214.336 119.595 213.968 117.297C213.675 116.354 212.526 116.539 212.201 117.156C211.876 117.774 211.757 118.5 211.431 119.118C209.903 117.524 208.69 115.833 208.007 113.633C207.715 112.69 206.468 112.56 206.24 113.492C206.23 114.012 205.904 114.63 205.893 115.15C204.463 113.871 203.553 112.603 202.968 110.717C202.675 109.774 201.429 109.644 201.092 110.782C200.973 111.508 200.54 112.332 200.42 113.058C198.686 111.356 197.787 109.567 196.367 107.768C196.27 107.454 196.075 106.825 195.977 106.511C195.782 105.882 195.045 106.283 195.034 106.803C194.904 108.05 194.676 108.982 194.34 110.12C192.704 108.732 191.382 107.247 190.276 105.35C189.875 104.613 188.726 104.797 188.705 105.838C188.531 109.165 184.164 103.973 183.654 103.442C183.145 102.91 181.996 103.095 181.877 103.821C181.28 107.452 175.97 102.552 174.322 101.684C174.116 101.576 173.694 101.879 173.9 101.988C175.016 103.365 177.151 105.804 179.21 106.888C179.416 106.996 179.622 107.104 179.828 107.213C180.651 107.647 181.161 108.178 181.453 109.121L181.247 109.012C180.315 108.785 179.665 110.02 180.488 110.454C181.518 110.996 182.548 111.538 183.686 111.874C184.097 112.091 184.303 112.199 184.715 112.416C185.235 112.427 185.539 112.85 185.116 113.153C184.184 112.925 183.533 114.161 184.249 114.801C185.484 115.451 186.611 116.307 187.847 116.958L189.7 117.934C190.936 118.584 188.649 118.432 188.128 118.421C187.608 118.41 187.283 119.028 187.695 119.245C188.204 119.776 188.616 119.993 189.342 120.112C190.458 121.489 191.683 122.66 192.799 124.036C192.073 123.917 191.553 123.906 190.827 123.787C189.894 123.559 189.45 124.903 189.959 125.434C190.88 126.182 191.487 127.027 192.408 127.775C192.918 128.307 193.427 128.838 193.937 129.369C193.405 129.878 193.091 129.976 192.679 129.759C192.473 129.651 192.267 129.542 192.17 129.228C191.249 128.48 190.381 130.127 191.097 130.767C193.145 132.371 194.879 134.073 196.082 136.284C194.315 136.143 192.971 135.699 191.313 135.351C190.901 135.135 190.576 135.752 190.988 135.969C192.927 137.78 195.106 138.138 197.61 137.878C198.13 137.889 198.661 137.379 198.26 136.642C197.361 134.854 196.147 133.163 194.825 131.678C195.248 131.374 195.67 131.071 196.202 130.561C197.275 129.023 195.443 127.006 193.807 125.619C194.013 125.727 194.327 125.63 194.327 125.63C194.847 125.641 195.487 124.925 194.978 124.394C193.764 122.703 192.453 120.698 190.708 119.516C191.131 119.213 191.662 118.703 191.781 117.977C192.443 116.221 188.942 114.378 186.774 113.5C186.991 113.088 187.208 112.677 187.219 112.156C187.36 110.39 184.26 109.284 182.299 108.514C182.407 108.308 182.31 107.994 182.418 107.788C182.429 107.267 182.028 106.53 181.616 106.314C182.039 106.01 182.462 105.707 182.895 104.883C184.315 106.682 186.352 108.807 188.336 108.536C189.17 108.45 189.496 107.832 189.821 107.214C190.829 108.797 192.259 110.076 194.004 111.258C194.622 111.583 195.044 111.279 195.37 110.662C195.587 110.25 195.695 110.044 195.803 109.838C196.594 111.832 198.426 113.849 200.171 115.03C200.788 115.356 201.731 115.063 201.851 114.337C202.068 113.925 201.97 113.611 202.187 113.199C202.989 114.673 204.213 115.844 205.752 116.917C206.37 117.242 206.999 117.047 207.118 116.321C207.226 116.115 207.226 116.115 207.335 115.909C208.234 117.698 209.556 119.183 211.084 120.776C211.594 121.307 212.428 121.221 212.656 120.289C212.764 120.083 212.873 119.877 212.981 119.671C213.675 121.351 214.477 122.825 215.701 123.996C216.005 124.419 216.839 124.332 217.056 123.92C217.598 122.891 217.706 122.685 218.14 121.861C218.953 122.815 219.766 123.769 220.893 124.625C222.724 126.641 224.556 128.658 225.964 130.977C228.489 134.674 230.786 139.302 231.837 143.8C232.032 144.429 232.867 144.342 232.986 143.616C234.027 138.641 233.833 133.016 232.381 127.781Z" fill="white"/>
<path d="M232.404 126.741L232.913 127.272C233.325 127.489 233.748 127.185 233.65 126.871C232.87 124.356 232.09 121.842 230.996 119.424C231.31 119.327 231.624 119.229 231.321 118.807C230.519 117.332 229.717 115.858 228.698 114.796C228.904 114.904 229.013 114.698 229.219 114.807C229.533 114.709 229.641 114.503 229.544 114.189C228.341 111.978 226.813 110.384 225.068 109.203C225.177 108.997 225.285 108.791 225.188 108.477C223.259 106.146 221.004 104.433 218.208 103.75C218.523 103.653 218.848 103.035 218.436 102.818C216.908 101.224 215.369 100.151 213.613 99.4898C214.242 99.2948 213.949 98.3518 213.537 98.135C211.576 97.3652 209.928 96.4979 207.967 95.7281C208.075 95.5222 208.086 95.0019 207.989 94.6876C207.609 92.91 204.39 92.5302 202.104 92.3782C202.32 91.9663 202.44 91.2401 201.714 91.1208C199.535 90.7629 197.465 90.199 195.275 90.3613C195.319 88.2803 191.157 88.193 188.653 88.4528C188.87 88.0409 188.567 87.6182 188.155 87.4014C186.811 86.9568 184.947 86.5013 182.963 86.772C183.072 86.5661 183.083 86.0459 183.191 85.8399C183.202 85.3197 182.79 85.1029 182.476 85.2004C180.915 85.1676 179.354 85.1349 177.891 85.4165C178.108 85.0047 178.325 84.5928 178.227 84.2785C179.994 84.4196 182.172 84.7776 183.549 83.6614C184.08 83.1521 184.199 82.4259 183.896 82.0032C185.869 82.2527 188.058 82.0904 190.042 81.8197C190.356 81.7222 190.779 81.4188 190.681 81.1045C190.584 80.7901 190.692 80.5842 190.486 80.4758C192.144 80.8229 193.911 80.964 195.689 80.5849C196.317 80.3899 196.437 79.6637 196.025 79.4469C195.927 79.1325 195.721 79.0241 195.624 78.7098C197.802 79.0678 200.501 79.4366 201.791 77.4859C202.225 76.6622 202.344 75.936 202.149 75.3074C203.807 75.6544 205.574 75.7955 206.539 74.4625C206.973 73.6389 207.092 72.9127 206.691 72.1756C213.801 70.6592 220.89 70.1832 228.162 70.8562C228.683 70.8671 229.116 70.0434 228.499 69.7182C221.4 65.7178 213.152 61.9015 205.045 61.3151C203.278 61.174 201.512 61.0328 199.842 61.206C200.374 60.6967 200.287 59.8621 199.247 59.8403C194.987 59.4387 190.912 60.186 187.237 61.6704C187.562 61.0526 187.888 60.4349 188.213 59.8171C188.538 59.1994 188.029 58.6682 187.4 58.8632C184.712 57.9741 181.569 58.9491 178.826 60.6613C178.935 60.4554 179.043 60.2494 179.043 60.2494C179.369 59.6317 178.545 59.198 178.025 59.1871C175.521 59.4469 173.418 60.4438 171.825 61.9718C171.835 61.4516 171.326 60.9204 170.697 61.1154C168.291 61.6895 166.188 62.6864 164.801 64.3228C164.497 63.9001 164.086 63.6833 163.674 63.4664C161.398 62.7941 159.262 65.3518 157.647 67.9203C157.647 67.9203 157.647 67.9203 157.755 67.7144C157.875 66.9882 157.159 66.3486 156.52 67.0639C154.829 68.2776 153.658 69.5022 152.997 71.258C153.018 70.2175 152.52 69.166 151.274 69.0358C151.068 68.9274 150.959 69.1333 150.851 69.3392C150.526 69.957 150.2 70.5748 149.875 71.1925C149.886 70.6723 149.897 70.152 149.908 69.6318C149.919 69.1115 149.507 68.8947 149.084 69.1981C148.661 69.5015 148.445 69.9134 148.13 70.0109C148.499 67.3121 148.348 64.6024 147.882 61.9903C147.893 61.47 147.167 61.3507 146.95 61.7625L146.842 61.9685C147.2 59.7899 147.243 57.7089 145.704 56.6357C145.292 56.4189 145.086 56.3105 144.772 56.408C144.816 54.327 144.448 52.0291 142.909 50.9559C142.085 50.5223 141.456 50.7173 141.023 51.5409C140.546 49.449 139.755 47.4546 138.758 45.3518C138.661 45.0375 138.14 45.0265 137.924 45.4384C137.707 45.8502 137.598 46.0561 137.49 46.2621C136.818 43.5415 135.724 41.1243 134.109 38.6963C133.806 38.2735 133.177 38.4685 133.166 38.9888C133.155 39.509 133.036 40.2352 133.025 40.7554C132.234 38.761 130.912 37.276 128.961 35.9859C128.55 35.7691 128.127 36.0725 128.116 36.5928C128.213 36.9071 128.202 37.4274 128.3 37.7417C124.334 33.2865 118.351 30.6627 112.433 29.9141C111.913 29.9032 111.588 30.5209 111.891 30.9437C114.514 34.9543 117.45 38.8674 120.387 42.7806C119.661 42.6613 118.935 42.5419 118.1 42.6285C117.58 42.6176 117.461 43.3438 117.764 43.7665C119.195 45.0457 120.517 46.5308 121.741 47.7015C120.798 47.994 120.061 48.3949 120.039 49.4354C120.007 50.9962 122.163 52.3947 123.908 53.5763C123.28 53.7713 122.553 53.652 121.925 53.847C121.404 53.8361 120.765 54.5514 121.274 55.0825C122.911 56.4701 124.547 57.8576 126.184 59.2452C125.555 59.4402 124.926 59.6352 124.298 59.8302C123.875 60.1336 123.755 60.8598 124.167 61.0766C125.706 62.1499 127.56 63.1256 129.098 64.1988C128.47 64.3938 127.635 64.4804 127.007 64.6754C126.378 64.8705 126.259 65.5966 126.876 65.9219C128.209 66.8867 132.837 69.5861 132.696 71.3528C132.588 71.5587 132.685 71.873 132.577 72.079C132.165 71.8621 132.067 71.5478 131.655 71.331C131.244 71.1141 130.723 71.1032 130.507 71.5151C129.618 69.2063 128.535 66.2689 126.768 66.1278C125.521 65.9976 124.882 66.7128 124.654 67.6449C123.343 65.6396 122.032 63.6343 120.504 62.0408C120.2 61.618 119.572 61.8131 119.561 62.3333C119.55 62.8536 119.333 63.2654 119.214 63.9916C118.108 62.0947 116.299 59.0379 114.521 59.417C113.372 59.6012 112.939 60.4248 113.025 61.2594C111.085 59.4491 109.243 57.9531 106.664 56.8581C106.252 56.6413 105.515 57.0422 105.71 57.6709C105.807 57.9852 105.905 58.2995 106.111 58.4079C104.084 55.763 101.418 53.8334 97.9065 52.5106C97.7006 52.4022 97.2779 52.7056 97.3754 53.02C97.5704 53.6486 97.6679 53.963 97.8629 54.5916C95.3053 52.4561 92.314 51.1442 88.7806 50.8619C88.2604 50.851 87.9352 51.4688 88.2386 51.8915L89.1598 52.6395C82.2233 50.8285 74.1809 52.1173 67.6774 54.4792C67.0487 54.6742 67.3412 55.6172 67.7531 55.834C71.6765 57.3736 75.5998 58.9133 79.7291 60.5613C81.268 61.6345 83.3272 62.7186 85.2998 62.9682C84.7796 62.9573 84.3568 63.2607 83.8366 63.2498C83.2079 63.4448 83.2945 64.2794 83.7063 64.4962C85.2562 65.0492 86.6001 65.4938 88.0416 66.2527C87.1961 66.8595 86.8599 67.9975 87.5643 69.1573C88.4636 70.9458 92.2029 71.3365 95.0101 71.4995C94.7932 71.9113 94.468 72.5291 94.7605 73.4721C95.0421 74.9353 98.3696 75.1092 100.765 75.0553C100.656 75.2612 100.646 75.7815 100.743 76.0958C101.111 78.3936 105.176 78.1666 107.885 78.0152C107.56 78.633 107.235 79.2507 107.322 80.0853C107.311 80.6056 107.723 80.8224 108.037 80.7249C109.912 80.6601 111.787 80.5953 113.662 80.5305C113.445 80.9424 113.543 81.2567 113.64 81.571C114.551 82.8393 116.632 82.8829 118.507 82.8181C118.29 83.23 118.073 83.6418 118.062 84.1621C118.16 84.4764 118.463 84.8991 118.777 84.8016C119.926 84.6175 121.173 84.7478 122.322 84.5637C122.213 84.7696 122.213 84.7696 122.105 84.9755C120.945 85.6798 120.815 86.9263 121.627 87.8802C119.763 87.4247 117.791 87.1752 115.818 86.9256C115.298 86.9147 114.875 87.2181 115.07 87.8468C115.374 88.2695 115.569 88.8982 115.872 89.3209C113.596 88.6486 111.103 88.3882 108.599 88.648C108.079 88.6371 107.754 89.2548 108.057 89.6776C108.361 90.1003 108.773 90.3171 108.87 90.6315C106.475 90.6853 102.519 90.7065 102.475 92.7875C102.464 93.3078 102.659 93.9364 102.963 94.3592C99.9385 94.608 97.3264 95.0738 94.194 95.5286C93.5653 95.7236 93.6519 96.5581 94.1721 96.5691C95.1042 96.7968 96.0363 97.0245 96.9684 97.2523C92.7737 98.7258 88.8933 100.102 84.6985 101.575C84.0699 101.77 83.8421 102.702 84.5683 102.822C85.2945 102.941 85.9122 103.266 86.6384 103.386C83.5926 104.675 80.6443 106.279 77.9994 108.305C77.2623 108.706 78.0751 109.66 78.7037 109.465L80.6872 109.194C78.1507 111.015 75.9177 113.258 74.194 116.033C73.8687 116.65 74.584 117.29 75.0067 116.986C75.7438 116.585 76.5893 115.979 77.5323 115.686C72.936 121.419 69.987 128.019 68.0676 135.162C67.9483 135.888 68.6635 136.528 69.4006 136.127C73.5197 133.298 77.5412 130.156 81.5628 127.013C81.4434 127.739 81.3241 128.465 81.0964 129.397C80.8686 130.33 81.9957 131.186 82.6353 130.471C84.1204 129.149 85.497 128.032 86.5703 126.493C86.7762 126.602 86.9821 126.71 87.3939 126.927C89.7784 127.393 91.2853 125.031 92.3694 122.972C92.456 123.806 92.5426 124.641 92.4233 125.367C92.4124 125.887 93.236 126.321 93.6588 126.017C95.2523 124.489 96.7482 122.647 97.9299 120.902C98.1249 121.531 98.7426 121.856 99.3604 122.181C101.116 122.843 103.382 119.039 104.574 116.774C104.553 117.814 104.845 118.757 104.823 119.798C104.812 120.318 105.636 120.752 106.059 120.448C107.75 119.234 109.029 117.804 110.102 116.265C110.189 117.1 111.013 117.533 111.544 117.024C113.451 115.398 115.153 113.664 116.238 111.605C116.227 112.125 116.422 112.754 116.411 113.274C116.606 113.903 117.018 114.12 117.646 113.925C119.76 112.408 121.668 110.782 122.86 108.517C122.958 108.831 123.261 109.254 124.096 109.168C125.863 109.309 127.662 107.889 128.735 106.35C128.724 106.87 128.919 107.499 129.114 108.128C129.212 108.442 129.721 108.973 130.144 108.67C131.304 107.965 132.258 107.153 132.897 106.437C132.995 106.752 133.092 107.066 133.298 107.174C133.818 107.185 134.545 107.305 134.859 107.207C132.832 109.559 130.371 112.734 131.368 114.837C131.975 115.683 132.592 116.008 133.113 116.019C132.224 118.707 131.128 121.286 130.239 123.974C130.12 124.7 130.933 125.654 131.67 125.253C132.093 124.95 132.83 124.549 133.252 124.245C131.507 128.06 130.076 131.778 128.536 135.701C128.308 136.633 129.435 137.49 130.173 137.089C131.018 136.482 131.755 136.081 132.395 135.366C132.144 142.335 132.003 149.098 133.422 155.894C133.411 156.414 134.343 156.642 134.56 156.23C139.774 150.822 144.067 144.667 146.506 137.535C147.211 138.695 147.709 139.746 148.413 140.906C148.814 141.643 149.963 141.459 150.083 140.733C151.427 136.181 151.731 131.607 149.846 127.196C150.659 128.149 151.374 128.789 152.295 129.537C152.805 130.068 153.639 129.982 153.867 129.05C154.442 126.459 154.182 123.955 153.499 121.755C154.02 121.766 154.54 121.777 155.168 121.582C155.45 123.045 155.732 124.508 156.219 126.08C156.414 126.709 157.238 127.142 157.563 126.525C158.094 126.015 158.625 125.506 159.265 124.791C159.633 127.089 160.316 129.289 161.941 131.197C162.245 131.619 162.971 131.739 163.502 131.229C163.719 130.818 164.142 130.514 164.358 130.102C164.716 132.92 165.593 135.749 166.785 138.481C167.186 139.218 168.021 139.131 168.443 138.828C168.975 138.319 169.397 138.015 169.614 137.603C170.372 141.158 171.239 144.508 172.42 147.759C172.821 148.497 173.764 148.204 174.089 147.586C174.414 146.968 174.534 146.242 174.751 145.83C175.314 148.757 177.438 151.716 179.367 154.047C183.322 159.022 187.603 163.38 187.981 170.154C188.068 170.989 189 171.216 189.434 170.393C191.993 162.535 193.598 155.49 192.938 147.253C193.447 147.784 193.956 148.315 194.466 148.846C194.975 149.377 195.918 149.085 195.831 148.25C195.724 143.46 193.546 138.105 188.907 135.926C188.289 135.601 187.65 136.316 188.159 136.847C190.912 139.611 193.144 142.365 193.902 145.92C193.393 145.389 192.884 144.857 192.374 144.326C191.659 143.687 190.814 144.294 190.9 145.128C191.799 151.913 191.635 159.717 189.412 166.437C188.752 163.196 187.148 160.247 185.122 157.603C183.301 155.066 181.264 152.941 179.541 150.719C177.818 148.497 177.037 145.983 175.737 143.457L175.846 143.251C176.073 142.319 174.729 141.874 174.296 142.698C173.862 143.522 173.743 144.248 173.309 145.072C172.128 141.82 171.37 138.265 171.024 134.926C171.045 133.886 169.593 133.647 169.257 134.785C168.932 135.403 168.4 135.912 168.075 136.53C166.883 133.799 166.418 131.186 166.277 127.956C166.299 126.916 164.955 126.471 164.207 127.393C163.567 128.108 163.242 128.726 162.603 129.441C161.291 127.436 160.815 125.344 160.967 123.057C161.086 122.331 159.851 121.68 159.525 122.298C158.886 123.013 158.138 123.934 157.498 124.65C157.108 123.392 156.718 122.135 156.122 120.769C156.231 120.563 156.025 120.455 156.133 120.249C156.015 115.978 154.107 112.607 150.726 110.038C150.314 109.821 150.098 110.233 150.195 110.548C151.105 111.816 151.907 113.29 152.709 114.764C153.002 115.707 153.402 116.444 153.695 117.387C154.193 118.439 153.868 119.056 152.513 119.132C151.701 118.178 150.118 119.186 150.822 120.346C152.025 122.557 152.599 124.963 152.653 127.359C152.035 127.033 151.526 126.502 150.702 126.068C150.291 125.852 149.868 126.155 149.965 126.469C149.759 126.361 149.337 126.664 149.326 127.185C149.976 130.946 150.105 134.696 149.508 138.327C149.01 137.275 148.306 136.116 147.807 135.064C148.891 133.005 147.742 133.189 147.417 133.807C144.978 140.938 141.823 147.43 136.609 152.838C135.916 146.161 135.234 138.964 136.102 132.32C136.221 131.594 135.398 131.161 134.66 131.562C134.238 131.865 133.923 131.962 133.501 132.266C134.823 128.754 136.146 125.243 136.743 121.612C136.851 121.406 136.851 121.406 137.166 121.309C137.588 121.005 137.187 120.268 136.667 120.257C135.833 120.344 135.301 120.853 134.673 121.048C135.67 118.154 136.668 115.261 137.871 112.475C138.522 111.24 136.56 110.47 135.704 111.597C136.029 110.979 136.376 109.321 136.81 108.497C137.46 107.262 137.905 105.918 138.555 104.682C138.664 104.476 138.458 104.368 138.252 104.26C138.36 104.054 138.469 103.848 138.371 103.533C138.479 103.327 138.068 103.111 137.959 103.317C137.417 104.346 136.68 104.747 135.64 104.725C135.976 103.587 136.203 102.655 136.54 101.517C136.659 100.791 135.835 100.357 135.304 100.867C134.122 102.612 132.843 104.042 131.25 105.57C130.957 104.627 131.185 103.695 131.521 102.557C131.955 101.733 130.611 101.289 130.286 101.906C129.744 102.936 129.104 103.651 128.356 104.573C127.933 104.876 127.608 105.494 127.185 105.797C126.329 106.924 125.711 106.599 125.235 104.507C125.343 104.301 125.343 104.301 125.451 104.095C125.668 103.683 125.05 103.358 124.834 103.77C122.904 106.436 121.397 108.799 118.958 110.934C118.774 109.785 118.796 108.744 118.612 107.595C118.525 106.761 117.593 106.533 117.159 107.357C116.173 109.73 114.883 111.681 113.072 113.621C113.083 113.1 113.094 112.58 113.105 112.06C113.019 111.225 111.783 110.575 111.349 111.399C110.363 113.772 108.867 115.614 107.165 117.348C106.872 116.405 106.786 115.571 106.493 114.628C106.613 113.902 105.789 113.468 105.149 114.183C104.401 115.104 103.859 116.134 103.111 117.055C102.894 117.467 102.786 117.673 102.363 117.976C101.81 119.526 101.084 119.407 100.402 117.207C100.835 116.383 99.7081 115.527 99.1661 116.556C97.8651 119.027 96.2607 121.075 94.4504 123.015L94.3099 119.785C94.2233 118.951 93.2912 118.723 92.966 119.341C92.218 120.262 91.7844 121.086 91.0364 122.007C90.8195 122.419 90.7111 122.625 90.2884 122.928C89.8438 124.272 89.3236 124.261 88.6301 122.581C88.7385 122.375 88.641 122.061 88.641 122.061C88.8579 121.649 88.2401 121.324 87.8174 121.627C86.6357 123.372 85.3566 124.802 83.8715 126.125C83.9908 125.398 84.2077 124.987 84.327 124.26C84.5547 123.328 83.6335 122.58 82.788 123.187C78.7665 126.33 74.8534 129.267 70.8318 132.409C72.6319 125.993 75.4615 120.119 78.909 114.57C79.0174 114.364 79.0174 114.364 79.1258 114.158L79.2342 113.952C79.3426 113.746 79.1367 113.638 79.0283 113.844L78.8224 113.735C78.3996 114.039 77.8794 114.028 77.4566 114.331C79.4838 111.98 81.8143 110.051 84.3508 108.23C85.0879 107.829 84.5894 106.778 83.7549 106.864L81.7714 107.135C84.1994 105.52 86.9309 104.329 89.554 103.343C90.1827 103.148 90.4104 102.215 89.6842 102.096C88.958 101.977 88.2319 101.857 87.6141 101.532C91.4945 100.156 95.3749 98.7803 99.3637 97.1984C99.7865 96.895 99.7974 96.3747 99.3856 96.1579C98.7678 95.8326 98.2476 95.8217 97.6298 95.4965C100.134 95.2367 102.952 94.8794 105.466 94.0994C105.781 94.0019 105.9 93.2757 105.38 93.2648C105.38 93.2648 105.38 93.2648 105.488 93.0589C105.597 92.8529 105.597 92.8529 105.391 92.7445C106.139 91.8233 106.984 91.2165 108.231 91.3467C109.379 91.1626 109.9 91.1735 111.049 90.9894C111.569 91.0003 111.688 90.2742 111.385 89.8514C111.081 89.4287 110.669 89.2119 110.366 88.7891C112.761 88.7352 114.94 89.0932 117.422 89.8739C117.834 90.0907 118.473 89.3755 118.17 88.9527C117.975 88.3241 117.465 87.7929 117.27 87.1642C119.655 87.6306 122.039 88.097 124.12 88.1406C124.435 88.0431 124.543 87.8372 124.446 87.5229C124.142 87.1001 123.936 86.9917 123.427 86.4606C123.243 85.3116 123.46 84.8998 124.392 85.1275C124.912 85.1385 125.53 85.4637 126.05 85.4746C127.394 85.9192 128.835 86.6781 130.396 86.7108L130.504 86.5049C129.594 85.2366 127.936 84.8896 126.495 84.1307C125.877 83.8054 124.945 83.5777 124.219 83.4584C124.327 83.2525 124.435 83.0465 124.544 82.8406C124.761 82.4288 124.457 82.006 123.937 81.9951C122.896 81.9733 121.856 81.9515 120.707 82.1356C120.815 81.9297 120.924 81.7238 121.141 81.3119C121.563 81.0085 121.477 80.1739 120.751 80.0546C119.504 79.9244 118.464 79.9025 117.109 79.9782C116.48 80.1732 116.068 79.9564 115.765 79.5337C115.873 79.3277 115.873 79.3277 115.982 79.1218C116.816 79.0352 116.947 77.7888 115.906 77.767C114.866 77.7452 114.031 77.8318 112.99 77.81C112.47 77.7991 107.257 78.2102 111.148 76.314C111.885 75.9131 111.701 74.7641 110.867 74.8507C110.032 74.9373 109.197 75.0239 108.363 75.1105C107.843 75.0996 107.528 75.1971 107.008 75.1862C105.545 75.4678 104.407 75.1317 103.605 73.6575C103.605 73.6575 103.605 73.6575 103.811 73.7659C104.537 73.8852 104.667 72.6388 103.941 72.5195C103.941 72.5195 103.941 72.5195 103.735 72.4111C103.735 72.4111 103.529 72.3027 103.421 72.5086C103.421 72.5086 103.421 72.5086 103.215 72.4002C102.489 72.2809 101.448 72.259 100.722 72.1397C100.202 72.1288 99.6814 72.1179 99.1612 72.107C97.3836 72.4861 97.1886 71.8574 98.4677 70.4269C99.3023 70.3403 99.1182 69.1914 98.392 69.0721C96.9397 68.8334 95.6933 68.7032 94.2409 68.4646L92.7886 68.2259C91.1194 68.3991 90.5126 67.5536 90.9681 65.6894C91.6942 65.8088 91.8245 64.5623 91.0983 64.443C89.3425 63.7816 87.7927 63.2287 86.0369 62.5673C86.4597 62.2638 86.774 62.1663 87.1967 61.8629C87.1967 61.8629 87.4026 61.9713 87.5111 61.7654C87.717 61.8738 87.9338 61.462 87.7279 61.3536C87.8363 61.1476 87.8363 61.1476 87.6304 61.0392C86.6008 60.4972 85.4628 60.161 84.1189 59.7164C82.569 59.1635 81.236 58.1987 79.8921 57.7541C79.8921 57.7541 79.8921 57.7541 79.6861 57.6457C76.6949 56.3338 73.7036 55.0219 70.7123 53.7101C78.0395 51.7818 84.9002 52.2379 92.4763 53.3336C92.9965 53.3445 93.4302 52.5209 93.0183 52.304C92.509 51.7729 92.0972 51.5561 91.5878 51.0249C94.59 51.8165 96.9526 53.3234 99.3043 55.3505C99.7162 55.5674 100.345 55.3723 100.041 54.9496C99.6405 54.2125 99.5539 53.3779 99.1529 52.6409C102.036 54.1586 104.593 56.2942 106.934 58.8416C107.14 58.95 107.14 58.95 107.346 59.0584C107.346 59.0584 107.552 59.1668 107.444 59.3727C107.747 59.7955 108.278 59.2861 108.181 58.9718C108.181 58.9718 108.181 58.9718 108.083 58.6575C107.986 58.3431 107.997 57.8229 107.899 57.5086C110.468 59.1239 112.928 60.9451 114.748 63.4816C115.052 63.9043 115.474 63.6009 115.583 63.395C115.388 62.7663 115.193 62.1376 114.998 61.509C114.911 60.6744 115.865 59.8616 116.58 60.5012C118.119 61.5744 119.333 63.2654 119.712 65.043C120.124 65.2598 120.644 65.2707 120.655 64.7505C120.774 64.0243 120.785 63.504 121.111 62.8863C122.736 64.7941 124.047 66.7994 125.142 69.2166C125.445 69.6393 126.28 69.5527 126.291 69.0325C126.128 66.843 127.678 67.396 128.48 68.8702C129.076 70.2359 129.878 71.7101 130.474 73.0758C130.777 73.4986 131.503 73.6179 131.623 72.8917C131.731 72.6858 131.742 72.1656 131.85 71.9596C133.378 73.5531 134.278 75.3416 135.275 77.4444C135.372 77.7588 136.001 77.5638 135.903 77.2494C135.828 75.8946 135.438 74.6373 134.733 73.4774C135.048 73.3799 134.95 73.0656 134.744 72.9572C134.56 71.8083 134.268 70.8653 134.083 69.7163C134.192 69.5104 134.3 69.3045 134.094 69.1961C132.252 67.7001 130.616 66.3126 128.773 64.8166C129.608 64.73 130.551 64.4375 131.385 64.3509C132.014 64.1559 132.133 63.4297 131.516 63.1045C129.977 62.0312 128.329 61.1639 126.79 60.0907C127.311 60.1016 127.625 60.0041 128.145 60.015C129.077 60.2427 129.413 59.1047 128.904 58.5736C127.062 57.0776 125.425 55.69 123.583 54.1941C124.418 54.1075 125.252 54.0209 125.772 54.0318C126.607 53.9452 126.835 53.0131 126.217 52.6878C125.502 52.0483 124.678 51.6146 123.963 50.975C122.619 50.5305 122.326 49.5875 122.879 48.0376C123.4 48.0485 123.833 47.2249 123.53 46.8021C122.305 45.6314 121.081 44.4606 119.65 43.1815C120.17 43.1924 120.582 43.4092 121.102 43.4201C121.308 43.5286 121.406 43.8429 121.612 43.9513C121.818 44.0597 121.926 43.8538 121.926 43.8538C121.72 43.7454 121.829 43.5395 121.623 43.4311C121.731 43.2251 121.731 43.2251 121.634 42.9108C121.536 42.5965 121.124 42.3796 120.918 42.2712C118.502 38.369 116.085 34.4668 113.463 30.4561C119.37 31.7251 123.781 34.8363 128.278 38.7822C128.582 39.2049 129.319 38.804 129.33 38.2838C129.34 37.7635 129.145 37.1348 129.156 36.6146C130.793 38.0021 131.692 39.7906 132.483 41.785C132.787 42.2078 133.307 42.2187 133.318 41.6984C133.437 40.9723 133.556 40.2461 133.676 39.5199C135.279 42.4683 136.254 45.6116 136.915 48.8524C137.013 49.1667 137.533 49.1777 137.435 48.8633C137.338 48.549 137.349 48.0287 137.251 47.7144C137.284 46.1536 137.609 45.5359 138.584 48.6792C139.278 50.3593 139.451 52.0285 139.83 53.806C139.928 54.1204 140.134 54.2288 140.339 54.3372C140.567 53.4051 140.686 52.6789 141.012 52.0612C141.12 51.8553 141.326 51.9637 141.532 52.0721C142.041 52.6033 142.128 53.4378 142.529 54.1749C142.832 54.5977 142.93 54.912 142.713 55.3238C142.8 56.1584 142.886 56.993 142.767 57.7192L142.864 58.0335C142.864 58.0335 142.756 58.2394 142.962 58.3478C143.157 58.9765 143.991 58.8899 144.111 58.1637C144.111 58.1637 144.111 58.1637 144.219 57.9578C145.466 58.088 145.769 58.5108 145.324 59.8547C145.086 61.3071 145.161 62.6619 144.923 64.1142C144.912 64.6345 145.638 64.7538 145.855 64.342C146.18 63.7242 146.397 63.3124 146.722 62.6946C147.188 65.3068 146.927 67.7996 146.353 70.39C146.342 70.9102 146.754 71.1271 147.176 70.8236C147.599 70.5202 147.924 69.9025 148.347 69.599C148.39 72.5146 147.804 75.6252 146.807 78.519C146.59 78.9308 147.316 79.0502 147.533 78.6383C148.194 76.8826 148.747 75.3327 148.889 73.566C149.539 72.3305 149.778 70.8782 150.32 69.8486C150.537 69.4367 150.645 69.2308 150.862 68.819C150.97 68.6131 150.937 70.1738 150.829 70.3797C150.601 71.3118 150.796 71.9405 150.883 72.7751L151.089 72.8835C150.98 73.0894 150.98 73.0894 151.078 73.4038C151.067 73.924 151.793 74.0433 152.01 73.6315C152.78 71.6698 153.756 69.8165 155.241 68.4944C155.121 69.2206 155.11 69.7408 154.785 70.3586C154.557 71.2907 155.695 71.6268 156.227 71.1175C157.083 69.9904 158.048 68.6574 158.904 67.5303C159.121 67.1184 159.544 66.815 159.761 66.4032C160.314 64.8533 161.148 64.7667 162.481 65.7315L162.373 65.9375C161.939 66.7611 162.86 67.5091 163.706 66.9023C164.237 66.3929 164.562 65.7752 164.779 65.3633C165.961 63.6185 167.543 62.6107 169.429 62.0257C169.418 62.5459 169.201 62.9578 169.082 63.6839C168.854 64.616 169.884 65.1581 170.524 64.4428C172.03 62.0802 174.242 60.8774 176.756 60.0974L176.648 60.3033C176.54 60.5092 176.843 60.932 177.049 61.0404C177.255 61.1488 177.461 61.2572 177.461 61.2572C180.398 60.1737 183.13 58.9819 186.37 58.3211C185.937 59.1448 185.503 59.9685 185.069 60.7922C184.744 61.4099 185.351 62.2554 186.088 61.8545C189.557 60.2617 193.112 59.5035 196.862 59.3739C196.862 59.3739 196.754 59.5798 196.548 59.4714C195.811 59.8723 196.201 61.1297 197.035 61.0431C207.039 60.5242 215.807 64.3514 224.261 68.2761C217.812 68.0368 211.558 68.4261 205.282 69.856C204.448 69.9426 204.523 71.2974 205.25 71.4167C204.187 72.4354 202.93 72.8254 201.694 72.1749C201.174 72.164 200.968 72.0556 200.448 72.0447C199.407 72.0229 199.277 73.2693 200.101 73.703C198.811 75.6537 197.337 76.4556 195.581 75.7942C195.061 75.7833 194.54 75.7724 194.129 75.5556C193.402 75.4362 193.066 76.5743 193.37 76.997C193.673 77.4197 194.182 77.9509 194.594 78.1677C192.925 78.3409 191.267 77.9939 189.923 77.5493C189.717 77.4409 189.305 77.2241 188.785 77.2132C188.785 77.2132 188.785 77.2132 188.579 77.1047C188.373 76.9963 188.373 76.9963 188.167 76.8879C187.755 76.6711 187.43 77.2888 187.734 77.7116C187.517 78.1234 187.82 78.5462 188.34 78.5571C190.931 79.1319 186.552 79.4564 186.032 79.4455C184.677 79.5212 183.333 79.0767 182.086 78.9464C181.154 78.7187 180.612 79.7483 181.328 80.3879C181.923 81.7536 181.598 82.3714 180.363 81.7209C179.322 81.6991 178.282 81.6773 177.241 81.6554C176.721 81.6445 176.396 82.2623 176.591 82.891C177.88 85.9368 172.309 83.5299 172.103 83.4214C171.692 83.2046 171.475 83.6165 171.572 83.9308C172.689 85.3074 174.325 86.695 176.319 85.904L176.634 85.8065L176.84 85.915C178.4 85.9477 179.961 85.9804 181.522 86.0131C181.197 86.6309 180.46 87.0318 179.722 87.4327C179.614 87.6387 179.506 87.8446 179.712 87.953L179.917 88.0614C180.329 88.2782 180.85 88.2892 181.272 87.9857C181.272 87.9857 181.478 88.0941 181.587 87.8882C183.364 87.5091 184.925 87.5418 186.583 87.8889C186.475 88.0948 186.475 88.0948 186.366 88.3007C186.041 88.9185 186.442 89.6556 187.277 89.569C187.591 89.4715 194.788 88.7896 194.029 90.231C193.921 90.4369 193.91 90.9572 194.43 90.9681C194.43 90.9681 194.636 91.0765 194.744 90.8706C194.95 90.979 195.059 90.7731 195.373 90.6756C196.923 91.2286 198.581 91.5756 200.239 91.9227C200.023 92.3345 199.903 93.0607 200.629 93.18C202.494 93.6355 204.661 94.5137 206.634 94.7633C205.702 94.5355 205.777 95.8904 206.395 96.2156C208.151 96.877 210.004 97.8527 211.76 98.5141C211.651 98.72 211.446 98.6116 211.337 98.8175C210.709 99.0125 211.001 99.9555 211.727 100.075C214.014 100.227 215.661 101.094 217.189 102.688C216.875 102.785 216.875 102.785 216.561 102.883C216.246 102.98 216.127 103.706 216.647 103.717C216.647 103.717 216.853 103.826 216.962 103.62C216.853 103.826 216.951 104.14 217.265 104.043C219.747 104.823 221.904 106.222 223.529 108.13L223.323 108.021C222.803 108.01 222.684 108.736 223.096 108.953C224.331 109.604 225.567 110.254 226.694 111.111C226.694 111.111 228.926 113.864 227.788 113.528C227.376 113.311 227.051 113.929 227.355 114.351C227.864 114.883 231.115 118.698 230.28 118.785C230.074 118.676 230.172 118.991 230.172 118.991C230.378 119.099 230.584 119.208 230.79 119.316C231.18 120.573 231.57 121.831 231.754 122.98C232.144 124.237 233.758 126.665 232.122 125.277C231.71 125.061 231.287 125.364 231.385 125.678C232.62 131.325 232.706 137.157 232.694 142.673C232.792 142.988 232.998 143.096 233.214 142.684C234.364 137.504 233.747 132.182 232.404 126.741Z" fill="white"/>
<path d="M125.633 120.234C126.1 117.849 126.143 115.768 126.816 113.492C127.607 110.49 129.32 108.236 130.827 105.873C131.044 105.461 130.534 104.93 130.112 105.234C126.73 107.661 124.323 113.232 124.333 117.708C123.932 116.971 123.217 116.332 122.501 115.692C122.198 115.269 121.363 115.356 121.038 115.974C118.762 120.298 117.319 124.536 116.701 129.207C116.398 128.784 116.203 128.156 115.899 127.733C115.498 126.996 114.555 127.288 114.338 127.7C111.758 131.602 110.739 135.536 110.543 139.904C110.034 139.373 109.525 138.841 108.918 137.996C108.614 137.573 107.78 137.66 107.454 138.278C105.601 142.298 104.581 146.233 104.494 150.395C103.985 149.864 103.269 149.224 102.868 148.487C102.565 148.064 101.73 148.151 101.405 148.769C99.9739 152.486 99.063 156.214 98.8782 160.062C98.5748 159.639 98.3798 159.011 98.0763 158.588C97.6754 157.851 96.7324 158.143 96.5156 158.555C94.781 161.85 93.4582 165.361 92.97 168.786C92.775 168.158 91.637 167.822 91.3117 168.439C88.8509 171.615 87.1163 174.909 86.2054 178.638C85.9129 177.695 84.6664 177.564 84.2328 178.388C82.0863 181.466 80.666 184.663 79.6576 188.077C79.6685 187.557 79.3651 187.134 79.376 186.614C79.0835 185.671 77.8371 185.541 77.6093 186.473C75.4301 191.112 73.045 195.642 71.2777 200.497C70.9743 200.074 70.6708 199.652 70.1615 199.121C69.6522 198.589 68.8176 198.676 68.2864 199.185C66.5845 200.919 65.2945 202.87 64.0044 204.821C59.8642 203.693 53.9785 206.38 52.7532 210.206C52.6448 210.412 52.8507 210.52 53.0566 210.629C57.4355 210.304 60.5577 205.373 65.272 208.907C66.3991 209.764 67.0059 210.609 68.2414 211.26C70.1922 212.55 73.986 210.339 75.167 213.591C75.2645 213.905 75.9907 214.024 76.0016 213.504C76.2402 212.052 75.7418 211 74.3004 210.241C72.0352 209.049 70.4527 210.057 68.4262 207.412C67.8194 206.566 67.31 206.035 66.4863 205.602C67.1368 204.366 67.9932 203.239 69.0555 202.22C69.2506 202.849 69.7599 203.38 69.9549 204.009C70.1281 205.678 72.6428 204.898 72.4696 203.229C72.3721 202.914 72.383 202.394 72.2855 202.08C74.6597 198.07 76.5136 194.049 78.476 189.822C78.5626 190.657 78.8551 191.6 79.0501 192.228C79.3426 193.171 80.9033 193.204 81.1311 192.272C81.9445 188.229 83.4732 184.826 85.3163 181.326C85.5113 181.954 85.7063 182.583 85.9013 183.212C86.2913 184.469 87.863 183.981 87.9932 182.735C88.3948 178.475 89.6201 174.65 91.9834 171.16C92.2759 172.103 92.6768 172.84 93.0777 173.577C93.2727 174.206 94.5301 173.816 94.3351 173.187C94.2376 172.873 94.2485 172.352 94.151 172.038C94.6501 168.093 95.6694 164.159 97.5125 160.658C98.0109 161.709 98.6177 162.555 99.1162 163.606C99.5171 164.343 100.774 163.953 100.688 163.119C100.775 158.957 101.383 154.806 102.716 150.774C103.529 151.728 104.244 152.367 105.057 153.321C105.566 153.852 106.618 153.354 106.531 152.519C106.413 148.249 107.02 144.098 108.874 140.077L111.215 142.624C111.724 143.156 112.776 142.657 112.689 141.823C112.473 137.238 113.286 133.195 115.552 129.391C115.953 130.128 116.56 130.974 116.961 131.711C117.568 132.556 118.413 131.949 118.532 131.223C118.847 126.129 120.192 121.577 122.371 116.938C123.184 117.892 123.682 118.944 124.072 120.201C124.365 121.144 125.514 120.96 125.742 120.028C125.416 120.646 125.731 120.548 125.633 120.234Z" fill="white"/>
<path d="M120.517 210.378C115.412 210.583 110.513 210.897 105.408 211.102C110.903 207.158 114.86 202.14 118.319 196.071C118.644 195.453 117.929 194.814 117.397 195.323C112.4 200.319 102.493 201.152 96.575 205.4C97.9735 203.243 99.166 200.978 100.467 198.507C100.901 197.684 100.088 196.73 99.3508 197.131C98.9281 197.434 98.4078 197.423 97.9851 197.726C100.229 194.963 101.855 191.874 103.384 188.471C103.818 187.647 103.005 186.693 102.062 186.986C104.62 184.125 106.355 180.83 107.58 177.004C107.699 176.278 106.984 175.639 106.355 175.834C109.109 173.601 111.255 170.523 112.784 167.12C113.109 166.502 112.708 165.765 111.874 165.852C111.353 165.841 110.725 166.036 110.204 166.025C113.066 163.587 115.83 160.834 118.085 157.55C118.302 157.139 118.01 156.196 117.489 156.185C116.763 156.065 115.831 155.838 114.996 155.924C118.378 153.497 121.154 150.224 123.311 146.626C123.528 146.214 123.235 145.271 122.715 145.26L120.222 145C123.713 142.366 126.488 139.093 128.136 134.964C128.461 134.346 128.06 133.609 127.225 133.696C126.705 133.685 126.076 133.88 125.556 133.869C129.058 130.716 131.941 127.237 134.012 122.804C134.337 122.186 134.034 121.764 133.416 121.438C132.484 121.211 131.443 121.189 130.717 121.069C132.722 119.758 134.435 117.504 135.834 115.347C135.541 114.404 135.357 113.255 135.379 112.215C134.62 113.656 133.959 115.412 132.788 116.637C131.292 118.479 129.287 119.79 127.899 121.427C127.791 121.633 127.791 121.633 127.682 121.839C127.151 122.348 127.541 123.605 128.484 123.313C129.535 122.814 130.89 122.739 132.137 122.869C129.546 127.291 126.554 130.975 122.532 134.118C122.001 134.627 122.185 135.776 123.02 135.69C123.854 135.603 124.895 135.625 125.729 135.538C123.67 139.451 121.003 142.518 117.101 144.934C116.364 145.335 116.548 146.484 117.274 146.603L120.699 147.092C118.335 150.581 115.463 153.54 111.767 156.065C111.029 156.466 111.214 157.615 111.94 157.734C113.186 157.864 114.118 158.092 115.365 158.222C112.795 161.603 110.031 164.356 106.335 166.881C105.598 167.282 105.879 168.745 106.822 168.453C107.971 168.268 109.012 168.29 110.161 168.106C108.318 171.607 105.651 174.674 102.681 177.318C102.367 177.416 101.944 177.719 101.63 177.816C101.001 178.011 101.391 179.269 102.02 179.074C102.854 178.987 103.797 178.695 104.632 178.608C103.092 182.531 100.631 185.707 97.3468 188.449C96.3929 189.261 96.9889 190.627 98.1378 190.443C98.7665 190.248 99.3951 190.053 100.024 189.858C98.3867 193.467 96.2402 196.545 93.3676 199.503C92.728 200.219 93.324 201.584 94.5813 201.194C95.3184 200.793 96.2614 200.501 96.89 200.306C94.5158 204.316 92.0441 208.012 90.2877 212.347C89.9734 212.444 89.659 212.542 89.2363 212.845C87.8705 213.441 88.4447 215.847 90.0163 215.36C90.645 215.165 91.3712 215.284 91.9998 215.089C91.6637 216.227 91.3275 217.365 90.7855 218.395C90.5795 218.286 90.0593 218.275 89.8534 218.167C87.6749 217.809 80.1854 217.548 79.3079 214.719C79.1129 214.09 78.1808 213.862 78.0614 214.589L77.8446 215C77.7362 215.206 77.9421 215.315 77.9421 215.315C77.5303 215.098 78.7222 217.829 78.6247 217.515C80.0552 218.794 81.3991 219.239 83.2633 219.694C85.6477 220.161 88.2381 220.736 90.8284 221.31C95.283 222.341 99.3257 223.154 100.257 228.378C100.246 228.899 101.178 229.126 101.298 228.4C101.428 227.154 101.45 226.113 101.374 224.758C105.308 225.778 109.08 224.608 112.766 222.603C113.503 222.202 113.21 221.259 112.798 221.042C111.671 220.186 110.436 219.535 109.092 219.091C113.601 217.52 117.611 214.897 120.809 211.321C121.644 211.235 121.243 210.497 120.517 210.378ZM104.312 218.678C102.849 218.96 102.914 220.835 104.474 220.868C106.761 221.02 108.831 221.584 110.999 222.462C108.159 223.86 104.929 224 101.504 223.512C101.114 222.255 100.095 221.192 98.9684 220.336C97.9388 219.794 96.8008 219.458 95.6627 219.122C97.4512 218.222 99.2397 217.323 100.92 216.629C102.286 216.033 103.749 215.752 105.418 215.579C106.567 215.395 107.813 215.525 108.865 215.026L108.973 214.82C106.925 213.216 102.849 213.963 100.443 214.537C98.0369 215.112 96.0316 216.423 94.3297 218.157C94.6659 217.019 95.0995 216.195 95.4357 215.057C96.8123 213.941 97.8746 212.922 99.2513 211.806C101.582 209.877 104.01 208.262 106.644 206.756C106.752 206.55 106.752 206.55 106.546 206.442C102.883 207.406 98.3628 209.497 95.6961 212.564C95.5986 212.25 95.1868 212.033 94.7749 211.816C94.569 211.708 94.569 211.708 94.4606 211.914C99.404 204.522 109.191 204.415 115.543 199.344C112.421 204.275 107.966 208.241 103.012 211.156C102.59 211.46 102.676 212.294 103.402 212.414C108.507 212.208 113.504 212.209 118.609 212.004C114.577 215.667 109.742 217.855 104.312 218.678Z" fill="white"/>
<path d="M90.4188 196.11C89.1833 195.46 87.6443 194.386 86.0836 194.354C84.6312 194.115 83.7639 195.762 84.7826 196.825C85.8013 197.887 87.4486 198.754 88.6842 199.405C90.7434 200.489 92.478 197.194 90.4188 196.11Z" fill="white"/>
<path d="M93.1411 185.445C92.4149 185.326 91.6887 185.207 90.9626 185.088C90.2364 184.968 89.2934 185.261 89.38 186.095C89.5641 187.244 91.0055 188.003 91.8292 188.437C92.6529 188.87 93.5959 188.578 94.0295 187.754C94.9834 186.941 94.2791 185.782 93.1411 185.445Z" fill="white"/>
<path d="M99.0926 174.64C98.269 174.206 97.5428 174.087 96.8057 174.488C96.383 174.791 96.0577 175.409 96.2527 176.038C96.5453 176.981 97.163 177.306 98.0951 177.534C98.7129 177.859 99.5584 177.252 99.8836 176.634C100.209 176.017 100.025 174.868 99.0926 174.64Z" fill="white"/>
<path d="M105.349 164.258C104.731 163.933 104.005 163.813 103.376 164.008C102.748 164.203 102.422 164.821 102.617 165.45C103.018 166.187 103.528 166.718 104.46 166.946C105.186 167.065 105.815 166.87 106.14 166.252C106.259 165.526 105.858 164.789 105.349 164.258Z" fill="white"/>
<path d="M109.696 155.501C109.804 155.295 109.913 155.089 109.815 154.774C109.826 154.254 109.414 154.037 109.002 153.82C107.658 153.376 107.3 155.554 108.438 155.891C108.644 155.999 108.753 155.793 108.959 155.901C109.273 155.804 109.587 155.706 109.696 155.501Z" fill="white"/>
<path d="M85.1389 209.636C84.7598 207.858 83.004 207.197 81.2483 206.536C80.6305 206.21 78.3545 205.538 78.3218 207.099C78.1915 208.345 79.8389 209.213 80.5541 209.852C81.7896 210.503 82.9167 211.359 84.4884 210.871C85.1171 210.676 85.128 210.156 85.1389 209.636Z" fill="white"/>
</svg>
