<svg width="15" height="15" viewBox="0 0 15 15" fill="none" xmlns="http://www.w3.org/2000/svg">
<path fill-rule="evenodd" clip-rule="evenodd" d="M2.34468 0.32943C2.22823 0.429532 2.1955 0.510935 2.17568 0.750082L2.15111 1.0466L1.7656 1.06605C1.27615 1.09077 0.937762 1.2816 0.699038 1.66751L0.537755 1.92829L0.523737 7.65684C0.508014 14.071 0.486963 13.7002 0.889421 14.1024C1.28586 14.4987 1.07181 14.4827 5.97699 14.4827C10.8123 14.4827 10.6408 14.4941 11.0021 14.1474C11.1001 14.0535 11.232 13.8807 11.2955 13.7635C11.4063 13.5584 11.4113 13.4793 11.4277 11.6725C11.437 10.6396 11.4287 9.79457 11.4093 9.79457C11.3898 9.79457 10.7707 10.4075 10.0336 11.1566C9.29649 11.9057 8.589 12.5876 8.46146 12.6721C8.11022 12.9047 6.31182 13.4883 5.94757 13.488C5.26535 13.4873 4.66809 12.8495 4.73114 12.1888L4.75117 11.9788H3.62012C2.51092 11.9788 2.4863 11.9764 2.34399 11.854C2.14492 11.6829 2.14492 11.4224 2.34399 11.2512C2.48736 11.1279 2.50415 11.1264 3.75934 11.1264H5.02961L5.16216 10.7291C5.23507 10.5106 5.28171 10.3188 5.26583 10.3029C5.24994 10.287 4.61926 10.274 3.86439 10.274C3.10952 10.274 2.45304 10.2591 2.40561 10.241C2.35812 10.2227 2.28233 10.1364 2.23713 10.049C2.16955 9.91833 2.16646 9.86244 2.21975 9.73378C2.25541 9.6478 2.32768 9.55436 2.38034 9.52618C2.43583 9.4965 3.17529 9.47493 4.13595 9.47493H5.79578L6.19147 9.09109C6.40908 8.87996 6.58716 8.68818 6.58716 8.6649C6.58716 8.64161 5.67687 8.62254 4.56431 8.62254C3.16591 8.62254 2.50037 8.60384 2.40838 8.56192C2.2294 8.48041 2.14247 8.22773 2.23036 8.04457C2.36031 7.77373 2.38109 7.7717 5.04149 7.77192L7.51988 7.77208L9.48426 5.78666L11.4486 3.80124L11.4269 2.89559C11.4073 2.08065 11.3929 1.96659 11.2835 1.7568C11.0354 1.28128 10.6586 1.06067 10.0915 1.0588L9.73178 1.05763V0.814383C9.73178 0.430544 9.57135 0.21015 9.28967 0.206953C9.20082 0.205941 9.08782 0.258043 9.00985 0.336036C8.9024 0.443383 8.879 0.519565 8.879 0.762228V1.05763H8.45261H8.02622V0.741877C8.02622 0.46416 8.00927 0.412751 7.88578 0.315685C7.70835 0.176161 7.54547 0.175521 7.3698 0.313608C7.25494 0.403907 7.2293 0.47279 7.21603 0.726481L7.20009 1.031L6.79358 1.04644L6.38707 1.06189L6.36325 0.732182C6.33655 0.363739 6.21225 0.203863 5.95498 0.206953C5.68166 0.210256 5.52118 0.434966 5.52118 0.814383V1.05763H5.1289H4.73663L4.70518 0.751307C4.6805 0.510242 4.64421 0.419463 4.53489 0.325115C4.35415 0.169182 4.16276 0.173071 3.99977 0.336036C3.89232 0.443383 3.86892 0.519565 3.86892 0.762228V1.05763H3.44253H3.01614V0.762228C3.01614 0.519565 2.99275 0.443383 2.8853 0.336036C2.72098 0.171739 2.53075 0.169395 2.34468 0.32943ZM13.1867 3.47398C13.0495 3.51202 12.854 3.60653 12.7524 3.68404C12.5734 3.82053 11.5843 4.85554 11.5571 4.93491C11.5497 4.95649 11.9349 5.36468 12.413 5.84196L13.2824 6.70979L13.9503 6.02511C14.6544 5.30325 14.7981 5.06538 14.7928 4.63083C14.7829 3.82357 13.9887 3.25156 13.1867 3.47398ZM5.92961 4.54585C5.99144 4.58911 6.05721 4.68522 6.07586 4.75938C6.11482 4.91456 5.99538 5.18328 5.86523 5.2332C5.72233 5.28801 2.48523 5.27113 2.38034 5.21503C2.32768 5.18685 2.25541 5.0934 2.21975 5.00742C2.16635 4.8785 2.16955 4.82283 2.23799 4.69055C2.28366 4.60227 2.35151 4.51783 2.38876 4.50281C2.42602 4.48784 3.21265 4.47367 4.13685 4.47138C5.53738 4.46786 5.83597 4.48027 5.92961 4.54585ZM8.9452 7.51753L7.01323 9.44914L7.89297 10.3273L8.77272 11.2054L10.7178 9.26183L12.6629 7.31818L11.7975 6.45205C11.3216 5.97568 10.9198 5.58592 10.9047 5.58592C10.8895 5.58592 10.0078 6.45514 8.9452 7.51753ZM7.68218 6.24945C7.91818 6.4853 7.80876 6.86407 7.48124 6.94505C7.41457 6.96151 6.25137 6.96812 4.89636 6.9597C2.44084 6.94446 2.43236 6.94404 2.3158 6.82753C2.14791 6.65961 2.16038 6.40128 2.34399 6.24343L2.48913 6.11866H5.02023H7.55138L7.68218 6.24945ZM6.27477 10.1968C6.14073 10.3671 5.57448 12.0527 5.57448 12.2813C5.57448 12.4611 5.77313 12.6714 5.9431 12.6714C6.13891 12.6714 7.94377 12.028 8.06353 11.9155L8.18969 11.7971L7.32241 10.929C6.84539 10.4515 6.43861 10.0609 6.41841 10.0609C6.39821 10.0609 6.33356 10.1221 6.27477 10.1968Z" fill="white"/>
</svg>
