<svg width="201" height="191" viewBox="0 0 201 191" fill="none" xmlns="http://www.w3.org/2000/svg">
<path d="M199.313 72.1944C199.006 70.6601 198.085 69.4326 196.858 68.512C191.334 65.1364 183.662 67.2845 177.525 67.8983C168.932 68.8189 160.033 69.1257 151.441 69.4326C143.769 69.7395 133.642 71.2738 126.277 67.8983C120.754 62.0677 119.219 51.941 117.071 44.5761C114.616 36.2906 112.468 27.6982 110.627 19.4127C109.399 13.2753 109.093 5.6035 104.183 1.30731C102.955 0.386697 101.421 -0.227045 99.8865 0.0798261C98.3521 0.0798261 96.8177 0.386697 95.5902 1.30731C90.6803 5.6035 90.3734 13.2753 89.1459 19.4127C87.3047 28.0051 85.1566 36.2906 82.7017 44.5761C80.5536 51.941 79.0192 62.0677 73.4955 67.8983C66.1306 71.2738 56.3107 69.7395 48.3321 69.4326C39.7397 69.1257 30.8405 68.8189 22.2481 67.8983C16.1107 67.2845 8.74582 65.1364 2.91528 68.512C1.38093 69.4326 0.767177 70.6601 0.460306 72.1944C-0.153435 73.4219 -0.153435 74.9563 0.460306 76.4906C2.91527 82.6281 10.2802 85.083 15.497 88.4586C22.8619 92.7548 30.2267 97.6647 37.5916 102.575C44.0359 106.871 52.9352 111.474 56.9245 118.532C57.8451 126.511 53.2421 135.717 50.7871 143.082C47.7184 151.367 44.6497 159.346 41.2741 167.324C38.8192 172.848 34.5229 179.292 36.0573 185.737C36.3642 187.271 37.2848 188.498 38.8191 189.419C40.0466 190.34 41.2741 190.953 43.1153 190.953C49.5596 190.34 54.4695 184.202 59.0726 180.213C65.5169 174.382 72.268 168.859 79.3261 163.642C85.4635 158.732 92.8284 151.674 100.5 150.14C108.479 151.674 115.537 158.732 121.674 163.642C128.425 168.859 135.177 174.382 141.928 180.213C146.531 184.202 151.441 190.34 157.885 190.953C159.419 190.953 160.954 190.647 162.181 189.419C163.409 188.805 164.329 187.578 164.943 185.737C166.477 179.292 162.181 172.848 159.726 167.324C156.351 159.346 152.975 151.367 150.213 143.082C147.451 135.717 143.155 126.817 144.076 118.532C148.065 111.474 156.964 106.871 163.409 102.575C170.467 97.6647 177.832 93.0617 185.503 88.4586C190.72 85.3899 198.085 82.6281 200.54 76.4906C199.926 75.2632 199.926 73.7288 199.313 72.1944ZM178.445 87.538C171.694 91.5273 164.943 96.1304 158.499 100.427C154.202 103.495 141.621 110.246 139.473 117.304C137.018 124.362 143.155 137.251 144.996 142.161C147.451 149.833 150.52 157.198 153.589 164.563C155.737 169.472 163.716 181.44 159.726 186.964C153.282 188.805 144.383 177.451 140.393 174.076C134.256 168.859 128.118 163.949 121.674 159.039C117.685 155.97 107.251 146.15 99.5796 146.15C92.2147 146.15 81.781 155.97 77.4848 159.039C71.0405 163.949 64.9032 168.859 58.7657 174.076C54.7764 177.451 45.8772 188.805 39.4329 186.964C35.7504 181.44 43.7291 169.472 45.5703 164.563C48.639 157.198 51.4008 149.833 54.1627 142.161C55.697 137.251 61.8345 124.362 59.6864 117.304C57.5383 110.246 44.9565 103.188 40.6603 100.427C34.2161 95.8235 27.4649 91.5273 20.7137 87.538C16.1107 84.7762 2.91526 79.8662 2.60839 73.1151C6.59771 67.8983 20.4069 71.5807 25.6237 72.1944C33.6023 72.8082 41.581 73.4219 49.5596 73.4219C54.7764 73.4219 68.8925 75.2632 75.0299 70.967C81.1673 66.6708 83.6222 52.5547 85.1566 47.6448C87.6116 39.973 89.4528 32.3013 91.294 24.6295C92.5215 19.4127 93.1353 5.29663 99.2727 2.84166C105.717 4.98976 106.024 19.4127 107.251 24.6295C109.093 32.3013 111.241 39.973 113.389 47.6448C114.923 52.5547 117.378 66.6708 123.515 70.967C129.653 75.2632 143.769 73.4219 148.986 73.4219C156.964 73.4219 164.943 72.8082 172.922 72.1944C178.138 71.8876 191.948 67.8983 195.937 73.1151C196.244 79.8662 183.048 84.7762 178.445 87.538Z" fill="#474C54"/>
<path d="M99.2724 70.66C99.2724 70.9669 99.8862 70.9669 99.8862 70.66C102.034 60.8402 101.421 50.4065 101.421 40.2798C101.421 29.5393 101.727 18.1851 99.2724 7.75151C99.2724 7.44464 98.6587 7.44464 98.3519 7.75151C96.2038 17.5714 96.8175 28.005 96.8175 38.1317C97.1243 48.8722 96.5106 59.9195 99.2724 70.66Z" fill="#474C54"/>
<path d="M190.106 74.3425C179.365 75.8769 169.239 79.2525 159.112 82.6281C148.985 85.6968 137.938 88.4586 128.732 93.3685C128.118 93.6754 128.425 94.596 129.039 94.596C139.472 93.6754 150.213 89.3792 160.339 86.3105C170.773 83.2418 181.207 80.48 190.72 75.57C191.333 75.2632 190.72 74.3425 190.106 74.3425Z" fill="#474C54"/>
<path d="M112.161 124.056C119.833 143.388 135.483 159.039 149.599 173.769C149.906 174.075 150.213 173.769 149.906 173.462C137.324 157.198 127.198 138.172 113.081 123.442C112.775 123.135 112.161 123.442 112.161 124.056Z" fill="#474C54"/>
<path d="M84.85 125.59C78.0989 135.41 69.1996 143.695 61.221 152.595C55.0836 159.346 46.7981 168.245 45.8774 177.758C45.8774 178.065 46.1843 178.065 46.4912 178.065C49.8668 173.769 52.6286 168.859 56.0041 164.563C59.6866 159.959 63.6759 155.97 67.6652 151.674C75.0301 143.695 81.7813 136.024 86.0775 125.897C86.0775 125.59 85.1569 125.283 84.85 125.59Z" fill="#474C54"/>
<path d="M84.236 96.4373C73.1886 89.993 59.3794 87.5381 47.1046 83.8556C34.8298 80.1732 21.9412 74.9564 9.3595 74.0358C8.74576 74.0358 8.74578 74.6495 9.05265 74.9564C20.1 81.4007 33.9092 84.1625 45.8771 87.8449C58.152 91.5274 71.0405 97.0511 83.6222 97.9717C84.5428 97.9717 84.8497 96.7442 84.236 96.4373Z" fill="#474C54"/>
<path d="M69.8134 79.2525C76.2577 79.8662 84.2364 73.1151 83.3158 66.3639C83.3158 65.7502 82.702 65.7502 82.3952 66.057C80.8608 68.2051 79.3265 70.3532 77.1784 72.1945C74.7234 74.3426 72.2684 74.9563 69.1997 76.1838C67.6653 77.1044 67.9722 78.9456 69.8134 79.2525Z" fill="#474C54"/>
<path d="M128.733 76.7975C129.346 76.4906 129.346 75.8768 128.733 75.57C119.527 74.6494 117.685 65.4432 115.23 58.3852C113.389 53.1684 111.241 47.6447 108.786 42.4279C108.786 42.1211 108.479 42.4279 108.479 42.4279C109.707 51.0203 111.855 60.5333 115.537 68.2051C117.992 74.0356 122.595 78.9456 128.733 76.7975Z" fill="#474C54"/>
<path d="M144.996 107.485C138.859 109.326 134.255 112.395 133.335 119.146C132.107 126.511 137.017 135.103 139.472 141.854C139.472 142.161 140.086 142.161 140.086 141.854C139.472 136.637 138.859 131.727 137.938 126.511C137.324 122.828 137.017 119.146 138.859 115.77C140.393 113.008 143.769 110.86 145.917 108.712C146.223 108.098 145.61 107.178 144.996 107.485Z" fill="#474C54"/>
<path d="M97.7384 140.013C94.3628 140.32 88.2253 142.775 88.2253 146.764C88.2253 147.071 88.5322 147.378 88.5322 147.071C91.2941 147.071 93.749 144.616 96.8177 144.002C101.728 142.775 106.944 145.23 111.241 146.457C111.854 146.764 112.468 145.843 111.854 145.23C107.865 142.161 103.262 139.399 97.7384 140.013Z" fill="#474C54"/>
<path d="M64.9034 124.362C64.9034 124.976 65.5171 124.669 65.824 124.362C67.3583 119.759 66.4377 116.077 64.2896 111.781C62.7553 109.019 58.7659 104.109 55.0835 104.723L54.7766 105.03C56.0041 107.791 59.0728 109.94 60.6071 112.394C62.7552 115.77 64.2896 120.373 64.9034 124.362Z" fill="#474C54"/>
<path d="M88.5327 77.1044C87.3052 76.7975 86.0777 77.4113 84.8502 78.025C83.9296 78.6388 82.7021 79.8663 82.3953 81.0937C82.3953 81.7075 82.3953 82.0143 83.009 82.3212C84.2365 82.6281 85.464 82.0143 86.6914 81.4006C87.3052 81.0937 87.6121 80.48 87.9189 80.1731C88.2258 79.5594 88.8396 79.2525 88.8396 78.6388C89.1464 77.7181 88.8395 77.1044 88.5327 77.1044Z" fill="#474C54"/>
<path d="M117.071 79.5593C116.457 78.6387 115.844 78.3319 114.923 78.025C114.003 77.7181 113.082 77.4112 112.161 77.4112C111.241 77.4112 110.627 78.6387 110.934 79.2525C111.241 79.8662 111.854 80.48 112.468 81.0937C113.389 81.7074 114.309 82.6281 115.537 82.6281C116.764 82.6281 117.685 80.7868 117.071 79.5593Z" fill="#474C54"/>
<path d="M124.436 108.098C123.515 109.326 123.208 110.247 123.208 111.781C123.208 113.008 122.901 114.543 123.822 115.77C124.129 116.077 124.436 116.077 124.743 116.077C125.663 115.463 126.277 114.543 126.584 113.315C127.198 111.781 127.505 110.553 127.198 108.712C126.584 107.792 125.05 107.178 124.436 108.098Z" fill="#474C54"/>
<path d="M76.257 108.098C76.5638 109.019 77.1776 109.94 77.7913 110.86C78.4051 112.088 78.712 113.008 79.6326 113.929C80.5532 114.543 82.0875 113.929 82.3944 112.701C83.0081 110.246 80.5532 107.178 78.7119 105.95C77.1776 105.03 75.6432 106.871 76.257 108.098Z" fill="#474C54"/>
<path d="M99.5793 126.204C101.727 125.897 101.727 122.214 99.5793 121.908C98.045 121.601 94.0556 121.908 94.6694 124.363C94.9762 126.511 98.045 126.511 99.5793 126.204Z" fill="#474C54"/>
</svg>
