<svg width="45" height="52" viewBox="0 0 45 52" fill="none" xmlns="http://www.w3.org/2000/svg">
<path fill-rule="evenodd" clip-rule="evenodd" d="M27.2824 0.142791C25.2522 0.587586 23.4783 2.33518 22.9543 4.4067C22.7572 5.18557 22.7584 6.48847 22.9568 7.25536C23.5117 9.40021 25.2445 11.0666 27.3916 11.5206C28.282 11.7088 28.8216 11.7088 29.7121 11.5206C32.4033 10.9517 34.3049 8.60326 34.3013 5.85292C34.2991 4.13295 33.7949 2.90969 32.5971 1.71903C31.137 0.267626 29.2573 -0.289816 27.2824 0.142791ZM26.7358 12.1232C25.4348 12.487 24.5774 13.1421 22.7703 15.1531C19.5726 18.712 16.9984 22.5191 15.4424 25.9914C14.724 27.5946 14.6789 28.3424 15.2514 29.1641L15.4422 29.4381L14.1024 31.8421C13.3655 33.1644 12.7148 34.2653 12.6565 34.2885C12.5982 34.3117 11.6926 33.8439 10.6443 33.2487C8.53387 32.0509 8.16249 31.9307 7.73512 32.3076C7.58581 32.4392 5.78432 35.539 3.73181 39.1958C0.868561 44.2972 0 45.9244 0 46.1869C0 46.6746 0.318812 46.9461 1.98208 47.8751L3.40927 48.6723L3.26843 49.0116C2.81987 50.0926 3.47677 51.4397 4.67271 51.8913C5.70623 52.2815 7.05099 51.5793 7.42166 50.4559C7.61728 49.8628 7.57441 49.3248 7.28727 48.7702L7.08983 48.3889L9.66424 43.8199C17.2613 30.3367 17.378 30.1385 17.8034 29.9902C18.5041 29.7459 18.8122 29.417 19.2811 28.4127C20.0362 26.7948 20.7877 25.3734 21.4186 24.3702C22.1399 23.223 23.1245 21.8177 23.1728 21.8664C23.1916 21.8855 23.3646 23.725 23.5571 25.9543C23.7495 28.1836 23.9555 30.208 24.0147 30.4529C24.1332 30.9428 24.4321 31.5771 24.7454 32.0038L24.9477 32.2795L22.9983 35.8667C21.9262 37.8397 19.9698 41.4125 18.6508 43.8063C16.9299 46.9295 16.2336 48.2871 16.1849 48.6137C15.9979 49.8692 16.564 51.035 17.6497 51.6299C18.7073 52.2094 19.9593 52.0546 20.8683 51.2318C21.3963 50.7538 21.9624 49.7374 25.2208 43.4155C27.4311 39.1271 29.1852 35.8487 29.2694 35.8483C29.3426 35.8481 30.4622 37.8008 31.4531 39.6572C32.5755 41.7597 34.2737 45.2308 35.5734 48.079C36.9344 51.0618 37.1765 51.4047 38.1951 51.7917C39.5866 52.3205 41.1801 51.6534 41.8043 50.2808C41.9564 49.9465 42.0157 49.6137 42.0144 49.1036C42.0126 48.4197 41.9723 48.3034 40.9601 46.0564C38.8995 41.4822 36.0805 35.9803 34.1271 32.7204L33.6223 31.8781L34.0167 31.0952C34.3159 30.5012 34.4231 30.153 34.4609 29.6521C34.4891 29.2804 34.3615 27.3267 34.1691 25.1828C33.9811 23.0878 33.8382 21.3599 33.8516 21.3431C33.8649 21.3262 34.2481 21.5676 34.7031 21.8796C36.6962 23.2459 38.7216 23.9792 41.7572 24.4337C43.1618 24.644 43.6986 24.5322 44.3281 23.8985C45.2557 22.9646 45.2181 21.49 44.2448 20.6296C43.7771 20.2162 43.6107 20.151 42.5453 19.9638C39.711 19.4657 37.0657 17.8768 32.7388 14.0737C31.5357 13.0163 30.5054 12.4016 29.4958 12.1392C28.7672 11.9498 27.3844 11.9418 26.7358 12.1232ZM5.81993 49.2737C6.32892 49.7551 5.99326 50.6171 5.29672 50.6171C4.8409 50.6171 4.54004 50.3063 4.54004 49.8354C4.54004 49.1556 5.3289 48.8094 5.81993 49.2737Z" fill="white"/>
</svg>
