<svg width="35" height="36" viewBox="0 0 35 36" fill="none" xmlns="http://www.w3.org/2000/svg">
<path fill-rule="evenodd" clip-rule="evenodd" d="M19.3851 0.0420691C18.9341 0.187362 18.6817 0.429211 18.1055 1.26787C17.782 1.73882 16.6134 3.43944 15.5088 5.04695C14.4041 6.65447 12.587 9.30868 11.4707 10.9453L9.44119 13.9209H8.21033H6.97955L6.97969 13.7272C6.97983 13.6207 7.10681 12.2658 7.26187 10.7164C7.41694 9.16698 7.54391 7.864 7.54405 7.8209C7.54412 7.77779 7.75855 7.63863 8.02061 7.51158C8.37232 7.34114 8.65513 7.12056 9.10085 6.66933L9.70466 6.05795L11.677 6.25381C12.7619 6.36149 13.7064 6.45093 13.7761 6.45255C13.9593 6.45685 14.2493 6.13929 14.2493 5.93442C14.2493 5.838 14.1779 5.6789 14.0905 5.58087C13.9363 5.40783 13.8691 5.39649 11.7774 5.19084C10.1502 5.0309 9.56004 4.99639 9.36552 5.04998C9.09075 5.12569 8.9035 5.28796 8.37817 5.90547C8.13721 6.18873 7.89427 6.37367 7.48215 6.58763C6.87121 6.90484 6.66639 7.10725 6.55522 7.50383C6.51598 7.64384 6.34913 9.13705 6.18453 10.822L5.8852 13.8856L5.5635 13.9066L5.24179 13.9275L5.29663 13.3784C5.32677 13.0764 5.54677 10.8655 5.78547 8.46538C6.10153 5.28796 6.24848 4.05751 6.32591 3.93955C6.38435 3.85046 6.5157 3.75629 6.61769 3.73031C6.71967 3.70432 8.65273 3.86454 10.9134 4.08632C13.9736 4.38655 15.0596 4.47036 15.1643 4.41451C15.3685 4.30542 15.4652 4.0828 15.4125 3.84313C15.3515 3.56628 15.1509 3.45247 14.6375 3.40338C14.4046 3.38112 12.5515 3.19991 10.5194 3.00067C8.27244 2.78037 6.70521 2.65635 6.51944 2.68417C5.88866 2.77854 5.33771 3.33464 5.20509 4.01068C5.16542 4.21267 4.96751 6.07344 4.7653 8.14578L4.39758 11.9137L3.5077 11.9533C2.74515 11.9873 2.56884 12.0181 2.27607 12.1685C1.67592 12.4767 1.33869 13.0634 1.32965 13.8152C1.32556 14.1557 1.31455 14.1743 0.996021 14.3786C0.814911 14.4949 0.562798 14.7267 0.435823 14.8939C-0.0345954 15.5135 -0.0119391 14.9714 0.00867044 25.1228L0.0273743 34.3097L0.19338 34.6761C0.403286 35.1391 0.977176 35.6865 1.4392 35.8643C1.78342 35.9968 2.14881 36 16.6844 36H31.5768L31.9449 35.8339C32.3813 35.637 32.9009 35.1086 33.117 34.6419C33.2652 34.3218 33.2716 34.212 33.2916 31.6159L33.3124 28.922L33.5739 28.9216C34.201 28.9207 34.7016 28.6365 34.9028 28.1672C34.9802 27.9867 35 27.3368 35 24.9775C35 22.1647 34.9929 22.0006 34.8605 21.7415C34.645 21.3201 34.348 21.1473 33.784 21.1156L33.3061 21.0886V18.5387C33.3061 16.4033 33.2876 15.927 33.1928 15.6083C33.0681 15.1891 32.7682 14.7118 32.4947 14.4971C32.3345 14.3714 32.3179 14.3095 32.3179 13.8365C32.3179 13.2117 32.1034 12.7073 31.694 12.3693C31.4039 12.1299 30.8758 11.9489 30.4675 11.9489H30.1954L31.0183 10.7456C31.478 10.0736 31.8858 9.39728 31.9422 9.21382C32.1157 8.64863 31.9319 7.97492 31.4951 7.57468C31.3848 7.47362 30.4529 6.81991 29.4241 6.12197C28.3954 5.42403 26.0292 3.81595 24.1659 2.54846C22.3026 1.28104 20.6856 0.196095 20.5725 0.137569C20.3255 0.00967231 19.6533 -0.0443458 19.3851 0.0420691ZM25.3392 4.59593C28.2265 6.5558 30.6761 8.25184 30.7828 8.36495C30.8991 8.48806 30.9769 8.64948 30.9769 8.76731C30.9769 8.90823 30.5004 9.66202 29.2966 11.4248L27.6164 13.8856L27.2083 13.907L26.8002 13.9283L27.1135 13.4844C27.9789 12.2581 28.5103 11.4245 28.5848 11.1765C28.6725 10.8845 28.6852 10.9412 28.2908 9.87126C28.1737 9.55384 28.132 9.2734 28.1228 8.74442C28.1103 8.01739 28.0283 7.74075 27.7551 7.5039C27.6123 7.38009 23.2688 4.41916 22.3952 3.8501C21.7513 3.43078 21.422 3.39239 20.8044 3.66502C20.291 3.89159 19.7544 3.98849 19.1142 3.97039C18.6468 3.95722 18.5464 3.97744 18.3162 4.13139C18.1185 4.26359 17.2379 5.50135 14.7838 9.09656L11.5148 13.8856L11.1116 13.9069L10.7085 13.9283L10.9164 13.6252C11.0307 13.4586 12.9731 10.6125 15.2327 7.30065C17.4923 3.98878 19.4059 1.22357 19.4851 1.15582C19.8368 0.854807 19.7699 0.815437 25.3392 4.59593ZM24.3126 6.42044C25.7847 7.42157 27.0107 8.27304 27.0371 8.31262C27.0635 8.3522 27.0676 8.53208 27.0461 8.7123C26.9957 9.13783 27.1937 10.1093 27.423 10.5608L27.6011 10.9116L27.018 11.7648C26.6973 12.234 26.2316 12.9111 25.9833 13.2694L25.5317 13.9209H24.6703H23.809L23.7328 13.4386C23.5874 12.5166 22.9433 11.4839 22.1275 10.8646C21.4221 10.3292 20.4147 9.97937 19.5782 9.97937C18.6656 9.97937 17.446 10.447 16.7408 11.0674C16.0486 11.6763 15.5002 12.6932 15.3444 13.6568L15.3016 13.9209H14.0291H12.7566L13.2792 13.1638C13.5667 12.7474 14.8606 10.8537 16.1545 8.9557C17.4485 7.05767 18.5986 5.38754 18.7104 5.24429C18.9057 4.99406 18.9268 4.9854 19.2515 5.02378C19.6886 5.07548 20.4627 4.94258 20.9545 4.73151C21.168 4.63988 21.4087 4.57283 21.4893 4.58255C21.5701 4.59227 22.8405 5.41931 24.3126 6.42044ZM20.1923 11.1118C20.9997 11.2813 21.7503 11.7892 22.2378 12.4959C22.4632 12.8227 22.719 13.4924 22.719 13.7559V13.9209H19.5373H16.3555L16.405 13.692C16.5718 12.9204 16.9853 12.2185 17.5253 11.7898C18.3302 11.1511 19.2569 10.9155 20.1923 11.1118ZM4.24653 13.375C4.19917 13.9541 4.25825 13.9209 3.27626 13.9209H2.39182V13.7049C2.39182 13.1763 2.67654 13.012 3.59896 13.0081L4.27674 13.0053L4.24653 13.375ZM31.089 13.2381C31.1976 13.3642 31.2592 13.5235 31.2592 13.6783V13.9209H30.0546H28.8499L29.0096 13.692C29.0974 13.5661 29.2484 13.3573 29.3451 13.228L29.5209 12.9929L30.2199 13.0167C30.8847 13.0394 30.9271 13.0502 31.089 13.2381ZM29.1967 15.1367C29.4939 15.4524 29.5653 15.7619 29.5653 16.7357V17.6535H15.308H1.05079V16.8233C1.05079 16.1012 1.07147 15.9527 1.2096 15.683C1.39071 15.3293 1.6328 15.129 1.97702 15.0479C2.10809 15.017 8.2524 14.9885 15.631 14.9845L29.0466 14.9773L29.1967 15.1367ZM32.2474 19.9036V21.0972L29.3712 21.119L26.4951 21.1408L26.026 21.3226C24.8486 21.7787 23.91 22.7986 23.6015 23.9568C23.4402 24.5627 23.4536 25.5367 23.631 26.1049C24.0686 27.5063 25.3411 28.6285 26.7421 28.8488C26.9944 28.8885 28.3363 28.9212 29.7241 28.9214L32.2474 28.922V30.0727V31.2234L30.2243 31.27C29.1117 31.2956 23.3969 31.3165 17.525 31.3165H6.84862L6.70238 31.5021C6.46445 31.8039 6.5193 32.1027 6.84347 32.2699C7.01625 32.3591 8.55893 32.373 18.3042 32.373H29.5653V33.1391C29.5653 33.7002 29.5395 33.9265 29.469 33.9848C29.3979 34.0438 25.7617 34.0599 15.547 34.0463L1.72131 34.028L1.38605 33.8314L1.05079 33.6347V33.0039V32.373H2.49374C3.89074 32.373 3.94233 32.3679 4.11349 32.2145C4.36878 31.9856 4.38572 31.6863 4.15633 31.4574C4.02413 31.3255 3.92109 31.3165 2.53298 31.3165H1.05079V25.0133V18.71H16.6491H32.2474V19.9036ZM31.2577 24.6435C31.256 27.3386 31.2614 27.2993 30.8581 27.5052C30.6048 27.6344 27.0859 27.6105 26.5686 27.476C25.1647 27.1112 24.4995 26.2373 24.5672 24.8473C24.6035 24.103 24.8126 23.5986 25.3004 23.0782C25.7021 22.6497 25.9902 22.4648 26.5188 22.2961C26.8676 22.1847 27.1949 22.168 29.0889 22.1647L31.2592 22.1609L31.2577 24.6435ZM26.9504 22.9573C25.7759 23.2875 25.1223 24.5269 25.5094 25.6898C25.677 26.1932 26.2799 26.8058 26.7723 26.9728C28.1632 27.4448 29.5992 26.433 29.5921 24.9859C29.5892 24.4002 29.385 23.9098 28.9789 23.5131C28.4471 22.9936 27.6235 22.7679 26.9504 22.9573ZM28.1274 24.1702C28.4461 24.4128 28.6113 24.872 28.512 25.2398C28.43 25.5436 28.1489 25.8717 27.8844 25.9723C27.2149 26.2269 26.4607 25.7186 26.46 25.0121C26.4592 24.1371 27.4358 23.6439 28.1274 24.1702Z" fill="#FFC107"/>
</svg>
