<svg width="30" height="29" viewBox="0 0 30 29" fill="none" xmlns="http://www.w3.org/2000/svg">
<path fill-rule="evenodd" clip-rule="evenodd" d="M13.651 0.0561388C11.8018 0.215443 9.87723 0.754835 8.2066 1.58212C6.68769 2.33422 5.69072 3.04441 4.41159 4.28528C3.06457 5.59213 2.34694 6.55882 1.5395 8.1543C1.02255 9.17575 0.745135 9.891 0.479213 10.8881C-0.586351 14.883 0.146283 19.1804 2.46583 22.5409C3.63428 24.2338 5.18139 25.7142 6.90478 26.7885C8.5036 27.7852 10.4917 28.5523 12.2543 28.8525L12.4741 28.89V23.2284V17.5669H10.6861H8.89802V15.5479V13.5289H10.6861H12.4741L12.4742 12.0075C12.4742 11.1707 12.5014 10.2046 12.5345 9.86052C12.7708 7.40982 14.1019 5.84044 16.402 5.30048C16.7651 5.21528 17.0917 5.19725 18.278 5.19708C19.068 5.19697 20.0243 5.21858 20.4031 5.24514L21.092 5.29337V7.10776V8.9221L20.0807 8.92312C18.017 8.92517 17.3878 9.09676 17.052 9.74893C16.8513 10.1389 16.8124 10.5138 16.8124 12.0579V13.5289H18.9001H20.9878L20.9539 13.7137C20.9139 13.9319 20.4471 17.4279 20.4471 17.5094C20.4471 17.5445 19.7751 17.5709 18.6444 17.5803L16.8417 17.5954L16.8267 23.2977L16.8118 29L17.0612 28.9651C19.7566 28.5884 22.3297 27.4991 24.463 25.8317C25.1972 25.2578 26.3835 24.0729 26.9337 23.3639C30.371 18.9345 30.9647 13.1185 28.4803 8.21117C27.6435 6.55813 26.9396 5.60584 25.5784 4.28528C24.2993 3.04441 23.3023 2.33422 21.7834 1.58212C19.2987 0.351712 16.4421 -0.184267 13.651 0.0561388Z" fill="white"/>
</svg>
