<svg width="32" height="32" viewBox="0 0 32 32" fill="none" xmlns="http://www.w3.org/2000/svg">
<path fill-rule="evenodd" clip-rule="evenodd" d="M14.4027 0.0730105C12.6699 0.236923 10.6549 0.815384 8.99513 1.62549C5.75088 3.20905 3.21751 5.74123 1.62456 8.99281C-2.25394 16.9095 1.05122 26.4978 8.99513 30.3752C16.9376 34.2519 26.5105 30.9538 30.379 23.0079C30.6457 22.4601 30.9644 21.7238 31.0872 21.3716C33.1434 15.4747 31.6655 9.0091 27.2608 4.63226C23.8959 1.2887 19.1907 -0.37967 14.4027 0.0730105ZM17.7468 7.28339C19.5477 7.66151 20.9517 8.42431 22.2662 9.7386C23.0578 10.5301 23.4903 11.1211 23.9598 12.0529C25.3835 14.8789 25.151 18.3113 23.354 20.9945C22.8932 21.6827 22.0131 22.6005 21.3115 23.1244C20.5729 23.6762 19.2118 24.3432 18.3695 24.5663C15.7704 25.2547 13.2226 24.8243 10.9623 23.315C10.2887 22.8651 9.10513 21.6808 8.66463 21.0159C7.59899 19.4075 7.14703 17.9138 7.14703 16.0004C7.14703 15.2073 7.18317 14.7278 7.27567 14.2929C7.66189 12.4768 8.41816 11.0688 9.70637 9.76798C11.1168 8.3437 12.6681 7.54626 14.6873 7.2077C15.4167 7.08533 16.9889 7.12424 17.7468 7.28339ZM15.1498 10.6238C12.8726 11.1292 11.1488 12.6095 10.6221 14.5121C10.4276 15.2144 10.4456 16.8154 10.6543 17.3809C10.8995 18.0449 11.3251 18.5476 11.9003 18.8526C12.1473 18.9835 12.1882 18.9871 12.3354 18.8907C12.4969 18.7849 12.6595 18.3232 12.6595 17.9704C12.6595 17.8757 12.5944 17.7155 12.515 17.6144C11.8305 16.7444 11.7649 15.2337 12.363 14.1164C12.5837 13.7042 13.3267 12.927 13.8212 12.591C15.4072 11.5135 17.7684 11.7626 18.8527 13.1218C19.721 14.2102 19.8561 15.6865 19.2504 17.4666C18.876 18.5671 18.4588 19.14 17.7939 19.4664C17.0121 19.8503 16.1608 19.6947 15.7936 19.1007C15.5148 18.6496 15.5295 18.3449 15.8989 16.9177C16.2915 15.4009 16.3369 14.8471 16.1054 14.3996C15.912 14.0256 15.5773 13.849 15.1341 13.8871C14.5439 13.9378 14.0284 14.4302 13.8218 15.1407C13.7001 15.5593 13.7235 16.4883 13.8688 17.0036C13.9308 17.2234 13.881 17.5069 13.5191 18.9956C13.0411 20.9611 12.8729 21.9674 12.8729 22.8611C12.8729 23.4753 12.9765 24.0783 13.0946 24.1513C13.1286 24.1723 13.3096 24.0357 13.4967 23.8477C14.0871 23.2545 14.5994 22.0809 14.9037 20.6246C14.9733 20.292 15.0386 20.009 15.0488 19.9958C15.0591 19.9826 15.1817 20.098 15.3213 20.2525C15.6032 20.5645 16.2206 20.8727 16.8124 20.9968C17.123 21.0619 17.3058 21.0557 17.7709 20.9641C19.5147 20.6206 20.8216 19.315 21.3511 17.3876C21.4803 16.9171 21.5084 16.6213 21.5127 15.6802C21.5173 14.6774 21.4981 14.4784 21.3515 14.0084C20.8321 12.3432 19.5145 11.1679 17.6089 10.6699C16.961 10.5007 15.8026 10.4789 15.1498 10.6238Z" fill="white"/>
</svg>
