<svg width="32" height="32" viewBox="0 0 32 32" fill="none" xmlns="http://www.w3.org/2000/svg">
<path fill-rule="evenodd" clip-rule="evenodd" d="M14.4027 0.0730105C12.6699 0.236923 10.6549 0.815384 8.99513 1.62549C5.75088 3.20905 3.21751 5.74123 1.62456 8.99281C-2.25394 16.9095 1.05122 26.4978 8.99513 30.3752C16.9376 34.2519 26.5105 30.9538 30.379 23.0079C30.6457 22.4601 30.9644 21.7238 31.0872 21.3716C33.1434 15.4747 31.6655 9.0091 27.2608 4.63226C23.8959 1.2887 19.1907 -0.37967 14.4027 0.0730105ZM20.3083 8.98292C20.7933 9.11268 21.3609 9.41013 21.6892 9.70672C21.9242 9.91901 22.0116 9.95323 22.3195 9.95323C22.7624 9.95323 23.5287 9.72551 24.0352 9.44342L24.4179 9.23028L24.3681 9.43169C24.2625 9.85897 23.7689 10.4754 23.1544 10.9472L22.9409 11.1112L23.4746 11.0662C23.7681 11.0414 24.1828 10.9741 24.3962 10.9166C24.6097 10.8592 24.7976 10.8255 24.8139 10.8418C24.8302 10.8581 24.726 11.0314 24.5825 11.227C24.3119 11.5955 23.8345 11.9863 23.4034 12.192L23.1544 12.3109L23.1439 13.0726C23.1215 14.6976 22.6888 16.4531 21.9528 17.9054C21.3229 19.1482 19.8505 20.8161 18.743 21.5414C16.9857 22.6922 15.182 23.1692 12.8729 23.0939C11.1172 23.0367 9.65436 22.7228 7.89228 22.0256L7.14518 21.7299L7.92785 21.6773C8.80843 21.618 9.62682 21.4723 10.3114 21.2529C10.8619 21.0765 11.9543 20.5295 12.1186 20.3481C12.229 20.2261 12.2107 20.213 11.7577 20.0903C11.0854 19.9084 10.3765 19.5356 9.93868 19.1337C9.56008 18.7862 9.14619 18.1765 9.06714 17.8498L9.02409 17.6716L9.64995 17.6719C10.6274 17.6724 10.6532 17.626 9.91741 17.1903C8.88129 16.5767 8.20406 15.8582 7.9302 15.082C7.82426 14.782 7.76378 14.1842 7.83237 14.1156C7.85129 14.0968 8.04781 14.145 8.2691 14.2227C8.49038 14.3005 8.85112 14.3641 9.07084 14.3641H9.47021L9.03654 13.8908C8.00918 12.7698 7.69839 11.2858 8.2363 10.07L8.38863 9.72565L8.86976 10.1683C9.91314 11.1283 11.0467 11.9028 12.2549 12.4814C13.346 13.0039 14.0546 13.1833 15.0431 13.1872L15.8257 13.1902L15.8677 12.4432C15.8908 12.0324 15.95 11.5529 15.9993 11.3779C16.431 9.84389 17.7305 8.90921 19.4545 8.89257C19.7284 8.88994 20.1126 8.93063 20.3083 8.98292Z" fill="white"/>
</svg>
