<svg width="32" height="32" viewBox="0 0 32 32" fill="none" xmlns="http://www.w3.org/2000/svg">
<path fill-rule="evenodd" clip-rule="evenodd" d="M14.4027 0.0730105C12.6699 0.236923 10.6549 0.815384 8.99513 1.62549C5.75088 3.20905 3.21751 5.74123 1.62456 8.99281C-2.25394 16.9095 1.05122 26.4978 8.99513 30.3752C16.9376 34.2519 26.5105 30.9538 30.379 23.0079C30.6457 22.4601 30.9644 21.7238 31.0872 21.3716C33.1434 15.4747 31.6655 9.0091 27.2608 4.63226C23.8959 1.2887 19.1907 -0.37967 14.4027 0.0730105ZM20.3554 7.20962C22.5283 7.63441 24.1273 9.10614 24.732 11.2379C24.8514 11.6589 24.862 12.0466 24.862 16.0004C24.862 19.9541 24.8514 20.3418 24.732 20.7628C24.178 22.7159 22.7663 24.1389 20.8038 24.7224C20.4243 24.8352 19.9517 24.8513 16.3308 24.8747C12.0444 24.9024 11.671 24.8822 10.7894 24.5757C9.31574 24.0632 7.96329 22.7315 7.4628 21.2998C7.12846 20.3437 7.1096 20.0603 7.1096 16.0004C7.1096 11.8689 7.12825 11.6091 7.49446 10.6384C8.15198 8.89548 9.71647 7.58717 11.5897 7.2136C12.2974 7.07252 19.6369 7.06911 20.3554 7.20962ZM11.7541 9.20901C10.4846 9.55085 9.54044 10.5048 9.20781 11.7818C9.12043 12.1174 9.10186 12.8512 9.10186 15.9762C9.10186 18.4589 9.1289 19.8938 9.18027 20.1409C9.45029 21.4396 10.564 22.5495 11.8768 22.8282C12.1563 22.8875 13.406 22.9048 16.2526 22.8885L20.2372 22.8656L20.7078 22.6663C21.6133 22.2828 22.4059 21.4542 22.7291 20.5535C22.8613 20.1851 22.8708 19.9333 22.8915 16.2494C22.9067 13.5346 22.8886 12.2058 22.8324 11.9097C22.5857 10.6092 21.5691 9.55 20.24 9.20851C19.6398 9.05427 12.327 9.0547 11.7541 9.20901ZM21.2855 10.6588C21.485 10.837 21.5179 10.9134 21.5179 11.1982C21.5179 11.4831 21.485 11.5594 21.2855 11.7376C20.8521 12.1249 20.2402 11.9598 20.0575 11.4064C19.8182 10.6813 20.7059 10.141 21.2855 10.6588ZM16.9105 11.5598C18.5261 11.8935 19.8026 13.0355 20.3233 14.6131C20.4824 15.0953 20.5112 15.3072 20.5112 16.0004C20.5112 16.6953 20.4826 16.905 20.3215 17.3932C19.8655 18.7756 18.7773 19.8635 17.3966 20.317C16.5985 20.5792 15.5018 20.5938 14.7229 20.3526C11.4514 19.3395 10.3821 15.322 12.7317 12.8711C13.8303 11.725 15.3706 11.2418 16.9105 11.5598ZM15.3052 13.3324C13.2895 13.8989 12.5828 16.3495 13.9978 17.8655C14.7976 18.7223 15.9142 18.9739 17.0453 18.5521C17.6255 18.3358 18.3348 17.6269 18.5664 17.0319C18.799 16.4344 18.799 15.5663 18.5664 14.9688C18.3328 14.3687 17.6259 13.6651 17.0354 13.4449C16.4845 13.2394 15.7956 13.1946 15.3052 13.3324Z" fill="white"/>
</svg>
