<svg width="31" height="31" viewBox="0 0 31 31" fill="none" xmlns="http://www.w3.org/2000/svg">
<path fill-rule="evenodd" clip-rule="evenodd" d="M13.5295 0.12782C10.6461 0.518905 7.97179 1.65931 5.78022 3.43229C4.96104 4.09504 3.66751 5.43959 3.05704 6.26295C-0.80341 11.4696 -1.02706 18.5241 2.49676 23.9332L2.99376 24.6961L2.13852 27.2592C1.6681 28.6688 1.29228 29.8288 1.30328 29.8369C1.31436 29.8449 2.41814 29.4201 3.75624 28.8927L6.18905 27.9339L6.88809 28.3997C9.47107 30.1214 12.3799 31 15.497 31C23.3175 31 29.8584 25.2502 30.872 17.4846C31.6712 11.361 28.6777 5.27761 23.3107 2.11898C20.4159 0.415311 16.8147 -0.317873 13.5295 0.12782ZM9.94735 7.35004C10.6297 8.09037 11.7696 10.1642 11.9558 11.0041C12.0528 11.4414 12.023 11.4952 11.1904 12.3855C10.1577 13.4898 10.0352 14.0033 10.6087 14.8253C11.7156 16.412 14.7237 19.1057 16.3659 19.9806C17.8154 20.753 18.5068 20.5492 19.5037 19.0556C19.9575 18.3757 20.1271 18.2315 20.4725 18.2315C21.3795 18.2315 23.9393 19.3441 24.5273 19.994C24.6739 20.1559 24.6734 20.1746 24.5029 20.8218C23.72 23.7939 21.7641 24.7471 18.6111 23.6928C14.1492 22.201 10.4416 19.5632 8.25784 16.3268C7.00943 14.4768 6.133 11.8009 6.29794 10.3431C6.47084 8.81488 7.25789 7.72258 8.57729 7.17988C9.29022 6.88668 9.54993 6.91889 9.94735 7.35004Z" fill="white"/>
</svg>
