<svg width="32" height="33" viewBox="0 0 32 33" fill="none" xmlns="http://www.w3.org/2000/svg">
<path fill-rule="evenodd" clip-rule="evenodd" d="M14.4027 0.0752921C12.6699 0.244327 10.6549 0.840865 8.99513 1.67628C5.75088 3.30933 3.21751 5.92064 1.62456 9.27383C-2.25394 17.4379 1.05122 27.3259 8.99513 31.3245C16.9376 35.3223 26.5105 31.9211 30.379 23.7269C30.6457 23.162 30.9644 22.4027 31.0872 22.0395C33.1434 15.9583 31.6655 9.29063 27.2608 4.77702C23.8959 1.32897 19.1907 -0.391535 14.4027 0.0752921ZM22.4291 10.227C23.6182 10.5463 24.4807 11.4326 24.7885 12.6512C24.9475 13.2804 24.9499 19.7106 24.7915 20.3379C24.4829 21.5598 23.6194 22.4588 22.4429 22.7834C22.1591 22.8616 20.8553 22.8817 15.9988 22.8823C10.6053 22.8831 9.86625 22.8697 9.52394 22.7649C8.32225 22.3974 7.52392 21.5578 7.21576 20.3379C7.05951 19.7196 7.05951 13.2811 7.21576 12.6628C7.52499 11.4385 8.36935 10.5578 9.54763 10.2307C10.1187 10.0721 21.8399 10.0688 22.4291 10.227ZM13.7267 16.5371C13.7267 18.4537 13.7508 20.021 13.7801 20.0198C13.903 20.015 19.1685 16.601 19.1543 16.5354C19.1411 16.4747 13.8358 13.0522 13.7548 13.0522C13.7394 13.0522 13.7267 14.6204 13.7267 16.5371Z" fill="white"/>
</svg>
