<svg width="26" height="19" viewBox="0 0 26 19" fill="none" xmlns="http://www.w3.org/2000/svg">
<path d="M25.5487 18.2901C25.4311 18.5254 25.284 18.7165 24.99 18.6871C24.6959 18.6724 24.5047 18.4666 24.5047 18.1431C24.49 17.7167 24.5047 17.305 24.5047 16.8786C24.5047 16.7904 24.5047 16.7021 24.5047 16.5992C16.7265 16.5992 8.96291 16.5992 1.18464 16.5992C1.18464 17.0256 1.18464 17.4373 1.18464 17.849C1.18464 17.9814 1.18464 18.1137 1.16994 18.246C1.14053 18.5107 0.934681 18.6871 0.684718 18.7018C0.420051 18.7165 0.214199 18.5695 0.155384 18.3195C0.125977 18.2313 0.125977 18.1431 0.125977 18.0549C0.125977 15.6435 0.125977 13.2321 0.125977 10.8354C0.125977 9.26206 1.27287 8.10046 2.83146 8.10046C9.50695 8.10046 16.1824 8.10046 22.8432 8.10046C24.2107 8.10046 25.2399 8.96798 25.5193 10.306C25.5193 10.3354 25.5487 10.3648 25.5634 10.3942C25.5487 13.0262 25.5487 15.6582 25.5487 18.2901ZM24.49 14.4819C16.7265 14.4819 8.96291 14.4819 1.19935 14.4819C1.19935 14.8348 1.19935 15.173 1.19935 15.5111C8.96291 15.5111 16.7265 15.5111 24.49 15.5111C24.49 15.1582 24.49 14.8201 24.49 14.4819Z" fill="white"/>
<path d="M20.4023 7.04183C20.7551 6.82127 20.8287 6.57131 20.7404 6.24783C20.6228 5.82142 20.5346 5.38031 20.4023 4.9539C20.1964 4.30694 19.6524 3.88053 18.9907 3.86583C17.8144 3.85112 16.6381 3.83642 15.4618 3.86583C14.5355 3.88053 13.9326 4.5569 13.9032 5.51264C13.9032 5.77731 13.9032 6.04198 13.9032 6.30664C13.9032 6.58601 13.9473 6.83598 14.2708 7.01242C13.3004 7.01242 12.3887 7.01242 11.433 7.01242C11.8006 6.80657 11.8006 6.48309 11.7859 6.15961C11.7712 5.76261 11.7859 5.36561 11.6977 4.98331C11.5506 4.33635 10.9625 3.88053 10.3008 3.88053C9.0951 3.86583 7.88939 3.86583 6.66898 3.88053C6.03672 3.89523 5.47798 4.32164 5.28683 4.9245C5.1398 5.40972 5.02217 5.90964 4.90454 6.40957C4.84572 6.67424 4.97806 6.86539 5.24272 7.04183C5.1398 7.04183 5.08098 7.05653 5.02217 7.05653C4.33109 7.05653 3.62531 7.05653 2.93424 7.05653C2.43431 7.05653 2.24316 6.86539 2.24316 6.36546C2.24316 5.39501 2.24316 4.40986 2.24316 3.43942C2.25787 1.83671 3.37535 0.704529 4.97806 0.704529C10.2126 0.704529 15.4618 0.704529 20.6963 0.704529C22.299 0.704529 23.4165 1.83671 23.4312 3.43942C23.4312 4.40986 23.4312 5.39501 23.4312 6.36546C23.4312 6.85068 23.2401 7.04183 22.7548 7.05653C22.005 7.04183 21.2404 7.04183 20.4023 7.04183Z" fill="white"/>
</svg>
