<svg width="194" height="221" viewBox="0 0 194 221" fill="none" xmlns="http://www.w3.org/2000/svg">
<path d="M131.059 171.161C135.01 163.536 138.862 156.09 142.455 148.268C145.636 141.62 149.65 134.729 151.577 127.392C151.792 126.577 152.006 125.762 152.399 125.045C153.979 119.616 155.136 113.256 154.629 107.382C154.406 98.8652 152.176 90.1804 148.263 82.4376C146.217 78.5171 143.616 74.7583 140.72 71.5372C140.541 71.4389 140.541 71.4389 140.46 71.1613C143.52 67.7103 145.701 63.3108 148.043 59.4665C151.745 53.5699 155.088 47.4766 158.512 41.6609C159.102 40.5856 158.599 39.3771 157.703 38.8855C147.72 32.0086 137.164 25.7503 126.313 20.0296C125.237 19.4396 124.127 19.7631 123.537 20.8384C117.591 30.4001 110.599 41.0197 107.977 52.1722C107.878 52.3514 107.878 52.3514 107.78 52.5306L107.682 52.7098C107.127 52.8716 106.67 52.8541 106.491 52.7558C102.039 51.9453 97.6506 51.8691 93.2447 52.2497C85.3466 53.0458 77.477 55.4897 70.5669 59.1595C68.705 60.0033 67.0222 60.9453 65.2412 62.0666C58.8687 66.0314 52.6865 72.1992 48.6724 79.0902C45.6764 83.2755 43.1198 87.935 40.4823 92.317C35.913 99.3698 31.4247 106.7 27.2947 114.227C18.5606 129.72 10.4625 145.329 2.9829 161.511C2.3929 162.586 2.71643 163.696 3.87259 164.564C19.9035 173.593 35.7202 183.437 52.0286 192.385C68.2387 201.513 85.0388 209.565 101.365 218.056C102.44 218.646 103.648 218.144 104.418 217.167C113.869 202.067 122.863 186.95 131.059 171.161ZM120.568 33.8988C120.747 33.9971 121.204 34.0146 121.482 33.9337C122.395 33.9686 123.083 32.7141 122.465 32.1415C122.384 31.864 122.026 31.6673 121.945 31.3898C123.223 29.06 124.501 26.7302 125.959 24.4988C135.457 29.7104 144.58 35.1821 153.586 41.2898C152.505 43.2611 151.145 45.3133 150.064 47.2847C146.237 44.4854 142.115 42.2238 138.091 39.7829C134.426 37.5387 130.599 34.7395 126.211 34.6633C126.032 34.5649 125.835 34.9234 126.014 35.0217C127.898 38.3872 131.124 40.1571 134.431 42.2046C138.894 45.1197 143.437 48.3123 148.195 50.6897C147.31 52.3026 146.327 54.0948 145.263 55.6094C143.1 59.5521 140.479 63.4773 138.756 67.8942C137.859 67.4026 136.784 66.8126 135.611 66.4018C132.339 63.4407 128.494 61.0982 124.91 59.1316C122.401 57.7549 119.713 56.28 116.55 55.2443L116.371 55.146C114.498 53.8851 112.625 52.6242 110.654 51.5426C114.437 45.9235 117.502 39.9112 120.568 33.8988ZM101.637 213.31C85.9476 204.934 70.3735 195.922 54.3886 188.084C39.1904 178.813 23.2229 170.518 7.7297 161.784C14.816 146.319 22.7174 131.068 31.0582 116.292C35.6624 108.326 40.4457 100.458 45.2291 92.5899C48.4391 87.5894 52.3835 82.5254 55.3335 77.149C56.7735 75.3743 58.2136 73.5996 60.0121 72.0216C69.6755 63.3338 81.5355 57.017 94.8164 56.6096C100.037 56.4431 105.322 57.0109 110.49 58.2147C110.67 58.3131 111.126 58.3305 111.306 58.4289C111.485 58.5272 111.762 58.4463 111.942 58.5446C115.74 59.6961 119.521 61.3043 122.926 63.1726C126.51 65.1393 129.719 67.366 132.73 69.9511C132.91 70.0495 132.99 70.327 133.17 70.4254C133.349 70.5237 133.609 70.8996 133.788 70.9979C137.679 74.5315 140.898 78.8628 143.562 83.3559C149.573 93.6489 151.045 105.415 149.776 117.077C149.411 119.441 148.867 121.708 148.225 124.153C147.698 125.963 146.992 127.674 146.287 129.385C143.811 134.323 141.873 139.555 139.675 144.411C135.787 152.77 131.721 161.032 127.296 169.096C119.493 184.168 110.793 198.747 101.637 213.31Z" fill="white" fill-opacity="0.3"/>
<path d="M133.266 130.169C134.581 119.699 132.745 110.297 126.664 101.831C122.844 96.4703 116.658 90.7449 110.028 87.1066L109.848 87.0083L109.669 86.91C103.038 83.2717 94.8864 81.1305 88.3126 80.7879C77.9055 80.2073 68.9891 83.709 60.8641 90.443C51.5132 98.1364 45.6767 109.623 40.4127 120.492C37.2487 126.684 34.2638 132.974 31.2789 139.264C31.0823 139.622 30.9839 139.801 30.7873 140.16C27.2473 146.611 24.0658 153.26 20.9826 159.729C20.3926 160.804 20.8954 162.013 22.1673 162.244C23.7977 162.672 25.1505 163.181 26.6825 163.789C30.151 166.391 34.8455 168.035 38.4297 170.001C44.6213 173.165 50.8938 176.607 56.987 179.95C63.0803 183.293 69.2544 186.914 75.2494 190.437C79.4521 192.976 83.915 195.891 88.3954 198.349C90.0892 199.512 91.6037 200.576 93.3959 201.559C94.4712 202.149 95.6797 201.647 96.1713 200.751C98.6122 196.727 101.053 192.703 103.315 188.582C104.871 186.171 106.247 183.662 107.803 181.251C111.505 175.355 115.206 169.458 118.729 163.463C125.247 153.283 131.801 142.189 133.266 130.169ZM111.57 168.862C108.047 174.857 103.97 181.013 100.626 187.107C98.3997 190.315 96.0747 193.703 94.0271 197.009C93.1311 196.518 92.235 196.026 91.5182 195.633C87.6912 192.833 83.3901 190.473 79.2682 188.212C73.2733 184.689 67.0992 181.068 61.0059 177.725C54.9127 174.382 48.6402 170.94 42.4486 167.776C39.1244 166.185 35.3784 163.664 31.4183 161.957C29.5452 160.696 27.3772 159.973 25.2092 159.25C26.1117 157.18 27.1124 154.931 27.8357 152.763C32.6016 145.352 36.3097 136.894 39.9829 129.35C45.131 119.117 50.2158 108.15 57.9712 99.115C64.8766 90.7792 74.2387 85.1904 84.9582 84.7766C91.0928 84.645 97.1575 86.3405 102.829 88.7528C104.54 89.4586 106.153 90.3435 107.685 90.951C109.298 91.836 110.813 92.9002 112.148 93.866C117.05 97.2553 121.917 101.558 125.102 106.803C130.512 116.067 130.746 126.688 127.506 137.268C123.872 148.565 117.354 158.745 111.57 168.862Z" fill="white" fill-opacity="0.3"/>
<path d="M98.8237 131.323C97.0618 124.761 90.4024 119.475 83.8285 119.132C68.0386 118.163 58.8239 136.657 69.6274 148.413C74.2806 153.531 82.5023 153.846 88.0421 150.123C93.5819 146.401 94.6129 138.573 90.9716 133.311C87.5095 128.147 80.3631 128.422 76.9738 133.325C74.1571 137.608 78.5961 143.541 83.2684 140.975C83.6443 140.715 83.3842 140.339 83.1067 140.42C78.3948 139.234 77.1926 137.175 79.4194 133.967C80.6628 132.551 82.328 132.065 84.3343 132.234C87.1557 132.616 88.9764 135.247 89.8835 137.843C91.2585 142.561 87.9676 147.284 83.787 148.954C73.3845 153.04 66.4318 141.064 68.5904 132.455C70.8822 122.754 82.2441 119.895 90.2278 124.042C99.6453 128.976 98.8617 142.303 92.2862 149.188C92.1878 149.367 92.2687 149.644 92.5463 149.564C98.3002 145.026 100.667 138.164 98.8237 131.323Z" fill="white" fill-opacity="0.3"/>
<path d="M99.3123 118.534C99.6247 117.54 99.3995 116.25 99.4344 115.337C99.4233 113.232 99.4123 111.128 99.4012 109.023C99.2743 107.554 97.6614 106.669 96.3546 107.351C93.2667 109.155 90.0979 110.68 87.351 113.137C86.2233 113.917 87.3446 115.698 88.7323 115.294C91.051 114.467 93.2888 113.364 95.5266 112.26C95.671 113.272 95.5377 114.364 95.682 115.376C95.8723 117.579 95.8374 118.493 97.2362 120.193C97.4963 120.569 97.9531 120.586 98.4273 120.147C98.4447 119.69 99.0982 119.349 99.3123 118.534Z" fill="white" fill-opacity="0.3"/>
<path d="M82.0845 112.113C81.6626 111.182 80.5873 110.592 79.8879 109.741C78.3908 108.221 76.8936 106.7 75.2982 105.358C74.2403 104.311 72.4767 104.976 71.9676 106.328C71.0128 109.768 70.0581 113.208 69.7392 116.764C69.6869 118.134 71.774 118.58 72.1848 117.406C73.3648 115.256 74.0071 112.81 74.8287 110.463C75.6264 111.134 76.3258 111.984 77.1235 112.655C78.7999 114.274 79.4184 114.847 81.6039 115.113C82.0606 115.131 82.4365 114.871 82.2748 114.315C82.3097 113.402 82.4254 112.766 82.0845 112.113Z" fill="white" fill-opacity="0.3"/>
<path d="M65.3266 119.706C64.3322 119.393 63.0428 119.618 62.1293 119.584C60.0247 119.595 57.9201 119.606 55.8155 119.617C54.3469 119.744 53.4619 121.357 54.1439 122.663C55.9471 125.751 57.4728 128.92 59.9294 131.667C60.808 132.615 62.5891 131.494 62.0863 130.286C61.2601 127.967 60.1562 125.729 59.0524 123.491C60.0643 123.347 61.157 123.48 62.1689 123.336C64.3718 123.146 65.2853 123.181 66.9855 121.782C67.3613 121.522 67.3788 121.065 66.9395 120.591C66.5811 120.394 65.9625 119.822 65.3266 119.706Z" fill="white" fill-opacity="0.3"/>
<path d="M58.9047 136.934C57.9737 137.356 57.3837 138.431 56.5336 139.13C55.0127 140.627 53.4917 142.125 52.15 143.72C51.1032 144.778 51.7677 146.542 53.1206 147.051C56.5605 148.005 60.0005 148.96 63.5562 149.279C64.9265 149.331 65.3722 147.244 64.1986 146.833C62.048 145.653 59.6024 145.011 57.2552 144.19C57.9261 143.392 58.7762 142.692 59.447 141.895C61.0663 140.218 61.6389 139.6 61.9053 137.414C61.9228 136.958 61.6627 136.582 61.1076 136.744C60.2924 136.529 59.3789 136.494 58.9047 136.934Z" fill="white" fill-opacity="0.3"/>
<path d="M66.5961 153.512C66.2836 154.506 66.5088 155.796 66.4739 156.709C66.485 158.814 66.4961 160.918 66.5071 163.023C66.634 164.492 68.2469 165.377 69.5538 164.695C72.6417 162.891 75.8105 161.366 78.5574 158.909C79.5058 158.031 78.3845 156.25 77.176 156.752C74.8573 157.579 72.6195 158.682 70.3817 159.786C70.2374 158.774 70.3706 157.682 70.2263 156.67C70.036 154.467 70.0709 153.553 68.6721 151.853C68.412 151.477 67.9553 151.46 67.4811 151.899C67.1861 152.437 66.7118 152.876 66.5961 153.512Z" fill="white" fill-opacity="0.3"/>
<path d="M83.5475 160.015C83.9694 160.946 85.0447 161.536 85.7441 162.386C87.2412 163.907 88.7384 165.428 90.3338 166.77C91.3917 167.816 93.1553 167.152 93.6644 165.799C94.6192 162.359 95.5739 158.919 95.8928 155.363C95.9451 153.993 93.858 153.547 93.4472 154.721C92.2672 156.872 91.6249 159.317 90.8033 161.664C90.0056 160.994 89.3062 160.143 88.5085 159.473C86.8321 157.853 86.2136 157.281 84.0281 157.014C83.5714 156.997 83.1955 157.257 83.3572 157.812C83.3223 158.726 83.2066 159.361 83.5475 160.015Z" fill="white" fill-opacity="0.3"/>
<path d="M100.305 152.421C101.299 152.734 102.588 152.509 103.502 152.544C105.606 152.532 107.711 152.521 109.816 152.51C111.284 152.383 112.169 150.771 111.487 149.464C109.684 146.376 108.158 143.207 105.702 140.46C104.823 139.512 103.042 140.633 103.545 141.841C104.371 144.16 105.475 146.398 106.579 148.636C105.567 148.78 104.474 148.647 103.462 148.791C101.259 148.981 100.346 148.947 98.6457 150.345C98.2698 150.605 98.2524 151.062 98.6917 151.536C99.1484 151.554 99.6686 152.306 100.305 152.421Z" fill="white" fill-opacity="0.3"/>
<path d="M106.905 135.291C107.836 134.869 108.426 133.794 109.277 133.095C110.797 131.598 112.318 130.101 113.66 128.505C114.707 127.447 114.042 125.684 112.69 125.175C109.25 124.22 105.81 123.265 102.254 122.946C100.884 122.894 100.438 124.981 101.612 125.392C103.762 126.572 106.208 127.214 108.555 128.036C107.884 128.833 107.034 129.533 106.363 130.33C104.744 132.007 104.171 132.625 103.905 134.811C103.887 135.268 104.147 135.643 104.703 135.482C105.339 135.597 106.252 135.632 106.905 135.291Z" fill="white" fill-opacity="0.3"/>
<path d="M148.405 117.024C150.472 106.034 147.989 94.4116 142.319 84.772C139.394 79.9031 135.082 75.4385 130.359 72.1476C126.532 69.3483 119.694 63.9639 114.761 66.154C114.484 66.2349 114.385 66.4141 114.466 66.6917C116.431 70.3347 121.779 71.6368 125.265 73.7827C130.624 77.1894 134.838 81.8331 138.578 86.9162C144.82 95.9373 147.454 106.01 147.59 116.81C147.654 117.545 148.388 117.481 148.405 117.024Z" fill="white" fill-opacity="0.3"/>
<path d="M87.0847 62.6267C81.1009 61.2088 75.845 62.2888 70.4384 64.9183C65.7836 67.0275 59.5729 71.5475 59.3634 77.0286C59.2651 77.2078 59.6235 77.4045 59.7219 77.2253C64.0008 75.3761 67.3552 71.3874 71.3741 69.1623C76.1447 66.4171 81.8748 64.8978 87.2116 64.0953C87.865 63.7543 87.7207 62.7425 87.0847 62.6267Z" fill="white" fill-opacity="0.3"/>
</svg>
