<svg width="57" height="53" viewBox="0 0 57 53" fill="none" xmlns="http://www.w3.org/2000/svg">
<path fill-rule="evenodd" clip-rule="evenodd" d="M2.9862 0.0966093C1.84207 0.264871 0.732969 1.10427 0.257448 2.16203L0 2.73478V26.5476V50.3604L0.238374 50.8795C0.591975 51.6496 1.24909 52.3185 2.00783 52.6804L2.6771 52.9998L13.8646 52.9999L25.0522 53L25.3215 52.7288C25.8421 52.2046 25.7991 51.475 25.2221 51.0412C24.9168 50.8116 24.8244 50.8094 13.9837 50.7795C3.95252 50.7517 3.02948 50.7336 2.76623 50.5599C2.14492 50.15 2.17515 51.1344 2.17515 31.325V13.0125H28.5H54.8249V31.325C54.8249 51.1337 54.8551 50.15 54.234 50.5597C53.9713 50.7331 53.0854 50.7515 43.6685 50.7793L33.3896 50.8097L33.0642 51.1765C32.6194 51.6778 32.6196 52.2234 33.0648 52.6717L33.3908 53L43.8569 52.9999L54.3229 52.9998L54.9922 52.6804C55.7509 52.3185 56.408 51.6496 56.7616 50.8795L57 50.3604V26.5476V2.73478L56.7425 2.16203C56.2475 1.06092 55.1718 0.273408 53.912 0.0898696C53.0594 -0.034249 3.83194 -0.027734 2.9862 0.0966093ZM54.2305 2.53304C54.7917 2.90337 54.8249 3.15846 54.8249 7.11184V10.766H28.5H2.17515V7.12273C2.17515 4.89871 2.21999 3.35638 2.29026 3.16329C2.35351 2.98941 2.54169 2.73365 2.70856 2.59493L3.01174 2.34276L28.476 2.3422C52.2809 2.34164 53.9593 2.35411 54.2305 2.53304ZM7.07402 5.53289C6.84759 5.6077 6.61992 5.80034 6.48796 6.02869C6.30213 6.35005 6.28986 6.46193 6.3995 6.83069C6.64524 7.65661 7.60275 7.90126 8.20722 7.29257C8.62976 6.86708 8.64827 6.31546 8.25563 5.8456C7.92936 5.45516 7.58513 5.36407 7.07402 5.53289ZM12.6969 5.46089C12.2638 5.53098 11.8796 6.02959 11.8796 6.52157C11.8796 7.82645 13.7893 8.02695 14.0322 6.74768C14.0937 6.42362 13.8847 5.79236 13.6721 5.66004C13.452 5.52301 12.9484 5.42012 12.6969 5.46089ZM18.1115 5.53289C17.5853 5.70419 17.2759 6.33837 17.4537 6.8809C17.7107 7.66504 18.6635 7.8834 19.2503 7.29257C19.6728 6.86708 19.6913 6.31546 19.2987 5.8456C18.9721 5.45471 18.6292 5.36441 18.1115 5.53289ZM27.7557 5.45146C27.6224 5.47819 27.3896 5.62466 27.2383 5.77697C26.7752 6.24323 26.7755 6.86461 27.2391 7.33143L27.5265 7.62089H38.7302H49.934L50.2601 7.29257C50.7052 6.84428 50.7055 6.29872 50.2606 5.79742L49.9352 5.43056L38.9666 5.41675C32.934 5.40911 27.889 5.42472 27.7557 5.45146ZM11.8604 21.8465C11.4109 21.9262 11.008 22.398 10.9307 22.935C10.8937 23.1921 10.8787 26.0056 10.8975 29.1872C10.9342 35.4297 10.9198 35.2834 11.5296 35.611C11.7321 35.7198 12.4185 35.7563 14.1562 35.751C16.7584 35.7431 17.2117 35.6497 18.2012 34.9169C19.1141 34.2409 19.7947 32.8689 19.7981 31.6982C19.8001 31.0158 19.4074 29.8779 18.9714 29.3021L18.5906 28.7992L18.9852 28.2578C19.4352 27.6405 19.8001 26.5787 19.7981 25.8917C19.7947 24.7193 19.1146 23.3478 18.2012 22.6713C17.2568 21.9719 16.7352 21.8577 14.3337 21.8241C13.1373 21.8074 12.0243 21.8175 11.8604 21.8465ZM22.2045 22.2354L21.9124 22.5849L21.9436 27.8236L21.9746 33.0624L22.2482 33.624C22.8395 34.838 24.1437 35.702 25.3849 35.702C26.0498 35.702 26.43 35.4816 26.597 34.9992C26.8474 34.2756 26.4123 33.6649 25.5324 33.5054C24.9569 33.4009 24.5552 33.1572 24.3322 32.7771C24.1711 32.5027 24.1497 31.9185 24.1497 27.808C24.1497 25.246 24.1185 22.9925 24.0803 22.8003C23.8982 21.8834 22.78 21.5467 22.2045 22.2354ZM16.6751 24.341C17.1241 24.5835 17.5685 25.3458 17.5685 25.8736C17.5685 26.4014 17.1241 27.1638 16.6751 27.4063C16.3509 27.5813 16.0348 27.6147 14.698 27.6147H13.1067V25.8736V24.1326H14.698C16.0348 24.1326 16.3509 24.166 16.6751 24.341ZM31.2603 27.7366C28.1655 28.4711 27.0804 32.4502 29.3844 34.6155C30.2513 35.43 30.8254 35.6459 32.1252 35.6459C33.099 35.6459 33.3187 35.6085 33.8542 35.351C34.6716 34.9582 35.3729 34.2323 35.7862 33.3511C36.3917 32.0603 36.2233 30.4615 35.3568 29.2722C34.4599 28.0413 32.7219 27.3897 31.2603 27.7366ZM40.9968 27.7945C38.5364 28.4604 37.3204 31.2568 38.485 33.5711C38.8458 34.288 39.8459 35.1826 40.6073 35.4694C41.3596 35.7529 42.6998 35.7848 43.297 35.5335C43.5173 35.4409 43.7474 35.3651 43.8083 35.3651C43.8773 35.3651 43.9027 35.7807 43.8755 36.463C43.826 37.706 43.6388 38.1649 43.0063 38.594C42.5622 38.8954 41.7101 38.9357 41.2165 38.6787C40.7289 38.4248 40.334 37.8299 40.2517 37.2249C40.1196 36.2545 39.4478 35.7759 38.6746 36.1013C38.126 36.3322 37.9388 36.8675 38.0978 37.7506C38.2709 38.7121 38.6449 39.3905 39.369 40.057C40.2378 40.8565 40.987 41.124 42.2202 41.0751C43.0039 41.044 43.2813 40.9798 43.8198 40.705C44.6422 40.2854 45.4709 39.3826 45.8093 38.5379C46.0602 37.9112 46.0678 37.7905 46.0682 34.4103L46.0685 30.9282L45.7832 30.2472C45.4144 29.3671 44.9804 28.8215 44.2671 28.3414C43.6549 27.9292 42.6494 27.6099 42.0015 27.6221C41.7843 27.6261 41.3322 27.7037 40.9968 27.7945ZM32.9612 30.1139C33.6125 30.4478 34.0065 31.1603 33.931 31.8677C33.7496 33.5694 31.4456 34.0647 30.5883 32.5864C30.1914 31.9021 30.3591 30.9208 30.9713 30.3453C31.5381 29.8125 32.2191 29.7333 32.9612 30.1139ZM42.6978 30.0158C43.5236 30.3716 43.9961 31.2933 43.7771 32.121C43.5532 32.9668 42.9218 33.4555 42.0528 33.4555C41.4249 33.4555 40.9832 33.2377 40.6088 32.7434C39.9496 31.8732 40.2329 30.641 41.2118 30.1198C41.7675 29.8239 42.1846 29.7947 42.6978 30.0158ZM16.6751 30.1818C17.1241 30.4243 17.5685 31.1867 17.5685 31.7145C17.5685 32.2423 17.1241 33.0047 16.6751 33.2472C16.3509 33.4222 16.0348 33.4555 14.698 33.4555H13.1067V31.7145V29.9735H14.698C16.0348 29.9735 16.3509 30.0068 16.6751 30.1818ZM11.8604 44.5421C11.5001 44.5987 11.0143 45.0628 10.9639 45.3987C10.8509 46.152 11.2908 46.6634 12.1389 46.7645C12.4565 46.8024 20.0448 46.8182 29.002 46.7997C43.0174 46.7707 45.3217 46.7432 45.532 46.6028C46.2055 46.1528 46.2055 45.1327 45.532 44.6827C45.3212 44.542 43.0074 44.5178 28.7231 44.5074C19.6126 44.5006 12.0243 44.5162 11.8604 44.5421ZM28.4775 51.2082C28.1761 51.5117 28.1446 51.6041 28.2003 52.0224C28.2794 52.6164 28.6855 53 29.2352 53C30.0608 53 30.5586 52.2608 30.2439 51.5023C29.9381 50.7652 29.0623 50.6194 28.4775 51.2082Z" fill="white"/>
</svg>
