<svg width="80" height="113" viewBox="0 0 80 113" fill="none" xmlns="http://www.w3.org/2000/svg">
<path d="M68.2819 2.65736C64.6123 0.17148 59.9957 -0.893896 55.7342 0.881732C51.3543 2.77573 48.8684 7.98424 47.4479 12.2458C45.7907 17.4543 45.909 23.0179 46.0274 28.4632C46.0274 31.1858 46.1458 33.9084 46.2642 36.631C44.6069 41.1293 43.7783 46.4562 45.0804 51.0728C44.4885 54.6241 43.6599 58.1753 42.5945 61.7266C40.8189 67.4086 38.9249 73.9192 42.3578 79.3645C48.9868 89.7815 64.0204 86.5854 66.9798 74.9846C67.8084 71.7885 68.0452 68.474 68.2819 65.2778C68.5187 62.2001 69.2289 59.2407 70.0576 56.2813C72.8986 53.4403 75.0293 49.7707 75.9763 45.8643C76.4498 43.8519 76.6866 41.8395 76.6866 39.8272C77.3968 38.1699 77.9887 36.3943 78.5806 34.6187C82.1318 22.6628 78.8173 9.75987 68.2819 2.65736ZM74.2007 28.3448C73.0169 25.6221 71.3597 23.2546 69.4657 21.0055C67.2166 18.2829 63.1918 15.797 64.0204 11.7722C64.0204 11.5355 63.7837 11.5355 63.6653 11.6539C61.2978 14.85 64.7307 18.0461 66.8614 20.1769C70.2943 23.8465 72.8986 28.3448 74.2007 33.1982C75.5028 37.9332 75.2661 42.7865 73.6088 47.4032C72.7802 49.6523 71.5964 51.6647 70.1759 53.4403C69.7024 54.1506 69.1106 54.7424 68.5187 55.2159C68.4003 55.3343 68.4003 55.4527 68.2819 55.5711C67.0982 57.11 65.2042 59.4775 63.1918 57.9386C62.8367 57.7018 62.7183 57.11 62.8367 56.7548C62.8367 56.7548 62.8367 56.6364 62.9551 56.6364C64.1388 55.8078 65.0858 54.7424 66.0328 53.5587C67.4533 51.9014 68.8738 50.3626 70.2943 48.7053C72.5434 46.1011 74.3191 43.0233 74.0823 39.472C73.6088 32.9614 69.4657 25.3854 63.5469 22.426C63.5469 22.426 63.4286 22.426 63.4286 22.5444C65.5593 24.7935 67.6901 26.6875 69.2289 29.4102C70.8862 32.3695 72.1883 35.5657 72.5434 38.8802C73.0169 42.6682 71.0046 45.7459 68.6371 48.4686C67.8084 49.4156 66.7431 50.4809 65.6777 51.5463C64.7307 52.4933 63.7837 53.4403 62.9551 54.3873C62.4816 54.8608 62.0081 55.5711 61.8897 56.1629C61.5346 56.7548 61.4162 57.5834 61.7713 58.4121C62.4816 60.4245 65.4409 59.5958 66.6247 58.7672C66.8614 58.6488 67.0982 58.4121 67.3349 58.2937C67.0982 59.1223 66.9798 59.951 66.7431 60.7796C66.0328 64.3308 66.0328 67.8821 65.5593 71.4333C65.0858 75.103 63.7837 78.5359 60.9427 81.0217C58.1017 83.5076 53.9585 84.2179 50.2889 83.1525C47.2112 82.2055 44.7253 79.7196 43.3048 76.8786C41.4108 73.0906 42.4761 68.5923 43.5415 64.686C44.4885 61.2531 45.5539 57.7018 46.3825 54.1506C46.856 54.8608 47.4479 55.6894 48.0398 56.2813C48.75 57.5835 49.9338 58.8856 51.4727 58.2937C52.6564 57.8202 53.1299 56.8732 53.0115 55.9262C53.1299 55.2159 52.8932 54.3873 52.538 53.5587C52.3013 52.1382 51.8278 50.8361 51.3543 49.4156C49.9338 45.5092 49.8154 41.8396 51.1175 37.8148C52.1829 34.5003 54.0769 31.4225 56.2077 28.5815C58.1017 25.9773 60.9427 24.0833 62.7183 21.479C62.8367 21.2423 62.7183 21.1239 62.4816 21.1239C59.6406 22.0709 57.5098 24.9119 55.6158 27.161C53.3667 30.002 51.4727 33.1982 50.1705 36.5127C48.9868 39.472 48.5133 42.7865 48.8684 45.8643C49.2235 49.1788 51.1175 52.0198 51.8278 55.2159C51.8278 55.3343 51.8278 55.4527 51.8278 55.5711C51.7094 56.8732 50.2889 56.6364 49.4603 56.2813C49.4603 56.2813 49.3419 56.2813 49.3419 56.1629C43.7783 49.4156 46.2642 39.9455 49.697 32.6063C51.591 28.3448 54.0769 24.4384 56.9179 20.7688C59.1671 17.8094 62.2448 15.2051 62.3632 11.1804C62.3632 10.5885 61.5346 10.3517 61.2978 10.9436C59.9957 15.5603 55.4974 19.3483 52.8932 23.2546C50.8808 26.214 49.2235 29.2918 47.803 32.4879C47.803 29.5285 47.803 26.5691 47.803 23.6098C47.9214 16.3889 49.1052 7.51074 55.379 2.89411C62.1264 -2.07765 70.6494 5.73511 74.2007 11.1804C78.1071 17.0991 78.699 24.32 77.2785 31.1858C77.0417 32.3695 76.6866 33.5533 76.3315 34.737C75.8579 32.843 75.1477 30.5939 74.2007 28.3448Z" fill="white"/>
<path d="M2.22873 63.9757C2.93898 65.633 3.64923 67.4086 4.47786 68.9475C4.59623 70.9599 5.06973 72.9723 5.66161 74.9846C6.96374 78.891 9.33124 82.3239 12.409 84.9282C13.5927 87.7692 14.4214 90.7285 14.8949 93.8063C15.4868 97.0024 15.9603 100.317 17.0256 103.395C20.932 114.759 36.2024 116.653 41.8844 105.762C44.8438 100.199 42.4763 93.8063 40.2272 88.2427C38.8067 84.8098 37.8597 81.3769 36.9127 77.8256C37.8597 73.0906 36.5575 67.8821 34.5452 63.5022C34.4268 60.7796 34.3084 58.057 34.19 55.3344C33.8349 49.8891 33.4798 44.3255 31.4674 39.2353C29.8102 35.0922 26.9691 30.1205 22.3525 28.5816C17.9726 27.1611 13.4744 28.5816 10.0415 31.3042C-0.0203997 39.3537 -2.26953 52.4934 2.22873 63.9757ZM4.47786 64.5676C4.00436 63.3839 3.53086 62.2001 3.17573 61.0164C1.16335 54.269 1.16335 47.0481 4.59623 40.7742C7.67399 35.2106 15.6051 26.5692 22.7076 31.0675C29.3366 35.2106 31.1123 43.852 31.8225 51.0729C32.1777 54.0322 32.296 56.9916 32.5328 59.951C30.8755 56.8732 28.8631 53.9139 26.614 51.1912C23.6546 47.4032 18.9196 44.0887 17.2624 39.5905C17.0256 38.9986 16.197 39.3537 16.3154 39.9456C16.7889 43.852 20.1034 46.2195 22.5893 49.0605C25.667 52.4934 28.508 56.2814 30.7571 60.3061C34.7819 67.4086 37.8597 76.5235 33.0063 83.7444C33.0063 83.7444 32.8879 83.7444 32.8879 83.8628C32.0593 84.2179 30.7572 84.573 30.402 83.2709C30.402 83.1525 30.402 83.0342 30.402 82.9158C30.8755 79.7197 32.4144 76.6419 32.5328 73.3274C32.6512 70.1313 31.9409 66.9351 30.5204 64.0941C28.9815 60.7796 26.8508 57.8202 24.3649 55.216C22.3525 53.0852 19.8666 50.5994 17.0256 49.7707C16.7889 49.7707 16.6705 49.8891 16.7889 50.1259C18.8013 52.6117 21.7606 54.269 23.8914 56.7549C26.2589 59.3591 28.3896 62.3185 29.6918 65.5146C31.2307 69.421 31.4674 73.0906 30.402 77.1154C30.0469 78.5359 29.5734 79.9564 29.5734 81.3769C29.3366 82.2055 29.2183 83.0342 29.3367 83.7444C29.3367 84.8098 29.8102 85.6384 31.1123 85.9935C32.6512 86.467 33.7165 85.1649 34.3084 83.7444C34.9003 83.0342 35.3738 82.3239 35.8473 81.4953C37.031 84.9282 38.3332 88.361 39.5169 91.7939C40.9374 95.5819 42.2395 99.9618 40.7007 103.868C39.5169 106.828 37.2678 109.432 34.19 110.616C30.6388 111.918 26.4956 111.563 23.4179 109.313C20.3401 107.064 18.8013 103.75 17.9726 100.08C17.144 96.5289 16.9073 92.9777 15.9603 89.5448C15.7235 88.7162 15.4868 87.8875 15.25 87.1773C15.4868 87.2957 15.8419 87.5324 16.0786 87.6508C17.3808 88.361 20.3401 88.9529 20.932 86.8222C21.1688 85.9935 21.0504 85.1649 20.6953 84.573C20.4585 83.9812 19.985 83.2709 19.5115 82.9158C18.5645 82.0872 17.4991 81.1402 16.5521 80.3115C15.4868 79.3645 14.303 78.4175 13.356 77.4705C10.7517 74.8663 8.50261 72.0253 8.73936 68.2373C8.85774 64.8044 9.80474 61.6082 11.3436 58.5305C12.7641 55.6895 14.6581 53.6771 16.5521 51.1912C16.5521 51.1912 16.5521 51.0729 16.4338 51.0729C10.6334 54.5057 7.20049 62.4369 7.20049 68.9475C7.20049 72.4988 9.21286 75.4581 11.6987 77.8256C13.2376 79.3645 14.7765 80.785 16.3154 82.3239C17.3808 83.3893 18.3278 84.4547 19.6299 85.0465C19.6299 85.0465 19.6299 85.1649 19.7483 85.1649C19.985 85.52 19.8666 86.1119 19.5115 86.3487C17.6175 88.0059 15.4868 85.7568 14.303 84.3363C14.1846 84.2179 14.0662 84.0995 14.0662 83.9812C13.4744 83.5077 12.7641 82.9158 12.2906 82.3239C10.515 80.5483 9.09449 78.6543 8.14749 76.4051C6.13511 72.0253 5.54323 67.0535 6.49024 62.3185C7.43724 57.3467 9.56799 52.6117 12.7641 48.7054C14.6581 46.3378 17.8543 42.905 15.25 39.9456C15.1316 39.8272 14.8949 39.9456 14.8949 40.064C16.0786 44.0887 12.1722 46.8113 10.1599 49.7707C8.50261 52.1382 7.08211 54.7425 6.01673 57.4651C5.18811 59.8326 4.71461 62.2001 4.47786 64.5676Z" fill="white"/>
</svg>
