<svg width="84" height="52" viewBox="0 0 84 52" fill="none" xmlns="http://www.w3.org/2000/svg">
<path d="M35.7544 38.2491C35.1426 38.1471 34.7348 38.7589 34.4289 39.1667C34.021 39.6765 33.7152 40.4922 33.8171 41.2059C33.8171 41.5118 34.225 41.6138 34.4289 41.4098C34.7348 41.002 35.0406 40.4922 35.3465 39.9824C35.5504 39.5746 36.0602 39.0648 35.9583 38.555C35.9583 38.351 35.8563 38.2491 35.7544 38.2491Z" fill="white"/>
<path d="M15.872 33.5589C15.2602 33.3549 14.6485 33.4569 14.1387 33.8647C14.0367 33.9667 13.323 34.4765 13.6289 34.6804C13.9348 34.8843 14.4446 34.6804 14.7504 34.5785C15.1583 34.4765 15.5661 34.2726 15.872 33.8647C16.0759 33.8647 16.0759 33.6608 15.872 33.5589Z" fill="white"/>
<path d="M16.5855 27.951C16.6875 27.7471 16.6875 27.3393 16.3816 27.2373C16.0757 27.0334 15.5659 26.9314 15.26 27.0334C15.0561 27.1354 14.9542 27.3393 15.0561 27.5432C15.26 27.8491 15.6679 28.053 16.0757 28.155C16.1777 28.155 16.3816 28.155 16.5855 27.951Z" fill="white"/>
<path d="M22.601 19.3865C22.4991 19.2846 22.2951 19.2846 22.1932 19.1826C21.9893 19.1826 21.8873 19.1826 21.6834 19.1826C21.4795 19.1826 21.3775 19.4885 21.4795 19.5905C21.5814 19.6924 21.5814 19.8963 21.6834 19.9983C21.7853 20.1003 21.8873 20.2022 22.0912 20.3042C22.2951 20.4061 22.601 20.4061 22.703 20.2022C22.8049 20.1003 22.8049 20.1003 22.8049 19.9983C22.9069 19.6924 22.8049 19.4885 22.601 19.3865Z" fill="white"/>
<path d="M41.2594 12.1472H41.1574C41.0555 12.2492 41.0555 12.2492 40.9535 12.2492C40.8516 12.3511 40.7496 12.3511 40.6476 12.4531C40.4437 12.657 40.1378 12.8609 40.0359 13.1668C39.9339 13.4727 40.2398 13.6766 40.4437 13.5747C40.7496 13.4727 40.8516 13.2688 41.0555 13.0649C41.1574 12.8609 41.3614 12.657 41.3614 12.4531C41.4633 12.2492 41.4633 12.2492 41.2594 12.1472C41.2594 12.1472 41.3614 12.1472 41.2594 12.1472Z" fill="white"/>
<path d="M82.8595 23.0571C80.9223 22.7512 78.985 22.1394 77.0478 21.9355C74.9066 21.6296 72.7655 21.6296 70.6243 21.6296C67.3616 21.7316 64.0989 22.2414 61.142 23.6688C61.3459 22.9551 61.5499 22.1394 61.6518 21.3238C62.8753 13.3709 57.1656 7.15132 54.5146 0.218035C54.4127 -0.0878449 53.8009 -0.0878447 53.9029 0.319995C54.2087 5.01016 52.0676 8.78268 49.8245 12.5552C48.397 10.618 46.6637 9.08856 44.6245 8.68072C40.6481 7.4572 35.5501 9.29248 31.8795 10.7199C29.1266 11.8415 26.6795 13.167 24.3345 14.9003C22.2953 16.2258 20.2561 17.7552 18.4208 19.4885C17.911 18.9787 17.5031 18.4689 16.9933 18.061C17.1973 17.6532 16.7894 17.1434 16.2796 17.3473C16.3816 17.2454 16.4835 16.9395 16.3816 16.8375C16.2796 16.7356 16.0757 16.7356 15.9737 16.8375C15.8718 16.5316 15.4639 16.3277 15.1581 16.6336C14.4443 17.4493 13.9345 18.3669 13.9345 19.4885C13.9345 19.5904 14.0365 19.5904 14.1385 19.4885C14.6483 18.7748 15.1581 18.061 15.7698 17.4493C15.8718 17.4493 15.9737 17.4493 16.0757 17.4493C15.5659 17.8571 15.1581 18.4689 15.0561 19.0806C15.0561 19.2846 15.26 19.4885 15.4639 19.2846C15.8718 18.8767 16.2796 18.5708 16.7894 18.265C18.3188 20.5081 20.1541 22.5473 21.8874 24.5865C23.9266 26.9316 25.8639 29.6845 28.2089 31.7237C28.107 31.8256 27.9031 31.8256 27.8011 31.9276C26.4756 32.4374 25.0482 32.8452 23.7227 33.1511C22.1933 33.457 20.2561 33.8648 19.1345 32.6413C19.1345 32.0296 19.1345 31.5198 19.5423 30.908C19.8482 30.2962 20.358 29.8884 20.7659 29.4806C21.8874 30.7041 23.009 31.9276 24.3345 32.9472C24.4364 33.0492 24.5384 32.9472 24.5384 32.8452C23.3149 30.806 21.7855 28.9708 20.2561 27.1355C18.5227 25.0963 16.8914 22.8532 15.0561 21.0179C14.8522 20.814 14.6483 20.712 14.4443 20.61C14.4443 20.5081 14.4443 20.4061 14.4443 20.2022C14.4443 20.1002 14.3424 19.9983 14.2404 20.1002C14.1385 20.2022 14.0365 20.2022 13.8326 20.3042C13.7306 20.3042 13.6287 20.2022 13.5267 20.2022C13.5267 20.1002 13.5267 19.8963 13.5267 19.7944C13.5267 19.5904 13.2208 19.4885 13.1189 19.6924C13.0169 19.7944 12.9149 19.9983 12.813 20.1002C11.7934 19.9983 10.7738 20.1002 9.85613 20.2022C7.51105 20.3042 5.26793 20.4061 2.92285 20.4061C3.53461 19.2846 3.63657 17.9591 2.92285 16.8375C4.24833 16.8375 5.67577 16.8375 7.00125 16.7356C9.14241 16.6336 11.3855 16.6336 13.5267 16.5316C13.4247 17.3473 13.3228 18.061 13.3228 18.8767C13.3228 18.9787 13.4247 18.9787 13.4247 18.8767C13.9345 18.163 14.2404 17.3473 14.4443 16.5316C14.5463 16.6336 14.5463 16.6336 14.6483 16.6336C14.7502 16.6336 14.8522 16.6336 14.9541 16.5316C15.1581 16.4297 15.1581 16.3277 15.1581 16.1238C15.1581 15.716 14.7502 15.614 14.5463 15.8179C14.5463 15.614 14.3424 15.4101 14.0365 15.4101C11.8953 15.4101 9.75417 15.512 7.61301 15.512C5.67577 15.614 3.63657 15.512 1.69933 15.8179C1.08757 15.614 0.475813 16.1238 0.271893 16.6336C-0.339867 17.7552 0.271893 19.8963 0.271893 21.1198C0.271893 21.5277 0.577773 21.8336 0.985613 21.8336C3.43265 21.7316 5.77773 21.6296 8.22477 21.6296C10.264 21.5277 13.1189 20.814 14.6483 22.5473C14.8522 22.7512 15.0561 22.9551 15.26 23.159C13.0169 26.2178 11.3855 29.5825 10.6718 33.1511C10.4679 34.0688 10.4679 34.7825 10.6718 35.5982C10.6718 36.3119 10.9777 37.1276 11.3855 37.6374C13.3228 41.3079 16.5855 44.6726 19.9502 47.0177C20.5619 47.4255 21.1737 47.8334 21.7855 48.2412C21.4796 49.2608 21.2757 50.2804 21.3776 51.0961C21.3776 51.198 21.5815 51.3 21.5815 51.0961C21.8874 50.2804 22.1933 49.4647 22.4992 48.649C25.7619 50.3824 29.4325 51.3 32.8991 51.198C35.5501 51.198 37.9971 50.6882 40.2402 49.8726C40.2402 50.3824 40.3422 50.8922 40.4441 51.402C40.5461 51.8098 41.1579 51.8098 41.1579 51.402C41.2598 50.7902 41.3618 50.0765 41.3618 49.3628C43.7069 48.3432 45.7461 46.9157 47.6833 45.2844L47.7853 45.1824C48.0911 45.3863 48.397 45.6922 48.7029 45.7942C48.9068 45.8961 49.2127 45.6922 49.1107 45.4883C49.0088 45.1824 48.8049 44.7746 48.6009 44.4687C49.1107 44.0608 49.6205 43.551 50.0284 43.0412C55.9421 45.0804 62.4675 45.1824 67.7694 41.104C70.8282 38.7589 72.7655 35.3942 74.7027 32.1315C76.9458 28.461 79.3929 25.1982 83.1654 23.159C83.0634 23.363 83.0634 23.159 82.8595 23.0571ZM2.00521 19.2846C1.90325 19.9983 1.39345 20.4061 1.08757 21.0179C0.985614 20.4061 0.781694 19.8963 0.679734 19.2846C0.679734 19.0806 0.577774 18.7748 0.577774 18.4689C0.577774 18.163 0.679734 17.9591 0.883654 17.6532C0.985614 17.5512 1.08757 17.4493 1.29149 17.4493C1.69933 17.7552 2.00521 18.061 2.00521 18.7748V18.8767C2.00521 18.9787 2.00521 19.1826 2.00521 19.2846ZM54.8205 2.3592C55.9421 4.70428 56.8597 7.25328 57.8793 9.59836C59.3067 12.963 60.4283 16.3277 60.4283 19.8963C60.4283 22.4453 59.6126 24.6884 58.3891 26.8296C57.5734 26.3198 56.6558 26.0139 55.6362 25.912C55.4323 23.9747 54.9225 21.9355 54.1068 20.1002C54.2087 19.7944 54.3107 19.4885 54.4127 19.0806C55.5342 15.2062 56.2479 10.9238 55.9421 6.94739C55.9421 6.84543 55.8401 6.84543 55.7381 6.94739C54.9225 10.7199 54.4127 14.4924 53.2911 18.163V18.265C52.7813 17.3473 52.2715 16.4297 51.6597 15.512C51.3539 14.9003 50.946 14.2885 50.5382 13.6768C52.6793 10.2101 55.0244 6.4376 54.8205 2.3592ZM55.7381 26.9316C56.5538 27.0335 57.2675 27.1355 58.0832 27.2374C57.3695 28.359 56.5538 29.3786 55.6362 30.2962C55.8401 29.2766 55.8401 28.0531 55.7381 26.9316ZM22.907 24.4845C22.6011 24.0767 22.2953 23.7708 21.8874 23.363C25.3541 19.2846 30.2481 16.3277 35.5501 15.2062C36.9775 14.9003 38.6089 14.6964 39.9343 15.512C41.7696 16.5316 41.3618 19.0806 40.6481 20.61C40.4441 21.1198 40.1383 21.6296 39.7304 22.2414C37.5893 21.1198 34.3265 21.8336 32.1854 22.3434C30.656 22.7512 29.2285 23.363 27.6991 23.9747C26.4756 24.4845 25.0482 25.0963 24.0286 26.0139C23.7227 25.5041 23.3149 24.9943 22.907 24.4845ZM24.5384 26.4218C25.2521 26.2178 25.8639 25.912 26.5776 25.6061C28.107 24.8924 29.7383 24.1786 31.2677 23.6688C32.6952 23.159 34.1226 22.9551 35.652 22.7512C36.8755 22.6492 38.0991 22.9551 39.3226 22.9551C38.0991 24.6884 36.4677 26.3198 34.9383 27.6453C33.103 29.2766 30.9619 30.6021 28.6168 31.6217C27.4952 29.6845 25.9658 28.0531 24.5384 26.4218ZM20.0521 29.1747C19.2365 29.5825 18.6247 30.1943 18.2169 30.908C18.2169 29.8884 18.6247 28.8688 19.0325 27.9512C19.3384 28.461 19.7463 28.8688 20.0521 29.1747ZM12.3032 37.0256C10.7738 34.5786 12.5071 31.2139 13.5267 28.8688C14.1385 27.4414 14.9541 26.2178 15.7698 24.8924C15.7698 24.8924 15.8718 24.8924 15.8718 24.7904C15.9737 24.6884 15.9737 24.5865 16.0757 24.5865C16.6875 25.3002 17.1973 25.912 17.809 26.6257C17.1973 27.8492 16.7894 29.1747 16.4835 30.5002C15.9737 33.457 18.0129 35.3942 20.8678 35.2923C23.8247 35.1903 26.8835 33.9668 29.5344 32.7433C29.9423 32.5394 30.2481 32.3354 30.656 32.2335C30.554 32.4374 30.4521 32.6413 30.656 32.9472C30.7579 33.1511 30.9619 33.1511 31.0638 33.2531C31.1658 33.355 31.2677 33.355 31.2677 33.2531C31.3697 33.1511 31.4717 33.0492 31.4717 32.9472C31.5736 32.6413 31.4717 32.3354 31.2677 32.1315C31.1658 32.0296 31.0638 32.0296 30.9619 32.0296C33.6128 30.6021 36.1618 28.6649 38.303 26.4218C38.303 26.5237 38.4049 26.6257 38.5069 26.6257C38.7108 26.8296 39.0167 26.7276 39.3226 26.8296C39.5265 26.8296 39.8324 27.0335 40.0363 27.0335C40.1383 27.0335 40.1383 26.9316 40.1383 26.9316C40.1383 26.6257 39.8324 26.3198 39.7304 26.2178C39.5265 26.0139 39.2206 25.912 39.0167 25.912C40.5461 24.1786 41.8716 22.2414 42.6873 20.1002C43.1971 18.8767 43.1971 17.5512 42.8912 16.4297C43.299 16.4297 43.7069 16.3277 44.1147 16.2258C44.5225 16.1238 45.1343 16.0218 45.4402 15.614C45.6441 15.4101 45.5421 15.0022 45.2363 15.0022C44.7265 14.9003 44.3186 15.1042 43.8088 15.3081C43.401 15.4101 42.9931 15.614 42.5853 15.8179C42.0755 14.9003 41.2598 14.0846 40.1383 13.7787C37.3853 12.8611 33.8167 14.1866 31.2677 15.2062C31.0638 15.3081 30.8599 15.4101 30.656 15.512C30.656 15.3081 30.656 15.1042 30.554 15.0022C30.4521 14.7983 30.3501 14.4924 30.1462 14.3905C30.0442 14.2885 29.8403 14.3905 29.8403 14.4924C29.7383 14.6964 29.7383 14.9003 29.7383 15.1042C29.7383 15.4101 29.7383 15.614 30.0442 15.8179C28.6168 16.4297 27.2913 17.2454 26.0678 18.163C24.2325 19.2846 22.3972 20.814 20.8678 22.5473C20.46 22.0375 19.9502 21.5277 19.5423 21.0179C24.7423 15.8179 31.5736 12.0454 38.8128 10.516C41.0559 10.0062 43.6049 9.80228 45.7461 10.9238C48.6009 12.4532 47.8872 16.4297 46.7657 18.8767C44.8284 23.0571 41.3618 26.7276 37.8951 29.6845C34.4285 32.6413 30.554 34.9864 26.3737 36.7197C24.3345 37.5354 22.1933 38.1472 19.9502 38.657C17.2992 38.9628 13.9345 39.6766 12.3032 37.0256ZM49.5186 41.3079C48.8049 42.1236 48.0911 42.9393 47.2755 43.653C46.9696 43.3471 46.6637 43.1432 46.2559 43.0412C46.1539 43.0412 46.0519 43.0412 46.0519 43.1432C46.1539 43.551 46.3578 43.8569 46.5617 44.2648L46.4598 44.3667C45.3382 45.2844 44.2167 46.202 42.8912 46.9157C42.1775 47.3236 41.5657 47.6294 40.852 48.0373C40.852 47.9353 40.75 47.8334 40.75 47.7314C40.6481 47.5275 40.3422 47.5275 40.3422 47.7314C40.2402 47.9353 40.2402 48.1392 40.1383 48.4451C38.0991 49.2608 35.8559 49.8726 33.4089 49.9745C29.8403 50.1784 26.1697 49.3628 22.907 47.6294C23.4168 46.9157 23.9266 46.1 24.1305 45.2844C24.2325 45.0804 23.9266 44.9785 23.8247 45.0804C23.1109 45.4883 22.4992 46.304 22.0913 47.2216C21.5815 46.9157 20.9698 46.6098 20.46 46.202C18.0129 44.5706 16.1777 42.4295 14.3424 40.1864C15.0561 40.3903 15.8718 40.4922 16.7894 40.4922C21.0717 40.2883 25.558 38.555 29.4325 36.7197C37.2834 33.0492 45.2363 26.2178 48.6009 18.061C49.1107 16.9395 49.3147 15.716 49.2127 14.5944C50.3343 15.9199 51.2519 17.3473 52.0676 18.9787C53.1891 21.2218 53.9029 23.5669 54.2087 25.912C53.2911 25.912 52.2715 26.1159 51.8637 26.8296C51.8637 26.9316 51.8637 26.9316 51.8637 27.0335C52.5774 27.4414 53.495 27.2374 54.3107 27.1355C54.4127 28.5629 54.4127 29.9904 54.2087 31.3158C53.3931 31.2139 52.4754 31.2139 51.9656 31.8256V31.9276C52.3735 32.5394 53.1891 32.5394 53.9029 32.6413C53.0872 35.904 51.5578 38.7589 49.5186 41.3079ZM69.1969 37.9432C64.4047 43.653 57.3695 44.0608 50.7421 42.2256C52.5774 40.0844 54.0048 37.4334 54.8205 34.5786C55.4323 34.1707 56.146 33.6609 56.8597 33.2531C57.2675 33.355 57.5734 33.559 57.9813 33.6609C58.2871 33.7629 58.593 33.2531 58.2871 33.0492C58.1852 32.9472 57.9813 32.7433 57.8793 32.6413C58.3891 32.3354 59.0009 32.0296 59.5107 31.7237C64.3028 29.0727 69.2988 27.4414 74.4988 25.708C74.6007 25.708 74.6007 25.6061 74.4988 25.6061C69.2988 26.0139 64.0989 28.1551 59.4087 30.3982C58.4911 30.908 57.5734 31.4178 56.6558 31.9276C56.4519 31.8256 56.146 31.7237 55.9421 31.6217C58.0832 29.7864 59.7146 27.5433 60.8361 24.8924C64.0989 23.8728 67.2596 23.159 70.7263 23.0571C72.6635 22.9551 74.4988 23.0571 76.436 23.261C78.2713 23.363 80.1066 23.363 81.8399 23.4649C75.7223 25.912 73.0713 33.2531 69.1969 37.9432Z" fill="white"/>
<path d="M47.5815 37.0256C47.0717 36.5158 46.358 36.4138 45.7463 36.5158C45.2365 36.6177 45.2365 37.2295 45.6443 37.4334C46.0521 37.6373 46.46 37.8412 46.7659 38.1471C46.9698 38.2491 47.1737 38.351 47.3776 38.453C47.5815 38.555 47.6835 38.7589 47.9894 38.7589C48.0913 38.7589 48.1933 38.6569 48.1933 38.6569C48.3972 38.1471 47.9894 37.3314 47.5815 37.0256Z" fill="white"/>
</svg>
