<svg width="177" height="42" viewBox="0 0 177 42" fill="none" xmlns="http://www.w3.org/2000/svg">
<path fill-rule="evenodd" clip-rule="evenodd" d="M9.50541 0.20602C9.23701 0.339543 9.00415 0.537082 8.8532 0.759292L8.61845 1.10478L8.59284 4.58834C8.57544 6.96602 8.59612 8.16993 8.65818 8.38067C8.76431 8.74148 9.15813 9.21697 9.49482 9.39082C9.62476 9.45795 9.96744 9.53492 10.2562 9.56188C11.2226 9.65196 11.9294 9.33943 12.2923 8.6614C12.4726 8.32452 12.4767 8.25411 12.5011 5.05268C12.5287 1.43748 12.4986 1.11347 12.0896 0.6179C11.7224 0.173152 11.2946 0.0022525 10.5429 3.94152e-05C10.0415 -0.00143598 9.84309 0.0379898 9.50541 0.20602ZM30.7802 0.1093C30.452 0.258643 30.0897 0.629376 29.9274 0.98183C29.8146 1.22658 29.7915 1.73477 29.7703 4.44342C29.7387 8.45165 29.7617 8.59665 30.5263 9.21468C30.8086 9.44287 30.8994 9.46795 31.5398 9.49475C32.345 9.52852 32.7549 9.43123 33.1274 9.1182C33.6876 8.64747 33.6903 8.62739 33.6922 4.74916C33.694 1.29322 33.6924 1.25929 33.5094 0.901503C33.4077 0.702981 33.1828 0.427739 33.0095 0.289872C32.7102 0.051842 32.6524 0.0381537 31.8604 0.0182359C31.2896 0.00389184 30.9487 0.03258 30.7802 0.1093ZM1.92487 3.47049C1.19164 3.66794 0.514891 4.25507 0.175406 4.98817L0 5.36702V22.252V39.1371L0.217595 39.6006C0.474507 40.1477 0.966826 40.6512 1.50265 40.9148L1.88785 41.1043H20.9716H40.0553L40.4405 40.9148C40.9763 40.6512 41.4686 40.1477 41.7255 39.6006L41.9431 39.1371V22.252V5.36702L41.7158 4.90457C41.4504 4.36507 40.9005 3.82778 40.357 3.57696C39.995 3.40991 39.8318 3.39836 37.4903 3.37393L35.0073 3.34803V6.08471C35.0073 8.34477 34.9851 8.88648 34.8798 9.19525C34.5777 10.0804 33.703 10.6675 32.446 10.8289C30.6799 11.0556 29.3808 10.449 28.736 9.09648L28.4819 8.5637L28.4553 5.96127L28.4287 3.35885H21.1297H13.8306L13.8292 5.75636C13.8279 8.35452 13.776 8.7964 13.3964 9.44328C13.1118 9.92819 12.598 10.3797 12.0346 10.6397C11.4252 10.9211 10.1607 10.9897 9.44016 10.7806C8.58636 10.5327 7.92036 9.97483 7.52752 9.17845L7.30516 8.72763L7.28144 6.04324L7.25772 3.35885L4.77799 3.36434C3.09304 3.36811 2.17858 3.40213 1.92487 3.47049ZM39.2755 26.2684V38.5223H20.9716H2.66762V26.2684V14.0145H20.9716H39.2755V26.2684ZM22.0934 17.4297C22.0632 17.4597 22.0386 18.5036 22.0386 19.7494C22.0386 21.4017 22.0653 22.041 22.1371 22.1127C22.278 22.2534 27.2987 22.2534 27.4395 22.1127C27.5799 21.9725 27.5799 17.6137 27.4395 17.4734C27.367 17.401 26.6546 17.3751 24.7446 17.3751C23.3164 17.3751 22.1234 17.3997 22.0934 17.4297ZM29.9731 17.4297C29.943 17.4597 29.9183 18.5036 29.9183 19.7494C29.9183 21.4017 29.945 22.041 30.0168 22.1127C30.1577 22.2534 35.1784 22.2534 35.3192 22.1127C35.4597 21.9725 35.4597 17.6137 35.3192 17.4734C35.2468 17.401 34.5343 17.3751 32.6243 17.3751C31.1962 17.3751 30.0031 17.3997 29.9731 17.4297ZM6.36994 24.2907C6.30386 24.3703 6.28293 25.0708 6.29836 26.6882L6.3202 28.9733L8.93692 28.9949C10.7995 29.0103 11.5862 28.9897 11.6661 28.9234C11.8193 28.7964 11.8325 24.4288 11.6801 24.2766C11.527 24.1237 6.49766 24.1371 6.36994 24.2907ZM14.2497 24.2907C14.1836 24.3703 14.1627 25.0708 14.1781 26.6882L14.1999 28.9733L16.8166 28.9949C18.6792 29.0103 19.4659 28.9897 19.5458 28.9234C19.6991 28.7964 19.7122 24.4288 19.5598 24.2766C19.4067 24.1237 14.3774 24.1371 14.2497 24.2907ZM22.1294 24.2907C22.0633 24.3703 22.0424 25.0708 22.0578 26.6882L22.0797 28.9733L24.6964 28.9949C26.5589 29.0103 27.3456 28.9897 27.4256 28.9234C27.5788 28.7964 27.5919 24.4288 27.4395 24.2766C27.2864 24.1237 22.2571 24.1371 22.1294 24.2907ZM30.0091 24.2907C29.943 24.3703 29.9221 25.0708 29.9375 26.6882L29.9594 28.9733L32.5761 28.9949C34.4387 29.0103 35.2253 28.9897 35.3053 28.9234C35.4585 28.7964 35.4717 24.4288 35.3192 24.2766C35.1662 24.1237 30.1368 24.1371 30.0091 24.2907ZM6.4228 31.07C6.29147 31.1464 6.27916 31.3483 6.27916 33.4281C6.27916 35.088 6.30575 35.7293 6.37765 35.8011C6.44997 35.8733 7.14609 35.8994 8.9984 35.8994C11.1818 35.8994 11.5379 35.8821 11.6496 35.7706C11.7604 35.6599 11.7785 35.3323 11.7785 33.4392C11.7785 31.256 11.7769 31.2355 11.5961 31.1091C11.4408 31.0004 11.0536 30.9819 8.99003 30.9839C7.49715 30.9855 6.51128 31.0185 6.4228 31.07ZM14.3025 31.07C14.1712 31.1464 14.1589 31.3483 14.1589 33.4281C14.1589 35.088 14.1855 35.7293 14.2574 35.8011C14.3297 35.8733 15.0258 35.8994 16.8781 35.8994C19.0616 35.8994 19.4176 35.8821 19.5293 35.7706C19.6401 35.6599 19.6583 35.3323 19.6583 33.4392C19.6583 31.256 19.6566 31.2355 19.4758 31.1091C19.3205 31.0004 18.9333 30.9819 16.8698 30.9839C15.3769 30.9855 14.391 31.0185 14.3025 31.07ZM22.1823 31.07C22.0508 31.1464 22.0386 31.349 22.0386 33.4417C22.0386 35.6199 22.0462 35.7338 22.1974 35.8146C22.2967 35.8676 23.2779 35.8994 24.8181 35.8994C26.9468 35.8994 27.2975 35.882 27.4091 35.7706C27.5199 35.6599 27.538 35.3323 27.538 33.4392C27.538 31.256 27.5364 31.2355 27.3555 31.1091C27.2002 31.0004 26.8131 30.9819 24.7495 30.9839C23.2566 30.9855 22.2707 31.0185 22.1823 31.07ZM30.062 31.07C29.9306 31.1464 29.9183 31.349 29.9183 33.4417C29.9183 35.6199 29.926 35.7338 30.0771 35.8146C30.1764 35.8676 31.1577 35.8994 32.6978 35.8994C34.8265 35.8994 35.1772 35.882 35.2888 35.7706C35.3996 35.6599 35.4177 35.3323 35.4177 33.4392C35.4177 31.256 35.4161 31.2355 35.2353 31.1091C35.08 31.0004 34.6928 30.9819 32.6292 30.9839C31.1363 30.9855 30.1505 31.0185 30.062 31.07Z" fill="white"/>
<path d="M55.9834 16.6527V29.6527H52.8481V16.6527H55.9834ZM61.0392 22.0634V24.4741H55.0902V22.0634H61.0392ZM61.5483 16.6527V19.0723H55.0902V16.6527H61.5483Z" fill="white"/>
<path d="M67.1936 29.8313C66.4076 29.8313 65.7049 29.7093 65.0856 29.4652C64.4662 29.2152 63.9422 28.8729 63.5134 28.4384C63.0906 28.0039 62.7661 27.5039 62.5398 26.9384C62.3195 26.3729 62.2093 25.7747 62.2093 25.1438V24.8045C62.2093 24.0961 62.3076 23.4414 62.5041 22.8402C62.7006 22.233 62.9924 21.7033 63.3795 21.2509C63.7665 20.7985 64.2519 20.4473 64.8354 20.1973C65.419 19.9414 66.0979 19.8134 66.872 19.8134C67.5569 19.8134 68.1702 19.9235 68.7121 20.1438C69.254 20.364 69.7125 20.6795 70.0877 21.0902C70.4688 21.5009 70.7576 21.9979 70.9542 22.5813C71.1566 23.1646 71.2579 23.8194 71.2579 24.5456V25.7688H63.3616V23.8848H68.3191V23.6527C68.325 23.3313 68.2685 23.0575 68.1494 22.8313C68.0362 22.6051 67.8695 22.4325 67.6492 22.3134C67.4288 22.1944 67.1609 22.1348 66.8452 22.1348C66.5177 22.1348 66.2468 22.2063 66.0324 22.3491C65.824 22.492 65.6602 22.6884 65.5411 22.9384C65.428 23.1825 65.3476 23.4652 65.2999 23.7866C65.2523 24.1081 65.2285 24.4473 65.2285 24.8045V25.1438C65.2285 25.5009 65.2761 25.8253 65.3714 26.117C65.4726 26.4087 65.6155 26.6587 65.8001 26.867C65.9907 27.0694 66.217 27.2271 66.479 27.3402C66.747 27.4533 67.0507 27.5098 67.3901 27.5098C67.801 27.5098 68.2059 27.4325 68.6049 27.2777C69.0039 27.1229 69.3463 26.867 69.6322 26.5098L70.9988 28.1348C70.8023 28.4146 70.5224 28.6854 70.1592 28.9473C69.8019 29.2093 69.3731 29.4235 68.8729 29.5902C68.3727 29.7509 67.8129 29.8313 67.1936 29.8313Z" fill="white"/>
<path d="M76.5637 27.5098C76.8436 27.5098 77.0818 27.4592 77.2783 27.3581C77.4808 27.2509 77.6326 27.1021 77.7339 26.9116C77.841 26.7152 77.8917 26.4801 77.8857 26.2063H80.7173C80.7232 26.9325 80.5446 27.5694 80.1813 28.117C79.824 28.6587 79.3357 29.0813 78.7164 29.3848C78.1031 29.6825 77.4093 29.8313 76.6352 29.8313C75.8789 29.8313 75.2179 29.7093 74.6522 29.4652C74.0865 29.2152 73.613 28.87 73.2319 28.4295C72.8568 27.9831 72.5739 27.4622 72.3833 26.867C72.1987 26.2717 72.1064 25.6259 72.1064 24.9295V24.7241C72.1064 24.0277 72.1987 23.3819 72.3833 22.7866C72.5739 22.1854 72.8568 21.6646 73.2319 21.2241C73.613 20.7777 74.0835 20.4324 74.6432 20.1884C75.209 19.9384 75.867 19.8134 76.6173 19.8134C77.4212 19.8134 78.1299 19.9652 78.7432 20.2688C79.3625 20.5723 79.8479 21.0128 80.1992 21.5902C80.5505 22.1676 80.7232 22.867 80.7173 23.6884H77.8857C77.8917 23.3967 77.847 23.1348 77.7517 22.9027C77.6564 22.6705 77.5076 22.486 77.3051 22.3491C77.1086 22.2063 76.8555 22.1348 76.5458 22.1348C76.2362 22.1348 75.9861 22.2033 75.7955 22.3402C75.605 22.4771 75.4591 22.6676 75.3578 22.9116C75.2626 23.1497 75.1971 23.4235 75.1613 23.7331C75.1315 24.0426 75.1167 24.3729 75.1167 24.7241V24.9295C75.1167 25.2866 75.1315 25.6229 75.1613 25.9384C75.1971 26.2479 75.2655 26.5217 75.3668 26.7598C75.468 26.992 75.6139 27.1765 75.8045 27.3134C75.995 27.4444 76.2481 27.5098 76.5637 27.5098Z" fill="white"/>
<path d="M84.9512 15.9384V29.6527H81.941V15.9384H84.9512ZM84.594 24.492L83.8883 24.5098C83.8883 23.8313 83.9717 23.2063 84.1384 22.6348C84.3051 22.0634 84.5433 21.5664 84.853 21.1438C85.1626 20.7211 85.5348 20.3938 85.9695 20.1616C86.4043 19.9295 86.8866 19.8134 87.4166 19.8134C87.893 19.8134 88.3277 19.8819 88.7207 20.0188C89.1197 20.1557 89.4621 20.3759 89.748 20.6795C90.0397 20.983 90.2631 21.3789 90.4179 21.867C90.5787 22.3551 90.6591 22.9503 90.6591 23.6527V29.6527H87.631V23.6348C87.631 23.242 87.5744 22.9384 87.4613 22.7241C87.3541 22.5039 87.1992 22.3521 86.9968 22.2688C86.7943 22.1795 86.5472 22.1348 86.2554 22.1348C85.904 22.1348 85.6182 22.1944 85.3979 22.3134C85.1775 22.4325 85.0078 22.5991 84.8887 22.8134C84.7756 23.0217 84.6982 23.2688 84.6565 23.5545C84.6148 23.8402 84.594 24.1527 84.594 24.492Z" fill="white"/>
<path d="M97.3494 27.2241V23.242C97.3494 22.9682 97.3107 22.733 97.2333 22.5366C97.1559 22.3402 97.0338 22.1884 96.8671 22.0813C96.7004 21.9682 96.477 21.9116 96.1972 21.9116C95.9709 21.9116 95.7773 21.9503 95.6166 22.0277C95.4558 22.1051 95.3337 22.2211 95.2503 22.3759C95.167 22.5307 95.1253 22.7271 95.1253 22.9652H92.115C92.115 22.5188 92.2133 22.1051 92.4098 21.7241C92.6123 21.3372 92.8981 21.0009 93.2673 20.7152C93.6425 20.4295 94.0891 20.2092 94.6072 20.0545C95.1312 19.8938 95.7148 19.8134 96.3579 19.8134C97.1261 19.8134 97.811 19.9414 98.4124 20.1973C99.0198 20.4533 99.4992 20.8372 99.8505 21.3491C100.202 21.8551 100.378 22.492 100.378 23.2598V27.2152C100.378 27.8462 100.413 28.3253 100.485 28.6527C100.556 28.9741 100.657 29.2569 100.788 29.5009V29.6527H97.7693C97.6263 29.3551 97.5192 28.992 97.4477 28.5634C97.3822 28.1289 97.3494 27.6825 97.3494 27.2241ZM97.7157 23.7509L97.7335 25.3581H96.4026C96.1227 25.3581 95.8845 25.3967 95.688 25.4741C95.4975 25.5515 95.3426 25.6587 95.2235 25.7956C95.1104 25.9265 95.027 26.0753 94.9734 26.242C94.9258 26.4087 94.902 26.5842 94.902 26.7688C94.902 26.9473 94.9436 27.1081 95.027 27.2509C95.1163 27.3878 95.2354 27.495 95.3843 27.5723C95.5332 27.6497 95.6999 27.6884 95.8845 27.6884C96.218 27.6884 96.5009 27.6259 96.7331 27.5009C96.9713 27.37 97.1529 27.2122 97.278 27.0277C97.403 26.8432 97.4656 26.6706 97.4656 26.5098L98.1266 27.742C98.0075 27.9801 97.8705 28.2212 97.7157 28.4652C97.5668 28.7093 97.3792 28.9354 97.1529 29.1438C96.9326 29.3462 96.6616 29.5128 96.3401 29.6438C96.0185 29.7688 95.6285 29.8313 95.1699 29.8313C94.5744 29.8313 94.0266 29.7093 93.5264 29.4652C93.0321 29.2212 92.6361 28.8819 92.3384 28.4473C92.0406 28.0069 91.8917 27.5009 91.8917 26.9295C91.8917 26.4295 91.9811 25.9831 92.1597 25.5902C92.3443 25.1973 92.6212 24.864 92.9904 24.5902C93.3596 24.3164 93.8301 24.1081 94.4017 23.9652C94.9734 23.8223 95.6463 23.7509 96.4205 23.7509H97.7157Z" fill="white"/>
<path d="M112.159 27.4384V15.9384H115.187V29.6527H112.472L112.159 27.4384ZM106.228 24.9384V24.7509C106.228 24.0188 106.309 23.3521 106.469 22.7509C106.63 22.1438 106.868 21.6229 107.184 21.1884C107.5 20.7479 107.893 20.4086 108.363 20.1705C108.834 19.9324 109.375 19.8134 109.989 19.8134C110.537 19.8134 111.016 19.9414 111.427 20.1973C111.838 20.4473 112.189 20.7985 112.481 21.2509C112.773 21.7033 113.011 22.233 113.196 22.8402C113.38 23.4414 113.52 24.0902 113.615 24.7866V25.0098C113.52 25.6646 113.38 26.2837 113.196 26.867C113.011 27.4444 112.773 27.9563 112.481 28.4027C112.189 28.8491 111.835 29.2003 111.418 29.4563C111.007 29.7063 110.525 29.8313 109.971 29.8313C109.358 29.8313 108.816 29.7093 108.345 29.4652C107.881 29.2212 107.491 28.8789 107.175 28.4384C106.865 27.9979 106.63 27.4801 106.469 26.8848C106.309 26.2896 106.228 25.6408 106.228 24.9384ZM109.238 24.7509V24.9384C109.238 25.3015 109.262 25.6378 109.31 25.9473C109.358 26.2569 109.438 26.5307 109.551 26.7688C109.67 27.0009 109.825 27.1825 110.016 27.3134C110.212 27.4444 110.453 27.5098 110.739 27.5098C111.126 27.5098 111.445 27.4176 111.695 27.2331C111.951 27.0485 112.139 26.7866 112.258 26.4473C112.383 26.1081 112.436 25.7092 112.418 25.2509V24.5456C112.43 24.1527 112.404 23.8075 112.338 23.5098C112.273 23.2063 112.168 22.9533 112.025 22.7509C111.888 22.5485 111.713 22.3967 111.498 22.2955C111.29 22.1884 111.043 22.1348 110.757 22.1348C110.477 22.1348 110.239 22.2003 110.042 22.3313C109.852 22.4622 109.697 22.6467 109.578 22.8848C109.459 23.117 109.372 23.3938 109.319 23.7152C109.265 24.0307 109.238 24.3759 109.238 24.7509Z" fill="white"/>
<path d="M121.574 29.8313C120.788 29.8313 120.085 29.7093 119.466 29.4652C118.847 29.2152 118.323 28.8729 117.894 28.4384C117.471 28.0039 117.147 27.5039 116.92 26.9384C116.7 26.3729 116.59 25.7747 116.59 25.1438V24.8045C116.59 24.0961 116.688 23.4414 116.885 22.8402C117.081 22.233 117.373 21.7033 117.76 21.2509C118.147 20.7985 118.632 20.4473 119.216 20.1973C119.8 19.9414 120.478 19.8134 121.253 19.8134C121.937 19.8134 122.551 19.9235 123.093 20.1438C123.635 20.364 124.093 20.6795 124.468 21.0902C124.849 21.5009 125.138 21.9979 125.335 22.5813C125.537 23.1646 125.638 23.8194 125.638 24.5456V25.7688H117.742V23.8848H122.7V23.6527C122.706 23.3313 122.649 23.0575 122.53 22.8313C122.417 22.6051 122.25 22.4325 122.03 22.3134C121.809 22.1944 121.541 22.1348 121.226 22.1348C120.898 22.1348 120.627 22.2063 120.413 22.3491C120.205 22.492 120.041 22.6884 119.922 22.9384C119.809 23.1825 119.728 23.4652 119.68 23.7866C119.633 24.1081 119.609 24.4473 119.609 24.8045V25.1438C119.609 25.5009 119.657 25.8253 119.752 26.117C119.853 26.4087 119.996 26.6587 120.181 26.867C120.371 27.0694 120.598 27.2271 120.86 27.3402C121.128 27.4533 121.431 27.5098 121.771 27.5098C122.182 27.5098 122.586 27.4325 122.985 27.2777C123.384 27.1229 123.727 26.867 124.013 26.5098L125.379 28.1348C125.183 28.4146 124.903 28.6854 124.54 28.9473C124.182 29.2093 123.754 29.4235 123.253 29.5902C122.753 29.7509 122.193 29.8313 121.574 29.8313Z" fill="white"/>
<path d="M130.042 15.9384V29.6527H127.023V15.9384H130.042Z" fill="white"/>
<path d="M141.52 26.5902L144.227 16.6527H147.737L143.351 29.6527H141.083L141.52 26.5902ZM139.064 16.6527L141.77 26.5902L142.226 29.6527H139.93L135.571 16.6527H139.064Z" fill="white"/>
<path d="M151.73 19.992V29.6527H148.711V19.992H151.73ZM148.532 17.5009C148.532 17.0723 148.687 16.7211 148.997 16.4473C149.306 16.1735 149.708 16.0366 150.203 16.0366C150.697 16.0366 151.099 16.1735 151.408 16.4473C151.718 16.7211 151.873 17.0723 151.873 17.5009C151.873 17.9295 151.718 18.2807 151.408 18.5545C151.099 18.8283 150.697 18.9652 150.203 18.9652C149.708 18.9652 149.306 18.8283 148.997 18.5545C148.687 18.2807 148.532 17.9295 148.532 17.5009Z" fill="white"/>
<path d="M158.608 27.2241V23.242C158.608 22.9682 158.569 22.733 158.492 22.5366C158.414 22.3402 158.292 22.1884 158.126 22.0813C157.959 21.9682 157.736 21.9116 157.456 21.9116C157.229 21.9116 157.036 21.9503 156.875 22.0277C156.714 22.1051 156.592 22.2211 156.509 22.3759C156.425 22.5307 156.384 22.7271 156.384 22.9652H153.374C153.374 22.5188 153.472 22.1051 153.668 21.7241C153.871 21.3372 154.157 21.0009 154.526 20.7152C154.901 20.4295 155.348 20.2092 155.866 20.0545C156.39 19.8938 156.973 19.8134 157.616 19.8134C158.385 19.8134 159.069 19.9414 159.671 20.1973C160.278 20.4533 160.758 20.8372 161.109 21.3491C161.46 21.8551 161.636 22.492 161.636 23.2598V27.2152C161.636 27.8462 161.672 28.3253 161.743 28.6527C161.815 28.9741 161.916 29.2569 162.047 29.5009V29.6527H159.028C158.885 29.3551 158.778 28.992 158.706 28.5634C158.641 28.1289 158.608 27.6825 158.608 27.2241ZM158.974 23.7509L158.992 25.3581H157.661C157.381 25.3581 157.143 25.3967 156.947 25.4741C156.756 25.5515 156.601 25.6587 156.482 25.7956C156.369 25.9265 156.286 26.0753 156.232 26.242C156.184 26.4087 156.16 26.5842 156.16 26.7688C156.16 26.9473 156.202 27.1081 156.286 27.2509C156.375 27.3878 156.494 27.495 156.643 27.5723C156.792 27.6497 156.958 27.6884 157.143 27.6884C157.477 27.6884 157.759 27.6259 157.992 27.5009C158.23 27.37 158.411 27.2122 158.536 27.0277C158.662 26.8432 158.724 26.6706 158.724 26.5098L159.385 27.742C159.266 27.9801 159.129 28.2212 158.974 28.4652C158.825 28.7093 158.638 28.9354 158.411 29.1438C158.191 29.3462 157.92 29.5128 157.599 29.6438C157.277 29.7688 156.887 29.8313 156.428 29.8313C155.833 29.8313 155.285 29.7093 154.785 29.4652C154.291 29.2212 153.895 28.8819 153.597 28.4473C153.299 28.0069 153.15 27.5009 153.15 26.9295C153.15 26.4295 153.24 25.9831 153.418 25.5902C153.603 25.1973 153.88 24.864 154.249 24.5902C154.618 24.3164 155.089 24.1081 155.66 23.9652C156.232 23.8223 156.905 23.7509 157.679 23.7509H158.974Z" fill="white"/>
<path d="M163.53 19.992H166.549V29.9652C166.549 30.739 166.4 31.3908 166.102 31.9206C165.805 32.4563 165.379 32.861 164.825 33.1349C164.271 33.4146 163.61 33.5545 162.842 33.5545C162.586 33.5545 162.351 33.5426 162.136 33.5188C161.916 33.5009 161.675 33.4622 161.413 33.4027V31.1259C161.568 31.1497 161.71 31.1676 161.841 31.1795C161.972 31.1974 162.115 31.2063 162.27 31.2063C162.544 31.2063 162.773 31.1616 162.958 31.0724C163.143 30.9831 163.283 30.8462 163.378 30.6616C163.479 30.4771 163.53 30.245 163.53 29.9652V19.992ZM163.306 17.5009C163.306 17.0723 163.461 16.7211 163.771 16.4473C164.081 16.1735 164.483 16.0366 164.977 16.0366C165.471 16.0366 165.873 16.1735 166.183 16.4473C166.492 16.7211 166.647 17.0723 166.647 17.5009C166.647 17.9295 166.492 18.2807 166.183 18.5545C165.873 18.8283 165.471 18.9652 164.977 18.9652C164.483 18.9652 164.081 18.8283 163.771 18.5545C163.461 18.2807 163.306 17.9295 163.306 17.5009Z" fill="white"/>
<path d="M172.936 29.8313C172.149 29.8313 171.447 29.7093 170.828 29.4652C170.208 29.2152 169.684 28.8729 169.255 28.4384C168.833 28.0039 168.508 27.5039 168.282 26.9384C168.061 26.3729 167.951 25.7747 167.951 25.1438V24.8045C167.951 24.0961 168.05 23.4414 168.246 22.8402C168.443 22.233 168.734 21.7033 169.121 21.2509C169.508 20.7985 169.994 20.4473 170.577 20.1973C171.161 19.9414 171.84 19.8134 172.614 19.8134C173.299 19.8134 173.912 19.9235 174.454 20.1438C174.996 20.364 175.454 20.6795 175.83 21.0902C176.211 21.5009 176.5 21.9979 176.696 22.5813C176.899 23.1646 177 23.8194 177 24.5456V25.7688H169.104V23.8848H174.061V23.6527C174.067 23.3313 174.01 23.0575 173.891 22.8313C173.778 22.6051 173.611 22.4325 173.391 22.3134C173.171 22.1944 172.903 22.1348 172.587 22.1348C172.26 22.1348 171.989 22.2063 171.774 22.3491C171.566 22.492 171.402 22.6884 171.283 22.9384C171.17 23.1825 171.09 23.4652 171.042 23.7866C170.994 24.1081 170.97 24.4473 170.97 24.8045V25.1438C170.97 25.5009 171.018 25.8253 171.113 26.117C171.215 26.4087 171.357 26.6587 171.542 26.867C171.733 27.0694 171.959 27.2271 172.221 27.3402C172.489 27.4533 172.793 27.5098 173.132 27.5098C173.543 27.5098 173.948 27.4325 174.347 27.2777C174.746 27.1229 175.088 26.867 175.374 26.5098L176.741 28.1348C176.544 28.4146 176.264 28.6854 175.901 28.9473C175.544 29.2093 175.115 29.4235 174.615 29.5902C174.115 29.7509 173.555 29.8313 172.936 29.8313Z" fill="white"/>
</svg>
