<svg width="33" height="33" viewBox="0 0 33 33" fill="none" xmlns="http://www.w3.org/2000/svg">
<path fill-rule="evenodd" clip-rule="evenodd" d="M15.0978 0.900669C12.077 1.19671 9.28028 2.3107 6.83394 4.19243C5.64144 5.10966 4.09279 6.83347 3.19785 8.23965C2.81134 8.84696 2.05897 10.3859 1.78944 11.1203C1.48809 11.9415 1.1669 13.1965 1.00885 14.1703C0.815411 15.3622 0.815411 17.6251 1.00885 18.817C1.28235 20.5019 1.71501 21.864 2.45557 23.372C3.25606 25.002 4.10583 26.185 5.42333 27.5035C6.70919 28.7905 7.79763 29.5958 9.3123 30.3807C12.758 32.1661 16.7275 32.6078 20.4776 31.623C21.5785 31.3339 22.2966 31.0639 23.3922 30.5271C25.0416 29.7189 26.2108 28.8786 27.5581 27.5329C28.9054 26.1872 29.7467 25.0194 30.5558 23.372C31.0932 22.2777 31.3636 21.5605 31.6531 20.4608C32.0387 18.9962 32.1365 18.1934 32.1365 16.4937C32.1365 14.7939 32.0387 13.9911 31.6531 12.5265C31.3636 11.4268 31.0932 10.7096 30.5558 9.61532C29.7467 7.96788 28.9054 6.80009 27.5581 5.45438C26.2108 4.10873 25.0416 3.26841 23.3922 2.46025C21.8839 1.72124 20.4932 1.28035 18.8624 1.02411C17.9625 0.882755 15.9531 0.816845 15.0978 0.900669ZM17.7912 2.06779C23.3978 2.57807 28.1927 6.27409 30.1506 11.5948C30.4382 12.3764 30.7237 13.5193 30.8704 14.476C31.0198 15.4504 31.0198 17.5369 30.8704 18.5113C30.4881 21.0046 29.5873 23.1726 28.101 25.1757C27.5092 25.9733 26.0345 27.454 25.2538 28.0346C23.1602 29.5914 21.0077 30.4702 18.3115 30.869C17.6154 30.972 15.3622 30.973 14.6999 30.8706C11.942 30.4443 9.84774 29.5888 7.75766 28.0346C7.00314 27.4735 5.51277 25.9849 4.95101 25.2313C0.654235 19.4668 1.10991 11.6171 6.03816 6.50288C9.14096 3.28296 13.4163 1.66958 17.7912 2.06779ZM15.4957 3.32478C13.74 3.50918 12.3126 3.88636 10.9103 4.53647C8.14887 5.81664 5.698 8.30219 4.45561 11.0827C2.84617 14.6846 2.9222 18.7892 4.66324 22.293C5.6265 24.2315 6.92368 25.7934 8.60914 27.0439C9.45523 27.6717 10.7121 28.4148 10.7924 28.3346C10.8081 28.3189 10.8999 26.7694 10.9963 24.8914C11.0927 23.0132 11.188 21.2395 11.2081 20.9497L11.2445 20.4228L10.6993 20.2265C10.0081 19.9775 9.50763 19.6508 9.0451 19.1467C7.95709 17.9607 7.36748 16.0824 7.46389 14.1092C7.59923 11.3374 9.81407 8.78991 12.0885 8.78991C12.7127 8.78991 13.5368 9.0741 14.1724 9.50856C14.923 10.0217 15.8125 11.1416 16.1915 12.0509C16.5643 12.9452 16.6554 13.4226 16.6543 14.476C16.6524 16.4593 16.1188 18.0221 15.0421 19.1972C14.622 19.6557 14.113 19.9813 13.4407 20.2215L12.8941 20.4168L12.8984 20.641C12.9008 20.7643 13.0041 22.763 13.128 25.0826L13.3532 29.3L13.6899 29.3754C15.3499 29.7468 17.2439 29.7738 18.945 29.4503C19.7422 29.2986 20.6734 29.028 20.7017 28.9398C20.7237 28.8709 21.0994 21.6118 21.0977 21.2867C21.0968 21.1095 21.0721 21.0883 20.7317 20.9722C20.1359 20.769 19.5753 20.4178 19.098 19.9488C18.3753 19.2386 18.372 19.2265 18.3762 17.2579C18.378 16.35 18.4143 15.2082 18.4568 14.7206C18.547 13.6845 18.9196 10.138 19.0221 9.34L19.0927 8.78991H19.5132H19.9337V13.2226V17.6553H20.3316H20.7294V13.2226V8.78991H21.1886H21.6477V13.2226V17.6553H22.0455H22.4434V13.2226V8.78991H22.9025H23.3616V13.2226V17.6553H23.7595H24.1574V13.2226V8.78991H24.4861H24.8147L24.8854 9.34C24.9878 10.138 25.3604 13.6845 25.4507 14.7206C25.4932 15.2082 25.5295 16.35 25.5313 17.2579C25.5354 19.2265 25.5322 19.2386 24.8094 19.9488C24.3322 20.4178 23.7716 20.769 23.1758 20.9722L22.8107 21.0966L22.8111 21.4395C22.8113 21.6281 22.88 23.0755 22.9639 24.656C23.0478 26.2364 23.1165 27.6053 23.1166 27.6977C23.1167 27.7902 23.138 27.8659 23.164 27.8659C23.1899 27.8659 23.4495 27.7077 23.7408 27.5143C26.9371 25.3927 28.9978 22.1749 29.5848 18.389C29.7348 17.4213 29.7339 15.4994 29.583 14.5677C28.9334 10.5597 26.6797 7.2156 23.2221 5.1296C21.8604 4.30811 20.1367 3.69646 18.4645 3.44156C17.8383 3.34606 15.9864 3.27324 15.4957 3.32478ZM9.11317 12.6844C8.61134 13.3949 8.24479 14.7878 8.32094 15.695C8.39458 16.573 8.94269 17.8419 9.51504 18.4593C9.87179 18.8442 10.5148 19.3061 10.6938 19.3061C10.9162 19.3061 10.8755 19.1736 10.5008 18.6788C10.0626 18.0999 9.83262 17.6298 9.46203 16.5548L9.19856 15.7905L9.19997 14.8123C9.20107 14.0874 9.22978 13.7153 9.31108 13.3755C9.37137 13.1233 9.42408 12.8351 9.42812 12.735C9.43815 12.4886 9.27049 12.4617 9.11317 12.6844Z" fill="white"/>
</svg>
