<svg width="27" height="30" viewBox="0 0 27 30" fill="none" xmlns="http://www.w3.org/2000/svg">
<circle opacity="0.8" cx="12" cy="18" r="12" fill="#DADADA"/>
<path d="M8.75823 20.8232C8.75823 19.2027 8.75823 17.5263 8.75823 15.9059C8.75823 15.6824 8.70221 15.4588 8.53414 15.2912C5.73299 12.7767 4.78061 7.46826 8.14198 3.66855C10.663 0.818758 13.9123 -0.354684 17.6659 0.0923419C20.2989 0.427611 22.6519 1.4893 24.3886 3.50091C27.0777 6.57421 27.75 10.1504 26.1253 13.9501C24.9488 16.6882 22.7079 18.2528 19.7947 18.9233C18.8424 19.1468 17.89 19.1468 16.9376 19.035C16.6014 18.9792 16.4334 19.035 16.2093 19.2586C14.0804 21.4937 12.0076 23.6729 9.87869 25.8522C9.76665 26.0198 9.59858 26.1316 9.48653 26.2992C9.37449 26.411 9.20641 26.5227 8.98232 26.411C8.75823 26.2992 8.64619 26.1875 8.64619 25.9639C8.64619 25.7963 8.64619 25.6846 8.64619 25.5169C8.64619 23.9523 8.70221 22.3319 8.70221 20.7673C8.70221 20.8231 8.75823 20.8232 8.75823 20.8232ZM25.397 13.2796C25.1169 13.1678 24.8928 13.2237 24.6127 13.3355C24.4446 13.3914 24.2766 13.5031 24.1085 13.6149C24.0525 13.6707 23.9404 13.6707 23.9404 13.6149C23.8844 13.559 23.9404 13.5031 23.9965 13.4472C24.1645 13.3355 24.3326 13.2237 24.5007 13.112C24.7808 13.0002 25.1169 12.9443 25.397 13.0002C25.5651 13.0002 25.7332 12.7767 25.7332 12.5532C25.7332 12.3297 25.5651 12.3297 25.4531 12.3297C25.1729 12.2738 24.8928 12.3855 24.6687 12.5532C24.6127 12.6091 24.5567 12.6091 24.5007 12.5532C24.4446 12.4414 24.4446 12.3855 24.5567 12.3297C24.8368 12.1062 25.1169 12.0503 25.4531 12.0503C25.9012 12.1062 25.9012 12.1062 25.9573 11.6033C26.0693 10.7092 26.1253 9.81515 25.9573 8.9211C25.6771 6.90948 24.8368 5.17726 23.3802 3.7803C20.1869 0.707002 15.2569 0.0364633 11.3353 2.21571C8.53414 3.72442 6.4613 6.68597 6.9655 10.3739C7.1896 12.1062 7.91789 13.6149 9.26244 14.7883C9.59857 15.0677 9.71062 15.3471 9.71062 15.7382C9.6546 18.6439 9.59858 21.4937 9.59858 24.3994C9.59858 24.567 9.54255 24.7346 9.71062 24.8464C10.551 23.9523 11.3913 23.1142 12.2317 22.2201C12.1196 21.9966 11.8955 21.9407 11.7835 21.829C11.6154 21.7172 11.5034 21.6054 11.3353 21.4937C11.2232 21.4378 11.1672 21.3819 11.2232 21.2143C11.2793 21.1025 11.3913 21.1584 11.4473 21.2143C11.7274 21.3819 11.9515 21.5496 12.2317 21.7172C12.3437 21.7731 12.3997 21.8848 12.5118 21.7731C12.8479 21.6054 12.9039 21.2702 12.5678 21.0467C12.4557 20.9908 12.3437 20.9349 12.2317 20.9349C12.1196 20.9349 12.0076 20.9349 12.0076 20.7673C12.0076 20.6555 12.1756 20.6555 12.2877 20.6555C12.5118 20.6555 12.6798 20.7673 12.8479 20.879C12.96 20.9908 13.016 21.1025 13.184 21.1584C14.0244 20.3202 14.8647 19.4262 15.7051 18.5321C16.0972 18.141 16.4894 18.0292 16.9936 18.0851C18.1701 18.2528 19.2905 18.1969 20.411 17.8057C20.7471 17.694 20.7471 17.694 20.5791 17.4146C20.411 17.0793 20.2429 16.744 20.0749 16.4088C20.0188 16.297 20.0188 16.2411 20.1309 16.1853C20.2429 16.1294 20.2989 16.1853 20.355 16.297C20.467 16.5205 20.5791 16.6882 20.6911 16.9117C21.0833 17.694 21.0833 17.694 21.9236 17.1911C21.6995 16.8558 21.5314 16.4647 21.3074 16.1294C21.2513 16.0176 21.0833 15.9059 21.2513 15.7941C21.4194 15.6824 21.4754 15.9059 21.5315 16.0176C21.6995 16.2411 21.8116 16.4647 21.9236 16.744C22.1477 17.1352 22.0917 17.1911 22.5399 16.9117C23.4922 16.297 24.3326 15.4588 24.8928 14.5089C25.1169 14.1178 25.341 13.7825 25.397 13.2796Z" fill="#41332B"/>
<path d="M25.3968 13.2795C25.3408 13.7265 25.0607 14.1177 24.8366 14.5088C24.2203 15.5146 23.436 16.2969 22.4836 16.9116C22.0915 17.191 22.0914 17.1351 21.8674 16.744C21.7553 16.5204 21.5872 16.2969 21.4752 16.0175C21.4192 15.9058 21.3632 15.6823 21.1951 15.794C21.027 15.9058 21.1951 16.0175 21.2511 16.1293C21.4752 16.4646 21.6433 16.8557 21.8674 17.191C21.083 17.7498 21.083 17.7498 20.6349 16.9116C20.5228 16.6881 20.4108 16.5204 20.2987 16.2969C20.2427 16.241 20.1867 16.1293 20.0746 16.1852C19.9626 16.2411 19.9626 16.3528 20.0186 16.4087C20.1867 16.744 20.3547 17.0792 20.5228 17.4145C20.6909 17.6939 20.6349 17.7498 20.3547 17.8056C19.2343 18.1409 18.0578 18.2527 16.9373 18.085C16.4331 17.9733 16.041 18.085 15.6488 18.5321C14.8085 19.4261 13.9681 20.2643 13.1278 21.1583C12.9597 21.1583 12.9037 20.9907 12.7917 20.8789C12.6236 20.7672 12.4555 20.6554 12.2314 20.6554C12.1194 20.6554 12.0073 20.6554 11.9513 20.7672C11.9513 20.9348 12.0634 20.9348 12.1754 20.9348C12.2874 20.9348 12.3995 20.9907 12.5115 21.0466C12.7917 21.2701 12.7916 21.6054 12.4555 21.773C12.3435 21.8289 12.2314 21.773 12.1754 21.7171C11.8953 21.5495 11.6712 21.3818 11.3911 21.2142C11.3351 21.1583 11.223 21.1025 11.167 21.2142C11.0549 21.326 11.167 21.3818 11.279 21.4936C11.4471 21.6054 11.5592 21.7171 11.7272 21.8289C11.8953 21.9406 12.0634 21.9965 12.1754 22.22C11.3351 23.1141 10.4947 23.9522 9.65437 24.8463C9.43028 24.7345 9.54232 24.5669 9.54232 24.3993C9.59835 21.4936 9.59834 18.6438 9.65437 15.7381C9.65437 15.347 9.54233 15.0676 9.20619 14.7882C7.86164 13.6148 7.18936 12.1061 6.90925 10.3738C6.40504 6.74176 8.53391 3.78021 11.279 2.21562C15.2006 0.0363733 20.1307 0.706912 23.324 3.78021C24.7806 5.17717 25.6209 6.90939 25.901 8.92101C26.0131 9.81506 26.0131 10.7091 25.901 11.6032C25.845 12.0502 25.845 12.0502 25.3968 12.0502C25.0607 12.0502 24.7805 12.1061 24.5004 12.3296C24.4444 12.3855 24.3884 12.4972 24.4444 12.5531C24.5004 12.609 24.5565 12.609 24.6125 12.5531C24.8366 12.3855 25.1167 12.3296 25.3968 12.3296C25.5088 12.3296 25.6769 12.3855 25.6769 12.5531C25.6769 12.7766 25.5088 13.0001 25.3408 13.0001C25.0046 13.0001 24.7245 13.056 24.4444 13.1119C24.2763 13.1678 24.1083 13.2795 23.9402 13.4471C23.8842 13.503 23.8842 13.5589 23.8842 13.6148C23.9402 13.6707 23.9962 13.6707 24.0523 13.6148C24.2203 13.503 24.3884 13.3913 24.5565 13.3354C24.8926 13.2795 25.1167 13.1677 25.3968 13.2795ZM16.3771 4.89778C14.0802 4.78602 11.8953 6.79763 11.7832 9.14452C11.6712 11.7149 13.576 13.7824 16.153 13.8942C19.0102 14.0059 20.6909 11.7708 20.8589 9.64742C21.027 7.02115 18.618 4.8419 16.3771 4.89778ZM23.7161 8.69749C23.7161 8.69749 23.6601 8.75337 23.6041 8.80925C23.6041 8.86513 23.6041 8.92101 23.6601 8.92101C23.8842 8.97689 23.9962 9.08864 24.0523 9.31215C24.0523 9.36803 24.1643 9.36803 24.1643 9.36803C24.2203 9.31215 24.2203 9.31215 24.2203 9.25628C24.3324 9.03276 24.0523 8.69749 23.7161 8.69749ZM12.1194 15.8499C12.0634 15.7381 12.0634 15.5705 12.0073 15.4029C12.0073 15.347 11.9513 15.2911 11.8393 15.2911C11.7272 15.2911 11.7272 15.4029 11.7272 15.4588C11.7272 15.6264 11.7832 15.794 11.8393 15.9058C11.8393 16.0175 11.9513 16.0734 12.0073 16.0175C12.1194 16.0175 12.1194 15.9617 12.1194 15.8499ZM8.81402 8.02695C8.87005 8.02695 8.92607 8.02696 8.98209 7.97108C9.09414 7.9152 9.20619 7.9152 9.15016 7.74756C9.09414 7.63581 9.03812 7.63581 8.92608 7.63581C8.87005 7.63581 8.81403 7.63581 8.70198 7.69169C8.58993 7.69169 8.47789 7.74756 8.53391 7.9152C8.58993 8.02695 8.70198 8.02695 8.81402 8.02695ZM24.5004 8.25047C24.5004 8.19459 24.5004 8.19459 24.5004 8.13871C24.3884 8.02696 24.2763 7.85932 24.1083 7.85932L24.0523 7.9152C24.0523 8.13871 24.2203 8.19459 24.3884 8.30635C24.3884 8.36222 24.5004 8.30635 24.5004 8.25047ZM21.027 15.0117C21.027 14.9559 20.971 14.8441 20.915 14.8441C20.7469 14.9 20.6909 15.0117 20.6909 15.1794C20.6909 15.2352 20.7469 15.347 20.8029 15.2911C20.971 15.2911 20.971 15.1794 21.027 15.0117ZM9.20619 6.90939C9.31824 6.90939 9.43028 6.85351 9.48631 6.74176C9.48631 6.68588 9.4863 6.63 9.37425 6.57412C9.26221 6.57412 9.15016 6.63 9.09414 6.74176C9.03812 6.85351 9.09414 6.90939 9.20619 6.90939Z" fill="#FCCD0E"/>
<path d="M16.3774 4.89801C18.6743 4.84213 21.0273 7.02138 20.8592 9.64766C20.6911 11.8269 19.0665 14.0062 16.1533 13.8944C13.5762 13.7826 11.6715 11.7151 11.7835 9.14475C11.8956 6.85374 14.0244 4.78625 16.3774 4.89801ZM16.3214 13.0562C18.3382 13.0562 19.9629 11.4916 19.9629 9.42414C19.9629 7.63604 18.5063 5.84794 16.3774 5.79206C14.3606 5.73618 12.6799 7.41253 12.6238 9.36826C12.6799 11.4358 14.2485 13.0003 16.3214 13.0562Z" fill="#41332B"/>
</svg>
