<svg width="24" height="24" viewBox="0 0 24 24" fill="none" xmlns="http://www.w3.org/2000/svg">
<path fill-rule="evenodd" clip-rule="evenodd" d="M17.0812 0.0637893C16.8748 0.0931132 16.4346 0.207754 16.103 0.318527C14.838 0.741242 14.5165 0.993844 11.7839 3.7122C10.5058 4.98364 9.46001 6.0397 9.46001 6.05904C9.46001 6.07838 9.64834 6.07041 9.87859 6.04143C10.6838 5.93996 12.1831 6.0931 12.8322 6.34304C12.9983 6.407 13.0149 6.39292 14.4488 4.9703C15.2469 4.17861 16.0447 3.43922 16.2251 3.32429C17.0308 2.81078 18.102 2.67489 19.0313 2.96842C20.993 3.58803 21.8152 5.8566 20.7495 7.70938C20.5161 8.11518 15.6091 13.0152 15.1291 13.3217C14.5503 13.6914 14.1015 13.8196 13.3861 13.8196C12.9043 13.8196 12.7006 13.7924 12.3936 13.687C11.5702 13.4043 10.8665 12.7938 10.5125 12.055C10.3941 11.808 10.2786 11.6043 10.2561 11.6024C10.2334 11.6004 10.0661 11.6545 9.8842 11.7226C9.60775 11.8259 9.42975 11.9672 8.80043 12.5826L8.04737 13.3189L8.15309 13.5412C8.32439 13.9015 8.76665 14.4876 9.15885 14.8741C11.2541 16.9392 14.4742 17.1916 16.9068 15.4816C17.3416 15.1759 22.1197 10.4489 22.6266 9.8229C23.4583 8.79587 23.9166 7.62712 23.9901 6.34593C24.1449 3.64743 22.4712 1.16592 19.9302 0.326608C18.9742 0.0108561 18.0527 -0.074172 17.0812 0.0637893ZM9.56826 7.47502C8.58738 7.65252 7.60228 8.11085 6.79063 8.76735C6.55991 8.95397 5.23856 10.2454 3.85439 11.6371C1.72791 13.7752 1.28259 14.2518 0.982705 14.7106C-0.466765 16.9282 -0.300195 19.7911 1.39904 21.8651C1.57208 22.0762 1.8853 22.3919 2.09517 22.5665C4.1873 24.3073 7.0785 24.4781 9.33114 22.994C9.73373 22.7287 10.3091 22.1907 12.188 20.3224C13.4821 19.0358 14.5408 17.967 14.5408 17.9474C14.5408 17.9277 14.3525 17.9354 14.1222 17.9643C13.313 18.0662 11.8303 17.9135 11.1617 17.6593C11.0032 17.5991 10.9663 17.6306 9.55135 19.0361C8.74206 19.84 7.95875 20.5662 7.77572 20.6824C6.94398 21.2104 5.8456 21.3383 4.91755 21.0152C3.07749 20.3749 2.25845 18.3556 3.11415 16.5694C3.35122 16.0745 3.36288 16.0618 5.98752 13.4456C8.71111 10.7306 8.8812 10.5836 9.60827 10.3177C10.1124 10.1333 11.0717 10.1336 11.6072 10.3183C12.4382 10.6048 13.1324 11.2079 13.4896 11.9533C13.6073 12.199 13.7222 12.4016 13.7447 12.4035C13.7674 12.4054 13.9347 12.3513 14.1166 12.2833C14.3931 12.1799 14.5711 12.0386 15.2004 11.4232L15.9534 10.687L15.8477 10.4646C15.6826 10.1174 15.2668 9.56216 14.8722 9.16196C13.5208 7.79135 11.4535 7.13381 9.56826 7.47502Z" fill="#A4A4A4"/>
</svg>
