<svg width="129" height="150" viewBox="0 0 129 150" fill="none" xmlns="http://www.w3.org/2000/svg">
<mask id="mask0_664_146" style="mask-type:alpha" maskUnits="userSpaceOnUse" x="0" y="0" width="129" height="150">
<rect width="129" height="150" fill="#D9D9D9"/>
</mask>
<g mask="url(#mask0_664_146)">
<path d="M10.8675 103.932C15.3528 89.4732 28.1627 79.8359 41.6777 74.0355C49.9362 70.7394 58.6394 68.7873 67.4618 67.5614C75.5581 66.4548 85.4211 65.207 93.4853 67.5362C94.114 67.7312 94.0274 68.5658 93.3012 68.6851C85.8336 69.9868 77.8021 69.2183 70.1176 70.1081C61.9129 71.0088 53.8276 72.6357 46.2842 75.2921C31.2951 80.2907 18.4852 89.928 11.4962 104.127C11.5071 104.648 10.5641 104.355 10.8675 103.932Z" fill="#39404B"/>
<path d="M31.333 42.3991C43.6888 40.8908 56.7496 43.2194 68.2824 47.1414C74.0488 49.1024 79.7286 51.898 84.9966 54.9105C87.6306 56.4167 90.0586 58.0313 92.2808 59.7543C93.8634 60.7621 95.8687 62.0733 96.9419 63.6123C94.578 55.1259 97.8931 44.4386 100.959 36.7753C104.817 27.1176 111.319 19.4864 119.198 12.9713C119.404 12.8629 119.512 13.0688 119.306 13.1772C112.468 19.6705 107.234 28.212 103.669 36.9267C101.892 41.5442 100.636 46.1508 99.8016 51.0608C99.0652 55.6564 99.3693 60.2303 98.3186 64.7284C98.2211 65.0428 98.0151 65.1512 97.8092 65.2596C97.9176 65.4655 98.1345 65.8774 98.0369 66.1917C98.1454 66.3976 97.9394 66.506 97.7335 66.6144C95.8584 66.5497 94.4818 65.4335 92.8992 64.4257C90.0484 62.5076 87.0892 60.3837 84.2384 58.4656C78.862 55.2473 73.1822 52.4517 67.3074 50.2847C55.4493 45.745 43.5483 44.1208 31.0405 43.3421C30.932 43.1361 30.9211 42.6159 31.333 42.3991Z" fill="#39404B"/>
<path d="M99.9886 64.9014C101.462 60.7067 104.009 58.0509 107.488 55.1673C112.711 51.1022 118.26 47.6547 124.232 44.5107C135.546 38.0277 147.23 34.2435 159.651 30.8602C159.856 30.7518 160.073 31.1636 159.867 31.272C148.91 34.9369 138.506 40.1517 128.21 45.5724C123.062 48.2827 118.131 51.4049 113.308 54.733C108.789 57.6384 104.172 60.8581 101.354 65.4974C101.159 66.126 99.902 65.736 99.9886 64.9014Z" fill="#39404B"/>
<path d="M51.2114 126.613C51.1555 114.018 55.7928 101.846 63.3893 91.7973C67.6482 86.3991 72.8609 81.8137 78.3989 77.846C83.0157 74.6263 90.7213 69.7804 96.3575 70.495C96.8777 70.4841 97.1055 71.4162 96.6936 71.633C94.8513 73.129 92.3693 73.9097 90.2017 74.7879C87.0045 76.2082 83.9158 77.8344 80.9354 79.6665C75.3865 83.114 70.4881 87.7969 66.2183 92.6748C58.405 102.311 53.8652 114.169 51.8291 126.287C51.7425 127.122 51.1139 126.927 51.2114 126.613Z" fill="#39404B"/>
<path d="M100.91 69.1503C105.137 67.1879 112.15 69.0187 116.648 70.0694C122.501 71.1958 128.061 73.2653 133.633 75.855C144.461 80.9368 154.932 88.8367 161.599 99.0025C161.708 99.2084 161.502 99.3168 161.393 99.1109C152.895 90.9614 144.006 84.0692 133.384 78.879C128.127 76.3868 122.675 74.5233 117.233 73.18C114.513 72.5084 111.901 72.0427 109.288 71.577C106.676 71.1113 103.663 71.3826 101.138 70.0823C100.715 69.7789 100.498 69.3671 100.91 69.1503Z" fill="#39404B"/>
<path d="M98.374 72.3262C98.569 71.6976 99.718 71.8817 99.6314 72.7163C99.047 79.5988 97.7256 86.0805 97.6614 92.9522C97.4998 100.138 98.1728 107.411 99.5719 114.564C94.617 101.656 92.8156 85.2466 98.374 72.3262Z" fill="#39404B"/>
<path d="M8.15829 103.781C7.70349 106.913 6.84776 110.783 8.25713 113.46C8.18145 114.814 8.31167 116.061 8.23598 117.416C9.40604 113.644 10.7929 110.284 12.906 106.804C14.9216 103.639 18.2592 98.9888 22.0851 97.7635C22.0742 97.2432 22.6919 96.918 23.1147 97.2214C23.7543 97.9367 23.9711 98.3485 24.1879 98.7604C25.51 97.2753 26.2035 95.5952 26.5717 93.2974C26.8642 92.3544 28.0131 92.5385 28.3383 93.1563C28.6636 93.774 28.7829 94.5002 29.1081 95.1179C30.6362 93.5245 31.8499 91.8335 32.5324 89.6331C32.8249 88.6901 34.0713 88.5599 34.2991 89.492C34.31 90.0123 34.6352 90.63 34.6461 91.1503C36.0767 89.8711 36.9869 88.6029 37.572 86.7169C37.8645 85.7739 39.1109 85.6437 39.4471 86.7817C39.5664 87.5078 40 88.3315 40.1194 89.0577C41.8533 87.3558 42.7527 85.5673 44.1723 83.7679C44.2698 83.4536 44.4648 82.8249 44.5623 82.5106C44.7573 81.8819 45.4944 82.2828 45.5053 82.8031C45.6355 84.0495 45.8633 84.9816 46.1994 86.1196C47.8359 84.732 49.158 83.247 50.2633 81.3501C50.6642 80.613 51.8131 80.7971 51.8349 81.8376C52.0088 85.165 56.376 79.9728 56.8854 79.4416C57.3947 78.9104 58.5437 79.0945 58.663 79.8207C59.2596 83.4516 64.5698 78.5518 66.2172 77.6845C66.4231 77.5761 66.8459 77.8795 66.6399 77.9879C65.5237 79.3646 63.3889 81.8035 61.3297 82.8877C61.1238 82.9961 60.9178 83.1045 60.7119 83.2129C59.8883 83.6466 59.3789 84.1777 59.0864 85.1207L59.2923 85.0123C60.2244 84.7846 60.8749 86.0201 60.0512 86.4537C59.0216 86.9958 57.992 87.5379 56.854 87.874C56.4422 88.0909 56.2362 88.1993 55.8244 88.4161C55.3042 88.427 55.0007 88.8498 55.4235 89.1532C56.3556 88.9254 57.0061 90.161 56.2908 90.8005C55.0553 91.451 53.9282 92.3074 52.6927 92.9579L50.8394 93.9336C49.6039 94.5841 51.8908 94.4321 52.4111 94.4211C52.9313 94.4102 53.2565 95.028 52.8447 95.2448C52.3354 95.776 51.9235 95.9928 51.1974 96.1121C50.0812 97.4888 48.8566 98.6595 47.7404 100.036C48.4665 99.9168 48.9868 99.9059 49.713 99.7866C50.6451 99.5589 51.0896 100.903 50.5803 101.434C49.6591 102.182 49.0522 103.027 48.1311 103.775C47.6217 104.307 47.1124 104.838 46.603 105.369C47.1342 105.878 47.4485 105.976 47.8604 105.759C48.0663 105.651 48.2722 105.542 48.3697 105.228C49.2909 104.48 50.1582 106.127 49.4429 106.767C47.3947 108.371 45.6607 110.073 44.4579 112.284C46.2246 112.143 47.5685 111.699 49.2268 111.351C49.6386 111.135 49.9639 111.752 49.552 111.969C47.6122 113.78 45.4336 114.138 42.9299 113.878C42.4096 113.889 41.8785 113.379 42.2794 112.642C43.1788 110.854 44.3925 109.163 45.7146 107.678C45.2918 107.374 44.8691 107.071 44.3379 106.561C43.2647 105.023 45.0962 103.006 46.7326 101.619C46.5267 101.727 46.2123 101.63 46.2123 101.63C45.6921 101.641 45.0525 100.925 45.5619 100.394C46.7756 98.7031 48.0868 96.6978 49.8316 95.5162C49.4089 95.2128 48.8777 94.7034 48.7584 93.9773C48.097 92.2215 51.5976 90.3785 53.7652 89.5002C53.5484 89.0884 53.3316 88.6766 53.3207 88.1563C53.1795 86.3896 56.2792 85.2837 58.2409 84.5139C58.1325 84.308 58.23 83.9936 58.1216 83.7877C58.1107 83.2675 58.5116 82.5304 58.9234 82.3135C58.5007 82.0101 58.0779 81.7067 57.6443 80.883C56.2247 82.6824 54.1873 84.8071 52.2038 84.5364C51.3692 84.4498 51.044 83.832 50.7187 83.2143C49.7109 84.7968 48.2804 86.076 46.5356 87.2576C45.9178 87.5828 45.4951 87.2794 45.1698 86.6617C44.953 86.2498 44.8446 86.0439 44.7362 85.838C43.9452 87.8324 42.1138 89.8486 40.3689 91.0303C39.7511 91.3555 38.8082 91.063 38.6888 90.3368C38.472 89.925 38.5695 89.6107 38.3527 89.1988C37.5508 90.673 36.3262 91.8437 34.7873 92.9169C34.1695 93.2422 33.5409 93.0472 33.4215 92.321C33.3131 92.1151 33.3131 92.1151 33.2047 91.9092C32.3054 93.6976 30.9832 95.1827 29.4552 96.7762C28.9459 97.3074 28.1113 97.2208 27.8835 96.2887C27.7751 96.0828 27.6667 95.8768 27.5583 95.6709C26.8649 97.351 26.063 98.8251 24.8384 99.9959C24.535 100.419 23.7004 100.332 23.4836 99.9202C22.9415 98.8906 22.8331 98.6847 22.3994 97.861C21.5867 98.8149 20.7739 99.7688 19.6468 100.625C17.8153 102.641 15.9839 104.658 14.5752 106.977C12.0503 110.674 9.75311 115.302 8.70237 119.8C8.50736 120.429 7.67277 120.342 7.55345 119.616C6.51228 114.641 6.70662 109.016 8.15829 103.781Z" fill="#39404B"/>
<path d="M8.13589 102.741L7.62656 103.272C7.21472 103.489 6.79196 103.185 6.88947 102.871C7.66951 100.356 8.44955 97.8415 9.54393 95.4243C9.2296 95.3268 8.91526 95.2293 9.21869 94.8066C10.0205 93.3324 10.8224 91.8583 11.8411 90.7959C11.6352 90.9044 11.5268 90.6985 11.3208 90.8069C11.0065 90.7094 10.8981 90.5034 10.9956 90.1891C12.1984 87.9779 13.7264 86.3844 15.4713 85.2027C15.3629 84.9968 15.2544 84.7909 15.352 84.4766C17.2809 82.146 19.5351 80.4332 22.3314 79.75C22.017 79.6525 21.6918 79.0347 22.1036 78.8179C23.6317 77.2244 25.1706 76.1512 26.9264 75.4898C26.2977 75.2948 26.5902 74.3518 27.0021 74.135C28.9638 73.3652 30.6111 72.4979 32.5728 71.7281C32.4644 71.5222 32.4535 71.0019 32.551 70.6876C32.9301 68.91 36.1491 68.5302 38.436 68.3782C38.2192 67.9663 38.0999 67.2401 38.826 67.1208C41.0046 66.7629 43.0746 66.199 45.2641 66.3613C45.2204 64.2803 49.3824 64.193 51.8862 64.4528C51.6694 64.0409 51.9728 63.6182 52.3846 63.4014C53.7286 62.9568 55.5927 62.5013 57.5762 62.772C57.4678 62.5661 57.4569 62.0459 57.3485 61.8399C57.3376 61.3197 57.7494 61.1029 58.0638 61.2004C59.6245 61.1676 61.1853 61.1349 62.6485 61.4165C62.4317 61.0047 62.2149 60.5928 62.3124 60.2785C60.5457 60.4196 58.3672 60.7776 56.9905 59.6614C56.4594 59.1521 56.3401 58.4259 56.6435 58.0032C54.6709 58.2527 52.4815 58.0904 50.498 57.8197C50.1836 57.7222 49.7609 57.4188 49.8584 57.1045C49.9559 56.7901 49.8475 56.5842 50.0534 56.4758C48.3951 56.8229 46.6285 56.964 44.8509 56.5849C44.2222 56.3899 44.1029 55.6637 44.5147 55.4469C44.6122 55.1325 44.8182 55.0241 44.9157 54.7098C42.7372 55.0678 40.0384 55.4366 38.7483 53.4859C38.3147 52.6622 38.1954 51.936 38.3904 51.3074C36.7321 51.6544 34.9654 51.7955 34.0006 50.4625C33.567 49.6389 33.4477 48.9127 33.8486 48.1756C26.7383 46.6592 19.6497 46.1832 12.3771 46.8562C11.8569 46.8671 11.4232 46.0434 12.041 45.7182C19.1397 41.7178 27.3874 37.9015 35.4946 37.3151C37.2613 37.174 39.0279 37.0328 40.6971 37.206C40.1659 36.6967 40.2525 35.8621 41.293 35.8403C45.5526 35.4387 49.628 36.186 53.3025 37.6704C52.9772 37.0526 52.652 36.4349 52.3267 35.8171C52.0015 35.1994 52.5108 34.6682 53.1395 34.8632C55.8274 33.9741 58.9707 34.9491 61.7131 36.6613C61.6047 36.4554 61.4963 36.2494 61.4963 36.2494C61.171 35.6317 61.9947 35.198 62.5149 35.1871C65.0187 35.4469 67.1215 36.4438 68.715 37.9718C68.7041 37.4516 69.2134 36.9204 69.8421 37.1154C72.2484 37.6895 74.3512 38.6864 75.7387 40.3228C76.0422 39.9001 76.454 39.6833 76.8658 39.4664C79.1419 38.7941 81.2774 41.3518 82.8927 43.9203C82.8927 43.9203 82.8927 43.9203 82.7843 43.7144C82.665 42.9882 83.3802 42.3486 84.0198 43.0639C85.7108 44.2776 86.8815 45.5022 87.5429 47.258C87.5211 46.2175 88.0195 45.166 89.2659 45.0358C89.4719 44.9274 89.5803 45.1333 89.6887 45.3392C90.0139 45.957 90.3392 46.5748 90.6644 47.1925C90.6535 46.6723 90.6426 46.152 90.6317 45.6318C90.6208 45.1115 91.0326 44.8947 91.4554 45.1981C91.8781 45.5015 92.0949 45.9134 92.4093 46.0109C92.0404 43.3121 92.1918 40.6024 92.6575 37.9903C92.6466 37.47 93.3727 37.3507 93.5896 37.7625L93.698 37.9685C93.34 35.7899 93.2964 33.7089 94.8353 32.6357C95.2472 32.4189 95.4531 32.3105 95.7674 32.408C95.7238 30.327 96.092 28.0291 97.6309 26.9559C98.4546 26.5223 99.0833 26.7173 99.5169 27.5409C99.9935 25.449 100.784 23.4546 101.781 21.3518C101.879 21.0375 102.399 21.0265 102.616 21.4384C102.833 21.8502 102.941 22.0561 103.05 22.2621C103.721 19.5415 104.816 17.1243 106.43 14.6963C106.734 14.2735 107.362 14.4685 107.373 14.9888C107.384 15.509 107.503 16.2352 107.514 16.7554C108.305 14.761 109.627 13.276 111.578 11.9859C111.99 11.7691 112.413 12.0725 112.424 12.5928C112.326 12.9071 112.337 13.4274 112.24 13.7417C116.206 9.28649 122.188 6.66274 128.106 5.91408C128.627 5.90317 128.952 6.52093 128.648 6.94368C126.026 10.9543 123.089 14.8674 120.152 18.7806C120.879 18.6613 121.605 18.5419 122.439 18.6285C122.96 18.6176 123.079 19.3438 122.776 19.7665C121.345 21.0457 120.023 22.5308 118.798 23.7015C119.741 23.994 120.478 24.3949 120.5 25.4354C120.533 26.9962 118.376 28.3947 116.631 29.5763C117.26 29.7713 117.986 29.652 118.615 29.847C119.135 29.8361 119.775 30.5514 119.265 31.0825C117.629 32.4701 115.992 33.8576 114.356 35.2452C114.985 35.4402 115.613 35.6352 116.242 35.8302C116.665 36.1336 116.784 36.8598 116.372 37.0766C114.833 38.1499 112.98 39.1256 111.441 40.1988C112.07 40.3938 112.904 40.4804 113.533 40.6754C114.162 40.8705 114.281 41.5966 113.663 41.9219C112.33 42.8867 107.702 45.5861 107.844 47.3528C107.952 47.5587 107.855 47.873 107.963 48.079C108.375 47.8621 108.472 47.5478 108.884 47.331C109.296 47.1141 109.816 47.1032 110.033 47.5151C110.922 45.2063 112.005 42.2689 113.772 42.1278C115.018 41.9976 115.658 42.7128 115.885 43.6449C117.197 41.6396 118.508 39.6343 120.036 38.0408C120.339 37.618 120.968 37.8131 120.979 38.3333C120.99 38.8536 121.207 39.2654 121.326 39.9916C122.431 38.0947 124.241 35.0379 126.018 35.417C127.167 35.6012 127.601 36.4248 127.514 37.2594C129.454 35.4491 131.297 33.9531 133.876 32.8581C134.288 32.6413 135.025 33.0422 134.83 33.6709C134.732 33.9852 134.635 34.2995 134.429 34.4079C136.455 31.763 139.121 29.8334 142.633 28.5106C142.839 28.4022 143.262 28.7056 143.164 29.02C142.969 29.6486 142.872 29.963 142.677 30.5916C145.234 28.4561 148.226 27.1442 151.759 26.8619C152.279 26.851 152.604 27.4688 152.301 27.8915L151.38 28.6395C158.316 26.8285 166.359 28.1173 172.862 30.4792C173.491 30.6742 173.198 31.6172 172.786 31.834C168.863 33.3736 164.94 34.9133 160.81 36.5613C159.272 37.6345 157.212 38.7186 155.24 38.9682C155.76 38.9573 156.183 39.2607 156.703 39.2498C157.332 39.4448 157.245 40.2794 156.833 40.4962C155.283 41.0492 153.939 41.4938 152.498 42.2527C153.343 42.8595 153.68 43.9975 152.975 45.1573C152.076 46.9458 148.337 47.3365 145.529 47.4995C145.746 47.9113 146.072 48.5291 145.779 49.4721C145.497 50.9353 142.17 51.1092 139.775 51.0553C139.883 51.2612 139.894 51.7815 139.796 52.0958C139.428 54.3936 135.364 54.1666 132.654 54.0152C132.979 54.633 133.305 55.2507 133.218 56.0853C133.229 56.6056 132.817 56.8224 132.503 56.7249C130.628 56.6601 128.753 56.5953 126.877 56.5305C127.094 56.9424 126.997 57.2567 126.899 57.571C125.989 58.8393 123.908 58.8829 122.033 58.8181C122.25 59.23 122.467 59.6418 122.477 60.1621C122.38 60.4764 122.077 60.8991 121.762 60.8016C120.613 60.6175 119.367 60.7478 118.218 60.5637C118.326 60.7696 118.326 60.7696 118.435 60.9755C119.595 61.6798 119.725 62.9263 118.912 63.8802C120.776 63.4247 122.749 63.1752 124.721 62.9256C125.242 62.9147 125.664 63.2181 125.469 63.8468C125.166 64.2695 124.971 64.8982 124.668 65.3209C126.944 64.6486 129.436 64.3882 131.94 64.648C132.46 64.6371 132.786 65.2548 132.482 65.6776C132.179 66.1003 131.767 66.3171 131.669 66.6315C134.065 66.6853 138.021 66.7065 138.065 68.7875C138.075 69.3078 137.88 69.9364 137.577 70.3592C140.601 70.608 143.213 71.0738 146.346 71.5286C146.974 71.7236 146.888 72.5581 146.367 72.5691C145.435 72.7968 144.503 73.0245 143.571 73.2523C147.766 74.7258 151.646 76.1017 155.841 77.5752C156.47 77.7702 156.697 78.7023 155.971 78.8216C155.245 78.941 154.627 79.2662 153.901 79.3855C156.947 80.6749 159.895 82.2786 162.54 84.3051C163.277 84.706 162.464 85.6599 161.836 85.4649L159.852 85.1942C162.389 87.0148 164.622 89.2581 166.346 92.0325C166.671 92.6503 165.956 93.2898 165.533 92.9864C164.796 92.5855 163.95 91.9786 163.007 91.6861C167.604 97.4191 170.553 104.019 172.472 111.162C172.591 111.888 171.876 112.528 171.139 112.127C167.02 109.298 162.998 106.156 158.977 103.013C159.096 103.739 159.215 104.465 159.443 105.397C159.671 106.33 158.544 107.186 157.904 106.471C156.419 105.149 155.043 104.032 153.969 102.493C153.763 102.602 153.557 102.71 153.146 102.927C150.761 103.393 149.254 101.031 148.17 98.9717C148.084 99.8062 147.997 100.641 148.116 101.367C148.127 101.887 147.304 102.321 146.881 102.017C145.287 100.489 143.791 98.6471 142.61 96.9022C142.415 97.5309 141.797 97.8561 141.179 98.1814C139.423 98.8428 137.158 95.0387 135.965 92.7736C135.987 93.8141 135.694 94.7571 135.716 95.7976C135.727 96.3179 134.903 96.7515 134.481 96.4481C132.79 95.2344 131.511 93.8039 130.437 92.2649C130.351 93.0995 129.527 93.5332 128.996 93.0238C127.088 91.3983 125.386 89.6643 124.302 87.6052C124.313 88.1254 124.118 88.7541 124.129 89.2743C123.934 89.903 123.522 90.1198 122.893 89.9248C120.78 88.4077 118.872 86.7822 117.679 84.517C117.582 84.8314 117.278 85.2541 116.444 85.1675C114.677 85.3087 112.878 83.8891 111.804 82.3501C111.815 82.8704 111.62 83.499 111.425 84.1277C111.328 84.442 110.818 84.9732 110.396 84.6698C109.236 83.9654 108.282 83.1526 107.642 82.4374C107.545 82.7517 107.447 83.066 107.241 83.1745C106.721 83.1854 105.995 83.3047 105.681 83.2072C107.708 85.5589 110.169 88.7343 109.172 90.8371C108.565 91.6826 107.947 92.0078 107.427 92.0187C108.316 94.7066 109.411 97.286 110.3 99.9739C110.42 100.7 109.607 101.654 108.87 101.253C108.447 100.95 107.71 100.549 107.287 100.245C109.033 104.06 110.464 107.778 112.003 111.701C112.231 112.633 111.104 113.49 110.367 113.089C109.522 112.482 108.784 112.081 108.145 111.366C108.395 118.335 108.537 125.098 107.118 131.894C107.129 132.414 106.197 132.642 105.98 132.23C100.766 126.822 96.4729 120.667 94.0333 113.535C93.3289 114.695 92.8305 115.746 92.1261 116.906C91.7252 117.643 90.5763 117.459 90.457 116.733C89.1124 112.181 88.8083 107.607 90.6936 103.196C89.8808 104.149 89.1656 104.789 88.2444 105.537C87.735 106.068 86.9005 105.982 86.6727 105.05C86.0979 102.459 86.3577 99.9554 87.0403 97.7551C86.52 97.766 85.9998 97.7769 85.3711 97.5819C85.0895 99.0451 84.8079 100.508 84.3204 102.08C84.1253 102.709 83.3017 103.142 82.9764 102.525C82.4453 102.015 81.9141 101.506 81.2745 100.791C80.9063 103.089 80.2238 105.289 78.5983 107.197C78.2948 107.619 77.5687 107.739 77.0375 107.229C76.8207 106.818 76.3979 106.514 76.1811 106.102C75.8238 108.92 74.9463 111.749 73.7544 114.481C73.3534 115.218 72.5189 115.131 72.0961 114.828C71.565 114.319 71.1422 114.015 70.9254 113.603C70.1672 117.158 69.3005 120.508 68.1195 123.759C67.7186 124.497 66.7756 124.204 66.4504 123.586C66.1251 122.968 66.0058 122.242 65.789 121.83C65.2258 124.757 63.1018 127.716 61.1728 130.047C57.2174 135.022 52.9368 139.38 52.5583 146.154C52.4717 146.989 51.5396 147.216 51.106 146.393C48.547 138.535 46.942 131.49 47.602 123.253C47.0927 123.784 46.5833 124.315 46.074 124.846C45.5646 125.377 44.6216 125.085 44.7082 124.25C44.816 119.46 46.9938 114.105 51.6324 111.926C52.2502 111.601 52.8898 112.316 52.3804 112.847C49.6278 115.611 47.3954 118.365 46.6372 121.92C47.1465 121.389 47.6559 120.857 48.1652 120.326C48.8805 119.687 49.726 120.294 49.6394 121.128C48.7407 127.913 48.9043 135.717 51.1271 142.437C51.7878 139.196 53.3916 136.247 55.418 133.603C57.2386 131.066 59.2759 128.941 60.999 126.719C62.722 124.497 63.5021 121.983 64.8024 119.457L64.6939 119.251C64.4662 118.319 65.8101 117.874 66.2438 118.698C66.6774 119.522 66.7968 120.248 67.2304 121.072C68.4114 117.82 69.1696 114.265 69.516 110.926C69.4942 109.886 70.9465 109.647 71.2827 110.785C71.6079 111.403 72.1391 111.912 72.4643 112.53C73.6562 109.799 74.1219 107.186 74.2624 103.956C74.2406 102.916 75.5845 102.471 76.3325 103.393C76.9721 104.108 77.2973 104.726 77.9369 105.441C79.2481 103.436 79.7247 101.344 79.5726 99.0567C79.4533 98.3306 80.6888 97.6801 81.0141 98.2978C81.6536 99.0131 82.4016 99.9343 83.0412 100.65C83.4312 99.3922 83.8212 98.1349 84.4172 96.7691C84.3088 96.5632 84.5147 96.4548 84.4063 96.2489C84.5249 91.9785 86.4321 88.6074 89.8134 86.0382C90.2252 85.8214 90.442 86.2332 90.3445 86.5475C89.4343 87.8158 88.6324 89.2899 87.8305 90.7641C87.538 91.7071 87.1371 92.4442 86.8446 93.3872C86.3462 94.4386 86.6714 95.0563 88.0262 95.132C88.839 94.1781 90.4216 95.1859 89.7172 96.3457C88.5144 98.557 87.9403 100.963 87.8864 103.359C88.5042 103.033 89.0135 102.502 89.8372 102.068C90.249 101.852 90.6718 102.155 90.5743 102.469C90.7802 102.361 91.2029 102.664 91.2139 103.185C90.564 106.946 90.4345 110.696 91.0311 114.327C91.5295 113.275 92.2339 112.116 92.7323 111.064C91.6482 109.005 92.7971 109.189 93.1223 109.807C95.562 116.938 98.7169 123.43 103.931 128.838C104.624 122.161 105.306 114.964 104.438 108.32C104.318 107.594 105.142 107.161 105.879 107.562C106.302 107.865 106.616 107.962 107.039 108.266C105.716 104.754 104.393 101.243 103.797 97.6119C103.688 97.406 103.688 97.406 103.374 97.3085C102.951 97.0051 103.352 96.268 103.872 96.2571C104.707 96.3437 105.238 96.853 105.867 97.0481C104.869 94.1543 103.872 91.2605 102.668 88.4751C102.018 87.2396 103.979 86.4698 104.836 87.5969C104.511 86.9792 104.164 85.3209 103.73 84.4972C103.079 83.2617 102.635 81.9178 101.984 80.6823C101.876 80.4764 102.082 80.368 102.288 80.2595C102.179 80.0536 102.071 79.8477 102.169 79.5334C102.06 79.3274 102.472 79.1106 102.58 79.3165C103.122 80.3461 103.859 80.7471 104.9 80.7252C104.564 79.5872 104.336 78.6552 104 77.5171C103.881 76.791 104.704 76.3573 105.235 76.8667C106.417 78.6115 107.696 80.042 109.29 81.5701C109.582 80.6271 109.355 79.695 109.018 78.557C108.585 77.7333 109.929 77.2887 110.254 77.9065C110.796 78.9361 111.436 79.6514 112.184 80.5725C112.606 80.876 112.932 81.4937 113.354 81.7971C114.211 82.9242 114.828 82.599 115.305 80.5071C115.197 80.3012 115.197 80.3012 115.088 80.0952C114.871 79.6834 115.489 79.3582 115.706 79.77C117.636 82.436 119.142 84.7987 121.581 86.9335C121.766 85.7846 121.744 84.7441 121.928 83.5952C122.014 82.7606 122.947 82.5329 123.38 83.3566C124.367 85.7301 125.657 87.6809 127.467 89.6207C127.456 89.1005 127.445 88.5802 127.434 88.06C127.521 87.2254 128.757 86.5749 129.19 87.3986C130.177 89.7721 131.673 91.6145 133.375 93.3484C133.667 92.4054 133.754 91.5708 134.046 90.6278C133.927 89.9017 134.751 89.468 135.39 90.1833C136.138 91.1044 136.68 92.134 137.428 93.0552C137.645 93.4671 137.754 93.673 138.176 93.9764C138.729 95.5262 139.455 95.4069 140.138 93.2066C139.704 92.3829 140.831 91.5265 141.373 92.5561C142.674 95.0271 144.279 97.0754 146.089 99.0153L146.23 95.7854C146.316 94.9508 147.248 94.723 147.574 95.3408C148.322 96.262 148.755 97.0857 149.503 98.0068C149.72 98.4187 149.828 98.6246 150.251 98.928C150.696 100.272 151.216 100.261 151.909 98.581C151.801 98.375 151.899 98.0607 151.899 98.0607C151.682 97.6489 152.299 97.3236 152.722 97.6271C153.904 99.3719 155.183 100.802 156.668 102.125C156.549 101.398 156.332 100.987 156.213 100.26C155.985 99.3283 156.906 98.5803 157.752 99.1871C161.773 102.33 165.686 105.267 169.708 108.409C167.908 101.993 165.078 96.1188 161.631 90.5699C161.522 90.364 161.522 90.364 161.414 90.1581L161.305 89.9522C161.197 89.7463 161.403 89.6378 161.511 89.8438L161.717 89.7354C162.14 90.0388 162.66 90.0279 163.083 90.3313C161.056 87.9796 158.725 86.0506 156.189 84.2301C155.452 83.8292 155.95 82.7777 156.785 82.8643L158.768 83.135C156.34 81.5204 153.609 80.3285 150.986 79.3426C150.357 79.1476 150.129 78.2155 150.855 78.0961C151.582 77.9768 152.308 77.8575 152.925 77.5323C149.045 76.1563 145.165 74.7803 141.176 73.1984C140.753 72.895 140.742 72.3747 141.154 72.1579C141.772 71.8326 142.292 71.8217 142.91 71.4965C140.406 71.2367 137.588 70.8794 135.073 70.0994C134.759 70.0019 134.64 69.2757 135.16 69.2648C135.16 69.2648 135.16 69.2648 135.051 69.0589C134.943 68.8529 134.943 68.8529 135.149 68.7445C134.401 67.8233 133.555 67.2165 132.309 67.3467C131.16 67.1626 130.64 67.1735 129.491 66.9894C128.971 67.0003 128.851 66.2742 129.155 65.8514C129.458 65.4287 129.87 65.2119 130.173 64.7891C127.778 64.7352 125.6 65.0932 123.118 65.8739C122.706 66.0907 122.066 65.3755 122.37 64.9527C122.565 64.3241 123.074 63.7929 123.269 63.1642C120.885 63.6306 118.5 64.097 116.419 64.1406C116.105 64.0431 115.996 63.8372 116.094 63.5229C116.397 63.1001 116.603 62.9917 117.113 62.4606C117.297 61.3116 117.08 60.8998 116.148 61.1275C115.628 61.1385 115.01 61.4637 114.49 61.4746C113.146 61.9192 111.704 62.6781 110.143 62.7108L110.035 62.5049C110.945 61.2366 112.604 60.8896 114.045 60.1307C114.663 59.8054 115.595 59.5777 116.321 59.4584C116.213 59.2525 116.104 59.0465 115.996 58.8406C115.779 58.4288 116.082 58.006 116.603 57.9951C117.643 57.9733 118.684 57.9515 119.833 58.1356C119.724 57.9297 119.616 57.7238 119.399 57.3119C118.976 57.0085 119.063 56.1739 119.789 56.0546C121.035 55.9244 122.076 55.9025 123.431 55.9782C124.059 56.1732 124.471 55.9564 124.775 55.5337C124.666 55.3277 124.666 55.3277 124.558 55.1218C123.723 55.0352 123.593 53.7888 124.633 53.767C125.674 53.7452 126.509 53.8318 127.549 53.81C128.069 53.7991 133.283 54.2102 129.391 52.314C128.654 51.9131 128.838 50.7641 129.673 50.8507C130.508 50.9373 131.342 51.0239 132.177 51.1105C132.697 51.0996 133.011 51.1971 133.532 51.1862C134.995 51.4678 136.133 51.1317 136.935 49.6575C136.935 49.6575 136.935 49.6575 136.729 49.7659C136.003 49.8852 135.872 48.6388 136.599 48.5195C136.599 48.5195 136.599 48.5195 136.805 48.4111C136.805 48.4111 137.01 48.3027 137.119 48.5086C137.119 48.5086 137.119 48.5086 137.325 48.4002C138.051 48.2809 139.091 48.259 139.818 48.1397C140.338 48.1288 140.858 48.1179 141.378 48.107C143.156 48.4861 143.351 47.8574 142.072 46.4269C141.237 46.3403 141.421 45.1914 142.148 45.0721C143.6 44.8334 144.846 44.7032 146.299 44.4646L147.751 44.2259C149.42 44.3991 150.027 43.5536 149.572 41.6894C148.845 41.8088 148.715 40.5623 149.441 40.443C151.197 39.7816 152.747 39.2287 154.503 38.5673C154.08 38.2638 153.766 38.1663 153.343 37.8629C153.343 37.8629 153.137 37.9713 153.028 37.7654C152.823 37.8738 152.606 37.462 152.812 37.3536C152.703 37.1476 152.703 37.1476 152.909 37.0392C153.939 36.4972 155.077 36.161 156.421 35.7164C157.971 35.1635 159.304 34.1987 160.647 33.7541C160.647 33.7541 160.647 33.7541 160.853 33.6457C163.845 32.3338 166.836 31.0219 169.827 29.7101C162.5 27.7818 155.639 28.2379 148.063 29.3336C147.543 29.3445 147.109 28.5209 147.521 28.304C148.031 27.7729 148.442 27.5561 148.952 27.0249C145.95 27.8165 143.587 29.3234 141.235 31.3505C140.823 31.5674 140.195 31.3723 140.498 30.9496C140.899 30.2125 140.986 29.3779 141.387 28.6409C138.504 30.1586 135.946 32.2942 133.605 34.8416C133.399 34.95 133.399 34.95 133.193 35.0584C133.193 35.0584 132.988 35.1668 133.096 35.3727C132.793 35.7955 132.261 35.2861 132.359 34.9718C132.359 34.9718 132.359 34.9718 132.456 34.6575C132.554 34.3431 132.543 33.8229 132.64 33.5086C130.072 35.1239 127.612 36.9451 125.791 39.4816C125.488 39.9043 125.065 39.6009 124.957 39.395C125.152 38.7663 125.347 38.1376 125.542 37.509C125.628 36.6744 124.674 35.8616 123.959 36.5012C122.42 37.5744 121.207 39.2654 120.827 41.043C120.416 41.2598 119.895 41.2707 119.884 40.7505C119.765 40.0243 119.754 39.504 119.429 38.8863C117.803 40.7941 116.492 42.7994 115.398 45.2166C115.094 45.6393 114.26 45.5527 114.249 45.0325C114.411 42.843 112.861 43.396 112.06 44.8702C111.464 46.2359 110.662 47.7101 110.066 49.0758C109.762 49.4986 109.036 49.6179 108.917 48.8917C108.808 48.6858 108.798 48.1656 108.689 47.9596C107.161 49.5531 106.262 51.3416 105.265 53.4444C105.167 53.7588 104.539 53.5638 104.636 53.2494C104.712 51.8946 105.102 50.6373 105.806 49.4774C105.492 49.3799 105.589 49.0656 105.795 48.9572C105.979 47.8083 106.272 46.8653 106.456 45.7163C106.348 45.5104 106.239 45.3045 106.445 45.1961C108.288 43.7001 109.924 42.3126 111.766 40.8166C110.932 40.73 109.989 40.4375 109.154 40.3509C108.525 40.1559 108.406 39.4297 109.024 39.1045C110.563 38.0312 112.21 37.1639 113.749 36.0907C113.229 36.1016 112.915 36.0041 112.394 36.015C111.462 36.2427 111.126 35.1047 111.635 34.5736C113.478 33.0776 115.114 31.69 116.957 30.1941C116.122 30.1075 115.287 30.0209 114.767 30.0318C113.933 29.9452 113.705 29.0131 114.323 28.6878C115.038 28.0483 115.862 27.6146 116.577 26.975C117.921 26.5305 118.213 25.5875 117.66 24.0376C117.14 24.0485 116.706 23.2249 117.01 22.8021C118.234 21.6314 119.459 20.4606 120.89 19.1815C120.369 19.1924 119.957 19.4092 119.437 19.4201C119.231 19.5286 119.134 19.8429 118.928 19.9513C118.722 20.0597 118.614 19.8538 118.614 19.8538C118.819 19.7454 118.711 19.5395 118.917 19.4311C118.809 19.2251 118.809 19.2251 118.906 18.9108C119.004 18.5965 119.415 18.3796 119.621 18.2712C122.038 14.369 124.454 10.4668 127.077 6.45615C121.17 7.72506 116.759 10.8363 112.261 14.7822C111.958 15.2049 111.221 14.804 111.21 14.2838C111.199 13.7635 111.394 13.1348 111.383 12.6146C109.747 14.0021 108.847 15.7906 108.056 17.785C107.753 18.2078 107.233 18.2187 107.222 17.6984C107.103 16.9723 106.983 16.2461 106.864 15.5199C105.26 18.4683 104.285 21.6116 103.624 24.8524C103.527 25.1667 103.007 25.1777 103.104 24.8633C103.202 24.549 103.191 24.0287 103.288 23.7144C103.256 22.1536 102.93 21.5359 101.955 24.6792C101.262 26.3593 101.089 28.0285 100.709 29.806C100.612 30.1204 100.406 30.2288 100.2 30.3372C99.9724 29.4051 99.8531 28.6789 99.5278 28.0612C99.4194 27.8553 99.2135 27.9637 99.0076 28.0721C98.4982 28.6033 98.4116 29.4378 98.0107 30.1749C97.7073 30.5977 97.6098 30.912 97.8266 31.3238C97.74 32.1584 97.6534 32.993 97.7727 33.7192L97.6752 34.0335C97.6752 34.0335 97.7836 34.2394 97.5777 34.3478C97.3827 34.9765 96.5481 34.8899 96.4288 34.1637C96.4288 34.1637 96.4288 34.1637 96.3204 33.9578C95.074 34.088 94.7705 34.5108 95.2151 35.8547C95.4538 37.3071 95.3781 38.6619 95.6167 40.1142C95.6276 40.6345 94.9014 40.7538 94.6846 40.342C94.3594 39.7242 94.1426 39.3124 93.8173 38.6946C93.3516 41.3068 93.6121 43.7996 94.1869 46.39C94.1978 46.9102 93.7859 47.1271 93.3632 46.8236C92.9404 46.5202 92.6152 45.9025 92.1924 45.599C92.1495 48.5146 92.7352 51.6252 93.7327 54.519C93.9495 54.9308 93.2234 55.0502 93.0066 54.6383C92.3452 52.8826 91.7922 51.3327 91.651 49.566C91.0006 48.3305 90.7619 46.8782 90.2199 45.8486C90.003 45.4367 89.8946 45.2308 89.6778 44.819C89.5694 44.6131 89.6021 46.1738 89.7105 46.3797C89.9382 47.3118 89.7432 47.9405 89.6566 48.7751L89.4507 48.8835C89.5591 49.0894 89.5591 49.0894 89.4616 49.4038C89.4725 49.924 88.7464 50.0433 88.5295 49.6315C87.7597 47.6698 86.784 45.8165 85.2989 44.4944C85.4183 45.2206 85.4292 45.7408 85.7544 46.3586C85.9822 47.2907 84.8441 47.6268 84.313 47.1175C83.4566 45.9904 82.4918 44.6574 81.6354 43.5303C81.4185 43.1184 80.9958 42.815 80.779 42.4032C80.226 40.8533 79.3914 40.7667 78.0584 41.7315L78.1668 41.9375C78.6005 42.7611 77.6793 43.5091 76.8338 42.9023C76.3026 42.3929 75.9774 41.7752 75.7605 41.3633C74.5789 39.6185 72.9963 38.6107 71.1103 38.0257C71.1213 38.5459 71.3381 38.9578 71.4574 39.6839C71.6851 40.616 70.6555 41.1581 70.016 40.4428C68.5091 38.0802 66.2978 36.8774 63.7832 36.0974L63.8916 36.3033C64 36.5092 63.6966 36.932 63.4907 37.0404C63.2847 37.1488 63.0788 37.2572 63.0788 37.2572C60.1414 36.1737 57.4099 34.9819 54.1691 34.3211C54.6028 35.1448 55.0364 35.9685 55.4701 36.7922C55.7953 37.4099 55.1885 38.2554 54.4514 37.8545C50.9828 36.2617 47.4276 35.5035 43.6775 35.3739C43.6775 35.3739 43.7859 35.5798 43.9918 35.4714C44.7289 35.8723 44.3389 37.1297 43.5043 37.0431C33.5002 36.5242 24.7323 40.3514 16.2787 44.2761C22.7276 44.0368 28.9815 44.4261 35.2573 45.856C36.0919 45.9426 36.0162 47.2974 35.29 47.4167C36.3523 48.4354 37.6097 48.8254 38.8452 48.1749C39.3654 48.164 39.5713 48.0556 40.0916 48.0447C41.1321 48.0229 41.2623 49.2693 40.4387 49.703C41.7287 51.6537 43.2029 52.4556 44.9586 51.7942C45.4789 51.7833 45.9991 51.7724 46.411 51.5556C47.1371 51.4362 47.4733 52.5743 47.1699 52.997C46.8664 53.4197 46.3571 53.9509 45.9453 54.1677C47.6144 54.3409 49.2727 53.9939 50.6166 53.5493C50.8225 53.4409 51.2344 53.2241 51.7546 53.2132C51.7546 53.2132 51.7546 53.2132 51.9605 53.1047C52.1665 52.9963 52.1665 52.9963 52.3724 52.8879C52.7842 52.6711 53.1095 53.2888 52.806 53.7116C53.0229 54.1234 52.7194 54.5462 52.1992 54.5571C49.6088 55.1319 53.9877 55.4564 54.5079 55.4455C55.8628 55.5212 57.2067 55.0767 58.4531 54.9464C59.3852 54.7187 59.9273 55.7483 59.212 56.3879C58.6161 57.7536 58.9413 58.3714 60.1768 57.7209C61.2173 57.6991 62.2578 57.6773 63.2983 57.6554C63.8186 57.6445 64.1438 58.2623 63.9488 58.891C62.6594 61.9368 68.2302 59.5299 68.4361 59.4214C68.8479 59.2046 69.0647 59.6165 68.9672 59.9308C67.851 61.3074 66.2146 62.695 64.2202 61.904L63.9059 61.8065L63.6999 61.915C62.1392 61.9477 60.5784 61.9804 59.0177 62.0131C59.3429 62.6309 60.08 63.0318 60.8171 63.4327C60.9255 63.6387 61.0339 63.8446 60.828 63.953L60.6221 64.0614C60.2102 64.2782 59.69 64.2892 59.2672 63.9857C59.2672 63.9857 59.0613 64.0941 58.9529 63.8882C57.1753 63.5091 55.6146 63.5418 53.9563 63.8889C54.0647 64.0948 54.0647 64.0948 54.1731 64.3007C54.4984 64.9185 54.0974 65.6556 53.2629 65.569C52.9485 65.4715 45.7516 64.7896 46.5105 66.231C46.6189 66.4369 46.6298 66.9572 46.1096 66.9681C46.1096 66.9681 45.9036 67.0765 45.7952 66.8706C45.5893 66.979 45.4809 66.7731 45.1666 66.6756C43.6167 67.2286 41.9585 67.5756 40.3002 67.9227C40.517 68.3345 40.6363 69.0607 39.9102 69.18C38.046 69.6355 35.8784 70.5137 33.9058 70.7633C34.8379 70.5355 34.7622 71.8904 34.1444 72.2156C32.3887 72.877 30.5354 73.8527 28.7796 74.5141C28.8881 74.72 29.094 74.6116 29.2024 74.8175C29.831 75.0125 29.5385 75.9555 28.8124 76.0749C26.5254 76.2269 24.8781 77.0942 23.3501 78.6877C23.6644 78.7852 23.6644 78.7852 23.9787 78.8827C24.2931 78.9802 24.4124 79.7064 23.8921 79.7173C23.8921 79.7173 23.6862 79.8257 23.5778 79.6198C23.6862 79.8257 23.5887 80.14 23.2744 80.0425C20.7924 80.8232 18.6357 82.2217 17.0102 84.1295L17.2161 84.0211C17.7364 84.0102 17.8557 84.7364 17.4439 84.9532C16.2084 85.6037 14.9728 86.2542 13.8457 87.1106C13.8457 87.1106 11.6134 89.8639 12.7514 89.5277C13.1632 89.3109 13.4884 89.9286 13.185 90.3514C12.6757 90.8825 9.42461 94.6982 10.2592 94.7848C10.4651 94.6764 10.3676 94.9907 10.3676 94.9907C10.1617 95.0991 9.95576 95.2075 9.74984 95.3159C9.35982 96.5733 8.9698 97.8306 8.7857 98.9795C8.39568 100.237 6.78106 102.665 8.4175 101.277C8.82934 101.061 9.25208 101.364 9.15457 101.678C7.91973 107.325 7.83381 113.157 7.84539 118.673C7.74789 118.988 7.54196 119.096 7.32513 118.684C6.17555 113.504 6.79263 108.182 8.13589 102.741Z" fill="#39404B"/>
<path d="M114.906 96.2338C114.44 93.8493 114.396 91.7683 113.724 89.4923C112.932 86.4901 111.22 84.2359 109.713 81.8733C109.496 81.4615 110.005 80.9303 110.428 81.2337C113.81 83.6611 116.217 89.2318 116.207 93.7082C116.608 92.9711 117.323 92.3315 118.038 91.692C118.341 91.2692 119.176 91.3558 119.501 91.9736C121.778 96.2979 123.22 100.536 123.839 105.207C124.142 104.784 124.337 104.156 124.64 103.733C125.041 102.996 125.984 103.288 126.201 103.7C128.781 107.602 129.801 111.536 129.996 115.904C130.506 115.373 131.015 114.841 131.622 113.996C131.925 113.573 132.76 113.66 133.085 114.278C134.939 118.298 135.958 122.233 136.046 126.395C136.555 125.864 137.27 125.224 137.671 124.487C137.975 124.064 138.809 124.151 139.134 124.769C140.566 128.486 141.477 132.214 141.661 136.062C141.965 135.639 142.16 135.011 142.463 134.588C142.864 133.851 143.807 134.143 144.024 134.555C145.759 137.85 147.081 141.361 147.57 144.786C147.765 144.158 148.903 143.822 149.228 144.439C151.689 147.615 153.423 150.909 154.334 154.638C154.627 153.695 155.873 153.564 156.307 154.388C158.453 157.466 159.874 160.663 160.882 164.077C160.871 163.557 161.174 163.134 161.164 162.614C161.456 161.671 162.703 161.541 162.93 162.473C165.109 167.112 167.495 171.642 169.262 176.497C169.565 176.074 169.869 175.652 170.378 175.121C170.887 174.589 171.722 174.676 172.253 175.185C173.955 176.919 175.245 178.87 176.535 180.821C180.675 179.693 186.561 182.38 187.786 186.206C187.895 186.412 187.689 186.52 187.483 186.629C183.104 186.304 179.982 181.373 175.268 184.907C174.14 185.764 173.534 186.609 172.298 187.26C170.347 188.55 166.554 186.339 165.373 189.591C165.275 189.905 164.549 190.024 164.538 189.504C164.299 188.052 164.798 187 166.239 186.241C168.504 185.049 170.087 186.057 172.113 183.412C172.72 182.566 173.23 182.035 174.053 181.602C173.403 180.366 172.546 179.239 171.484 178.22C171.289 178.849 170.78 179.38 170.585 180.009C170.411 181.678 167.897 180.898 168.07 179.229C168.167 178.914 168.157 178.394 168.254 178.08C165.88 174.07 164.026 170.049 162.064 165.822C161.977 166.657 161.684 167.6 161.489 168.228C161.197 169.171 159.636 169.204 159.408 168.272C158.595 164.229 157.066 160.826 155.223 157.326C155.028 157.954 154.833 158.583 154.638 159.212C154.248 160.469 152.677 159.981 152.546 158.735C152.145 154.475 150.919 150.65 148.556 147.16C148.264 148.103 147.863 148.84 147.462 149.577C147.267 150.206 146.009 149.816 146.204 149.187C146.302 148.873 146.291 148.352 146.389 148.038C145.889 144.093 144.87 140.159 143.027 136.658C142.529 137.709 141.922 138.555 141.423 139.606C141.022 140.343 139.765 139.953 139.852 139.119C139.764 134.957 139.157 130.806 137.823 126.774C137.01 127.728 136.295 128.367 135.482 129.321C134.973 129.852 133.922 129.354 134.008 128.519C134.127 124.249 133.519 120.098 131.665 116.077L129.325 118.624C128.815 119.156 127.764 118.657 127.851 117.823C128.067 113.238 127.253 109.195 124.987 105.391C124.587 106.128 123.98 106.974 123.579 107.711C122.972 108.556 122.126 107.949 122.007 107.223C121.692 102.129 120.347 97.577 118.168 92.9384C117.356 93.8923 116.857 94.9437 116.467 96.201C116.175 97.144 115.026 96.9599 114.798 96.0278C115.123 96.6456 114.809 96.5481 114.906 96.2338Z" fill="#39404B"/>
<path d="M120.023 186.378C125.128 186.583 130.027 186.897 135.132 187.102C129.636 183.158 125.679 178.14 122.221 172.071C121.896 171.453 122.611 170.814 123.142 171.323C128.139 176.319 138.046 177.152 143.965 181.4C142.566 179.243 141.374 176.978 140.073 174.507C139.639 173.684 140.452 172.73 141.189 173.131C141.611 173.434 142.132 173.423 142.554 173.726C140.311 170.963 138.684 167.874 137.156 164.471C136.722 163.647 137.535 162.693 138.478 162.986C135.919 160.125 134.185 156.83 132.96 153.004C132.84 152.278 133.555 151.639 134.184 151.834C131.431 149.601 129.284 146.523 127.756 143.12C127.43 142.502 127.831 141.765 128.666 141.852C129.186 141.841 129.815 142.036 130.335 142.025C127.473 139.587 124.709 136.834 122.454 133.55C122.237 133.139 122.53 132.196 123.05 132.185C123.776 132.065 124.709 131.838 125.543 131.924C122.161 129.497 119.386 126.224 117.229 122.626C117.012 122.214 117.304 121.271 117.825 121.26L120.317 121C116.827 118.366 114.052 115.093 112.404 110.964C112.079 110.346 112.48 109.609 113.314 109.696C113.834 109.685 114.463 109.88 114.983 109.869C111.482 106.716 108.599 103.237 106.528 98.804C106.203 98.1863 106.506 97.7635 107.124 97.4383C108.056 97.2105 109.096 97.1887 109.822 97.0694C107.817 95.7582 106.104 93.504 104.706 91.3473C104.998 90.4043 105.182 89.2554 105.161 88.2149C105.92 89.6563 106.581 91.4121 107.752 92.6367C109.248 94.4791 111.253 95.7903 112.641 97.4267C112.749 97.6326 112.749 97.6326 112.857 97.8385C113.389 98.3479 112.998 99.6052 112.056 99.3127C111.004 98.8143 109.649 98.7386 108.403 98.8688C110.994 103.291 113.986 106.975 118.007 110.118C118.539 110.627 118.354 111.776 117.52 111.69C116.685 111.603 115.645 111.625 114.81 111.538C116.87 115.451 119.537 118.518 123.439 120.934C124.176 121.335 123.992 122.484 123.266 122.603L119.841 123.092C122.204 126.581 125.077 129.54 128.773 132.065C129.51 132.466 129.326 133.615 128.6 133.734C127.353 133.864 126.421 134.092 125.175 134.222C127.744 137.603 130.508 140.356 134.205 142.881C134.942 143.282 134.66 144.745 133.717 144.453C132.568 144.268 131.528 144.29 130.379 144.106C132.222 147.607 134.888 150.674 137.859 153.318C138.173 153.416 138.596 153.719 138.91 153.816C139.539 154.011 139.149 155.269 138.52 155.074C137.685 154.987 136.742 154.695 135.908 154.608C137.447 158.531 139.908 161.707 143.193 164.449C144.147 165.261 143.551 166.627 142.402 166.443C141.773 166.248 141.144 166.053 140.516 165.858C142.153 169.467 144.299 172.545 147.172 175.503C147.812 176.219 147.216 177.584 145.958 177.194C145.221 176.793 144.278 176.501 143.65 176.306C146.024 180.316 148.495 184.012 150.252 188.347C150.566 188.444 150.881 188.542 151.303 188.845C152.669 189.441 152.095 191.847 150.523 191.36C149.895 191.165 149.168 191.284 148.54 191.089C148.876 192.227 149.212 193.365 149.754 194.395C149.96 194.286 150.48 194.275 150.686 194.167C152.865 193.809 160.354 193.548 161.232 190.719C161.427 190.09 162.359 189.862 162.478 190.589L162.695 191C162.803 191.206 162.597 191.315 162.597 191.315C163.009 191.098 161.817 193.829 161.915 193.515C160.484 194.794 159.14 195.239 157.276 195.694C154.892 196.161 152.301 196.736 149.711 197.31C145.257 198.341 141.214 199.154 140.282 204.378C140.293 204.899 139.361 205.126 139.242 204.4C139.112 203.154 139.09 202.113 139.166 200.758C135.231 201.778 131.459 200.608 127.774 198.603C127.037 198.202 127.329 197.259 127.741 197.042C128.868 196.186 130.104 195.535 131.448 195.091C126.939 193.52 122.928 190.897 119.73 187.321C118.896 187.235 119.297 186.497 120.023 186.378ZM136.228 194.678C137.691 194.96 137.626 196.835 136.065 196.868C133.778 197.02 131.708 197.584 129.541 198.462C132.381 199.86 135.61 200 139.035 199.512C139.425 198.255 140.444 197.192 141.571 196.336C142.601 195.794 143.739 195.458 144.877 195.122C143.088 194.222 141.3 193.323 139.62 192.629C138.254 192.033 136.791 191.752 135.122 191.579C133.973 191.395 132.726 191.525 131.675 191.026L131.566 190.82C133.615 189.216 137.69 189.963 140.096 190.537C142.503 191.112 144.508 192.423 146.21 194.157C145.874 193.019 145.44 192.195 145.104 191.057C143.727 189.941 142.665 188.922 141.288 187.806C138.958 185.877 136.53 184.262 133.896 182.756C133.787 182.55 133.787 182.55 133.993 182.442C137.657 183.406 142.177 185.497 144.843 188.564C144.941 188.25 145.353 188.033 145.765 187.816C145.971 187.708 145.971 187.708 146.079 187.914C141.136 180.522 131.348 180.415 124.996 175.344C128.118 180.275 132.574 184.241 137.527 187.156C137.95 187.46 137.863 188.294 137.137 188.414C132.032 188.208 127.036 188.209 121.931 188.004C125.963 191.667 130.797 193.855 136.228 194.678Z" fill="#39404B"/>
</g>
</svg>
