<svg width="101" height="25" viewBox="0 0 101 25" fill="none" xmlns="http://www.w3.org/2000/svg">
<path d="M31.3599 6.37598L33.5088 0.601562H33.7681L31.3774 7H31.1533L31.3599 6.37598ZM28.9561 0.601562L31.105 6.37598L31.3115 7H31.0874L28.6968 0.601562H28.9561ZM37.4595 6.10791V3.65137C37.4595 3.3877 37.4023 3.16211 37.2881 2.97461C37.1768 2.78711 37.0127 2.64355 36.7959 2.54395C36.582 2.44434 36.3198 2.39453 36.0093 2.39453C35.7222 2.39453 35.4629 2.4458 35.2314 2.54834C35.0029 2.64795 34.8213 2.78564 34.6865 2.96143C34.5547 3.13721 34.4888 3.33496 34.4888 3.55469L34.2515 3.5459C34.2515 3.36133 34.2939 3.18555 34.3789 3.01855C34.4668 2.85156 34.5884 2.70361 34.7437 2.57471C34.9019 2.4458 35.0879 2.34473 35.3018 2.27148C35.5186 2.19531 35.7544 2.15723 36.0093 2.15723C36.3403 2.15723 36.6318 2.21289 36.8838 2.32422C37.1387 2.43555 37.3379 2.60254 37.4814 2.8252C37.625 3.04785 37.6968 3.32617 37.6968 3.66016V6.04199C37.6968 6.21191 37.707 6.3833 37.7275 6.55615C37.751 6.729 37.7817 6.86377 37.8198 6.96045V7H37.5474C37.5181 6.88574 37.4961 6.74805 37.4814 6.58691C37.4668 6.42285 37.4595 6.26318 37.4595 6.10791ZM37.5649 4.3457L37.5737 4.5874H36.3345C36.0269 4.5874 35.7515 4.61816 35.5083 4.67969C35.2651 4.73828 35.0586 4.82178 34.8887 4.93018C34.7188 5.03857 34.5884 5.16748 34.4976 5.31689C34.4067 5.46631 34.3613 5.63184 34.3613 5.81348C34.3613 6.00391 34.4126 6.17822 34.5151 6.33643C34.6206 6.49463 34.7656 6.62061 34.9502 6.71436C35.1348 6.80811 35.3472 6.85498 35.5874 6.85498C35.9214 6.85498 36.2173 6.80078 36.4751 6.69238C36.7329 6.58105 36.9512 6.42578 37.1299 6.22656C37.3086 6.02734 37.4448 5.7915 37.5386 5.51904L37.644 5.73877C37.5884 5.90283 37.5049 6.06543 37.3936 6.22656C37.2852 6.38477 37.146 6.52979 36.9761 6.66162C36.8062 6.79053 36.6055 6.89453 36.374 6.97363C36.1455 7.0498 35.8833 7.08789 35.5874 7.08789C35.2915 7.08789 35.0337 7.03369 34.814 6.92529C34.5942 6.81396 34.4243 6.66162 34.3042 6.46826C34.1841 6.27197 34.124 6.04785 34.124 5.7959C34.124 5.58496 34.1738 5.3916 34.2734 5.21582C34.373 5.03711 34.5166 4.8833 34.7041 4.75439C34.8945 4.62256 35.126 4.52148 35.3984 4.45117C35.6709 4.38086 35.9785 4.3457 36.3213 4.3457H37.5649ZM39.5249 0.25V7H39.2876V0.25H39.5249ZM40.7246 4.71484V4.53027C40.7246 4.18164 40.7744 3.8623 40.874 3.57227C40.9766 3.28223 41.1187 3.03174 41.3003 2.8208C41.4849 2.60986 41.7046 2.44727 41.9595 2.33301C42.2144 2.21582 42.4956 2.15723 42.8032 2.15723C43.1138 2.15723 43.3965 2.21582 43.6514 2.33301C43.9062 2.44727 44.126 2.60986 44.3105 2.8208C44.4951 3.03174 44.6372 3.28223 44.7368 3.57227C44.8364 3.8623 44.8862 4.18164 44.8862 4.53027V4.71484C44.8862 5.06348 44.8364 5.38281 44.7368 5.67285C44.6372 5.96289 44.4951 6.21338 44.3105 6.42432C44.1289 6.63525 43.9106 6.79932 43.6558 6.9165C43.4009 7.03076 43.1196 7.08789 42.812 7.08789C42.5015 7.08789 42.2188 7.03076 41.9639 6.9165C41.709 6.79932 41.4893 6.63525 41.3047 6.42432C41.1201 6.21338 40.9766 5.96289 40.874 5.67285C40.7744 5.38281 40.7246 5.06348 40.7246 4.71484ZM40.9619 4.53027V4.71484C40.9619 4.99902 41.0029 5.27002 41.085 5.52783C41.1699 5.78271 41.2915 6.00977 41.4497 6.20898C41.6079 6.4082 41.8013 6.56494 42.0298 6.6792C42.2583 6.79346 42.519 6.85059 42.812 6.85059C43.1021 6.85059 43.3599 6.79346 43.5854 6.6792C43.814 6.56494 44.0073 6.4082 44.1655 6.20898C44.3237 6.00977 44.4438 5.78271 44.5259 5.52783C44.6079 5.27002 44.6489 4.99902 44.6489 4.71484V4.53027C44.6489 4.25195 44.6079 3.98535 44.5259 3.73047C44.4438 3.47559 44.3223 3.24854 44.1611 3.04932C44.0029 2.84717 43.8096 2.6875 43.5811 2.57031C43.3525 2.45312 43.0933 2.39453 42.8032 2.39453C42.5132 2.39453 42.2539 2.45312 42.0254 2.57031C41.7998 2.6875 41.6064 2.84717 41.4453 3.04932C41.2871 3.24854 41.167 3.47559 41.085 3.73047C41.0029 3.98535 40.9619 4.25195 40.9619 4.53027ZM46.2793 3.07129V7H46.042V2.24512H46.2793V3.07129ZM48.1646 2.20557L48.1382 2.4165C48.0913 2.41064 48.0415 2.40479 47.9888 2.39893C47.939 2.39307 47.8862 2.39014 47.8306 2.39014C47.564 2.39014 47.3296 2.44434 47.1274 2.55273C46.9282 2.66113 46.7612 2.81055 46.6265 3.00098C46.4946 3.19141 46.395 3.41113 46.3276 3.66016C46.2632 3.90625 46.231 4.16992 46.231 4.45117L46.0728 4.46436C46.0728 4.13037 46.1079 3.82275 46.1782 3.5415C46.2515 3.26025 46.3599 3.01709 46.5034 2.81201C46.6499 2.604 46.833 2.44287 47.0527 2.32861C47.2754 2.21436 47.5347 2.15723 47.8306 2.15723C47.9038 2.15723 47.9683 2.16162 48.0239 2.17041C48.0796 2.1792 48.1265 2.19092 48.1646 2.20557ZM51.8647 6.10791V3.65137C51.8647 3.3877 51.8076 3.16211 51.6934 2.97461C51.582 2.78711 51.418 2.64355 51.2012 2.54395C50.9873 2.44434 50.7251 2.39453 50.4146 2.39453C50.1274 2.39453 49.8682 2.4458 49.6367 2.54834C49.4082 2.64795 49.2266 2.78564 49.0918 2.96143C48.96 3.13721 48.894 3.33496 48.894 3.55469L48.6567 3.5459C48.6567 3.36133 48.6992 3.18555 48.7842 3.01855C48.8721 2.85156 48.9937 2.70361 49.1489 2.57471C49.3071 2.4458 49.4932 2.34473 49.707 2.27148C49.9238 2.19531 50.1597 2.15723 50.4146 2.15723C50.7456 2.15723 51.0371 2.21289 51.2891 2.32422C51.5439 2.43555 51.7432 2.60254 51.8867 2.8252C52.0303 3.04785 52.1021 3.32617 52.1021 3.66016V6.04199C52.1021 6.21191 52.1123 6.3833 52.1328 6.55615C52.1562 6.729 52.187 6.86377 52.2251 6.96045V7H51.9526C51.9233 6.88574 51.9014 6.74805 51.8867 6.58691C51.8721 6.42285 51.8647 6.26318 51.8647 6.10791ZM51.9702 4.3457L51.979 4.5874H50.7397C50.4321 4.5874 50.1567 4.61816 49.9136 4.67969C49.6704 4.73828 49.4639 4.82178 49.2939 4.93018C49.124 5.03857 48.9937 5.16748 48.9028 5.31689C48.812 5.46631 48.7666 5.63184 48.7666 5.81348C48.7666 6.00391 48.8179 6.17822 48.9204 6.33643C49.0259 6.49463 49.1709 6.62061 49.3555 6.71436C49.54 6.80811 49.7524 6.85498 49.9927 6.85498C50.3267 6.85498 50.6226 6.80078 50.8804 6.69238C51.1382 6.58105 51.3564 6.42578 51.5352 6.22656C51.7139 6.02734 51.8501 5.7915 51.9438 5.51904L52.0493 5.73877C51.9937 5.90283 51.9102 6.06543 51.7988 6.22656C51.6904 6.38477 51.5513 6.52979 51.3813 6.66162C51.2114 6.79053 51.0107 6.89453 50.7793 6.97363C50.5508 7.0498 50.2886 7.08789 49.9927 7.08789C49.6968 7.08789 49.439 7.03369 49.2192 6.92529C48.9995 6.81396 48.8296 6.66162 48.7095 6.46826C48.5894 6.27197 48.5293 6.04785 48.5293 5.7959C48.5293 5.58496 48.5791 5.3916 48.6787 5.21582C48.7783 5.03711 48.9219 4.8833 49.1094 4.75439C49.2998 4.62256 49.5312 4.52148 49.8037 4.45117C50.0762 4.38086 50.3838 4.3457 50.7266 4.3457H51.9702ZM55.2485 6.85059C55.4976 6.85059 55.7334 6.80664 55.9561 6.71875C56.1816 6.62793 56.3691 6.4873 56.5186 6.29688C56.6709 6.10645 56.7559 5.86035 56.7734 5.55859H57.0107C56.9961 5.88086 56.9067 6.15625 56.7427 6.38477C56.5786 6.61328 56.3662 6.7876 56.1055 6.90771C55.8447 7.02783 55.5591 7.08789 55.2485 7.08789C54.9409 7.08789 54.6655 7.03076 54.4224 6.9165C54.1821 6.79932 53.9785 6.63525 53.8115 6.42432C53.6475 6.21338 53.5215 5.96289 53.4336 5.67285C53.3486 5.38281 53.3062 5.06348 53.3062 4.71484V4.53027C53.3062 4.18164 53.3486 3.8623 53.4336 3.57227C53.5215 3.28223 53.6475 3.03174 53.8115 2.8208C53.9785 2.60986 54.1807 2.44727 54.418 2.33301C54.6582 2.21582 54.9321 2.15723 55.2397 2.15723C55.5474 2.15723 55.8315 2.22021 56.0923 2.34619C56.356 2.46924 56.5713 2.65381 56.7383 2.8999C56.9053 3.146 56.9961 3.45068 57.0107 3.81396H56.7734C56.7588 3.49756 56.6782 3.23535 56.5317 3.02734C56.3882 2.81641 56.2021 2.6582 55.9736 2.55273C55.7451 2.44727 55.5005 2.39453 55.2397 2.39453C54.9497 2.39453 54.6978 2.4502 54.4839 2.56152C54.27 2.66992 54.0928 2.82227 53.9521 3.01855C53.8145 3.21484 53.7119 3.44189 53.6445 3.69971C53.5771 3.95752 53.5435 4.23438 53.5435 4.53027V4.71484C53.5435 5.01367 53.5771 5.29199 53.6445 5.5498C53.7119 5.80762 53.8145 6.03467 53.9521 6.23096C54.0928 6.42432 54.27 6.57666 54.4839 6.68799C54.7007 6.79639 54.9556 6.85059 55.2485 6.85059ZM58.5005 2.24512V7H58.2632V2.24512H58.5005ZM58.1401 0.759766C58.1401 0.692383 58.1636 0.635254 58.2104 0.588379C58.2573 0.538574 58.3145 0.513672 58.3818 0.513672C58.4492 0.513672 58.5063 0.538574 58.5532 0.588379C58.603 0.635254 58.6279 0.692383 58.6279 0.759766C58.6279 0.827148 58.603 0.884277 58.5532 0.931152C58.5063 0.978027 58.4492 1.00146 58.3818 1.00146C58.3145 1.00146 58.2573 0.978027 58.2104 0.931152C58.1636 0.884277 58.1401 0.827148 58.1401 0.759766ZM59.7002 4.71484V4.53027C59.7002 4.18164 59.75 3.8623 59.8496 3.57227C59.9521 3.28223 60.0942 3.03174 60.2759 2.8208C60.4604 2.60986 60.6802 2.44727 60.9351 2.33301C61.1899 2.21582 61.4712 2.15723 61.7788 2.15723C62.0894 2.15723 62.3721 2.21582 62.627 2.33301C62.8818 2.44727 63.1016 2.60986 63.2861 2.8208C63.4707 3.03174 63.6128 3.28223 63.7124 3.57227C63.812 3.8623 63.8618 4.18164 63.8618 4.53027V4.71484C63.8618 5.06348 63.812 5.38281 63.7124 5.67285C63.6128 5.96289 63.4707 6.21338 63.2861 6.42432C63.1045 6.63525 62.8862 6.79932 62.6313 6.9165C62.3765 7.03076 62.0952 7.08789 61.7876 7.08789C61.4771 7.08789 61.1943 7.03076 60.9395 6.9165C60.6846 6.79932 60.4648 6.63525 60.2803 6.42432C60.0957 6.21338 59.9521 5.96289 59.8496 5.67285C59.75 5.38281 59.7002 5.06348 59.7002 4.71484ZM59.9375 4.53027V4.71484C59.9375 4.99902 59.9785 5.27002 60.0605 5.52783C60.1455 5.78271 60.2671 6.00977 60.4253 6.20898C60.5835 6.4082 60.7769 6.56494 61.0054 6.6792C61.2339 6.79346 61.4946 6.85059 61.7876 6.85059C62.0776 6.85059 62.3354 6.79346 62.561 6.6792C62.7896 6.56494 62.9829 6.4082 63.1411 6.20898C63.2993 6.00977 63.4194 5.78271 63.5015 5.52783C63.5835 5.27002 63.6245 4.99902 63.6245 4.71484V4.53027C63.6245 4.25195 63.5835 3.98535 63.5015 3.73047C63.4194 3.47559 63.2979 3.24854 63.1367 3.04932C62.9785 2.84717 62.7852 2.6875 62.5566 2.57031C62.3281 2.45312 62.0688 2.39453 61.7788 2.39453C61.4888 2.39453 61.2295 2.45312 61.001 2.57031C60.7754 2.6875 60.582 2.84717 60.4209 3.04932C60.2627 3.24854 60.1426 3.47559 60.0605 3.73047C59.9785 3.98535 59.9375 4.25195 59.9375 4.53027ZM61.6206 1.43213L62.4512 0.263184H62.7412L61.8843 1.43213H61.6206ZM65.2549 3.26025V7H65.0176V2.24512H65.2549V3.26025ZM65.2153 4.21387L65.0879 3.96338C65.1172 3.729 65.1816 3.50488 65.2812 3.29102C65.3809 3.07422 65.5112 2.88086 65.6724 2.71094C65.8335 2.54102 66.021 2.40625 66.2349 2.30664C66.4487 2.20703 66.6846 2.15723 66.9424 2.15723C67.1826 2.15723 67.3965 2.19092 67.584 2.2583C67.7715 2.32275 67.9297 2.42676 68.0586 2.57031C68.1875 2.71094 68.2856 2.89258 68.353 3.11523C68.4204 3.33789 68.4541 3.60742 68.4541 3.92383V7H68.2168V3.92383C68.2168 3.51953 68.1611 3.20752 68.0498 2.98779C67.9414 2.76514 67.7905 2.60986 67.5972 2.52197C67.4038 2.43408 67.1812 2.39014 66.9292 2.39014C66.6304 2.39014 66.374 2.45752 66.1602 2.59229C65.9492 2.72412 65.7749 2.88965 65.6372 3.08887C65.5024 3.28809 65.3999 3.49023 65.3296 3.69531C65.2622 3.90039 65.2241 4.07324 65.2153 4.21387Z" fill="white"/>
<path fill-rule="evenodd" clip-rule="evenodd" d="M6.84845 11.1228C6.66672 11.1684 6.5984 11.239 6.47047 11.5133C6.41659 11.6288 6.34588 11.7801 6.31334 11.8495C6.2808 11.9188 6.21455 12.0606 6.16615 12.1646C5.99139 12.5401 5.92974 12.6719 5.84678 12.8475C5.68492 13.19 5.58364 13.4054 5.50895 13.5659C5.46757 13.6548 5.39665 13.8061 5.35131 13.9021C5.30599 13.9981 5.23133 14.157 5.1854 14.2552C5.02797 14.5919 4.94451 14.7702 4.87056 14.9276C4.82986 15.0143 4.7606 15.1632 4.71664 15.2585C4.6727 15.3539 4.62923 15.4321 4.62006 15.4325C4.59918 15.4333 4.31135 15.4763 3.848 15.5476C3.65182 15.5778 3.34023 15.6253 3.15559 15.6532C2.97095 15.6811 2.69713 15.723 2.54711 15.7463C2.39709 15.7696 2.13787 15.8083 1.97108 15.8323C1.8043 15.8563 1.66208 15.8794 1.65507 15.8838C1.64804 15.8881 1.52544 15.907 1.3826 15.9256C1.23975 15.9443 1.11701 15.9632 1.10983 15.9676C1.10265 15.9721 0.984043 15.9905 0.846253 16.0085C0.419057 16.0643 0.267713 16.0995 0.178475 16.1638C0.0124228 16.2836 -0.0468098 16.5037 0.0393849 16.6806C0.0829018 16.77 0.17835 16.8719 1.14577 17.8621C1.47135 18.1953 1.86624 18.6003 2.02329 18.7621C2.18034 18.9239 2.4469 19.1981 2.61566 19.3714C2.78442 19.5448 2.99189 19.7582 3.07672 19.8456L3.23096 20.0047L3.19976 20.1608C3.18261 20.2467 3.15796 20.3926 3.14501 20.485C3.13205 20.5775 3.10844 20.724 3.09256 20.8107C3.05041 21.0408 2.98547 21.442 2.87325 22.1659C2.84996 22.3161 2.82512 22.4627 2.81805 22.4916C2.81098 22.5205 2.78725 22.66 2.76532 22.8015C2.68974 23.2895 2.57482 23.9968 2.52556 24.2775C2.4761 24.5593 2.48926 24.7161 2.5709 24.8178C2.65963 24.9283 2.79512 25 2.9153 25C3.02626 25 3.07731 24.9781 3.43885 24.7756C3.5831 24.6948 3.75306 24.6005 3.81653 24.5661C4.13703 24.3924 4.21542 24.3492 4.34108 24.2772C4.41609 24.2342 4.54356 24.163 4.62434 24.1192C4.70512 24.0752 4.80898 24.0174 4.85514 23.9906C4.9013 23.9638 4.96268 23.9303 4.99153 23.9161C5.02038 23.902 5.26115 23.7684 5.52657 23.6193C5.792 23.4701 6.02804 23.3398 6.05113 23.3296C6.07421 23.3194 6.10725 23.3019 6.12456 23.2906C6.20948 23.2353 6.87545 22.874 6.91637 22.861C6.95153 22.8498 7.01479 22.8748 7.16815 22.9601C7.43181 23.1069 7.60615 23.2028 7.69822 23.2516C7.73861 23.2731 7.78582 23.2994 7.80313 23.3101C7.82044 23.3208 7.95735 23.3966 8.10738 23.4787C8.2574 23.5607 8.39431 23.6372 8.41162 23.6486C8.42893 23.66 8.48086 23.6887 8.52702 23.7125C8.57318 23.7363 8.64871 23.7785 8.69487 23.8061C8.74104 23.8338 8.80241 23.8682 8.83126 23.8825C8.86011 23.8968 9.06311 24.0089 9.28237 24.1317C9.50164 24.2545 9.74241 24.3879 9.81742 24.4283C10.0035 24.5283 10.139 24.6031 10.4469 24.7756C10.8176 24.9832 10.8604 25.0012 10.9821 24.9994C11.1082 24.9976 11.2304 24.9298 11.3204 24.8116C11.3963 24.7119 11.4082 24.5497 11.3595 24.2775C11.3398 24.1678 11.3064 23.9692 11.2852 23.8363C11.264 23.7034 11.2267 23.4718 11.2023 23.3215C11.1779 23.1713 11.1406 22.9349 11.1193 22.7963C11.098 22.6576 11.0748 22.5205 11.0677 22.4916C11.0606 22.4627 11.0367 22.3209 11.0145 22.1764C10.9923 22.032 10.9491 21.7625 10.9185 21.5776C10.86 21.2241 10.8126 20.9312 10.7434 20.4955C10.7204 20.3511 10.6914 20.1812 10.6789 20.1181L10.6561 20.0033L10.8109 19.845C10.9807 19.6713 11.5388 19.0974 11.9118 18.7128C12.0424 18.5781 12.4306 18.1796 12.7744 17.8271C13.7417 16.8355 13.8013 16.7718 13.846 16.6806C13.9327 16.5041 13.8735 16.2837 13.7073 16.1638C13.6136 16.0962 13.3865 16.0502 12.5766 15.9345C12.5073 15.9246 12.3232 15.8965 12.1674 15.8721C11.6797 15.7955 11.3837 15.75 11.2967 15.7384C11.2505 15.7322 11.09 15.708 10.94 15.6848C10.7899 15.6615 10.5445 15.6235 10.3944 15.6003C10.2444 15.5771 10.0225 15.5428 9.90135 15.524C9.67852 15.4894 9.29457 15.434 9.26786 15.4326C9.25441 15.4319 9.16259 15.2485 9.00184 14.9013C8.96571 14.8233 8.90663 14.6957 8.87049 14.6177C8.78426 14.4314 8.63902 14.1228 8.52681 13.8875C8.47721 13.7835 8.40268 13.6252 8.36117 13.5356C8.31967 13.4461 8.25177 13.2995 8.21027 13.2099C8.16877 13.1204 8.09418 12.962 8.04449 12.858C7.99483 12.754 7.91896 12.5933 7.87592 12.5008C7.83289 12.4084 7.76004 12.2523 7.71402 12.1541C7.66801 12.0559 7.60399 11.9188 7.57178 11.8495C7.28743 11.2374 7.28605 11.2351 7.15269 11.1671C7.06194 11.1208 6.93183 11.1018 6.84845 11.1228Z" fill="#FFC107"/>
<path fill-rule="evenodd" clip-rule="evenodd" d="M28.4484 11.1228C28.2667 11.1684 28.1984 11.239 28.0704 11.5133C28.0166 11.6288 27.9458 11.7801 27.9133 11.8495C27.8808 11.9188 27.8145 12.0606 27.7661 12.1646C27.5914 12.5401 27.5297 12.6719 27.4467 12.8475C27.2849 13.19 27.1836 13.4054 27.1089 13.5659C27.0675 13.6548 26.9966 13.8061 26.9513 13.9021C26.906 13.9981 26.8313 14.157 26.7854 14.2552C26.6279 14.5919 26.5445 14.7702 26.4705 14.9276C26.4298 15.0143 26.3606 15.1632 26.3166 15.2585C26.2727 15.3539 26.2292 15.4321 26.22 15.4325C26.1991 15.4333 25.9113 15.4763 25.448 15.5476C25.2518 15.5778 24.9402 15.6253 24.7556 15.6532C24.5709 15.6811 24.2971 15.723 24.1471 15.7463C23.9971 15.7696 23.7378 15.8083 23.5711 15.8323C23.4043 15.8563 23.262 15.8794 23.255 15.8838C23.248 15.8881 23.1254 15.907 22.9826 15.9256C22.8397 15.9443 22.717 15.9632 22.7098 15.9676C22.7026 15.9721 22.584 15.9905 22.4462 16.0085C22.019 16.0643 21.8677 16.0995 21.7784 16.1638C21.6124 16.2836 21.5532 16.5037 21.6394 16.6806C21.6829 16.77 21.7783 16.8719 22.7457 17.8621C23.0713 18.1953 23.4662 18.6003 23.6233 18.7621C23.7803 18.9239 24.0469 19.1981 24.2156 19.3714C24.3844 19.5448 24.5919 19.7582 24.6767 19.8456L24.8309 20.0047L24.7997 20.1608C24.7826 20.2467 24.7579 20.3926 24.745 20.485C24.732 20.5775 24.7084 20.724 24.6925 20.8107C24.6504 21.0408 24.5854 21.442 24.4732 22.1659C24.4499 22.3161 24.4251 22.4627 24.418 22.4916C24.4109 22.5205 24.3872 22.66 24.3653 22.8015C24.2897 23.2895 24.1748 23.9968 24.1255 24.2775C24.0761 24.5593 24.0892 24.7161 24.1709 24.8178C24.2596 24.9283 24.3951 25 24.5153 25C24.6262 25 24.6773 24.9781 25.0388 24.7756C25.1831 24.6948 25.353 24.6005 25.4165 24.5661C25.737 24.3924 25.8154 24.3492 25.941 24.2772C26.0161 24.2342 26.1435 24.163 26.2243 24.1192C26.3051 24.0752 26.4089 24.0174 26.4551 23.9906C26.5013 23.9638 26.5626 23.9303 26.5915 23.9161C26.6203 23.902 26.8611 23.7684 27.1265 23.6193C27.392 23.4701 27.628 23.3398 27.6511 23.3296C27.6742 23.3195 27.7072 23.3019 27.7245 23.2906C27.8094 23.2353 28.4754 22.874 28.5163 22.861C28.5515 22.8499 28.6148 22.8748 28.7681 22.9601C29.0318 23.1069 29.2061 23.2028 29.2982 23.2516C29.3386 23.2731 29.3858 23.2994 29.4031 23.3101C29.4204 23.3208 29.5573 23.3966 29.7073 23.4787C29.8574 23.5607 29.9943 23.6372 30.0116 23.6486C30.0289 23.66 30.0808 23.6887 30.127 23.7125C30.1731 23.7363 30.2487 23.7785 30.2948 23.8061C30.341 23.8338 30.4024 23.8682 30.4312 23.8825C30.4601 23.8968 30.6631 24.0089 30.8823 24.1317C31.1016 24.2545 31.3424 24.3879 31.4174 24.4283C31.6034 24.5283 31.7389 24.6031 32.0468 24.7756C32.4175 24.9832 32.4604 25.0012 32.5821 24.9994C32.7082 24.9976 32.8303 24.9298 32.9204 24.8116C32.9963 24.7119 33.0082 24.5497 32.9594 24.2775C32.9398 24.1678 32.9064 23.9692 32.8852 23.8363C32.864 23.7034 32.8267 23.4718 32.8023 23.3215C32.7779 23.1713 32.7405 22.9349 32.7192 22.7963C32.6979 22.6576 32.6747 22.5205 32.6676 22.4916C32.6606 22.4627 32.6366 22.3209 32.6144 22.1764C32.5923 22.032 32.5491 21.7625 32.5184 21.5776C32.4599 21.2241 32.4125 20.9312 32.3433 20.4955C32.3204 20.3511 32.2914 20.1813 32.2788 20.1181L32.2561 20.0033L32.4109 19.845C32.5807 19.6713 33.1387 19.0974 33.5118 18.7128C33.6424 18.5781 34.0305 18.1796 34.3744 17.8271C35.3417 16.8355 35.4012 16.7718 35.446 16.6806C35.5326 16.5041 35.4735 16.2837 35.3072 16.1638C35.2135 16.0962 34.9865 16.0502 34.1765 15.9345C34.1073 15.9246 33.9232 15.8965 33.7674 15.8721C33.2797 15.7955 32.9836 15.75 32.8966 15.7384C32.8505 15.7322 32.69 15.708 32.5399 15.6848C32.3899 15.6615 32.1444 15.6235 31.9944 15.6003C31.8444 15.5771 31.6225 15.5428 31.5013 15.524C31.2785 15.4894 30.8945 15.434 30.8678 15.4326C30.8544 15.4319 30.7626 15.2485 30.6018 14.9013C30.5657 14.8233 30.5066 14.6957 30.4705 14.6177C30.3842 14.4314 30.239 14.1228 30.1268 13.8875C30.0772 13.7835 30.0026 13.6252 29.9611 13.5356C29.9196 13.4461 29.8517 13.2995 29.8102 13.2099C29.7687 13.1204 29.6941 12.962 29.6445 12.858C29.5948 12.754 29.5189 12.5933 29.4759 12.5008C29.4329 12.4084 29.36 12.2523 29.314 12.1541C29.268 12.0559 29.204 11.9188 29.1718 11.8495C28.8874 11.2374 28.886 11.2351 28.7527 11.1671C28.6619 11.1208 28.5318 11.1018 28.4484 11.1228Z" fill="#FFC107"/>
<path fill-rule="evenodd" clip-rule="evenodd" d="M50.0484 11.1228C49.8667 11.1684 49.7984 11.239 49.6704 11.5133C49.6166 11.6288 49.5458 11.7801 49.5133 11.8495C49.4808 11.9188 49.4145 12.0606 49.3661 12.1646C49.1914 12.5401 49.1297 12.6719 49.0467 12.8475C48.8849 13.19 48.7836 13.4054 48.7089 13.5659C48.6675 13.6548 48.5966 13.8061 48.5513 13.9021C48.506 13.9981 48.4313 14.157 48.3854 14.2552C48.2279 14.5919 48.1445 14.7702 48.0705 14.9276C48.0298 15.0143 47.9606 15.1632 47.9166 15.2585C47.8727 15.3539 47.8292 15.4321 47.82 15.4325C47.7991 15.4333 47.5113 15.4763 47.048 15.5476C46.8518 15.5778 46.5402 15.6253 46.3556 15.6532C46.1709 15.6811 45.8971 15.723 45.7471 15.7463C45.5971 15.7696 45.3378 15.8083 45.1711 15.8323C45.0043 15.8563 44.862 15.8794 44.855 15.8838C44.848 15.8881 44.7254 15.907 44.5826 15.9256C44.4397 15.9443 44.317 15.9632 44.3098 15.9676C44.3026 15.9721 44.184 15.9905 44.0462 16.0085C43.619 16.0643 43.4677 16.0995 43.3784 16.1638C43.2124 16.2836 43.1532 16.5037 43.2394 16.6806C43.2829 16.77 43.3783 16.8719 44.3457 17.8621C44.6713 18.1953 45.0662 18.6003 45.2233 18.7621C45.3803 18.9239 45.6469 19.1981 45.8156 19.3714C45.9844 19.5448 46.1919 19.7582 46.2767 19.8456L46.4309 20.0047L46.3997 20.1608C46.3826 20.2467 46.3579 20.3926 46.345 20.485C46.332 20.5775 46.3084 20.724 46.2925 20.8107C46.2504 21.0408 46.1854 21.442 46.0732 22.1659C46.0499 22.3161 46.0251 22.4627 46.018 22.4916C46.0109 22.5205 45.9872 22.66 45.9653 22.8015C45.8897 23.2895 45.7748 23.9968 45.7255 24.2775C45.6761 24.5593 45.6892 24.7161 45.7709 24.8178C45.8596 24.9283 45.9951 25 46.1153 25C46.2262 25 46.2773 24.9781 46.6388 24.7756C46.7831 24.6948 46.953 24.6005 47.0165 24.5661C47.337 24.3924 47.4154 24.3492 47.541 24.2772C47.6161 24.2342 47.7435 24.163 47.8243 24.1192C47.9051 24.0752 48.009 24.0174 48.0551 23.9906C48.1013 23.9638 48.1626 23.9303 48.1915 23.9161C48.2203 23.902 48.4611 23.7684 48.7265 23.6193C48.992 23.4701 49.228 23.3398 49.2511 23.3296C49.2742 23.3195 49.3072 23.3019 49.3245 23.2906C49.4094 23.2353 50.0754 22.874 50.1163 22.861C50.1515 22.8499 50.2148 22.8748 50.3681 22.9601C50.6318 23.1069 50.8061 23.2028 50.8982 23.2516C50.9386 23.2731 50.9858 23.2994 51.0031 23.3101C51.0204 23.3208 51.1573 23.3966 51.3073 23.4787C51.4574 23.5607 51.5943 23.6372 51.6116 23.6486C51.6289 23.66 51.6808 23.6887 51.727 23.7125C51.7731 23.7363 51.8487 23.7785 51.8948 23.8061C51.941 23.8338 52.0024 23.8682 52.0312 23.8825C52.0601 23.8968 52.2631 24.0089 52.4823 24.1317C52.7016 24.2545 52.9424 24.3879 53.0174 24.4283C53.2034 24.5283 53.3389 24.6031 53.6469 24.7756C54.0175 24.9832 54.0604 25.0012 54.1821 24.9994C54.3082 24.9976 54.4303 24.9298 54.5204 24.8116C54.5963 24.7119 54.6082 24.5497 54.5594 24.2775C54.5398 24.1678 54.5064 23.9692 54.4852 23.8363C54.464 23.7034 54.4267 23.4718 54.4023 23.3215C54.3779 23.1713 54.3405 22.9349 54.3192 22.7963C54.2979 22.6576 54.2747 22.5205 54.2676 22.4916C54.2606 22.4627 54.2366 22.3209 54.2144 22.1764C54.1923 22.032 54.1491 21.7625 54.1184 21.5776C54.0599 21.2241 54.0125 20.9312 53.9433 20.4955C53.9204 20.3511 53.8914 20.1813 53.8788 20.1181L53.8561 20.0033L54.0109 19.845C54.1807 19.6713 54.7387 19.0974 55.1118 18.7128C55.2424 18.5781 55.6305 18.1796 55.9744 17.8271C56.9417 16.8355 57.0012 16.7718 57.046 16.6806C57.1326 16.5041 57.0735 16.2837 56.9072 16.1638C56.8135 16.0962 56.5865 16.0502 55.7765 15.9345C55.7073 15.9246 55.5232 15.8965 55.3674 15.8721C54.8797 15.7955 54.5836 15.75 54.4966 15.7384C54.4505 15.7322 54.29 15.708 54.1399 15.6848C53.9899 15.6615 53.7444 15.6235 53.5944 15.6003C53.4444 15.5771 53.2225 15.5428 53.1013 15.524C52.8785 15.4894 52.4945 15.434 52.4678 15.4326C52.4544 15.4319 52.3626 15.2485 52.2018 14.9013C52.1657 14.8233 52.1066 14.6957 52.0705 14.6177C51.9842 14.4314 51.839 14.1228 51.7268 13.8875C51.6772 13.7835 51.6026 13.6252 51.5611 13.5356C51.5196 13.4461 51.4517 13.2995 51.4102 13.2099C51.3687 13.1204 51.2941 12.962 51.2445 12.858C51.1948 12.754 51.1189 12.5933 51.0759 12.5008C51.0329 12.4084 50.96 12.2523 50.914 12.1541C50.868 12.0559 50.804 11.9188 50.7718 11.8495C50.4874 11.2374 50.486 11.2351 50.3527 11.1671C50.2619 11.1208 50.1318 11.1018 50.0484 11.1228Z" fill="#FFC107"/>
<path fill-rule="evenodd" clip-rule="evenodd" d="M71.6484 11.1228C71.4667 11.1684 71.3984 11.239 71.2704 11.5133C71.2166 11.6288 71.1458 11.7801 71.1133 11.8495C71.0808 11.9188 71.0145 12.0606 70.9661 12.1646C70.7913 12.5401 70.7297 12.6719 70.6467 12.8475C70.4849 13.19 70.3836 13.4054 70.3089 13.5659C70.2675 13.6548 70.1966 13.8061 70.1513 13.9021C70.106 13.9981 70.0313 14.157 69.9854 14.2552C69.8279 14.5919 69.7445 14.7702 69.6705 14.9276C69.6298 15.0143 69.5606 15.1632 69.5166 15.2585C69.4727 15.3539 69.4292 15.4321 69.42 15.4325C69.3991 15.4333 69.1113 15.4763 68.648 15.5476C68.4518 15.5778 68.1402 15.6253 67.9556 15.6532C67.7709 15.6811 67.4971 15.723 67.3471 15.7463C67.197 15.7696 66.9378 15.8083 66.771 15.8323C66.6043 15.8563 66.462 15.8794 66.455 15.8838C66.448 15.8881 66.3254 15.907 66.1826 15.9256C66.0397 15.9443 65.917 15.9632 65.9098 15.9676C65.9026 15.9721 65.784 15.9905 65.6462 16.0085C65.219 16.0643 65.0677 16.0995 64.9784 16.1638C64.8124 16.2836 64.7532 16.5037 64.8393 16.6806C64.8829 16.77 64.9783 16.8719 65.9457 17.8621C66.2713 18.1953 66.6662 18.6003 66.8232 18.7621C66.9803 18.9239 67.2469 19.1981 67.4156 19.3714C67.5844 19.5448 67.7919 19.7582 67.8767 19.8456L68.0309 20.0047L67.9997 20.1608C67.9826 20.2467 67.9579 20.3926 67.945 20.485C67.932 20.5775 67.9084 20.724 67.8925 20.8107C67.8504 21.0408 67.7854 21.442 67.6732 22.1659C67.6499 22.3161 67.6251 22.4627 67.618 22.4916C67.6109 22.5205 67.5872 22.66 67.5653 22.8015C67.4897 23.2895 67.3748 23.9968 67.3255 24.2775C67.2761 24.5593 67.2892 24.7161 67.3709 24.8178C67.4596 24.9283 67.5951 25 67.7153 25C67.8262 25 67.8773 24.9781 68.2388 24.7756C68.3831 24.6948 68.553 24.6005 68.6165 24.5661C68.937 24.3924 69.0154 24.3492 69.141 24.2772C69.2161 24.2342 69.3435 24.163 69.4243 24.1192C69.5051 24.0752 69.6089 24.0174 69.6551 23.9906C69.7013 23.9638 69.7626 23.9303 69.7915 23.9161C69.8203 23.902 70.0611 23.7684 70.3265 23.6193C70.592 23.4701 70.828 23.3398 70.8511 23.3296C70.8742 23.3195 70.9072 23.3019 70.9245 23.2906C71.0094 23.2353 71.6754 22.874 71.7163 22.861C71.7515 22.8499 71.8148 22.8748 71.9681 22.9601C72.2318 23.1069 72.4061 23.2028 72.4982 23.2516C72.5386 23.2731 72.5858 23.2994 72.6031 23.3101C72.6204 23.3208 72.7573 23.3966 72.9073 23.4787C73.0574 23.5607 73.1943 23.6372 73.2116 23.6486C73.2289 23.66 73.2808 23.6887 73.327 23.7125C73.3731 23.7363 73.4487 23.7785 73.4948 23.8061C73.541 23.8338 73.6024 23.8682 73.6312 23.8825C73.6601 23.8968 73.8631 24.0089 74.0823 24.1317C74.3016 24.2545 74.5424 24.3879 74.6174 24.4283C74.8034 24.5283 74.9389 24.6031 75.2468 24.7756C75.6175 24.9832 75.6604 25.0012 75.7821 24.9994C75.9082 24.9976 76.0303 24.9298 76.1204 24.8116C76.1963 24.7119 76.2082 24.5497 76.1594 24.2775C76.1398 24.1678 76.1064 23.9692 76.0852 23.8363C76.064 23.7034 76.0267 23.4718 76.0023 23.3215C75.9779 23.1713 75.9405 22.9349 75.9192 22.7963C75.8979 22.6576 75.8747 22.5205 75.8676 22.4916C75.8606 22.4627 75.8366 22.3209 75.8144 22.1764C75.7923 22.032 75.7491 21.7625 75.7184 21.5776C75.6599 21.2241 75.6125 20.9312 75.5433 20.4955C75.5204 20.3511 75.4914 20.1813 75.4788 20.1181L75.4561 20.0033L75.6109 19.845C75.7807 19.6713 76.3387 19.0974 76.7118 18.7128C76.8424 18.5781 77.2305 18.1796 77.5744 17.8271C78.5417 16.8355 78.6012 16.7718 78.646 16.6806C78.7326 16.5041 78.6735 16.2837 78.5072 16.1638C78.4135 16.0962 78.1865 16.0502 77.3765 15.9345C77.3073 15.9246 77.1232 15.8965 76.9674 15.8721C76.4797 15.7955 76.1836 15.75 76.0966 15.7384C76.0505 15.7322 75.89 15.708 75.7399 15.6848C75.5899 15.6615 75.3444 15.6235 75.1944 15.6003C75.0444 15.5771 74.8225 15.5428 74.7013 15.524C74.4785 15.4894 74.0945 15.434 74.0678 15.4326C74.0544 15.4319 73.9626 15.2485 73.8018 14.9013C73.7657 14.8233 73.7066 14.6957 73.6705 14.6177C73.5842 14.4314 73.439 14.1228 73.3268 13.8875C73.2772 13.7835 73.2026 13.6252 73.1611 13.5356C73.1196 13.4461 73.0517 13.2995 73.0102 13.2099C72.9687 13.1204 72.8941 12.962 72.8445 12.858C72.7948 12.754 72.7189 12.5933 72.6759 12.5008C72.6329 12.4084 72.56 12.2523 72.514 12.1541C72.468 12.0559 72.404 11.9188 72.3717 11.8495C72.0874 11.2374 72.086 11.2351 71.9527 11.1671C71.8619 11.1208 71.7318 11.1018 71.6484 11.1228Z" fill="#FFC107"/>
<path fill-rule="evenodd" clip-rule="evenodd" d="M93.2484 11.1228C93.0667 11.1684 92.9984 11.239 92.8704 11.5133C92.8166 11.6288 92.7458 11.7801 92.7133 11.8495C92.6808 11.9188 92.6145 12.0606 92.5661 12.1646C92.3913 12.5401 92.3297 12.6719 92.2467 12.8475C92.0849 13.19 91.9836 13.4054 91.9089 13.5659C91.8675 13.6548 91.7966 13.8061 91.7513 13.9021C91.706 13.9981 91.6313 14.157 91.5854 14.2552C91.4279 14.5919 91.3445 14.7702 91.2705 14.9276C91.2298 15.0143 91.1606 15.1632 91.1166 15.2585C91.0727 15.3539 91.0292 15.4321 91.02 15.4325C90.9991 15.4333 90.7113 15.4763 90.248 15.5476C90.0518 15.5778 89.7402 15.6253 89.5555 15.6532C89.3709 15.6811 89.0971 15.723 88.9471 15.7463C88.797 15.7696 88.5378 15.8083 88.371 15.8323C88.2043 15.8563 88.062 15.8794 88.055 15.8838C88.048 15.8881 87.9254 15.907 87.7826 15.9256C87.6397 15.9443 87.517 15.9632 87.5098 15.9676C87.5026 15.9721 87.384 15.9905 87.2462 16.0085C86.819 16.0643 86.6677 16.0995 86.5784 16.1638C86.4124 16.2836 86.3532 16.5037 86.4393 16.6806C86.4829 16.77 86.5783 16.8719 87.5457 17.8621C87.8713 18.1953 88.2662 18.6003 88.4232 18.7621C88.5803 18.9239 88.8469 19.1981 89.0156 19.3714C89.1844 19.5448 89.3919 19.7582 89.4767 19.8456L89.6309 20.0047L89.5997 20.1608C89.5826 20.2467 89.5579 20.3926 89.545 20.485C89.532 20.5775 89.5084 20.724 89.4925 20.8107C89.4504 21.0408 89.3854 21.442 89.2732 22.1659C89.2499 22.3161 89.2251 22.4627 89.218 22.4916C89.2109 22.5205 89.1872 22.66 89.1653 22.8015C89.0897 23.2895 88.9748 23.9968 88.9255 24.2775C88.8761 24.5593 88.8892 24.7161 88.9709 24.8178C89.0596 24.9283 89.1951 25 89.3153 25C89.4262 25 89.4773 24.9781 89.8388 24.7756C89.9831 24.6948 90.153 24.6005 90.2165 24.5661C90.537 24.3924 90.6154 24.3492 90.741 24.2772C90.8161 24.2342 90.9435 24.163 91.0243 24.1192C91.1051 24.0752 91.2089 24.0174 91.2551 23.9906C91.3013 23.9638 91.3626 23.9303 91.3915 23.9161C91.4203 23.902 91.6611 23.7684 91.9265 23.6193C92.192 23.4701 92.428 23.3398 92.4511 23.3296C92.4742 23.3195 92.5072 23.3019 92.5245 23.2906C92.6094 23.2353 93.2754 22.874 93.3163 22.861C93.3515 22.8499 93.4148 22.8748 93.5681 22.9601C93.8318 23.1069 94.0061 23.2028 94.0982 23.2516C94.1386 23.2731 94.1858 23.2994 94.2031 23.3101C94.2204 23.3208 94.3573 23.3966 94.5073 23.4787C94.6574 23.5607 94.7943 23.6372 94.8116 23.6486C94.8289 23.66 94.8808 23.6887 94.927 23.7125C94.9731 23.7363 95.0487 23.7785 95.0948 23.8061C95.141 23.8338 95.2024 23.8682 95.2312 23.8825C95.2601 23.8968 95.4631 24.0089 95.6823 24.1317C95.9016 24.2545 96.1424 24.3879 96.2174 24.4283C96.4034 24.5283 96.5389 24.6031 96.8468 24.7756C97.2175 24.9832 97.2604 25.0012 97.3821 24.9994C97.5082 24.9976 97.6303 24.9298 97.7204 24.8116C97.7963 24.7119 97.8082 24.5497 97.7594 24.2775C97.7398 24.1678 97.7064 23.9692 97.6852 23.8363C97.664 23.7034 97.6267 23.4718 97.6023 23.3215C97.5779 23.1713 97.5405 22.9349 97.5192 22.7963C97.4979 22.6576 97.4747 22.5205 97.4676 22.4916C97.4606 22.4627 97.4366 22.3209 97.4144 22.1764C97.3923 22.032 97.3491 21.7625 97.3184 21.5776C97.2599 21.2241 97.2125 20.9312 97.1433 20.4955C97.1204 20.3511 97.0914 20.1813 97.0788 20.1181L97.0561 20.0033L97.2109 19.845C97.3807 19.6713 97.9387 19.0974 98.3118 18.7128C98.4424 18.5781 98.8305 18.1796 99.1744 17.8271C100.142 16.8355 100.201 16.7718 100.246 16.6806C100.333 16.5041 100.273 16.2837 100.107 16.1638C100.014 16.0962 99.7865 16.0502 98.9765 15.9345C98.9073 15.9246 98.7232 15.8965 98.5674 15.8721C98.0797 15.7955 97.7836 15.75 97.6966 15.7384C97.6505 15.7322 97.4899 15.708 97.3399 15.6848C97.1899 15.6615 96.9444 15.6235 96.7944 15.6003C96.6444 15.5771 96.4225 15.5428 96.3013 15.524C96.0785 15.4894 95.6945 15.434 95.6678 15.4326C95.6544 15.4319 95.5626 15.2485 95.4018 14.9013C95.3657 14.8233 95.3066 14.6957 95.2705 14.6177C95.1842 14.4314 95.039 14.1228 94.9268 13.8875C94.8772 13.7835 94.8026 13.6252 94.7611 13.5356C94.7196 13.4461 94.6517 13.2995 94.6102 13.2099C94.5687 13.1204 94.4941 12.962 94.4445 12.858C94.3948 12.754 94.3189 12.5933 94.2759 12.5008C94.2329 12.4084 94.16 12.2523 94.114 12.1541C94.068 12.0559 94.004 11.9188 93.9717 11.8495C93.6874 11.2374 93.686 11.2351 93.5527 11.1671C93.4619 11.1208 93.3318 11.1018 93.2484 11.1228Z" fill="white"/>
</svg>
