<svg width="23" height="23" viewBox="0 0 23 23" fill="none" xmlns="http://www.w3.org/2000/svg">
<path d="M22.25 12.9449C22.0883 13.3055 21.7899 13.4423 21.4044 13.405C21.2428 13.3925 21.0687 13.405 20.8822 13.405C20.5464 15.0961 20.2107 16.7873 19.8749 18.4908C19.7754 18.4908 19.7008 18.4908 19.6262 18.4908C14.217 18.4908 8.82027 18.4908 3.41108 18.4908C3.24942 18.4908 3.16238 18.4784 3.12507 18.267C2.82663 16.7251 2.51576 15.1832 2.21732 13.6412C2.20489 13.5666 2.18002 13.492 2.15515 13.405C1.91888 13.405 1.68262 13.405 1.44636 13.405C1.036 13.405 0.75 13.1438 0.75 12.7708C0.75 12.3977 1.036 12.1366 1.44636 12.1366C2.05567 12.1366 2.67741 12.1366 3.3116 12.1366C3.3116 12.0371 3.3116 11.9625 3.3116 11.8755C3.3116 9.23926 3.3116 6.59062 3.3116 3.95441C3.3116 2.44978 4.26909 1.21873 5.68667 0.845677C7.32808 0.435324 9.03166 1.41768 9.47932 3.0591C9.52906 3.25805 9.60367 3.35753 9.81507 3.40727C11.1456 3.75545 12.1031 4.98651 12.128 6.34192C12.1404 6.78958 11.8793 7.05071 11.4316 7.05071C9.7902 7.05071 8.14879 7.05071 6.51981 7.05071C6.07215 7.05071 5.82345 6.78958 5.82345 6.34192C5.84832 5.02381 6.74364 3.8425 8.012 3.43214C8.08661 3.40727 8.16122 3.3824 8.22339 3.35753C8.06174 2.57413 7.17886 1.93995 6.34572 2.01456C5.30119 2.10161 4.56752 2.87257 4.55509 3.92954C4.54265 5.78235 4.55509 7.63515 4.55509 9.50039C4.55509 9.52526 4.55509 9.55013 4.56752 9.63718C4.84109 9.63718 5.10223 9.61231 5.37579 9.63718C6.38302 9.76153 7.05451 10.5076 7.07938 11.5149C7.07938 11.7138 7.07938 11.9003 7.07938 12.1242C8.7581 12.1242 10.4244 12.1242 12.128 12.1242C12.128 12.2236 12.128 12.2983 12.128 12.3729C12.128 13.3055 12.128 14.2381 12.128 15.1707C12.128 15.6806 12.3642 15.9168 12.8741 15.9168C14.0678 15.9168 15.2491 15.9168 16.4429 15.9168C16.9278 15.9168 17.1641 15.6681 17.1641 15.1956C17.1641 14.263 17.1641 13.3179 17.1641 12.3853C17.1641 12.3107 17.1641 12.2361 17.1641 12.1366C17.2636 12.1366 17.3382 12.1366 17.4128 12.1366C18.7433 12.1366 20.0739 12.149 21.4044 12.1366C21.7899 12.1366 22.0883 12.2361 22.25 12.6091C22.25 12.721 22.25 12.833 22.25 12.9449Z" fill="white"/>
<path d="M2.50363 22.2711C2.14301 22.1094 2.00623 21.811 2.04353 21.4255C2.05597 21.3136 2.04353 21.1892 2.04353 21.0649C2.05597 20.2815 2.57824 19.7592 3.37407 19.7468C3.39894 19.7468 3.41138 19.7468 3.43625 19.7468C8.82057 19.7468 14.2173 19.7468 19.6017 19.7468C20.1488 19.7468 20.5965 19.9333 20.8452 20.4431C20.9322 20.6172 20.9571 20.8286 20.9944 21.0276C21.0192 21.1519 20.9819 21.2887 21.0068 21.4255C21.0441 21.811 20.9073 22.1094 20.5467 22.2711C14.5282 22.2711 8.52213 22.2711 2.50363 22.2711Z" fill="white"/>
<path d="M13.4087 12.149C14.2418 12.149 15.0625 12.149 15.9081 12.149C15.9081 12.9822 15.9081 13.8029 15.9081 14.6485C15.0874 14.6485 14.2543 14.6485 13.4087 14.6485C13.4087 13.8278 13.4087 12.9946 13.4087 12.149Z" fill="white"/>
</svg>
