<svg width="266" height="270" viewBox="0 0 266 270" fill="none" xmlns="http://www.w3.org/2000/svg">
<path d="M212.546 111.822C208.462 97.5304 200.004 84.6967 189.212 74.4881C179.003 64.8628 166.169 58.1542 152.752 54.3625C138.752 49.6957 122.418 50.8624 108.418 54.9458C94.1256 59.0293 81.2919 67.4878 71.0833 78.2798C61.458 88.4885 54.7495 101.322 50.9577 114.739C46.2909 128.74 47.4576 145.073 51.541 159.074C55.6245 173.366 64.0831 186.2 74.8751 196.408C85.0837 206.034 97.9174 212.742 111.334 216.534C125.335 221.201 141.669 220.034 155.669 215.951C169.961 211.867 182.795 203.409 193.004 192.617C202.629 182.408 209.337 169.574 213.129 156.157C218.088 142.157 216.629 125.823 212.546 111.822ZM189.503 188.825C180.17 199.033 167.919 206.617 154.502 210.7C152.169 211.575 149.836 212.159 147.502 212.45C144.585 213.034 141.669 213.326 138.46 213.617C130.877 214.201 123.001 213.326 115.418 211.867C101.709 208.95 89.1671 201.95 78.6668 192.617C68.4582 183.283 60.8746 171.033 56.7912 157.616C55.9162 155.282 55.3328 152.949 55.0411 150.615C54.4578 147.699 54.1661 144.782 53.8744 141.573C53.2911 133.99 54.1661 126.115 55.6245 118.531C58.5412 104.822 65.5414 92.2803 74.8751 81.7799C84.2087 71.5713 96.459 63.9877 109.876 59.9043C112.21 59.0293 114.543 58.4459 116.876 58.1542C119.793 57.5709 122.71 57.2792 125.918 56.9875C133.502 56.4042 141.377 57.2792 148.961 58.7376C162.669 61.6543 175.211 68.6546 185.712 77.9882C195.92 87.3218 203.504 99.5721 207.587 112.989C208.462 115.323 209.046 117.656 209.337 119.989C209.921 122.906 210.212 125.823 210.504 129.031C211.087 136.615 210.212 144.49 208.754 152.074C205.837 166.074 198.837 178.616 189.503 188.825Z" fill="#39404B"/>
<path d="M132.335 11.4863C135.835 20.8199 139.627 30.1535 144.294 38.9038C144.585 39.4872 145.169 38.9038 145.169 38.6121C142.835 26.0701 138.46 13.8197 134.085 1.86104C133.21 -0.472367 129.71 -0.764042 129.127 1.86104C127.377 9.15292 125.335 16.1531 123.876 23.445C122.71 28.4035 118.626 37.4454 120.085 42.6956C122.418 51.4458 138.752 46.779 144.585 45.3207C145.46 45.029 145.169 44.154 144.585 43.8623C141.377 42.9873 138.46 42.6956 135.252 42.4039C133.21 42.1122 131.168 41.8206 129.127 41.8206C123.876 41.5289 126.21 38.3205 127.085 34.237C129.127 26.6534 130.877 19.0699 132.335 11.4863Z" fill="#39404B"/>
<path d="M90.3334 19.0699C96.7502 26.6534 103.459 34.237 111.042 40.6539C111.334 40.9455 111.917 40.3622 111.626 40.0705C105.209 28.9868 96.7502 19.0699 88.5833 9.15291C87.1249 7.40286 83.9165 8.27789 83.9165 10.903C84.7915 18.1948 85.3749 25.7784 86.2499 33.0703C86.8333 38.3205 85.9582 47.9457 89.1667 52.6125C94.4168 59.9044 108.126 50.2791 113.084 46.779C113.667 46.4874 113.376 45.3207 112.501 45.3207C109.292 45.6123 106.376 46.1957 103.167 47.0707C101.125 47.3624 99.0836 47.9457 97.3336 48.5291C92.3751 49.9875 93.5418 46.1957 92.9584 42.1122C92.3751 34.5287 91.5001 26.6534 90.3334 19.0699Z" fill="#39404B"/>
<path d="M53.2909 40.6538C62.0412 45.6123 70.7915 50.2791 80.1251 53.7792C80.7084 54.0709 81.0001 53.1958 80.4167 52.9041C70.4998 44.7372 59.4161 38.3204 48.3325 31.9035C46.2907 30.7368 43.374 32.7786 44.5407 35.112C47.7491 41.8205 50.9575 48.529 54.4576 54.9459C56.791 59.6127 59.4161 68.9463 63.7913 72.1547C71.0831 77.1132 80.7084 63.4045 84.5002 58.446C85.0836 57.8626 84.2085 56.9876 83.6252 57.2793C80.7084 58.7377 78.0833 60.196 75.4583 61.9461C73.7082 63.1128 71.9582 64.2795 70.4998 65.4462C66.1247 68.3629 66.1247 64.5712 64.0829 61.0711C60.5828 54.3625 57.0827 47.3623 53.2909 40.6538Z" fill="#39404B"/>
<path d="M25.8734 73.613C35.7904 75.3631 45.7073 76.8214 55.6243 76.8214C56.2077 76.8214 56.2077 76.2381 55.6243 75.9464C43.6656 71.5713 30.8319 69.5296 18.2899 67.1962C15.9565 66.6128 13.9147 69.5296 15.9565 71.5713C21.2066 76.8214 26.4568 81.7799 31.9986 87.0301C35.7904 90.5302 41.6239 98.6971 46.874 99.8638C55.6243 102.197 59.7078 85.8634 61.4578 80.0299C61.7495 79.1548 60.5828 78.8632 60.2911 79.1549C57.9577 81.4883 56.2077 83.8217 54.1659 86.4467C52.9992 87.9051 51.8325 89.6552 50.6658 91.4052C47.7491 95.7803 46.2907 92.2802 43.0823 89.3635C37.5404 83.8217 31.7069 78.8632 25.8734 73.613Z" fill="#39404B"/>
<path d="M11.5813 113.864C21.4983 112.114 31.1236 110.073 40.7489 106.573C41.3322 106.281 41.0405 105.698 40.4572 105.698C27.6235 105.698 14.7898 108.031 2.24772 110.364C-0.085683 110.656 -0.96071 114.156 1.37269 115.323C8.08123 118.24 14.7898 121.448 21.79 124.365C26.7484 126.406 34.6237 131.948 40.1655 131.365C49.2074 130.49 47.4574 113.864 47.1657 107.739C47.1657 106.864 45.999 106.864 45.7073 107.448C44.249 110.364 43.3739 113.281 42.4989 116.198C41.9156 118.24 41.3322 119.99 40.7489 122.031C39.2905 126.99 36.9571 124.365 32.8736 122.615C25.8734 119.698 18.5815 116.781 11.5813 113.864Z" fill="#39404B"/>
<path d="M11.5812 156.449C20.3315 151.49 28.7901 146.24 36.3736 139.823C36.6653 139.532 36.3736 138.948 35.7903 139.24C23.8316 143.615 12.7479 150.324 1.3726 156.449C-0.669129 157.616 -0.377453 161.116 2.24762 161.407C9.53951 161.991 17.1231 162.574 24.415 162.866C29.6651 163.157 38.9987 165.491 43.9572 163.449C52.1241 159.657 44.8322 144.49 42.4988 138.948C42.2071 138.365 41.0404 138.365 41.0404 139.24C40.7488 142.449 40.7488 145.365 41.0404 148.574C41.0404 150.615 41.3321 152.657 41.6238 154.699C42.2071 159.949 38.707 158.199 34.6236 157.907C27.04 157.324 19.4565 156.741 11.5812 156.449Z" fill="#39404B"/>
<path d="M26.4568 196.7C32.8737 189.117 38.9989 181.241 43.9573 172.491C44.249 171.908 43.6657 171.616 43.374 171.908C33.457 180.075 25.2901 190.283 17.1232 199.909C15.6648 201.659 17.1232 204.867 19.4566 204.284C26.4568 202.242 33.7487 200.2 40.7489 198.159C45.7074 196.7 55.6244 195.825 59.4161 191.742C65.833 185.325 53.8743 173.658 49.4992 168.991C48.9158 168.408 48.0408 168.991 48.3325 169.866C49.2075 173.075 50.3742 175.7 51.5409 178.616C52.4159 180.366 52.9993 182.408 54.166 184.158C56.4994 188.825 52.7076 188.242 48.6241 189.7C41.3323 192.033 33.7487 194.367 26.4568 196.7Z" fill="#39404B"/>
<path d="M54.1667 229.368C57.3751 220.034 60.5836 210.409 62.3336 200.492C62.3336 199.909 61.7503 199.909 61.4586 200.2C55.0417 211.284 50.6666 223.534 46.2915 235.493C45.4165 237.826 48.0415 240.16 50.0833 238.701C56.2084 234.326 62.0419 229.951 68.1671 225.576C72.2506 222.368 81.2925 218.284 83.6259 213.326C87.4177 205.159 72.2506 198.159 66.7088 195.534C66.1254 195.242 65.2504 196.117 65.8337 196.7C67.5838 199.325 69.6255 201.659 71.9589 203.992C73.4173 205.45 74.8757 206.909 76.334 208.367C80.1258 212.159 76.334 212.742 73.1256 215.367C66.4171 220.034 60.2919 224.701 54.1667 229.368Z" fill="#39404B"/>
<path d="M91.2095 250.66C91.2095 240.743 90.9178 230.535 89.1677 220.909C89.1677 220.326 88.2927 220.618 88.2927 220.909C86.251 233.451 86.251 246.577 86.251 259.41C86.251 261.744 89.4594 263.202 90.9178 261.161C95.0012 255.035 99.3764 248.91 103.168 242.785C106.085 238.41 112.793 231.41 113.377 225.868C113.96 216.826 97.3346 215.659 91.2095 214.784C90.3344 214.784 90.0428 215.659 90.6261 216.243C93.2512 217.993 95.8763 219.451 98.793 220.909C100.543 221.784 102.293 222.659 104.335 223.534C109.002 225.576 105.793 227.618 103.46 231.41C99.668 237.535 95.2929 243.952 91.2095 250.66Z" fill="#39404B"/>
<path d="M133.502 257.952C130.002 248.618 126.21 239.285 121.543 230.534C121.251 229.951 120.668 230.534 120.668 230.826C123.001 243.368 127.377 255.618 131.752 267.577C132.627 269.911 136.127 270.202 136.71 267.577C138.46 260.285 140.502 253.285 141.96 245.993C143.127 241.035 147.21 231.993 145.752 226.743C143.419 217.992 127.085 222.659 121.251 224.118C120.376 224.409 120.668 225.284 121.251 225.576C124.46 226.451 127.377 226.743 130.585 227.034C132.627 227.326 134.668 227.618 136.71 227.618C141.96 227.909 139.627 231.118 138.752 235.201C136.71 242.785 134.96 250.368 133.502 257.952Z" fill="#39404B"/>
<path d="M175.503 250.369C169.087 242.785 162.378 235.201 154.794 228.785C154.503 228.493 153.919 229.076 154.211 229.368C160.628 240.452 169.087 250.369 177.253 260.285C178.712 262.036 182.212 261.161 181.92 258.535C181.045 251.244 180.462 243.66 179.587 236.368C179.004 231.118 179.879 221.493 176.67 216.826C171.42 209.534 157.711 219.159 152.753 222.659C152.169 222.951 152.461 224.118 153.336 224.118C156.544 223.826 159.461 223.243 162.67 222.368C164.711 222.076 166.753 221.493 168.503 220.909C173.462 219.451 172.295 223.243 172.878 227.326C173.462 234.91 174.337 242.493 175.503 250.369Z" fill="#39404B"/>
<path d="M212.546 228.784C203.795 223.826 195.045 219.159 185.712 215.659C185.128 215.367 184.837 216.242 185.42 216.534C195.337 224.701 206.421 231.118 217.504 237.535C219.546 238.701 222.463 236.66 221.296 234.326C218.088 227.618 214.879 220.909 211.379 214.492C209.046 209.826 206.42 200.492 202.045 197.284C194.753 192.325 185.128 206.034 181.336 210.992C180.753 211.576 181.628 212.451 182.211 212.159C185.128 210.701 187.753 209.242 190.378 207.492C192.128 206.326 193.878 205.159 195.337 203.992C199.712 201.075 199.712 204.867 201.754 208.367C205.254 215.076 208.754 221.784 212.546 228.784Z" fill="#39404B"/>
<path d="M239.963 195.825C230.046 194.075 220.129 192.617 210.212 192.617C209.629 192.617 209.629 193.2 210.212 193.492C222.171 197.867 235.004 199.909 247.546 202.242C249.88 202.825 251.922 199.909 249.88 197.867C244.63 192.617 239.379 187.658 233.838 182.408C230.046 178.908 224.212 170.741 218.962 169.574C210.212 167.241 206.129 183.575 204.378 189.408C204.087 190.283 205.253 190.575 205.545 190.283C207.879 187.95 209.629 185.616 211.67 182.991C212.837 181.533 214.004 179.783 215.17 178.033C218.087 173.658 219.546 177.158 222.754 180.075C228.296 185.616 234.129 190.575 239.963 195.825Z" fill="#39404B"/>
<path d="M254.255 155.574C244.338 157.324 234.713 159.366 225.087 162.866C224.504 163.157 224.796 163.741 225.379 163.741C238.213 163.741 251.047 161.407 263.589 159.074C265.922 158.782 266.797 155.282 264.464 154.115C257.755 151.199 251.047 147.99 244.046 145.074C239.088 143.032 231.213 137.49 225.671 138.073C216.629 138.948 218.379 155.574 218.671 161.699C218.671 162.574 219.837 162.574 220.129 161.991C221.587 159.074 222.462 156.157 223.337 153.24C223.921 151.199 224.504 149.449 225.087 147.407C226.546 142.448 228.879 145.073 232.963 146.824C239.963 149.74 247.255 152.657 254.255 155.574Z" fill="#39404B"/>
<path d="M254.255 112.698C245.505 117.656 237.046 122.906 229.463 129.323C229.171 129.615 229.463 130.198 230.046 129.907C242.005 125.531 253.088 118.823 264.464 112.698C266.505 111.531 266.214 108.031 263.589 107.739C256.297 107.156 248.713 106.573 241.421 106.281C236.171 105.989 226.838 103.656 221.879 105.989C213.712 109.781 221.004 124.948 223.337 130.49C223.629 131.073 224.796 131.073 224.796 130.198C225.087 126.99 225.087 124.073 224.796 120.865C224.796 118.823 224.504 116.781 224.212 114.739C223.629 109.489 227.129 111.239 231.213 111.531C238.796 112.114 246.38 112.406 254.255 112.698Z" fill="#39404B"/>
<path d="M239.38 72.7381C232.963 80.3216 226.838 88.1969 221.88 96.9471C221.588 97.5305 222.171 97.8221 222.463 97.5305C232.38 89.3636 240.547 79.1549 248.714 69.5296C250.172 67.7796 248.714 64.5712 246.38 65.1545C239.38 67.1962 232.088 69.238 225.088 71.2797C220.129 72.7381 210.213 73.6131 206.421 77.6966C200.004 84.1134 211.963 95.7804 216.338 100.447C216.921 101.031 217.796 100.447 217.504 99.5722C216.629 96.3638 215.463 93.7387 214.296 90.8219C213.421 89.0719 212.838 87.0302 211.671 85.2801C209.337 80.6133 213.129 81.1966 217.213 79.7383C224.505 77.4049 232.088 75.0715 239.38 72.7381Z" fill="#39404B"/>
<path d="M211.671 40.0707C208.463 49.4043 205.254 59.0296 203.504 68.9465C203.504 69.5299 204.088 69.5299 204.379 69.2382C210.796 58.1545 215.171 45.9042 219.546 33.9455C220.421 31.6121 217.796 29.2787 215.755 30.7371C209.629 35.1122 203.796 39.4873 197.671 43.8625C193.587 47.0709 184.545 51.1543 182.212 56.1128C178.42 64.2797 193.587 71.2799 199.129 73.905C199.713 74.1967 200.588 73.3217 200.004 72.7383C198.254 70.1132 196.212 67.7798 193.879 65.4464C192.421 63.9881 190.962 62.5297 189.504 61.0713C185.712 57.2795 189.504 56.6962 192.712 54.0711C199.421 49.4043 205.546 44.7375 211.671 40.0707Z" fill="#39404B"/>
<path d="M174.628 18.7781C174.628 28.6951 174.92 38.9037 176.67 48.529C176.67 49.1123 177.545 48.8207 177.545 48.529C179.587 35.9869 179.587 22.8616 179.587 10.0278C179.587 7.69444 176.378 6.23607 174.92 8.27779C170.836 14.403 166.461 20.5282 162.669 26.6533C159.753 31.0285 153.044 38.0287 152.461 43.5705C151.877 52.6124 168.503 53.7791 174.628 54.6542C175.503 54.6542 175.795 53.7791 175.211 53.1958C172.586 51.4457 169.961 49.9874 167.045 48.529C165.294 47.654 163.544 46.7789 161.503 45.9039C156.836 43.8622 160.044 41.8205 162.378 38.0287C166.461 31.9035 170.545 25.195 174.628 18.7781Z" fill="#39404B"/>
<path d="M121.252 81.1967C93.2513 92.5721 77.5008 131.073 95.0013 157.032C111.627 181.825 156.836 180.658 167.045 150.907C176.379 124.073 147.795 97.2389 123.586 116.198C113.669 123.781 112.794 139.532 123.294 146.824C132.336 152.949 144.003 143.615 139.919 133.698C139.628 132.823 138.461 133.115 138.461 133.99C141.086 143.615 130.294 147.115 123.877 141.865C120.085 138.657 120.085 133.698 120.96 129.323C122.127 122.906 127.669 118.823 133.502 116.489C146.336 111.531 158.295 120.573 162.087 132.823C165.587 144.199 158.878 156.157 149.836 162.574C138.753 170.449 123.294 168.991 111.918 163.158C87.1261 150.324 91.5012 117.073 106.96 98.9889C122.71 80.3217 151.003 77.9883 171.129 90.5303C191.838 103.656 198.546 130.49 192.129 153.241C186.296 173.366 168.504 188.533 148.961 193.783C128.252 199.617 105.502 191.742 90.3345 177.45C72.834 161.116 68.1672 135.157 75.4591 112.989C84.501 84.9885 114.835 66.9046 143.419 69.5297C144.294 69.5297 144.586 67.7797 143.711 67.7797C103.168 61.3628 68.7506 89.6553 65.2504 129.615C62.042 168.991 95.5847 201.367 133.502 202.534C170.837 203.7 201.171 170.158 200.588 133.99C200.296 93.4471 158.587 66.0296 121.252 81.1967Z" fill="#39404B"/>
</svg>
