<svg width="130" height="18" viewBox="0 0 130 18" fill="none" xmlns="http://www.w3.org/2000/svg">
<path fill-rule="evenodd" clip-rule="evenodd" d="M8.87762 0.0109903C8.64204 0.0700938 8.55348 0.161609 8.38765 0.51721C8.3178 0.667012 8.22614 0.863116 8.18396 0.952997C8.14177 1.04288 8.0559 1.22672 7.99316 1.36155C7.76661 1.84824 7.6867 2.01912 7.57916 2.24674C7.36935 2.69075 7.23806 2.96995 7.14123 3.17801C7.08759 3.29322 6.99566 3.48933 6.93688 3.6138C6.87813 3.73824 6.78136 3.94426 6.72182 4.07159C6.51774 4.50806 6.40954 4.73911 6.31369 4.94316C6.26093 5.05552 6.17114 5.24857 6.11416 5.37214C6.05721 5.49574 6.00085 5.59723 5.98897 5.59772C5.9619 5.59878 5.58879 5.65439 4.98815 5.74689C4.73384 5.78603 4.32993 5.84764 4.09058 5.88378C3.85123 5.91992 3.49628 5.97421 3.30181 6.00441C3.10733 6.03462 2.77132 6.08479 2.55511 6.11589C2.3389 6.147 2.15455 6.17704 2.14546 6.18268C2.13635 6.18831 1.97743 6.21272 1.79226 6.2369C1.60709 6.26109 1.44797 6.2856 1.43867 6.29138C1.42937 6.29715 1.27561 6.32096 1.09699 6.3443C0.543222 6.41667 0.347035 6.46232 0.231357 6.54571C0.0161037 6.70094 -0.0606793 6.98621 0.0510545 7.21563C0.107465 7.33149 0.231194 7.46362 1.48526 8.74714C1.90731 9.17912 2.4192 9.70413 2.62278 9.91385C2.82637 10.1236 3.1719 10.479 3.39067 10.7037C3.60943 10.9284 3.87837 11.205 3.98834 11.3184L4.18828 11.5245L4.14783 11.727C4.12561 11.8383 4.09365 12.0274 4.07687 12.1473C4.06006 12.2671 4.02946 12.4571 4.00887 12.5694C3.95423 12.8676 3.87005 13.3878 3.72459 14.3262C3.6944 14.5209 3.66219 14.7109 3.65303 14.7484C3.64386 14.7858 3.6131 14.9666 3.58468 15.1501C3.48671 15.7827 3.33774 16.6996 3.27387 17.0635C3.20976 17.4287 3.22682 17.632 3.33265 17.7638C3.44767 17.9071 3.6233 18 3.7791 18C3.92292 18 3.9891 17.9716 4.45777 17.7091C4.64476 17.6043 4.86507 17.4821 4.94735 17.4375C5.36282 17.2124 5.46443 17.1564 5.62733 17.063C5.72456 17.0073 5.8898 16.9151 5.99451 16.8582C6.09923 16.8012 6.23387 16.7263 6.2937 16.6915C6.35354 16.6568 6.4331 16.6134 6.4705 16.595C6.5079 16.5767 6.82001 16.4035 7.16407 16.2101C7.50814 16.0168 7.81413 15.8478 7.84405 15.8347C7.87397 15.8215 7.91681 15.7988 7.93925 15.7841C8.04932 15.7125 8.91262 15.2441 8.96566 15.2272C9.01124 15.2128 9.09325 15.2451 9.29205 15.3557C9.63383 15.546 9.85983 15.6702 9.97918 15.7336C10.0315 15.7614 10.0927 15.7955 10.1152 15.8093C10.1376 15.8232 10.3151 15.9215 10.5096 16.0279C10.704 16.1343 10.8815 16.2334 10.9039 16.2481C10.9264 16.2629 10.9937 16.3002 11.0535 16.331C11.1134 16.3619 11.2113 16.4165 11.2711 16.4524C11.331 16.4883 11.4105 16.5328 11.4479 16.5513C11.4853 16.5699 11.7485 16.7152 12.0327 16.8744C12.3169 17.0336 12.629 17.2066 12.7263 17.2589C12.9675 17.3885 13.1431 17.4854 13.5423 17.7091C14.0228 17.9783 14.0783 18.0015 14.2361 17.9992C14.3996 17.9968 14.5579 17.9089 14.6746 17.7558C14.773 17.6265 14.7884 17.4163 14.7253 17.0635C14.6998 16.9212 14.6565 16.6638 14.629 16.4915C14.6015 16.3192 14.5532 16.0189 14.5216 15.8242C14.4899 15.6295 14.4415 15.323 14.4138 15.1433C14.3862 14.9635 14.3562 14.7858 14.347 14.7484C14.3378 14.7109 14.3068 14.5271 14.278 14.3398C14.2493 14.1526 14.1933 13.8032 14.1536 13.5636C14.0778 13.1053 14.0163 12.7256 13.9266 12.1609C13.8968 11.9736 13.8592 11.7535 13.843 11.6716L13.8135 11.5228L14.0142 11.3175C14.2343 11.0925 14.9576 10.3485 15.4412 9.84993C15.6105 9.67537 16.1137 9.15871 16.5594 8.70182C17.8133 7.41644 17.8905 7.33383 17.9485 7.21563C18.0609 6.98684 17.9842 6.70113 17.7687 6.54569C17.6472 6.45809 17.3529 6.39839 16.303 6.24845C16.2132 6.23565 15.9745 6.19921 15.7726 6.16751C15.1404 6.06823 14.7566 6.00929 14.6438 5.99417C14.584 5.98614 14.3759 5.95487 14.1814 5.92469C13.987 5.89449 13.6687 5.84521 13.4743 5.81517C13.2798 5.78516 12.9922 5.74063 12.8351 5.71625C12.5462 5.67139 12.0485 5.59962 12.0139 5.59782C11.9965 5.59693 11.8774 5.3592 11.6691 4.90912C11.6222 4.80799 11.5456 4.64255 11.4988 4.54142C11.387 4.29992 11.1987 3.89997 11.0533 3.59495C10.989 3.46013 10.8924 3.25485 10.8386 3.13874C10.7848 3.02265 10.6967 2.83268 10.6429 2.71657C10.5891 2.60049 10.4925 2.39518 10.428 2.26036C10.3637 2.12553 10.2653 1.91717 10.2095 1.79733C10.1537 1.67749 10.0593 1.47526 9.99966 1.34793C9.94001 1.2206 9.85703 1.04288 9.81528 0.952997C9.44667 0.159539 9.44488 0.156597 9.272 0.0684323C9.15437 0.00843002 8.9857 -0.0161374 8.87762 0.0109903Z" fill="#FFC107"/>
<path fill-rule="evenodd" clip-rule="evenodd" d="M36.8776 0.0109903C36.642 0.0700938 36.5535 0.161609 36.3877 0.51721C36.3178 0.667012 36.2261 0.863116 36.184 0.952997C36.1418 1.04288 36.0559 1.22672 35.9932 1.36155C35.7666 1.84824 35.6867 2.01912 35.5792 2.24674C35.3693 2.69075 35.2381 2.96995 35.1412 3.17801C35.0876 3.29322 34.9957 3.48933 34.9369 3.6138C34.8781 3.73824 34.7814 3.94426 34.7218 4.07159C34.5177 4.50806 34.4095 4.73911 34.3137 4.94316C34.2609 5.05552 34.1711 5.24857 34.1142 5.37214C34.0572 5.49574 34.0009 5.59723 33.989 5.59772C33.9619 5.59878 33.5888 5.65439 32.9881 5.74689C32.7338 5.78603 32.3299 5.84764 32.0906 5.88378C31.8512 5.91992 31.4963 5.97421 31.3018 6.00441C31.1073 6.03462 30.7713 6.08479 30.5551 6.11589C30.3389 6.147 30.1545 6.17704 30.1455 6.18268C30.1364 6.18831 29.9774 6.21272 29.7923 6.2369C29.6071 6.26109 29.448 6.2856 29.4387 6.29138C29.4294 6.29715 29.2756 6.32096 29.097 6.3443C28.5432 6.41667 28.347 6.46232 28.2314 6.54571C28.0161 6.70094 27.9393 6.98621 28.0511 7.21563C28.1075 7.33149 28.2312 7.46362 29.4853 8.74714C29.9073 9.17912 30.4192 9.70413 30.6228 9.91385C30.8264 10.1236 31.1719 10.479 31.3907 10.7037C31.6094 10.9284 31.8784 11.205 31.9883 11.3184L32.1883 11.5245L32.1478 11.727C32.1256 11.8383 32.0937 12.0274 32.0769 12.1473C32.0601 12.2671 32.0295 12.4571 32.0089 12.5694C31.9542 12.8676 31.87 13.3878 31.7246 14.3262C31.6944 14.5209 31.6622 14.7109 31.653 14.7484C31.6439 14.7858 31.6131 14.9666 31.5847 15.1501C31.4867 15.7827 31.3377 16.6996 31.2739 17.0635C31.2098 17.4287 31.2268 17.632 31.3326 17.7638C31.4477 17.9071 31.6233 18 31.7791 18C31.9229 18 31.9891 17.9716 32.4578 17.7091C32.6448 17.6043 32.8651 17.4821 32.9474 17.4375C33.3628 17.2124 33.4644 17.1564 33.6273 17.063C33.7246 17.0073 33.8898 16.9151 33.9945 16.8582C34.0992 16.8012 34.2339 16.7263 34.2937 16.6915C34.3535 16.6568 34.4331 16.6134 34.4705 16.595C34.5079 16.5767 34.82 16.4035 35.1641 16.2101C35.5081 16.0168 35.8141 15.8478 35.8441 15.8347C35.874 15.8215 35.9168 15.7988 35.9392 15.7841C36.0493 15.7125 36.9126 15.2441 36.9657 15.2272C37.0112 15.2128 37.0932 15.2451 37.292 15.3557C37.6338 15.546 37.8598 15.6702 37.9792 15.7336C38.0315 15.7614 38.0927 15.7955 38.1152 15.8093C38.1376 15.8232 38.3151 15.9215 38.5096 16.0279C38.704 16.1343 38.8815 16.2334 38.9039 16.2481C38.9264 16.2629 38.9937 16.3002 39.0535 16.331C39.1134 16.3619 39.2113 16.4165 39.2711 16.4524C39.331 16.4883 39.4105 16.5328 39.4479 16.5513C39.4853 16.5699 39.7485 16.7152 40.0327 16.8744C40.3169 17.0336 40.629 17.2066 40.7263 17.2589C40.9675 17.3885 41.1431 17.4854 41.5423 17.7091C42.0228 17.9783 42.0783 18.0015 42.2361 17.9992C42.3996 17.9968 42.5579 17.9089 42.6746 17.7558C42.773 17.6265 42.7884 17.4163 42.7253 17.0635C42.6998 16.9212 42.6565 16.6638 42.629 16.4915C42.6015 16.3192 42.5532 16.0189 42.5216 15.8242C42.4899 15.6295 42.4415 15.323 42.4138 15.1433C42.3862 14.9635 42.3562 14.7858 42.347 14.7484C42.3378 14.7109 42.3068 14.5271 42.278 14.3398C42.2493 14.1526 42.1933 13.8032 42.1536 13.5636C42.0778 13.1053 42.0163 12.7256 41.9266 12.1609C41.8968 11.9736 41.8592 11.7535 41.843 11.6716L41.8135 11.5228L42.0142 11.3175C42.2343 11.0925 42.9576 10.3485 43.4412 9.84993C43.6105 9.67537 44.1137 9.15871 44.5594 8.70182C45.8133 7.41644 45.8905 7.33383 45.9485 7.21563C46.0609 6.98684 45.9842 6.70113 45.7687 6.54569C45.6472 6.45809 45.3529 6.39839 44.303 6.24845C44.2132 6.23565 43.9745 6.19921 43.7726 6.16751C43.1404 6.06823 42.7566 6.00929 42.6438 5.99417C42.584 5.98614 42.3759 5.95487 42.1814 5.92469C41.987 5.89449 41.6687 5.84521 41.4743 5.81517C41.2798 5.78516 40.9922 5.74063 40.8351 5.71625C40.5462 5.67139 40.0485 5.59962 40.0139 5.59782C39.9965 5.59693 39.8774 5.3592 39.6691 4.90912C39.6222 4.80799 39.5456 4.64255 39.4988 4.54142C39.387 4.29992 39.1987 3.89997 39.0533 3.59495C38.989 3.46013 38.8924 3.25485 38.8386 3.13874C38.7848 3.02265 38.6967 2.83268 38.6429 2.71657C38.5891 2.60049 38.4925 2.39518 38.428 2.26036C38.3637 2.12553 38.2653 1.91717 38.2095 1.79733C38.1537 1.67749 38.0593 1.47526 37.9997 1.34793C37.94 1.2206 37.857 1.04288 37.8153 0.952997C37.4467 0.159539 37.4449 0.156597 37.272 0.0684323C37.1544 0.00843002 36.9857 -0.0161374 36.8776 0.0109903Z" fill="#FFC107"/>
<path fill-rule="evenodd" clip-rule="evenodd" d="M64.8776 0.0109903C64.642 0.0700938 64.5535 0.161609 64.3877 0.51721C64.3178 0.667012 64.2261 0.863116 64.184 0.952997C64.1418 1.04288 64.0559 1.22672 63.9932 1.36155C63.7666 1.84824 63.6867 2.01912 63.5792 2.24674C63.3693 2.69075 63.2381 2.96995 63.1412 3.17801C63.0876 3.29322 62.9957 3.48933 62.9369 3.6138C62.8781 3.73824 62.7814 3.94426 62.7218 4.07159C62.5177 4.50806 62.4095 4.73911 62.3137 4.94316C62.2609 5.05552 62.1711 5.24857 62.1142 5.37214C62.0572 5.49574 62.0009 5.59723 61.989 5.59772C61.9619 5.59878 61.5888 5.65439 60.9881 5.74689C60.7338 5.78603 60.3299 5.84764 60.0906 5.88378C59.8512 5.91992 59.4963 5.97421 59.3018 6.00441C59.1073 6.03462 58.7713 6.08479 58.5551 6.11589C58.3389 6.147 58.1545 6.17704 58.1455 6.18268C58.1364 6.18831 57.9774 6.21272 57.7923 6.2369C57.6071 6.26109 57.448 6.2856 57.4387 6.29138C57.4294 6.29715 57.2756 6.32096 57.097 6.3443C56.5432 6.41667 56.347 6.46232 56.2314 6.54571C56.0161 6.70094 55.9393 6.98621 56.0511 7.21563C56.1075 7.33149 56.2312 7.46362 57.4853 8.74714C57.9073 9.17912 58.4192 9.70413 58.6228 9.91385C58.8264 10.1236 59.1719 10.479 59.3907 10.7037C59.6094 10.9284 59.8784 11.205 59.9883 11.3184L60.1883 11.5245L60.1478 11.727C60.1256 11.8383 60.0937 12.0274 60.0769 12.1473C60.0601 12.2671 60.0295 12.4571 60.0089 12.5694C59.9542 12.8676 59.87 13.3878 59.7246 14.3262C59.6944 14.5209 59.6622 14.7109 59.653 14.7484C59.6439 14.7858 59.6131 14.9666 59.5847 15.1501C59.4867 15.7827 59.3377 16.6996 59.2739 17.0635C59.2098 17.4287 59.2268 17.632 59.3326 17.7638C59.4477 17.9071 59.6233 18 59.7791 18C59.9229 18 59.9891 17.9716 60.4578 17.7091C60.6448 17.6043 60.8651 17.4821 60.9474 17.4375C61.3628 17.2124 61.4644 17.1564 61.6273 17.063C61.7246 17.0073 61.8898 16.9151 61.9945 16.8582C62.0992 16.8012 62.2339 16.7263 62.2937 16.6915C62.3535 16.6568 62.4331 16.6134 62.4705 16.595C62.5079 16.5767 62.82 16.4035 63.1641 16.2101C63.5081 16.0168 63.8141 15.8478 63.8441 15.8347C63.874 15.8215 63.9168 15.7988 63.9392 15.7841C64.0493 15.7125 64.9126 15.2441 64.9657 15.2272C65.0112 15.2128 65.0932 15.2451 65.292 15.3557C65.6338 15.546 65.8598 15.6702 65.9792 15.7336C66.0315 15.7614 66.0927 15.7955 66.1152 15.8093C66.1376 15.8232 66.3151 15.9215 66.5096 16.0279C66.704 16.1343 66.8815 16.2334 66.9039 16.2481C66.9264 16.2629 66.9937 16.3002 67.0535 16.331C67.1134 16.3619 67.2113 16.4165 67.2711 16.4524C67.331 16.4883 67.4105 16.5328 67.4479 16.5513C67.4853 16.5699 67.7485 16.7152 68.0327 16.8744C68.3169 17.0336 68.629 17.2066 68.7263 17.2589C68.9675 17.3885 69.1431 17.4854 69.5423 17.7091C70.0228 17.9783 70.0783 18.0015 70.2361 17.9992C70.3996 17.9968 70.5579 17.9089 70.6746 17.7558C70.773 17.6265 70.7884 17.4163 70.7253 17.0635C70.6998 16.9212 70.6565 16.6638 70.629 16.4915C70.6015 16.3192 70.5532 16.0189 70.5216 15.8242C70.4899 15.6295 70.4415 15.323 70.4138 15.1433C70.3862 14.9635 70.3562 14.7858 70.347 14.7484C70.3378 14.7109 70.3068 14.5271 70.278 14.3398C70.2493 14.1526 70.1933 13.8032 70.1536 13.5636C70.0778 13.1053 70.0163 12.7256 69.9266 12.1609C69.8968 11.9736 69.8592 11.7535 69.843 11.6716L69.8135 11.5228L70.0142 11.3175C70.2343 11.0925 70.9576 10.3485 71.4412 9.84993C71.6105 9.67537 72.1137 9.15871 72.5594 8.70182C73.8133 7.41644 73.8905 7.33383 73.9485 7.21563C74.0609 6.98684 73.9842 6.70113 73.7687 6.54569C73.6472 6.45809 73.3529 6.39839 72.303 6.24845C72.2132 6.23565 71.9745 6.19921 71.7726 6.16751C71.1404 6.06823 70.7566 6.00929 70.6438 5.99417C70.584 5.98614 70.3759 5.95487 70.1814 5.92469C69.987 5.89449 69.6687 5.84521 69.4743 5.81517C69.2798 5.78516 68.9922 5.74063 68.8351 5.71625C68.5462 5.67139 68.0485 5.59962 68.0139 5.59782C67.9965 5.59693 67.8774 5.3592 67.6691 4.90912C67.6222 4.80799 67.5456 4.64255 67.4988 4.54142C67.387 4.29992 67.1987 3.89997 67.0533 3.59495C66.989 3.46013 66.8924 3.25485 66.8386 3.13874C66.7848 3.02265 66.6967 2.83268 66.6429 2.71657C66.5891 2.60049 66.4925 2.39518 66.428 2.26036C66.3637 2.12553 66.2653 1.91717 66.2095 1.79733C66.1537 1.67749 66.0593 1.47526 65.9997 1.34793C65.94 1.2206 65.857 1.04288 65.8153 0.952997C65.4467 0.159539 65.4449 0.156597 65.272 0.0684323C65.1544 0.00843002 64.9857 -0.0161374 64.8776 0.0109903Z" fill="#FFC107"/>
<path fill-rule="evenodd" clip-rule="evenodd" d="M92.8776 0.0109903C92.642 0.0700938 92.5535 0.161609 92.3877 0.51721C92.3178 0.667012 92.2261 0.863116 92.184 0.952997C92.1418 1.04288 92.0559 1.22672 91.9932 1.36155C91.7666 1.84824 91.6867 2.01912 91.5792 2.24674C91.3693 2.69075 91.2381 2.96995 91.1412 3.17801C91.0876 3.29322 90.9957 3.48933 90.9369 3.6138C90.8781 3.73824 90.7814 3.94426 90.7218 4.07159C90.5177 4.50806 90.4095 4.73911 90.3137 4.94316C90.2609 5.05552 90.1711 5.24857 90.1142 5.37214C90.0572 5.49574 90.0009 5.59723 89.989 5.59772C89.9619 5.59878 89.5888 5.65439 88.9881 5.74689C88.7338 5.78603 88.3299 5.84764 88.0906 5.88378C87.8512 5.91992 87.4963 5.97421 87.3018 6.00441C87.1073 6.03462 86.7713 6.08479 86.5551 6.11589C86.3389 6.147 86.1545 6.17704 86.1455 6.18268C86.1364 6.18831 85.9774 6.21272 85.7923 6.2369C85.6071 6.26109 85.448 6.2856 85.4387 6.29138C85.4294 6.29715 85.2756 6.32096 85.097 6.3443C84.5432 6.41667 84.347 6.46232 84.2314 6.54571C84.0161 6.70094 83.9393 6.98621 84.0511 7.21563C84.1075 7.33149 84.2312 7.46362 85.4853 8.74714C85.9073 9.17912 86.4192 9.70413 86.6228 9.91385C86.8264 10.1236 87.1719 10.479 87.3907 10.7037C87.6094 10.9284 87.8784 11.205 87.9883 11.3184L88.1883 11.5245L88.1478 11.727C88.1256 11.8383 88.0937 12.0274 88.0769 12.1473C88.0601 12.2671 88.0295 12.4571 88.0089 12.5694C87.9542 12.8676 87.87 13.3878 87.7246 14.3262C87.6944 14.5209 87.6622 14.7109 87.653 14.7484C87.6439 14.7858 87.6131 14.9666 87.5847 15.1501C87.4867 15.7827 87.3377 16.6996 87.2739 17.0635C87.2098 17.4287 87.2268 17.632 87.3326 17.7638C87.4477 17.9071 87.6233 18 87.7791 18C87.9229 18 87.9891 17.9716 88.4578 17.7091C88.6448 17.6043 88.8651 17.4821 88.9474 17.4375C89.3628 17.2124 89.4644 17.1564 89.6273 17.063C89.7246 17.0073 89.8898 16.9151 89.9945 16.8582C90.0992 16.8012 90.2339 16.7263 90.2937 16.6915C90.3535 16.6568 90.4331 16.6134 90.4705 16.595C90.5079 16.5767 90.82 16.4035 91.1641 16.2101C91.5081 16.0168 91.8141 15.8478 91.8441 15.8347C91.874 15.8215 91.9168 15.7988 91.9392 15.7841C92.0493 15.7125 92.9126 15.2441 92.9657 15.2272C93.0112 15.2128 93.0932 15.2451 93.292 15.3557C93.6338 15.546 93.8598 15.6702 93.9792 15.7336C94.0315 15.7614 94.0927 15.7955 94.1152 15.8093C94.1376 15.8232 94.3151 15.9215 94.5096 16.0279C94.704 16.1343 94.8815 16.2334 94.9039 16.2481C94.9264 16.2629 94.9937 16.3002 95.0535 16.331C95.1134 16.3619 95.2113 16.4165 95.2711 16.4524C95.331 16.4883 95.4105 16.5328 95.4479 16.5513C95.4853 16.5699 95.7485 16.7152 96.0327 16.8744C96.3169 17.0336 96.629 17.2066 96.7263 17.2589C96.9675 17.3885 97.1431 17.4854 97.5423 17.7091C98.0228 17.9783 98.0783 18.0015 98.2361 17.9992C98.3996 17.9968 98.5579 17.9089 98.6746 17.7558C98.773 17.6265 98.7884 17.4163 98.7253 17.0635C98.6998 16.9212 98.6565 16.6638 98.629 16.4915C98.6015 16.3192 98.5532 16.0189 98.5216 15.8242C98.4899 15.6295 98.4415 15.323 98.4138 15.1433C98.3862 14.9635 98.3562 14.7858 98.347 14.7484C98.3378 14.7109 98.3068 14.5271 98.278 14.3398C98.2493 14.1526 98.1933 13.8032 98.1536 13.5636C98.0778 13.1053 98.0163 12.7256 97.9266 12.1609C97.8968 11.9736 97.8592 11.7535 97.843 11.6716L97.8135 11.5228L98.0142 11.3175C98.2343 11.0925 98.9576 10.3485 99.4412 9.84993C99.6105 9.67537 100.114 9.15871 100.559 8.70182C101.813 7.41644 101.891 7.33383 101.949 7.21563C102.061 6.98684 101.984 6.70113 101.769 6.54569C101.647 6.45809 101.353 6.39839 100.303 6.24845C100.213 6.23565 99.9745 6.19921 99.7726 6.16751C99.1404 6.06823 98.7566 6.00929 98.6438 5.99417C98.584 5.98614 98.3759 5.95487 98.1814 5.92469C97.987 5.89449 97.6687 5.84521 97.4743 5.81517C97.2798 5.78516 96.9922 5.74063 96.8351 5.71625C96.5462 5.67139 96.0485 5.59962 96.0139 5.59782C95.9965 5.59693 95.8774 5.3592 95.6691 4.90912C95.6222 4.80799 95.5456 4.64255 95.4988 4.54142C95.387 4.29992 95.1987 3.89997 95.0533 3.59495C94.989 3.46013 94.8924 3.25485 94.8386 3.13874C94.7848 3.02265 94.6967 2.83268 94.6429 2.71657C94.5891 2.60049 94.4925 2.39518 94.428 2.26036C94.3637 2.12553 94.2653 1.91717 94.2095 1.79733C94.1537 1.67749 94.0593 1.47526 93.9997 1.34793C93.94 1.2206 93.857 1.04288 93.8153 0.952997C93.4467 0.159539 93.4449 0.156597 93.272 0.0684323C93.1544 0.00843002 92.9857 -0.0161374 92.8776 0.0109903Z" fill="#FFC107"/>
<path fill-rule="evenodd" clip-rule="evenodd" d="M120.878 0.0109903C120.642 0.0700938 120.553 0.161609 120.388 0.51721C120.318 0.667012 120.226 0.863116 120.184 0.952997C120.142 1.04288 120.056 1.22672 119.993 1.36155C119.767 1.84824 119.687 2.01912 119.579 2.24674C119.369 2.69075 119.238 2.96995 119.141 3.17801C119.088 3.29322 118.996 3.48933 118.937 3.6138C118.878 3.73824 118.781 3.94426 118.722 4.07159C118.518 4.50806 118.41 4.73911 118.314 4.94316C118.261 5.05552 118.171 5.24857 118.114 5.37214C118.057 5.49574 118.001 5.59723 117.989 5.59772C117.962 5.59878 117.589 5.65439 116.988 5.74689C116.734 5.78603 116.33 5.84764 116.091 5.88378C115.851 5.91992 115.496 5.97421 115.302 6.00441C115.107 6.03462 114.771 6.08479 114.555 6.11589C114.339 6.147 114.155 6.17704 114.145 6.18268C114.136 6.18831 113.977 6.21272 113.792 6.2369C113.607 6.26109 113.448 6.2856 113.439 6.29138C113.429 6.29715 113.276 6.32096 113.097 6.3443C112.543 6.41667 112.347 6.46232 112.231 6.54571C112.016 6.70094 111.939 6.98621 112.051 7.21563C112.107 7.33149 112.231 7.46362 113.485 8.74714C113.907 9.17912 114.419 9.70413 114.623 9.91385C114.826 10.1236 115.172 10.479 115.391 10.7037C115.609 10.9284 115.878 11.205 115.988 11.3184L116.188 11.5245L116.148 11.727C116.126 11.8383 116.094 12.0274 116.077 12.1473C116.06 12.2671 116.029 12.4571 116.009 12.5694C115.954 12.8676 115.87 13.3878 115.725 14.3262C115.694 14.5209 115.662 14.7109 115.653 14.7484C115.644 14.7858 115.613 14.9666 115.585 15.1501C115.487 15.7827 115.338 16.6996 115.274 17.0635C115.21 17.4287 115.227 17.632 115.333 17.7638C115.448 17.9071 115.623 18 115.779 18C115.923 18 115.989 17.9716 116.458 17.7091C116.645 17.6043 116.865 17.4821 116.947 17.4375C117.363 17.2124 117.464 17.1564 117.627 17.063C117.725 17.0073 117.89 16.9151 117.995 16.8582C118.099 16.8012 118.234 16.7263 118.294 16.6915C118.354 16.6568 118.433 16.6134 118.47 16.595C118.508 16.5767 118.82 16.4035 119.164 16.2101C119.508 16.0168 119.814 15.8478 119.844 15.8347C119.874 15.8215 119.917 15.7988 119.939 15.7841C120.049 15.7125 120.913 15.2441 120.966 15.2272C121.011 15.2128 121.093 15.2451 121.292 15.3557C121.634 15.546 121.86 15.6702 121.979 15.7336C122.032 15.7614 122.093 15.7955 122.115 15.8093C122.138 15.8232 122.315 15.9215 122.51 16.0279C122.704 16.1343 122.882 16.2334 122.904 16.2481C122.926 16.2629 122.994 16.3002 123.054 16.331C123.113 16.3619 123.211 16.4165 123.271 16.4524C123.331 16.4883 123.411 16.5328 123.448 16.5513C123.485 16.5699 123.748 16.7152 124.033 16.8744C124.317 17.0336 124.629 17.2066 124.726 17.2589C124.967 17.3885 125.143 17.4854 125.542 17.7091C126.023 17.9783 126.078 18.0015 126.236 17.9992C126.4 17.9968 126.558 17.9089 126.675 17.7558C126.773 17.6265 126.788 17.4163 126.725 17.0635C126.7 16.9212 126.656 16.6638 126.629 16.4915C126.602 16.3192 126.553 16.0189 126.522 15.8242C126.49 15.6295 126.441 15.323 126.414 15.1433C126.386 14.9635 126.356 14.7858 126.347 14.7484C126.338 14.7109 126.307 14.5271 126.278 14.3398C126.249 14.1526 126.193 13.8032 126.154 13.5636C126.078 13.1053 126.016 12.7256 125.927 12.1609C125.897 11.9736 125.859 11.7535 125.843 11.6716L125.813 11.5228L126.014 11.3175C126.234 11.0925 126.958 10.3485 127.441 9.84993C127.611 9.67537 128.114 9.15871 128.559 8.70182C129.813 7.41644 129.891 7.33383 129.949 7.21563C130.061 6.98684 129.984 6.70113 129.769 6.54569C129.647 6.45809 129.353 6.39839 128.303 6.24845C128.213 6.23565 127.975 6.19921 127.773 6.16751C127.14 6.06823 126.757 6.00929 126.644 5.99417C126.584 5.98614 126.376 5.95487 126.181 5.92469C125.987 5.89449 125.669 5.84521 125.474 5.81517C125.28 5.78516 124.992 5.74063 124.835 5.71625C124.546 5.67139 124.049 5.59962 124.014 5.59782C123.996 5.59693 123.877 5.3592 123.669 4.90912C123.622 4.80799 123.546 4.64255 123.499 4.54142C123.387 4.29992 123.199 3.89997 123.053 3.59495C122.989 3.46013 122.892 3.25485 122.839 3.13874C122.785 3.02265 122.697 2.83268 122.643 2.71657C122.589 2.60049 122.492 2.39518 122.428 2.26036C122.364 2.12553 122.265 1.91717 122.21 1.79733C122.154 1.67749 122.059 1.47526 122 1.34793C121.94 1.2206 121.857 1.04288 121.815 0.952997C121.447 0.159539 121.445 0.156597 121.272 0.0684323C121.154 0.00843002 120.986 -0.0161374 120.878 0.0109903Z" fill="white"/>
</svg>
