<?xml version="1.0" encoding="utf-8"?>
<!-- Generator: Adobe Illustrator 21.0.0, SVG Export Plug-In . SVG Version: 6.00 Build 0)  -->
<svg version="1.1" id="Capa_1" xmlns="http://www.w3.org/2000/svg" xmlns:xlink="http://www.w3.org/1999/xlink" x="0px" y="0px"
	 viewBox="0 0 272 96" style="enable-background:new 0 0 272 96;" xml:space="preserve">
<style type="text/css">
	.st0{fill:#41332B;}
	.st1{fill:#FBCB0D;}
	.st2{fill:#FCCD0E;}
	.st3{fill:#5F9032;}
	.st4{fill:#DF4949;}
</style>
<path class="st0" d="M174,58.6C174,58.6,174,58.5,174,58.6c0.9-1.6,0.7-3.4,1-5c0-0.3,0.1-0.5,0.2-0.7c0.2-0.8,0.6-1.2,1.4-1.3
	c2.1-0.2,4.2-0.2,5.9,1.4c0.6-1.1,1.1-2.1,1.8-3.1c0.4-0.5,0.8-1,1.4-1.4c0.5-0.4,1-0.6,1.6-0.6c2.4,0,4.4,0.8,5.7,2.8
	c0.5,0.7,0.6,1.6,0.8,2.4c0.3-0.1,0.4-0.4,0.5-0.7c0.4-0.8,0.9-1.6,1.6-2.2c1.6-1.6,3.5-2.2,5.8-1.6c0.2,0,0.3,0.1,0.5,0.1
	c0.2,0,0.3,0.1,0.5,0.1c0.1-0.9,0.2-1.9,0.2-2.8c0.2-2.6,0.4-5.3,0.8-7.9c0.2-1.5,0.6-2,2.2-2.1c1.5-0.1,3,0.1,4.2,1.1
	c1,0.7,1.5,1.8,1.2,3c-0.6,3.4-0.9,6.8-1.1,10.2c-0.3,3.8-0.5,7.7-0.5,11.5c0,0.3,0,0.7,0.1,1c0.4-0.9,0.5-1.8,0.7-2.8
	c0.2-0.9,0.3-1.8,0.4-2.8c0.1-0.6,0.3-1.2,1-1.5c0.8-0.4,1.7-0.1,2.1,0.8c0.6,1.3,1.1,2.7,1,4.3c-0.1,2.2-0.5,4.4-1.2,6.5
	c-0.5,1.6-1.3,3-2.7,4c-2.4,1.8-5.8,1.2-7.5-1.2c-0.2-0.3-0.4-0.7-0.7-1.1c-0.4,0.1-0.4,0.4-0.6,0.6c-0.6,0.8-1.3,1.5-2.2,2
	c-1.7,0.9-3.5,0.3-4.8-1.1c-0.7-0.7-1.2-1.6-1.5-2.6c-0.1-0.2-0.2-0.5-0.3-0.8c-0.3,1-0.2,3.1,0.2,3.9c0.6,1.2,0.1,2.2-1.1,2.6
	c-2.3,0.9-4.3,0.4-5.6-1c-0.9-0.9-1.3-2.1-1.5-3.4c-0.2-1-0.2-2-0.1-3c0.2-2,0.3-4,0.5-6c0-0.3,0-0.5,0-0.8
	c-0.3,0.1-0.3,0.4-0.4,0.6c-0.9,2.5-1.8,5-2.2,7.7c0,0.2-0.1,0.4-0.1,0.7c-0.1,1.2-0.5,1.7-1.7,2c-2.1,0.6-4,0.3-5.7-1.3
	c-1.2,1.7-2.5,3-4.7,2.8c-2-0.1-3.5-1.2-4.4-3.1c-1,0.8-1.9,1.8-3.3,1.9c-1.4,0.1-2.5-0.4-3.6-1.3c-1.2,1.9-2.9,3-5.2,2.9
	c-2.3-0.1-3.8-1.3-4.7-3.4c-0.4,0.1-0.5,0.4-0.7,0.7c-0.6,0.8-1.3,1.5-2.2,2c-1.7,0.9-3.5,0.3-4.8-1.1c-0.7-0.7-1.1-1.6-1.5-2.5
	c-0.1-0.3-0.2-0.5-0.3-0.9c-0.2,1-0.2,3.1,0.2,3.9c0.6,1.2,0,2.2-1.1,2.6c-2.3,0.9-4.4,0.4-5.7-1c-0.9-0.9-1.2-2.1-1.4-3.3
	c-0.2-1-0.2-1.9-0.1-2.9c0.2-2,0.3-4.1,0.5-6.1c0-0.3,0-0.5,0-0.8c-0.2,0-0.2,0.1-0.3,0.3c-0.9,2.6-1.9,5.2-2.3,8
	c0,0.3-0.1,0.5-0.1,0.8c-0.1,1.2-0.5,1.6-1.7,2c-1.7,0.5-3.3,0.4-4.8-0.6c-0.9-0.6-1.4-1.4-1.7-2.4c-0.6-2.2-0.6-4.5-0.5-6.8
	c0.1-2.4,0.4-4.8,0.7-7.1c0-0.3,0.1-0.6,0.2-0.9c0.2-0.6,0.5-1,1.1-1c2.2-0.3,4.3-0.2,6.1,1.3c0.4-0.8,0.8-1.5,1.3-2.2
	c0.5-0.8,1.1-1.6,1.9-2.2c0.5-0.4,1-0.6,1.6-0.6c2.4,0,4.4,0.8,5.8,2.9c0.4,0.7,0.5,1.5,0.8,2.3c0.3-0.1,0.3-0.4,0.4-0.6
	c0.4-0.8,0.9-1.6,1.5-2.2c1.7-1.7,3.6-2.3,5.9-1.7c0.3,0.1,0.5,0.2,0.9,0.2c0.1-0.7,0.1-1.4,0.2-2.1c0.2-2.5,0.4-5,0.6-7.4
	c0.1-0.6,0.2-1.2,0.3-1.8c0.1-0.7,0.6-1.2,1.3-1.4c1.8-0.3,3.4-0.1,4.9,0.9c1,0.7,1.5,1.8,1.3,3c-0.6,3.3-0.9,6.7-1.1,10.1
	c-0.3,3.8-0.5,7.7-0.5,11.5c0,0.4,0,0.7,0,1.2c0.4-0.5,0.4-1,0.5-1.5c0.1-1.6,0.3-3.2,0.7-4.8c0.4-1.6,1.1-3.1,2.4-4.3
	c1.9-1.7,4.1-2.3,6.5-1.5c0.5,0.1,0.8,0.3,1.2-0.2c0.4-0.5,1.1-0.5,1.8-0.6c1.1-0.1,2.2,0.1,3.2,0.5c1.6,0.6,2.2,2,1.7,3.6
	c-0.4,1.4-0.7,2.8-0.9,4.3c-0.2,0.6-0.4,1.2-0.3,2.1C173.8,59.8,173.9,59.2,174,58.6z M180.6,61.9L180.6,61.9c-0.1-0.3,0-0.6,0-1
	c0.1-2,0.4-3.9,0.7-5.9c0.1-0.9-0.1-1.3-0.9-1.6c-1-0.4-2.1-0.4-3.2-0.4c-0.4,0-0.6,0.2-0.6,0.7c-0.1,1.2-0.2,2.4-0.4,3.7
	c-0.1,0.6,0.3,1.4-0.7,1.7c-0.2,0.1-0.2,0.6-0.3,0.9c-0.5,2-1,4-1.8,5.9c-0.2,0.6-0.5,1.2-0.9,1.7c-0.4,0.4-0.6,0.3-0.8-0.2
	c-0.1-0.2-0.1-0.5-0.1-0.8c0-1-0.1-2,0-3c0.3-3.3,0.7-6.6,1.6-9.8c0.2-0.9,0-1.4-0.9-1.8c-0.9-0.3-1.8-0.4-2.7-0.3
	c-0.7,0.1-0.8,0.2-1,0.9c-0.1,0.4,0,0.9-0.2,1.3c-0.2,0-0.3-0.1-0.4-0.3c-1.7-1.9-5.3-2.1-7.3,0.5c-0.5,0.7-0.9,1.4-1.2,2.2
	c-0.4,1.2-0.7,2.5-0.8,3.8c-0.1,2-0.5,4-1.4,5.8c-0.2,0.5-0.4,0.9-0.8,1.3c-0.5,0.5-0.9,0.4-1.1-0.3c-0.3-0.9-0.3-1.9-0.4-2.9
	c0-2.8,0-5.5,0.1-8.3c0.3-5.2,0.6-10.4,1.5-15.6c0.2-1-0.2-1.6-1.1-2c-0.7-0.4-1.5-0.5-2.4-0.5c-0.9,0-1,0.1-1.2,1
	c0,0.2,0,0.4-0.1,0.6c-0.4,4.1-0.7,8.3-1,12.4c0,0.2,0,0.3-0.2,0.4c-0.2-0.2-0.3-0.4-0.5-0.5c-1.8-1.9-4.4-2-6.3-0.1
	c-1,1-1.7,2.3-2.1,3.7c-0.9,3.4-1.2,6.8-0.6,10.3c0.3,1.5,0.8,2.9,1.8,4.1c1.3,1.5,2.6,1.5,4,0.2c1-0.9,1.7-2.1,2.3-3.2
	c0.3-0.6,0.6-1.1,0.9-1.8c0.2,0.5,0.2,0.9,0.2,1.3c0.1,1,0.3,1.9,0.7,2.8c1.3,2.7,4.9,2.9,6.6,0.7c0.5-0.7,0.9-1.4,1.2-2.1
	c0.1-0.2,0.1-0.5,0.4-0.6c0.3,0.5,0.6,1,0.9,1.5c1.1,1.3,2.8,2,4.5,0.2c0.9-0.9,1.6-2,2.2-3.1c0.1-0.2,0.1-0.6,0.5-0.6
	c-0.2,1.3-0.1,2.5,0.3,3.7c0.5,1.3,1.5,2.1,2.8,2.3c1.3,0.2,2.2-0.5,3-1.4c0.4-0.4,0.7-0.9,0.9-1.5c0.3-0.6,0.5-1.2,0.8-1.9
	c0.1-0.2,0-0.5,0.4-0.5c0,0.6,0.1,1.2,0.3,1.8c0.3,0.8,0.7,1.5,1.5,1.9c1,0.5,2.1,0.5,3.2,0.1c0.3-0.1,0.4-0.3,0.5-0.6
	c0.1-0.6,0.1-1.2,0.3-1.7c1-4.4,2.5-8.6,4.4-12.7c0.3-0.6,0.6-1.1,0.9-1.6c0.1-0.2,0.2-0.4,0.5-0.3c0.1,1.1,0.1,2.3,0,3.5
	c-0.3,3.7-0.6,7.4-0.8,11.1c-0.1,1.4,0,2.7,0.5,4c0.9,1.9,2.8,2.3,4.5,1.6c0.4-0.1,0.5-0.3,0.3-0.7c-0.3-0.6-0.3-1.3-0.4-2
	c-0.2-3.7,0-7.5,0.3-11.2c0.1-1.4,0.3-2.7,0.3-4.1c0.1-2.7-1.3-4.3-3.9-4.8c-1.1-0.2-1.9,0.1-2.6,1c-0.6,0.7-1.1,1.5-1.5,2.4
	c-1.3,2.6-2.3,5.4-3.3,8.2C180.9,61.3,180.9,61.7,180.6,61.9z M203.4,64.6c0.2,0.5,0.2,1,0.2,1.4c0.1,1.1,0.4,2.1,0.9,3
	c1.4,2.3,4.4,2.5,6.2,0.5c0.6-0.7,1.1-1.5,1.4-2.4c0.9-2.3,1.2-4.7,1.2-7.2c0-0.9-0.4-1.8-0.9-2.8c-0.2,1.1-0.3,2-0.4,2.8
	c-0.3,2-0.7,4-1.5,5.9c-0.2,0.5-0.4,0.9-0.8,1.3c-0.6,0.6-0.9,0.5-1.2-0.3c-0.3-1-0.3-2-0.4-3.1c-0.1-4.5,0.1-9,0.4-13.5
	c0.1-1.8,0.3-3.6,0.5-5.4c0.1-1.6,0.4-3.1,0.6-4.7c0.2-1.1-0.1-1.7-1.1-2.1c-0.8-0.4-1.7-0.5-2.6-0.5c-0.5,0-0.8,0.2-0.8,0.7
	c-0.1,0.9-0.2,1.8-0.3,2.7c-0.3,3.5-0.6,7.1-0.8,10.6c0,0.2,0,0.3-0.2,0.4c-0.2-0.1-0.3-0.3-0.5-0.5c-1.9-2-4.5-2.1-6.5,0
	c-1,1-1.6,2.2-1.9,3.5c-0.9,3.4-1.2,6.8-0.6,10.2c0.3,1.5,0.8,2.9,1.8,4.1c1.3,1.5,2.6,1.5,4,0.2c1-0.9,1.7-2.1,2.3-3.2
	C202.8,65.8,203.1,65.2,203.4,64.6z M127.6,61.9c-0.2-0.4-0.1-0.7-0.1-0.9c0.2-2,0.4-3.9,0.7-5.9c0.1-1-0.1-1.4-1-1.7
	c-0.9-0.3-1.9-0.3-2.9-0.3c-0.7,0-0.7,0-0.8,0.8c-0.4,2.5-0.6,4.9-0.7,7.4c-0.1,1.6-0.1,3.2,0.1,4.7c0.2,1.3,0.5,2.4,1.8,3
	c1,0.5,2.1,0.5,3.2,0.1c0.3-0.1,0.4-0.3,0.5-0.6c0.1-0.6,0.1-1.2,0.3-1.7c1-4.4,2.5-8.6,4.4-12.7c0.3-0.6,0.6-1.1,0.9-1.6
	c0.1-0.2,0.2-0.4,0.6-0.3c0,0.4,0,0.7,0,1.1c0,2.6-0.3,5.2-0.5,7.7c-0.2,2.3-0.4,4.5-0.4,6.8c0,1.1,0.2,2.2,0.7,3.2
	c1,1.9,3.5,2.1,4.8,1c-0.1-0.4-0.3-0.7-0.4-1.1c0-0.4-0.1-0.8-0.2-1.1c-0.3-3.8,0-7.5,0.3-11.3c0.1-1.4,0.3-2.8,0.3-4.1
	c0-2.7-1.4-4.3-4-4.7c-1-0.2-1.8,0.1-2.4,0.9c-0.5,0.7-1,1.4-1.4,2.1c-1.4,2.7-2.5,5.5-3.5,8.4C127.9,61.2,127.7,61.5,127.6,61.9z"
	/>
<path class="st0" d="M40.6,51.7c-0.3,0.1-0.5,0.2-0.6,0.2c-2.7,1.1-5.2-0.1-6.6-1.9c-1.3-1.6-1.8-3.5-2.1-5.5
	c-0.5-3.9,0.2-7.6,1.4-11.2c0.3-1,0.9-1.9,1.5-2.8c1.6-2,3.6-2.7,6.1-2.3c1.2,0.2,2.4,0.5,3.4,1.2c1.6,1.1,2.5,2.5,3.1,4.3
	c0.5,1.7,0.7,3.3,0.7,5.1c0.1,4.7,0.6,9.5,1.2,14.2c0.3,2.9,0.7,5.8,1.2,8.7c0,0.1,0,0.2,0.1,0.5c0.3-1,0.3-1.9,0.5-2.7
	c1-6.9,2.1-13.8,3.9-20.5c1-3.7,2.1-7.3,3.9-10.7c0.5-0.9,1-1.7,1.6-2.5c2-2.6,4.5-3.5,7.8-2.9c2.4,0.5,3.9,1.9,4.8,4
	c2.1,4.6,2,9.3-0.3,13.8c-1.6,3.1-4.2,4.3-7.6,3.6c-0.8-0.1-1.5-0.3-2.2-0.6c-1.2-0.4-1.5-1.8-0.6-2.7c0.5-0.5,0.9-1.1,1.1-1.7
	c1.4-3.3,2.2-6.7,2.3-10.3c0-0.3,0.1-0.6-0.1-0.9c-0.4,0.1-0.5,0.4-0.7,0.7c-1,1.6-1.7,3.4-2.3,5.1c-1.5,4.4-2.5,8.9-3.3,13.5
	c-1,5.6-1.8,11.2-2.9,16.8c-0.3,1.5-0.6,3.1-1.1,4.6c-0.1,0.4-0.3,0.9-0.5,1.3c-1.2,2.7-2.8,3.4-5.8,2.9c-2.3-0.4-3.9-1.8-4.9-3.8
	c-0.9-1.6-1.3-3.4-1.6-5.3c-0.5-2.8-0.7-5.7-1-8.6C40.8,54.2,40.7,53,40.6,51.7z M62.8,42.2c0.9,0.4,1.7,0.5,2.6,0.6
	c2.3,0.3,4-0.6,5.2-2.6c0.2-0.4,0.4-0.7,0.6-1.1c1-2.2,1.4-4.5,1.1-6.9c-0.2-1.9-0.6-3.7-1.6-5.3c-0.5-0.9-1.1-1.7-2.1-2.1
	c-2.3-0.9-4.8-1-6.7,0.9c-0.9,0.9-1.6,1.9-2.2,3c-1.1,2-2,4.2-2.7,6.4c-2.5,7.4-3.7,15.1-4.8,22.8c-0.5,3.3-0.9,6.6-1.4,9.9
	c-0.1,0.5-0.1,1-0.5,1.5c-0.4-0.3-0.5-0.7-0.7-1.1c-0.3-1-0.6-2-0.8-3.1c-0.8-4-1.3-8-1.8-12.1c-0.5-4.8-1.1-9.6-1.2-14.4
	c0-1.1-0.1-2.3-0.3-3.4c-0.6-3.3-2.4-5.1-5.6-5.7c-1.7-0.3-3.1,0.2-4.3,1.4c-0.7,0.7-1.2,1.6-1.5,2.5c-1.3,3.6-1.8,7.3-1.3,11.1
	c0.2,1.4,0.6,2.8,1.5,4c0.7,1,1.7,1.8,2.9,2c0.9,0.2,1.7,0,2.6-0.6c-1.8-0.2-2.7-1.2-3.4-2.5c-0.3-0.6-0.5-1.2-0.7-1.8
	c-1-3.9-0.8-7.8,0.5-11.6c0.3-0.8,0.7-1.5,1.2-2.2c0.8-0.9,1.6-0.8,2,0.4c0.4,1,0.6,2,0.8,3.1c0.8,5.1,1.2,10.2,1.7,15.3
	c0.4,4,0.7,8.1,1.2,12.1c0.3,2,0.7,3.9,1.6,5.7c1.1,2.2,3,3.2,5.5,3c0.8-0.1,1.4-0.4,1.8-1c0.5-0.6,0.8-1.3,1-2
	c0.5-1.4,0.9-2.9,1.1-4.4c1-5.2,1.8-10.4,2.7-15.6c0.8-4.6,1.7-9.2,3.1-13.7c0.7-2.3,1.5-4.6,2.7-6.7c0.4-0.6,0.8-1.3,1.3-1.8
	c0.4-0.4,0.9-0.7,1.5-0.5c0.6,0.2,0.7,0.7,0.8,1.2c0.1,0.8,0.2,1.6,0.2,2.4c-0.2,1.9-0.4,3.8-0.9,5.7C65.1,37.8,64.5,40.2,62.8,42.2
	z M40.3,48.6c-0.5-5-0.9-10-1.9-15c-0.2,0.2-0.2,0.2-0.3,0.3c-0.1,0.2-0.2,0.4-0.3,0.6c-1.1,2.6-1.3,5.4-1.1,8.2
	c0.1,1.4,0.4,2.9,1.1,4.2C38.3,47.9,39,48.6,40.3,48.6z"/>
<path class="st0" d="M99.2,63.3c-0.7-0.5-1.4-0.9-1.8-1.5c-1.3-1.7-1.7-3.7-1.5-5.8c0.3-3.4,2-6,5-7.5c1.8-0.9,3.8-1.1,5.8-0.9
	c0.8,0.1,0.8,0.2,1.2-0.7c1.8-4.4,3.6-8.8,4.8-13.5c0.1-0.4,0.2-0.9,0.3-1.3c0.1-0.8,0.6-1.3,1.3-1.4c0.6-0.1,0.8-0.5,0.9-1
	c0.3-1.6,0.7-3.2,1.2-4.8c0.4-1.3,1-1.7,2.3-1.4c1.2,0.3,2.4,0.6,3.5,1.3c1.5,0.9,2.2,2.1,1.9,3.9c-0.3,1.9-0.7,3.7-1.1,5.5
	c-1.4,6.4-2.2,12.8-2.5,19.4c-0.2,5-0.4,9.9-0.3,14.9c0,1.6,0,3.3,0.4,4.9c0.1,0.6-0.1,1.1-0.4,1.5c-1,1.1-2.2,1.6-3.6,1.4
	c-1.7-0.2-2.7-1.2-3.3-2.8c-0.3-0.8-0.4-1.6-0.5-2.4c-0.3-4.9-0.2-9.8-0.2-14.7c0-0.7-0.2-1.1-0.9-1.4c-1.3-0.6-1.3-0.6-1.9,0.7
	c-2.2,4.6-4.4,9.3-7.1,13.6c-0.5,0.8-1.1,1.6-1.7,2.4c-1.5,2.1-3.6,2.4-5.9,2c-3.3-0.6-4.5-4-4-6.4c0.2-1.1,1.3-1.8,2.2-1.2
	c1.1,0.6,2,0.3,3-0.2C97.4,65.3,98.3,64.3,99.2,63.3z M92.7,67.6c-0.5,1.4,0.3,3.8,1.8,4.4c1.5,0.6,3.9,0.9,5.3-1.1
	c0.9-1.3,1.9-2.6,2.7-4c2.5-4.3,4.6-8.7,6.7-13.2c0.5-1.1,0.2-1.1,1.6-0.6c1,0.3,1.8,0.9,2.8,1.2c0.5,0.1,0.6,0.3,0.6,0.8
	c0,1.5-0.1,2.9-0.1,4.4c0,4-0.1,7.9,0.2,11.9c0.1,0.9,0.2,1.7,0.7,2.5c0.8,1.3,2.5,1.5,3.6,0.4c0.2-0.2,0.4-0.4,0.3-0.7
	c-0.4-1.7-0.3-3.5-0.4-5.2c-0.1-5,0.1-9.9,0.4-14.9c0.1-2.3,0.2-4.5,0.5-6.8c0.4-4.4,1.2-8.8,2.2-13.2c0.4-1.7,0.8-3.4,0.9-5.1
	c0.1-0.9-0.3-1.5-1-1.9c-0.9-0.6-1.9-0.9-3-1.2c-0.7-0.2-0.7-0.2-0.9,0.5c-0.5,1.7-0.9,3.4-1.2,5.1c-0.1,0.7-0.4,1.2-1.2,1.2
	c-0.5,0-0.8,0.3-0.9,0.8c-0.5,2.6-1.4,5.1-2.3,7.6c-1,2.8-2.1,5.5-3.3,8.3c-0.3,0.7-0.3,0.7-1.1,0.6c-1-0.2-2.1-0.3-3.1-0.2
	c-2.7,0.2-4.8,1.3-6.2,3.6C97,55,96.8,57.5,98,60c0.7,1.4,1.8,2.1,3.4,2c0.1,0,0.3-0.1,0.4,0.1c-0.9,1.4-2,2.8-3.2,3.9
	c-0.7,0.6-1.4,1.2-2.3,1.6C95.1,68.2,93.9,68.3,92.7,67.6z"/>
<path class="st0" d="M72.4,54.1c0.5-1.2,1.1-2.3,1.9-3.2c1.2-1.5,2.7-2.5,4.7-2.8c1.2-0.1,2.3,0.2,3.4,0.7c0.7-0.9,1.6-1.3,2.7-1.2
	c1.6,0.2,3.1,0.5,4.2,1.7c0.6,0.7,0.8,1.5,0.7,2.4c-0.1,1.2-0.3,2.4-0.5,3.6c-0.1,0.9-0.2,1.8-0.2,2.7c0.4,0,0.4-0.4,0.5-0.6
	c0.4-0.7,1-1,1.8-0.8c1.7,0.3,2.6,1.6,2.2,3.3c-0.2,0.7-0.5,1.4-0.9,2c-1,1.5-2.2,2.8-3.4,4.1c-0.3,0.4-0.5,0.7-0.5,1.2
	c-0.1,2.9-0.5,5.7-1.4,8.5c-0.6,2-1.6,3.8-3.4,5c-2.1,1.4-5.1,1.4-7.1-0.1c-1.7-1.3-2.4-3.1-2.1-5.2c0.2-1.7,1-3,2-4.3
	c0.3-0.4,0.7-0.8,1-1.4c-2.2-0.2-3.8-1.3-5.1-3.1c-0.4,0.2-0.5,0.5-0.7,0.8c-1.2,1.6-2.7,2.8-4.7,3.2c-2.2,0.4-3.9-0.3-5.4-1.8
	c-0.7-0.8-1.2-1.7-1.5-2.7c-1.3-4.4-1.5-8.8-0.2-13.3c0.4-1.6,1.1-3.1,2.6-3.9c1.9-1.1,4-1.4,6.1-0.5c1.3,0.6,2.1,1.6,2.4,3
	C72.1,52.2,72.3,53.1,72.4,54.1z M83.7,64.6c0,1.7,0,1.7-0.9,2.7c-0.4,0.4-0.8,0.8-1.1,1.2c-1.3,1.4-2.6,2.7-3.7,4.2
	c-0.6,0.9-1.1,1.8-1.3,2.9c-0.4,2.1,0.8,4,2.9,4.5c2.1,0.5,3.9-0.1,5.2-1.9c0.9-1.2,1.4-2.5,1.8-3.9c0.7-2.4,1-4.9,1-7.5
	c0-0.6,0.2-1.1,0.6-1.6c0.9-0.9,1.7-1.8,2.5-2.7c0.6-0.7,1.1-1.4,1.5-2.1c0.2-0.4,0.4-0.9,0.3-1.4c-0.1-0.4-0.5-0.8-0.9-0.8
	c-0.4,0-0.4,0.3-0.5,0.6c-0.5,1.1-1.3,2-2.2,2.8c-0.3,0.3-0.6,0.7-1.2,0.9c0.1-2.5,0.1-4.8,0.4-7.2c0.2-1.2,0.3-2.4,0.5-3.5
	c0.1-0.9-0.3-1.5-1.1-1.9c-0.7-0.4-1.5-0.6-2.3-0.7c-1-0.1-1.3,0.1-1.4,1.2c0,0.5,0,1.1-0.1,1.6c0,0.2,0.1,0.4-0.1,0.6
	c-0.1-0.2-0.2-0.3-0.2-0.4c-1.2-2.9-4.6-3.4-6.9-1.5c-0.8,0.7-1.4,1.5-1.9,2.4c-0.5,1-0.9,2-1.2,3.1c-0.2,0.1-0.2-0.2-0.4-0.2
	c0,0.3,0,0.6,0,0.9c-0.3,3.2-1.4,5.9-3.6,8.3c-0.4,0.4-0.7,0.7-1.2,1c-0.6,0.4-1.1,0.3-1.5-0.4c-0.1-0.2-0.2-0.4-0.3-0.6
	c-0.5-1.7-0.6-3.3-0.5-5.1c1.6,0.5,2.7-0.3,3.5-1.5c0.6-0.8,0.9-1.7,1-2.7c0.3-1.5,0.4-2.9-0.1-4.4c-0.5-1.4-1.5-2.1-3-2.2
	c-0.6,0-1.2,0-1.8,0.2c-1.2,0.2-2,0.9-2.6,2c-0.4,0.7-0.7,1.5-0.9,2.3c-0.7,3-0.7,5.9-0.3,8.9c0.2,1.3,0.5,2.6,1.1,3.8
	c0.7,1.4,1.8,2.3,3.4,2.5c1.5,0.2,2.8-0.4,3.9-1.4c1.2-1.1,2-2.4,2.5-3.9c0.1-0.3,0.1-0.6,0.5-0.9c0.1,0.4,0.2,0.7,0.3,1
	c0.5,1.3,1.2,2.4,2.2,3.2c1.2,1,2.6,1.3,4.1,0.7c1.2-0.4,2.2-1.2,3-2.2C83.1,65.4,83.3,65.1,83.7,64.6z M67.7,64.5
	c1.4-1,2.8-3.3,3-4.9c-0.6,0.9-1.3,1.6-2.2,2c-0.4,0.2-0.9,0-1,0.5c-0.1,0.4,0,0.8,0.1,1.2C67.6,63.7,67.7,64,67.7,64.5z"/>
<path class="st0" d="M218.3,62.7c0-2.9,0-5.9,0-8.8c0-0.4-0.1-0.8-0.4-1.1c-5-4.5-6.7-14-0.7-20.8c4.5-5.1,10.3-7.2,17-6.4
	c4.7,0.6,8.9,2.5,12,6.1c4.8,5.5,6,11.9,3.1,18.7c-2.1,4.9-6.1,7.7-11.3,8.9c-1.7,0.4-3.4,0.4-5.1,0.2c-0.6-0.1-0.9,0-1.3,0.4
	c-3.8,4-7.5,7.9-11.3,11.8c-0.2,0.3-0.5,0.5-0.7,0.8c-0.2,0.2-0.5,0.4-0.9,0.2c-0.4-0.2-0.6-0.4-0.6-0.8c0-0.3,0-0.5,0-0.8
	c0-2.8,0.1-5.7,0.1-8.5C218.2,62.7,218.3,62.7,218.3,62.7z M248,49.2c-0.5-0.2-0.9-0.1-1.4,0.1c-0.3,0.1-0.6,0.3-0.9,0.5
	c-0.1,0.1-0.3,0.1-0.3,0c-0.1-0.1,0-0.2,0.1-0.3c0.3-0.2,0.6-0.4,0.9-0.6c0.5-0.2,1.1-0.3,1.6-0.2c0.3,0,0.6-0.4,0.6-0.8
	c0-0.4-0.3-0.4-0.5-0.4c-0.5-0.1-1,0.1-1.4,0.4c-0.1,0.1-0.2,0.1-0.3,0c-0.1-0.2-0.1-0.3,0.1-0.4c0.5-0.4,1-0.5,1.6-0.5
	c0.8,0.1,0.8,0.1,0.9-0.8c0.2-1.6,0.3-3.2,0-4.8c-0.5-3.6-2-6.7-4.6-9.2c-5.7-5.5-14.5-6.7-21.5-2.8c-5,2.7-8.7,8-7.8,14.6
	c0.4,3.1,1.7,5.8,4.1,7.9c0.6,0.5,0.8,1,0.8,1.7c-0.1,5.2-0.2,10.3-0.2,15.5c0,0.3-0.1,0.6,0.2,0.8c1.5-1.6,3-3.1,4.5-4.7
	c-0.2-0.4-0.6-0.5-0.8-0.7c-0.3-0.2-0.5-0.4-0.8-0.6c-0.2-0.1-0.3-0.2-0.2-0.5c0.1-0.2,0.3-0.1,0.4,0c0.5,0.3,0.9,0.6,1.4,0.9
	c0.2,0.1,0.3,0.3,0.5,0.1c0.6-0.3,0.7-0.9,0.1-1.3c-0.2-0.1-0.4-0.2-0.6-0.2c-0.2,0-0.4,0-0.4-0.3c0-0.2,0.3-0.2,0.5-0.2
	c0.4,0,0.7,0.2,1,0.4c0.2,0.2,0.3,0.4,0.6,0.5c1.5-1.5,3-3.1,4.5-4.7c0.7-0.7,1.4-0.9,2.3-0.8c2.1,0.3,4.1,0.2,6.1-0.5
	c0.6-0.2,0.6-0.2,0.3-0.7c-0.3-0.6-0.6-1.2-0.9-1.8c-0.1-0.2-0.1-0.3,0.1-0.4c0.2-0.1,0.3,0,0.4,0.2c0.2,0.4,0.4,0.7,0.6,1.1
	c0.7,1.4,0.7,1.4,2.2,0.5c-0.4-0.6-0.7-1.3-1.1-1.9c-0.1-0.2-0.4-0.4-0.1-0.6c0.3-0.2,0.4,0.2,0.5,0.4c0.3,0.4,0.5,0.8,0.7,1.3
	c0.4,0.7,0.3,0.8,1.1,0.3c1.7-1.1,3.2-2.6,4.2-4.3C247.5,50.7,247.9,50.1,248,49.2z"/>
<path class="st0" d="M16.8,30.8c0.6-1.6,1.6-2.6,3.2-2.9c0.4-0.1,0.8,0,1.1,0.1c0.8,0.3,1,1.1,0.6,1.8c-0.2,0.3-0.4,0.5-0.6,0.8
	c0.3,0.2,0.6,0.1,0.9,0c0.9,0,1.7,0.2,2.4,0.9c0.2,0.2,0.4,0.5,0.6,0.8c0.4,1,0,1.7-1.1,1.7c-1.2-0.1-2.2,0.6-3.4,0.8
	c0.2,0.5,0.5,0.7,0.7,0.9c1.5,1.6,2.8,3.4,3.8,5.4c0.8,1.6-0.3,2.6-1.7,2.6c-0.8,0-1.4-0.3-1.6-1.2c-0.5-1.9-1.5-3.5-2.5-5.1
	c-0.2-0.2-0.3-0.5-0.6-0.5c-0.6-0.1-0.7-0.1-0.9,0.5c-0.2,0.5-0.4,1-0.4,1.6c0,0.7-0.4,1.5-0.8,2.1c-0.4,0.6-1.1,0.6-1.7,0.1
	c-0.8-0.8-1.1-1.8-1.1-2.9c0-0.3,0-0.6,0-1c-0.3,0.2-0.5,0.4-0.8,0.6c-0.8,0.4-1.5,0.2-1.7-0.7c-0.3-1.4,0.2-2.5,1.2-3.4
	c0.3-0.3,0.7-0.5,1.1-0.8c-0.3-0.3-0.8-0.2-1.2-0.3c-1.2-0.3-1.4-0.9-0.7-1.8c0.7-1,1.8-1.2,2.9-1.1C15.3,29.8,16,30.2,16.8,30.8z
	 M15,37.5c0,0.5,0,1,0,1.6c0.3,0,0.2-0.4,0.4-0.3c0.2,0,0.4,0,0.4-0.3c0-0.5-0.1-1,0.5-1.3c0.1,0,0.1-0.2,0.1-0.3
	c-0.1-0.4,0.2-0.7,0.5-0.9c0.2-0.1,0.3-0.3,0.3-0.5c-0.5-0.1-0.8,0.3-1.2,0.3c0-0.3-0.1-0.5-0.4-0.3c-1,0.6-1.4,2.5-0.8,3.6
	C14.9,38.6,14.6,38,15,37.5z M18.7,33.6c-0.1-1.1,0-1.7,0.3-1.9c0.8-0.6,1.2-1.6,1.9-2.3c0.3-0.3,0.1-0.5-0.2-0.6
	c-0.3-0.1-0.6,0-0.9,0c-1.2,0.3-1.9,1.1-2.2,2.2c-0.1,0.5-0.1,1-0.2,1.5c-0.5-0.3-0.7-0.6-1-0.9c-0.5-0.6-1.2-0.9-2-1.1
	c-0.9-0.2-1.9,0.2-2.3,1.1c1.4,0.2,2.8,0.6,4,1.8c-0.4,0-0.6,0-0.8,0c-1.2,0-2.1,0.5-2.9,1.4c-0.4,0.5-0.7,1.1-0.6,1.8
	c0,0.2,0.1,0.4,0.4,0.5c0.2,0,0.3-0.1,0.5-0.3c0.7-1.2,1.9-1.8,3.1-2.3c1.1-0.4,2,0,2.3,1.1c0.1,0.3,0.1,0.5,0.4,0.5
	c0.4,0,0.5-0.2,0.6-0.6c0.2-1.1,1-1.6,1.9-1.9c1-0.2,1.9-0.8,3-0.6c-0.1-0.7-0.5-1.1-1-1.2c-0.8-0.2-1.5-0.3-2.3,0.1
	C20,32.2,19.3,32.7,18.7,33.6z M19.8,36.7c0.3,0.5,0.5,0.9,0.8,1.3c0.7,1.1,1.4,2.2,1.7,3.5c0.1,0.2,0.1,0.5,0.5,0.6
	c0.4,0.1,0.5-0.2,0.6-0.5c0.1-0.1,0.1-0.2,0.2-0.3c0.2-0.4,0.1-0.8-0.4-0.9c-0.1,0-0.4,0-0.3-0.2c0.2-0.6-0.1-0.9-0.6-1.1
	c-0.2-0.1-0.2-0.2-0.3-0.4c0-0.5-0.1-0.9-0.8-0.9c-0.2,0-0.1-0.1-0.1-0.3C21.1,36.7,20.8,36.5,19.8,36.7z M16.4,35
	c-0.1,0-0.2,0.1-0.2,0.2c0,0.1,0.1,0.1,0.1,0.1c0.1,0,0.2-0.1,0.2-0.2C16.6,35,16.5,35,16.4,35z"/>
<path class="st0" d="M242.1,10.6c0.2-0.3,0.3-0.6,0.5-0.9c0.4-0.8,0.9-1.5,1.6-2.1c1.9-1.7,4.2-0.6,4.9,1.3c0.4,1.1,0.4,2.2,0.1,3.3
	c-0.7,3.4-2.2,6.4-4.4,9.1c0,0,0,0.1-0.1,0.1c-1.3,1.5-2.2,1.6-3.7,0.3c-2.8-2.5-5-5.4-6.2-9.1c-0.3-0.9-0.4-1.8-0.2-2.8
	c0.6-2.3,2.9-3.2,4.8-1.9c0.8,0.6,1.5,1.3,2.1,2.1C241.7,10.3,241.7,10.5,242.1,10.6z M242.1,12.5c-0.4-0.4-0.7-1-1-1.5
	c-0.6-0.9-1.3-1.7-2.2-2.3c-1.7-1.1-3.3,0.3-3.5,1.6c-0.1,0.6-0.1,1.2,0.1,1.8c1.1,3.6,3.3,6.5,6,9c1.1,1,1.4,0.9,2.4-0.2
	c0,0,0,0,0.1-0.1c2.2-2.8,3.8-5.9,4.4-9.4c0.2-0.9,0.1-1.9-0.4-2.7c-0.7-1.2-2-1.4-3.1-0.6c-0.4,0.3-0.7,0.7-1,1.1
	c-0.5,0.8-0.9,1.6-1.3,2.5C242.5,12,242.5,12.3,242.1,12.5z"/>
<path class="st0" d="M30.1,64.9c0,0.8-0.5,1.4-1.1,1.6c-0.7,0.2-1.5-0.1-1.8-0.8c-0.5-1-0.9-2-1.3-3c-0.3-0.8,0.1-1.7,0.8-1.9
	c0.8-0.3,1.7-0.1,2.1,0.7c0.5,1,0.9,2,1.3,3C30.1,64.6,30.1,64.8,30.1,64.9z M26.8,62.3c0,0.2,0.1,0.5,0.2,0.7
	c0.3,0.7,0.6,1.5,1,2.2c0.2,0.4,0.5,0.5,0.9,0.3c0.3-0.1,0.5-0.4,0.3-0.7c-0.4-0.9-0.8-1.9-1.2-2.8c-0.1-0.3-0.4-0.5-0.8-0.4
	C26.8,61.6,26.8,61.9,26.8,62.3z"/>
<path class="st0" d="M27.6,58.2c0,0.9-0.5,1.5-1.2,1.7c-0.7,0.1-1.5-0.2-1.7-0.9c-0.4-1.1-0.7-2.2-0.9-3.4c-0.1-0.7,0.4-1.4,1.1-1.7
	c0.7-0.2,1.5,0.1,1.8,0.7C27.2,55.8,27.4,57.1,27.6,58.2z M24.7,55.5c0.2,1,0.4,2,0.8,3c0.1,0.4,0.4,0.5,0.8,0.4
	c0.4-0.1,0.6-0.4,0.5-0.8c-0.2-1-0.5-1.9-0.8-2.9c-0.1-0.3-0.3-0.6-0.7-0.5C24.8,54.9,24.6,55.2,24.7,55.5z"/>
<path class="st0" d="M73.9,87.5c-1.2,0-1.9-0.5-2-1.5c-0.1-0.8,0.6-1.5,1.5-1.7c0.9-0.1,1.8-0.3,2.8-0.4c1.2-0.1,2.1,1,1.7,2.1
	c-0.2,0.5-0.5,0.8-1,0.9c-0.3,0.1-0.6,0.1-0.9,0.2C75.3,87.3,74.5,87.4,73.9,87.5z M74.2,86.5c0.7,0.1,1.4-0.2,2.2-0.2
	c0.4,0,0.7-0.3,0.7-0.7c0-0.4-0.2-0.6-0.8-0.6c-0.9,0-1.8,0.2-2.7,0.2c-0.2,0-0.3,0.1-0.4,0.2c-0.3,0.1-0.3,0.4-0.3,0.7
	c0,0.3,0.2,0.4,0.5,0.5C73.7,86.5,73.9,86.5,74.2,86.5z"/>
<path class="st0" d="M34.7,72.6c0.4,0,0.7,0.1,1,0.4c0.7,0.7,1.4,1.4,2.1,2.1c0.6,0.7,0.7,1.6,0.1,2.2c-0.6,0.6-1.6,0.7-2.3,0.1
	c-0.8-0.7-1.6-1.5-2.3-2.3c-0.4-0.4-0.5-1-0.2-1.5C33.5,73,33.9,72.6,34.7,72.6z M37.4,76.2c0-0.1,0-0.2-0.1-0.2
	c-0.8-0.8-1.6-1.6-2.4-2.4c-0.2-0.2-0.5-0.1-0.7,0.1c-0.2,0.2-0.4,0.5-0.2,0.8c0.1,0.2,0.3,0.5,0.5,0.7c0.5,0.6,1.1,1.2,1.7,1.7
	c0.2,0.2,0.5,0.3,0.8,0C37.3,76.7,37.4,76.5,37.4,76.2z"/>
<path class="st0" d="M30.4,67c0.5,0.1,1.1,0.2,1.4,0.7c0.5,0.9,1.1,1.6,1.6,2.4c0.4,0.6,0.4,1.2,0,1.7c-0.6,0.9-1.8,1.1-2.5,0.2
	c-0.7-0.9-1.5-1.9-1.9-3C28.6,68.1,29.3,67,30.4,67z M32.8,71c0-0.1,0-0.1,0-0.2c-0.6-0.9-1.1-1.8-1.8-2.7c-0.2-0.3-0.6-0.3-0.9-0.1
	c-0.3,0.2-0.3,0.5-0.1,0.8c0.5,0.8,1,1.6,1.6,2.4c0.1,0.1,0.2,0.2,0.3,0.3c0.2,0.2,0.4,0.2,0.6,0.1C32.6,71.5,32.8,71.3,32.8,71z"/>
<path class="st0" d="M62,87.8c-0.8-0.1-1.7-0.1-2.6-0.2c-0.7-0.1-1.2-0.5-1.4-1.2c-0.2-0.6,0-1.2,0.5-1.6c0.3-0.3,0.7-0.4,1.1-0.3
	c1.1,0.1,2.1,0.2,3.2,0.3c0.6,0.1,1,0.5,1.2,1c0.2,0.6,0.1,1.2-0.4,1.6C63.1,87.8,62.6,87.8,62,87.8z M61.6,86.9c0.4,0,0.6,0,0.9,0
	c0.4,0,0.7-0.3,0.7-0.7c0-0.4-0.3-0.6-0.6-0.6c-1-0.1-2-0.2-3-0.2c-0.5,0-0.8,0.3-0.8,0.7c0,0.4,0.3,0.6,0.7,0.7
	C60.2,86.7,61,86.8,61.6,86.9z"/>
<path class="st0" d="M43.9,80.5c0,1.2-1.2,2-2.3,1.4c-0.9-0.5-1.7-1.1-2.6-1.7c-0.3-0.2-0.5-0.4-0.6-0.7c-0.3-0.6-0.1-1.4,0.4-1.8
	c0.5-0.4,1.2-0.5,1.8-0.2c0.9,0.6,1.8,1.2,2.6,1.8C43.7,79.6,43.9,80,43.9,80.5z M43,80.4c0-0.1-0.1-0.3-0.2-0.4
	c-0.9-0.6-1.8-1.2-2.7-1.8c-0.3-0.2-0.6-0.1-0.8,0.2c-0.2,0.3-0.2,0.7,0.1,0.9c0.9,0.6,1.8,1.2,2.7,1.8C42.5,81.4,43.1,81,43,80.4z"
	/>
<path class="st0" d="M22.8,49.5c0-0.5,0-0.9,0-1.3c0.1-0.8,0.7-1.3,1.5-1.3c0.8,0,1.5,0.5,1.6,1.4c0.1,1,0.2,2,0.2,3.1
	c0,1-0.5,1.6-1.4,1.7c-0.9,0.1-1.6-0.4-1.7-1.4C23,50.8,22.9,50.1,22.8,49.5z M25.2,50.7C25.2,50,25,49.2,25,48.4
	c0-0.3-0.2-0.6-0.5-0.6c-0.4,0-0.7,0.2-0.8,0.6c-0.2,1.1,0.1,2.2,0.3,3.3c0.1,0.3,0.3,0.5,0.7,0.5c0.4,0,0.5-0.3,0.6-0.7
	C25.2,51.2,25.2,51,25.2,50.7z"/>
<path class="st0" d="M46.1,80.9c1.1,0.5,2.5,0.7,3.6,1.6c0.6,0.4,0.6,1.2,0.3,1.8c-0.3,0.6-1,1-1.6,0.8c-1.2-0.3-2.3-0.8-3.4-1.4
	c-0.6-0.3-0.8-1.1-0.6-1.8C44.7,81.3,45.2,80.9,46.1,80.9z M48.4,84.1c0.5,0.1,0.9-0.1,1-0.5c0.1-0.4-0.1-0.7-0.5-0.8
	c-0.8-0.3-1.7-0.7-2.5-1c-0.5-0.2-0.8-0.1-1,0.3c-0.2,0.4,0,0.7,0.5,1c0.7,0.3,1.4,0.6,2,0.8C48.1,84,48.3,84.1,48.4,84.1z"/>
<path class="st0" d="M55.2,86.9c-1-0.1-2.2-0.3-3.3-0.7c-0.8-0.3-1.1-1-1-1.8c0.2-0.7,0.9-1.3,1.6-1.2c1.2,0.2,2.3,0.5,3.5,0.8
	c0.7,0.2,1,1,0.8,1.8C56.8,86.5,56.2,86.9,55.2,86.9z M52.7,84c-0.3,0-0.6,0.1-0.7,0.4c-0.1,0.3,0,0.6,0.3,0.8
	c0.1,0.1,0.2,0.1,0.4,0.1c0.8,0.2,1.7,0.4,2.5,0.6c0.5,0.1,0.9-0.2,1-0.6c0.1-0.4-0.3-0.6-0.6-0.7C54.6,84.5,53.6,84.3,52.7,84z"/>
<path class="st0" d="M67.8,87.8c-0.5,0-0.9,0-1.4,0c-0.9-0.1-1.5-0.7-1.5-1.5c0-0.8,0.6-1.5,1.5-1.6c1-0.1,2.1-0.1,3.1-0.1
	c0.9,0,1.5,0.6,1.5,1.4c0.1,0.9-0.5,1.6-1.4,1.7C69,87.8,68.4,87.8,67.8,87.8C67.8,87.8,67.8,87.8,67.8,87.8z M67.9,86.9
	C67.9,86.9,67.9,86.9,67.9,86.9c0.5,0,1,0,1.4,0c0.5,0,0.8-0.3,0.8-0.7c0-0.3-0.3-0.6-0.8-0.7c-1-0.1-2,0-3,0.2
	c-0.3,0.1-0.6,0.3-0.6,0.6c0,0.4,0.3,0.5,0.7,0.5C67,86.9,67.4,86.9,67.9,86.9z"/>
<path class="st0" d="M258.9,38.3c0,0.9-0.5,1.5-1.2,1.6c-0.7,0.1-1.4-0.3-1.5-1.1c-0.2-0.8-0.3-1.6-0.4-2.5
	c-0.1-0.7,0.4-1.3,1.1-1.5c0.7-0.2,1.3,0.2,1.6,0.9C258.6,36.6,258.7,37.5,258.9,38.3z M257.9,38.1c-0.1-0.6-0.2-1.3-0.4-2
	c-0.1-0.2-0.3-0.4-0.5-0.3c-0.3,0-0.4,0.2-0.4,0.4c0.1,0.9,0.2,1.7,0.4,2.5c0.1,0.2,0.3,0.3,0.6,0.3c0.2,0,0.3-0.2,0.4-0.4
	C257.9,38.5,257.9,38.3,257.9,38.1z"/>
<path class="st0" d="M254.2,30c1.3-0.5,1.8-0.3,2.4,1c0.3,0.6,0.6,1.2,0.8,1.9c0.2,0.8-0.1,1.5-0.8,1.8c-0.7,0.3-1.4,0-1.8-0.7
	c-0.3-0.7-0.6-1.3-1-2C253.6,31.1,253.8,30.5,254.2,30C254.2,29.9,254.2,30,254.2,30z M256.6,33c-0.2-0.7-0.6-1.5-1.1-2.3
	c-0.1-0.2-0.4-0.2-0.6,0c-0.3,0.2-0.3,0.4-0.1,0.7c0.3,0.7,0.6,1.3,0.9,2c0.1,0.3,0.3,0.4,0.6,0.3C256.5,33.7,256.6,33.5,256.6,33z"
	/>
<path class="st0" d="M258.2,47.2c-0.2,1-0.4,2-1,2.9c-0.4,0.6-1.2,0.8-1.8,0.5c-0.6-0.3-0.9-0.9-0.7-1.6c0.2-0.8,0.5-1.6,0.8-2.4
	c0.3-0.7,0.9-1,1.6-0.8C257.8,45.9,258.2,46.5,258.2,47.2z M257.3,47.4c0-0.3-0.1-0.6-0.4-0.7c-0.4-0.1-0.5,0.1-0.6,0.4
	c-0.2,0.7-0.5,1.3-0.7,2c-0.1,0.3-0.1,0.6,0.2,0.7c0.4,0.2,0.6,0,0.8-0.4C256.9,48.8,257.1,48.1,257.3,47.4z"/>
<path class="st0" d="M250.9,25.3c0.1,0.3,0.3,0.1,0.5,0.1c0.7-0.2,1.2,0,1.6,0.5c0.5,0.5,0.9,1.1,1.4,1.6c0.6,0.8,0.6,1.3-0.1,2.1
	c-0.1,0.1-0.4,0.2-0.1,0.4c0,0,0,0,0,0c-0.1-0.3-0.3-0.2-0.5-0.1c-0.6,0.2-1.1-0.1-1.5-0.6c-0.4-0.5-0.8-0.9-1.2-1.4
	c-0.7-0.9-0.7-1.3-0.1-2.2C251,25.5,251.2,25.4,250.9,25.3L250.9,25.3z M251.9,26.2c-0.4,0-0.6,0.4-0.4,0.8c0.5,0.6,1,1.2,1.5,1.8
	c0.2,0.2,0.5,0.3,0.8,0.1c0.3-0.2,0.2-0.6,0-0.8c-0.4-0.6-0.9-1.1-1.4-1.6C252.2,26.3,252.1,26.2,251.9,26.2z"/>
<path class="st0" d="M259,42c-0.1,0.7-0.1,1.4-0.2,2.1c-0.1,0.9-0.8,1.4-1.6,1.3c-0.8-0.1-1.3-0.8-1.2-1.7c0.1-0.7,0.1-1.4,0.2-2.1
	c0.1-1.1,1.1-1.6,2.1-1.2C258.9,40.8,259,41.4,259,42z M256.9,43.2c0,0.3,0,0.6,0,0.9c0,0.3,0.1,0.5,0.4,0.5c0.3,0,0.5-0.2,0.5-0.4
	c0.2-0.8,0.2-1.6,0.2-2.4c0-0.3-0.2-0.5-0.5-0.5c-0.3,0-0.5,0.2-0.5,0.4C257,42.2,257,42.7,256.9,43.2z"/>
<path class="st0" d="M250.9,25.3c-0.2,0-0.3,0.2-0.4,0.3c-0.6,0.4-1.2,0.4-1.8,0c-0.6-0.4-1.2-0.9-1.8-1.3c-0.7-0.6-0.9-1.4-0.4-2
	c0.4-0.6,1.3-0.7,2.1-0.2c0.6,0.4,1.2,0.9,1.8,1.3C251.1,23.9,251,24.6,250.9,25.3C250.9,25.3,250.9,25.3,250.9,25.3z M250.1,24.6
	c0-0.2-0.1-0.3-0.2-0.4c-0.6-0.6-1.2-1-1.9-1.5c-0.3-0.2-0.5-0.1-0.7,0.1c-0.2,0.2-0.1,0.5,0.1,0.7c0.6,0.5,1.3,1,1.9,1.5
	C249.7,25.2,250.1,24.9,250.1,24.6z"/>
<path class="st1" d="M180.6,61.9c0.3-0.2,0.3-0.5,0.4-0.8c1-2.8,2-5.5,3.3-8.2c0.4-0.8,0.9-1.6,1.5-2.4c0.7-0.8,1.5-1.2,2.6-1
	c2.6,0.5,4,2.1,3.9,4.8c0,1.4-0.2,2.7-0.3,4.1c-0.3,3.7-0.6,7.5-0.3,11.2c0,0.7,0.1,1.4,0.4,2c0.2,0.4,0,0.6-0.3,0.7
	c-1.7,0.7-3.6,0.3-4.5-1.6c-0.6-1.3-0.6-2.6-0.5-4c0.3-3.7,0.6-7.4,0.8-11.1c0.1-1.2,0.1-2.3,0-3.5c-0.3-0.1-0.4,0.2-0.5,0.3
	c-0.3,0.5-0.7,1-0.9,1.6c-1.9,4.1-3.4,8.3-4.4,12.7c-0.1,0.6-0.2,1.1-0.3,1.7c0,0.3-0.1,0.5-0.5,0.6c-1.1,0.4-2.2,0.4-3.2-0.1
	c-0.8-0.4-1.3-1.1-1.5-1.9c-0.2-0.6-0.3-1.2-0.3-1.8c-0.4,0-0.3,0.3-0.4,0.5c-0.3,0.6-0.5,1.2-0.8,1.9c-0.2,0.5-0.6,1-0.9,1.5
	c-0.8,0.9-1.7,1.6-3,1.4c-1.4-0.2-2.4-1-2.8-2.3c-0.4-1.2-0.5-2.4-0.3-3.7c-0.4,0.1-0.4,0.4-0.5,0.6c-0.6,1.1-1.3,2.2-2.2,3.1
	c-1.7,1.7-3.4,1-4.5-0.2c-0.4-0.4-0.6-1-0.9-1.5c-0.3,0.1-0.3,0.4-0.4,0.6c-0.3,0.7-0.7,1.4-1.2,2.1c-1.7,2.2-5.3,2.1-6.6-0.7
	c-0.4-0.9-0.7-1.8-0.7-2.8c0-0.4,0-0.8-0.2-1.3c-0.3,0.6-0.6,1.2-0.9,1.8c-0.6,1.2-1.3,2.3-2.3,3.2c-1.4,1.3-2.7,1.3-4-0.2
	c-1-1.2-1.5-2.6-1.8-4.1c-0.6-3.5-0.4-6.9,0.6-10.3c0.4-1.4,1-2.7,2.1-3.7c1.9-1.8,4.5-1.8,6.3,0.1c0.2,0.2,0.3,0.4,0.5,0.5
	c0.3-0.1,0.2-0.3,0.2-0.4c0.3-4.2,0.6-8.3,1-12.4c0-0.2,0-0.4,0.1-0.6c0.1-0.9,0.3-1.1,1.2-1c0.8,0,1.6,0.1,2.4,0.5
	c0.9,0.5,1.3,1,1.1,2c-0.9,5.2-1.2,10.4-1.5,15.6c-0.2,2.8-0.2,5.5-0.1,8.3c0,1,0.1,1.9,0.4,2.9c0.2,0.7,0.6,0.8,1.1,0.3
	c0.4-0.4,0.6-0.8,0.8-1.3c0.8-1.9,1.2-3.8,1.4-5.8c0.1-1.3,0.3-2.6,0.8-3.8c0.3-0.8,0.7-1.5,1.2-2.2c2-2.6,5.6-2.4,7.3-0.5
	c0.1,0.1,0.2,0.3,0.4,0.3c0.2-0.4,0.1-0.9,0.2-1.3c0.2-0.7,0.3-0.8,1-0.9c0.9-0.1,1.8,0,2.7,0.3c0.9,0.3,1.2,0.9,0.9,1.8
	c-0.9,3.2-1.3,6.5-1.6,9.8c-0.1,1-0.1,2,0,3c0,0.3,0.1,0.5,0.1,0.8c0.2,0.5,0.4,0.6,0.8,0.2c0.4-0.5,0.7-1.1,0.9-1.7
	c0.8-1.9,1.3-3.9,1.8-5.9c0.1-0.3,0.1-0.8,0.3-0.9c0.9-0.3,0.6-1.1,0.7-1.7c0.2-1.2,0.3-2.4,0.4-3.7c0-0.4,0.2-0.7,0.6-0.7
	c1.1,0,2.1,0,3.2,0.4c0.9,0.3,1.1,0.7,0.9,1.6c-0.3,2-0.5,3.9-0.7,5.9C180.6,61.2,180.5,61.6,180.6,61.9c0,0.1-0.1,0.1-0.1,0.1
	c0,0,0,0,0,0.1C180.5,62,180.6,61.9,180.6,61.9z M146.2,66.9c0.4-0.3,0.6-0.7,0.7-1.1c1-2.3,1.9-4.6,2.5-7c0.4-1.6,0.3-3.1-0.1-4.7
	c-0.1-0.4-0.3-0.9-0.6-1.2c-0.4-0.5-0.6-0.5-1,0c-0.4,0.6-0.7,1.3-0.9,2c-0.6,1.8-1,3.7-1.2,5.7c-0.2,1.7-0.4,3.4-0.1,5.1
	C145.8,66.1,145.8,66.6,146.2,66.9z M163.2,63.5c0,0.6,0,1.3,0.2,1.9c0.1,0.3,0.1,0.7,0.5,0.8c0.3,0,0.4-0.3,0.6-0.6
	c0.1-0.1,0.1-0.2,0.2-0.3c1-1.8,1.8-3.7,2.5-5.7c0.4-1.1,0.3-2.2,0.1-3.3c-0.1-0.5-0.3-1-0.5-1.4c-0.5-0.8-0.9-0.8-1.4-0.1
	c-0.3,0.4-0.5,0.8-0.7,1.3C163.7,58.5,163.3,61,163.2,63.5z"/>
<path class="st1" d="M203.4,64.6c-0.3,0.6-0.6,1.2-0.9,1.8c-0.6,1.2-1.3,2.3-2.3,3.2c-1.4,1.3-2.7,1.3-4-0.2c-1-1.2-1.5-2.6-1.8-4.1
	c-0.6-3.5-0.4-6.9,0.6-10.2c0.4-1.3,1-2.5,1.9-3.5c1.9-2,4.6-2,6.5,0c0.1,0.2,0.2,0.4,0.5,0.5c0.2,0,0.2-0.2,0.2-0.4
	c0.3-3.5,0.5-7.1,0.8-10.6c0.1-0.9,0.2-1.8,0.3-2.7c0-0.5,0.3-0.7,0.8-0.7c0.9,0,1.8,0.1,2.6,0.5c1,0.5,1.3,1.1,1.1,2.1
	c-0.3,1.6-0.5,3.1-0.6,4.7c-0.2,1.8-0.4,3.6-0.5,5.4c-0.3,4.5-0.6,9-0.4,13.5c0,1,0.1,2.1,0.4,3.1c0.2,0.8,0.6,0.9,1.2,0.3
	c0.4-0.4,0.6-0.8,0.8-1.3c0.8-1.9,1.2-3.9,1.5-5.9c0.2-0.9,0.3-1.7,0.4-2.8c0.6,1,0.9,1.9,0.9,2.8c0,2.5-0.4,4.9-1.2,7.2
	c-0.3,0.9-0.8,1.7-1.4,2.4c-1.8,2-4.8,1.7-6.2-0.5c-0.6-0.9-0.8-2-0.9-3C203.6,65.5,203.6,65.1,203.4,64.6z M199.3,66.9
	c0.4-0.4,0.6-0.8,0.8-1.3c1-2.2,1.8-4.4,2.4-6.7c0.4-1.6,0.4-3.2-0.1-4.8c-0.1-0.4-0.3-0.9-0.6-1.2c-0.4-0.5-0.6-0.5-1,0
	c-0.4,0.6-0.7,1.4-0.9,2.1c-0.6,1.8-0.9,3.6-1.1,5.5c-0.2,1.7-0.4,3.5-0.1,5.2C198.9,66.1,198.9,66.5,199.3,66.9z"/>
<path class="st1" d="M127.6,61.9c0.1-0.4,0.2-0.7,0.3-1c1-2.9,2-5.7,3.5-8.4c0.4-0.7,0.8-1.4,1.4-2.1c0.6-0.8,1.4-1,2.4-0.9
	c2.6,0.5,4,2.1,4,4.7c0,1.4-0.2,2.8-0.3,4.1c-0.3,3.8-0.6,7.5-0.3,11.3c0,0.4,0.1,0.8,0.2,1.1c0,0.4,0.2,0.7,0.4,1.1
	c-1.3,1.1-3.8,0.9-4.8-1c-0.5-1-0.7-2.1-0.7-3.2c0.1-2.3,0.3-4.5,0.4-6.8c0.2-2.6,0.5-5.1,0.5-7.7c0-0.4,0-0.8,0-1.1
	c-0.4-0.1-0.5,0.1-0.6,0.3c-0.3,0.5-0.7,1-0.9,1.6c-1.9,4.1-3.4,8.3-4.4,12.7c-0.1,0.6-0.2,1.1-0.3,1.7c0,0.3-0.1,0.5-0.5,0.6
	c-1.1,0.4-2.2,0.4-3.2-0.1c-1.3-0.6-1.6-1.8-1.8-3c-0.2-1.6-0.2-3.2-0.1-4.7c0.1-2.5,0.3-5,0.7-7.4c0.1-0.7,0.1-0.8,0.8-0.8
	c1,0,1.9,0,2.9,0.3c0.9,0.3,1.1,0.7,1,1.7c-0.2,2-0.4,3.9-0.7,5.9C127.5,61.2,127.4,61.5,127.6,61.9z"/>
<path class="st1" d="M62.8,42.2c1.7-2.1,2.3-4.5,3-6.9c0.5-1.9,0.8-3.8,0.9-5.7c0.1-0.8,0-1.6-0.2-2.4c-0.1-0.5-0.3-1-0.8-1.2
	c-0.6-0.2-1.1,0.1-1.5,0.5c-0.6,0.5-1,1.1-1.3,1.8c-1.2,2.1-2,4.4-2.7,6.7c-1.4,4.5-2.3,9.1-3.1,13.7c-0.9,5.2-1.7,10.4-2.7,15.6
	c-0.3,1.5-0.6,3-1.1,4.4c-0.3,0.7-0.6,1.4-1,2c-0.5,0.6-1,0.9-1.8,1c-2.5,0.2-4.3-0.8-5.5-3c-0.9-1.8-1.3-3.7-1.6-5.7
	c-0.5-4-0.8-8.1-1.2-12.1c-0.5-5.1-0.9-10.2-1.7-15.3c-0.2-1-0.4-2.1-0.8-3.1c-0.5-1.1-1.2-1.3-2-0.4c-0.6,0.6-0.9,1.4-1.2,2.2
	c-1.4,3.8-1.6,7.7-0.5,11.6c0.2,0.6,0.4,1.2,0.7,1.8c0.7,1.3,1.6,2.3,3.4,2.5c-0.9,0.6-1.7,0.8-2.6,0.6c-1.3-0.3-2.2-1-2.9-2
	c-0.9-1.2-1.3-2.6-1.5-4c-0.5-3.8,0-7.5,1.3-11.1c0.3-0.9,0.8-1.8,1.5-2.5c1.2-1.3,2.6-1.7,4.3-1.4c3.3,0.6,5,2.3,5.6,5.7
	c0.2,1.1,0.3,2.2,0.3,3.4c0.1,4.8,0.6,9.6,1.2,14.4c0.5,4,1,8.1,1.8,12.1c0.2,1,0.4,2.1,0.8,3.1c0.1,0.4,0.3,0.8,0.7,1.1
	c0.4-0.4,0.4-1,0.5-1.5c0.5-3.3,0.9-6.6,1.4-9.9c1.1-7.7,2.4-15.4,4.8-22.8c0.7-2.2,1.6-4.4,2.7-6.4c0.6-1.1,1.3-2.1,2.2-3
	c2-1.9,4.5-1.9,6.7-0.9c1,0.4,1.5,1.2,2.1,2.1c1,1.7,1.4,3.5,1.6,5.3c0.2,2.4-0.2,4.7-1.1,6.9c-0.2,0.4-0.4,0.8-0.6,1.1
	c-1.2,2-2.9,2.9-5.2,2.6C64.5,42.8,63.6,42.6,62.8,42.2z"/>
<path class="st1" d="M92.7,67.6c1.2,0.8,2.5,0.6,3.7,0.1c0.9-0.4,1.6-0.9,2.3-1.6c1.3-1.2,2.3-2.5,3.2-3.9c-0.1-0.2-0.3-0.1-0.4-0.1
	c-1.6,0.1-2.8-0.6-3.4-2c-1.2-2.5-1-5,0.4-7.3c1.4-2.3,3.5-3.5,6.2-3.6c1-0.1,2.1,0,3.1,0.2c0.8,0.1,0.8,0.1,1.1-0.6
	c1.2-2.7,2.3-5.5,3.3-8.3c0.9-2.5,1.8-5,2.3-7.6c0.1-0.5,0.4-0.8,0.9-0.8c0.9,0,1.1-0.5,1.2-1.2c0.3-1.7,0.7-3.4,1.2-5.1
	c0.2-0.7,0.2-0.7,0.9-0.5c1,0.3,2,0.6,3,1.2c0.7,0.5,1.1,1.1,1,1.9c-0.2,1.7-0.6,3.4-0.9,5.1c-0.9,4.4-1.7,8.7-2.2,13.2
	c-0.2,2.2-0.3,4.5-0.5,6.8c-0.3,5-0.4,9.9-0.4,14.9c0,1.7,0,3.5,0.4,5.2c0.1,0.4-0.1,0.5-0.3,0.7c-1.1,1-2.8,0.8-3.6-0.4
	c-0.5-0.8-0.6-1.6-0.7-2.5c-0.3-4-0.2-7.9-0.2-11.9c0-1.5,0-2.9,0.1-4.4c0-0.5-0.1-0.7-0.6-0.8c-1-0.3-1.9-0.9-2.8-1.2
	c-1.4-0.5-1.1-0.5-1.6,0.6c-2.1,4.5-4.2,8.9-6.7,13.2c-0.8,1.4-1.7,2.7-2.7,4c-1.4,2-3.8,1.7-5.3,1.1C92.9,71.4,92.1,69,92.7,67.6z
	 M115,40c-1.4,3.3-2.8,6.6-4.2,10c1.2,0.4,2.3,0.8,3.5,1.2C114.5,47.4,114.7,43.7,115,40z M103.6,59.4c1.3-2.4,2.5-4.7,3.6-7.2
	c-1.2-0.2-2.1-0.2-3,0.2c-0.6,0.2-1.1,0.6-1.5,1.2C101.9,55.1,101.8,57.8,103.6,59.4z"/>
<path class="st1" d="M83.7,64.6c-0.4,0.5-0.6,0.8-0.9,1.1c-0.8,1-1.8,1.8-3,2.2c-1.5,0.5-2.9,0.3-4.1-0.7c-1.1-0.9-1.8-2-2.2-3.2
	c-0.1-0.3-0.2-0.6-0.3-1c-0.3,0.2-0.3,0.6-0.5,0.9c-0.6,1.5-1.3,2.9-2.5,3.9c-1.1,1-2.4,1.6-3.9,1.4c-1.6-0.2-2.7-1.1-3.4-2.5
	c-0.6-1.2-0.9-2.5-1.1-3.8c-0.5-3-0.4-6,0.3-8.9c0.2-0.8,0.5-1.6,0.9-2.3c0.6-1,1.4-1.7,2.6-2c0.6-0.1,1.2-0.2,1.8-0.2
	c1.5,0.1,2.5,0.8,3,2.2c0.5,1.5,0.4,2.9,0.1,4.4c-0.2,1-0.5,1.9-1,2.7c-0.8,1.2-1.9,2-3.5,1.5c-0.1,1.8,0,3.5,0.5,5.1
	c0.1,0.2,0.2,0.4,0.3,0.6c0.4,0.6,0.8,0.7,1.5,0.4c0.4-0.3,0.8-0.6,1.2-1c2.2-2.3,3.3-5.1,3.6-8.3c0-0.3,0-0.6,0-0.9
	c0.2,0,0.2,0.3,0.4,0.2c0.3-1.1,0.7-2.1,1.2-3.1c0.5-0.9,1.1-1.7,1.9-2.4c2.2-1.9,5.6-1.4,6.9,1.5c0.1,0.1,0.1,0.2,0.2,0.4
	c0.2-0.2,0.1-0.4,0.1-0.6c0-0.5,0-1.1,0.1-1.6c0.1-1.1,0.4-1.3,1.4-1.2c0.8,0.1,1.6,0.3,2.3,0.7c0.8,0.4,1.2,1,1.1,1.9
	c-0.2,1.2-0.3,2.4-0.5,3.5c-0.3,2.3-0.3,4.7-0.4,7.2c0.6-0.2,0.9-0.6,1.2-0.9c0.9-0.8,1.7-1.7,2.2-2.8c0.1-0.2,0.1-0.6,0.5-0.6
	c0.4,0,0.8,0.4,0.9,0.8c0.1,0.5-0.1,1-0.3,1.4c-0.4,0.8-0.9,1.5-1.5,2.1c-0.8,0.9-1.6,1.9-2.5,2.7c-0.4,0.5-0.6,0.9-0.6,1.6
	c0,2.5-0.3,5-1,7.5c-0.4,1.4-0.9,2.8-1.8,3.9c-1.3,1.7-3.1,2.4-5.2,1.9c-2.1-0.5-3.3-2.4-2.9-4.5c0.2-1.1,0.7-2,1.3-2.9
	c1.1-1.5,2.4-2.9,3.7-4.2c0.4-0.4,0.8-0.8,1.1-1.2C83.7,66.3,83.7,66.3,83.7,64.6z M77.3,60.4c0,1.2,0.1,2.3,0.4,3.5
	c0.1,0.4,0.2,0.8,0.5,1.1c0.3,0.4,0.6,0.4,1,0.1c0.4-0.4,0.6-0.8,0.8-1.3c1-2.1,1.8-4.3,2.3-6.5c0.4-1.7-0.1-3.2-1.2-4.5
	c-0.2-0.2-0.4-0.4-0.7-0.6c-0.5-0.3-0.9-0.3-1.3,0.2c-0.4,0.5-0.7,1.2-0.9,1.8C77.6,56.2,77.4,58.2,77.3,60.4z M65.7,56.7
	c0,0.4,0,0.6,0,0.9c0,0.9,0.5,1.1,1.2,0.7c0.3-0.2,0.5-0.4,0.8-0.7c0.9-1.3,1.2-2.8,1.1-4.4c0-0.2-0.1-0.4-0.2-0.6
	c-0.3-0.7-0.9-0.9-1.5-0.4c-0.5,0.4-0.8,1-0.9,1.6C65.9,54.8,65.8,55.8,65.7,56.7z M83.3,70.2c-1.5,1.5-2.8,3-3.6,4.9
	c-0.3,0.6-0.5,1.2-0.4,1.9c0.1,0.6,0.5,0.9,1.1,0.8c0.7-0.2,1.2-0.7,1.5-1.3C82.8,74.5,83.1,72.3,83.3,70.2z"/>
<path class="st2" d="M248,49.2c-0.1,0.8-0.6,1.5-1,2.2c-1.1,1.8-2.5,3.2-4.2,4.3c-0.7,0.5-0.7,0.4-1.1-0.3c-0.2-0.4-0.5-0.8-0.7-1.3
	c-0.1-0.2-0.2-0.6-0.5-0.4c-0.3,0.2,0,0.4,0.1,0.6c0.4,0.6,0.7,1.3,1.1,1.9c-1.4,1-1.4,1-2.2-0.5c-0.2-0.4-0.4-0.7-0.6-1.1
	c-0.1-0.1-0.2-0.3-0.4-0.2c-0.2,0.1-0.2,0.3-0.1,0.4c0.3,0.6,0.6,1.2,0.9,1.8c0.3,0.5,0.2,0.6-0.3,0.7c-2,0.6-4.1,0.8-6.1,0.5
	c-0.9-0.2-1.6,0-2.3,0.8c-1.5,1.6-3,3.1-4.5,4.7c-0.3,0-0.4-0.3-0.6-0.5c-0.3-0.2-0.6-0.4-1-0.4c-0.2,0-0.4,0-0.5,0.2
	c0,0.3,0.2,0.3,0.4,0.3c0.2,0,0.4,0.1,0.6,0.2c0.5,0.4,0.5,1-0.1,1.3c-0.2,0.1-0.4,0-0.5-0.1c-0.5-0.3-0.9-0.6-1.4-0.9
	c-0.1-0.1-0.3-0.2-0.4,0c-0.2,0.2,0,0.3,0.2,0.5c0.3,0.2,0.5,0.4,0.8,0.6c0.3,0.2,0.6,0.3,0.8,0.7c-1.5,1.6-3,3.1-4.5,4.7
	c-0.4-0.2-0.2-0.5-0.2-0.8c0.1-5.2,0.1-10.3,0.2-15.5c0-0.7-0.2-1.2-0.8-1.7c-2.4-2.1-3.6-4.8-4.1-7.9c-0.9-6.5,2.9-11.8,7.8-14.6
	c7-3.9,15.8-2.7,21.5,2.8c2.6,2.5,4.1,5.6,4.6,9.2c0.2,1.6,0.2,3.2,0,4.8c-0.1,0.8-0.1,0.8-0.9,0.8c-0.6,0-1.1,0.1-1.6,0.5
	c-0.1,0.1-0.2,0.3-0.1,0.4c0.1,0.1,0.2,0.1,0.3,0c0.4-0.3,0.9-0.4,1.4-0.4c0.2,0,0.5,0.1,0.5,0.4c0,0.4-0.3,0.8-0.6,0.8
	c-0.6,0-1.1,0.1-1.6,0.2c-0.3,0.1-0.6,0.3-0.9,0.6c-0.1,0.1-0.1,0.2-0.1,0.3c0.1,0.1,0.2,0.1,0.3,0c0.3-0.2,0.6-0.4,0.9-0.5
	C247.1,49.2,247.5,49,248,49.2z M231.9,34.2c-4.1-0.2-8,3.4-8.2,7.6c-0.2,4.6,3.2,8.3,7.8,8.5c5.1,0.2,8.1-3.8,8.4-7.6
	C240.2,38,235.9,34.1,231.9,34.2z M245,41c0,0-0.1,0.1-0.2,0.2c0,0.1,0,0.2,0.1,0.2c0.4,0.1,0.6,0.3,0.7,0.7c0,0.1,0.2,0.1,0.2,0.1
	c0.1-0.1,0.1-0.1,0.1-0.2C246.1,41.6,245.6,41,245,41z M224.3,53.8c-0.1-0.2-0.1-0.5-0.2-0.8c0-0.1-0.1-0.2-0.3-0.2
	c-0.2,0-0.2,0.2-0.2,0.3c0,0.3,0.1,0.6,0.2,0.8c0,0.2,0.2,0.3,0.3,0.2C224.3,54.1,224.3,54,224.3,53.8z M218.4,39.8
	c0.1,0,0.2,0,0.3-0.1c0.2-0.1,0.4-0.1,0.3-0.4c-0.1-0.2-0.2-0.2-0.4-0.2c-0.1,0-0.2,0-0.4,0.1c-0.2,0-0.4,0.1-0.3,0.4
	C218,39.8,218.2,39.8,218.4,39.8z M246.4,40.2c0-0.1,0-0.1,0-0.2c-0.2-0.2-0.4-0.5-0.7-0.5c0,0-0.1,0.1-0.1,0.1
	c0,0.4,0.3,0.5,0.6,0.7C246.2,40.4,246.4,40.3,246.4,40.2z M240.2,52.3c0-0.1-0.1-0.3-0.2-0.3c-0.3,0.1-0.4,0.3-0.4,0.6
	c0,0.1,0.1,0.3,0.2,0.2C240.1,52.8,240.1,52.6,240.2,52.3z M219.1,37.8c0.2,0,0.4-0.1,0.5-0.3c0-0.1,0-0.2-0.2-0.3
	c-0.2,0-0.4,0.1-0.5,0.3C218.8,37.7,218.9,37.8,219.1,37.8z"/>
<path class="st3" d="M18.7,33.6c0.6-0.9,1.3-1.5,2.2-1.8c0.8-0.3,1.6-0.3,2.3-0.1c0.5,0.2,0.9,0.5,1,1.2c-1.1-0.2-2,0.4-3,0.6
	c-1,0.2-1.7,0.8-1.9,1.9c-0.1,0.4-0.3,0.6-0.6,0.6c-0.3,0-0.4-0.3-0.4-0.5c-0.4-1.1-1.3-1.5-2.3-1.1c-1.2,0.5-2.3,1.1-3.1,2.3
	c-0.1,0.2-0.2,0.3-0.5,0.3c-0.3,0-0.4-0.2-0.4-0.5c-0.1-0.7,0.2-1.3,0.6-1.8c0.7-0.9,1.7-1.4,2.9-1.4c0.2,0,0.4,0,0.8,0
	c-1.2-1.2-2.6-1.5-4-1.8c0.4-0.9,1.4-1.3,2.3-1.1c0.8,0.2,1.5,0.5,2,1.1c0.3,0.3,0.5,0.6,1,0.9c0.1-0.6,0.1-1.1,0.2-1.5
	c0.3-1.1,1-1.9,2.2-2.2c0.3-0.1,0.6-0.1,0.9,0c0.4,0.1,0.5,0.4,0.2,0.6c-0.7,0.7-1.1,1.7-1.9,2.3C18.7,31.9,18.6,32.5,18.7,33.6z
	 M18.8,30.8c-0.1,0-0.2,0.1-0.3,0.2c0,0.1,0,0.2,0.2,0.2c0.1,0,0.2-0.1,0.3-0.2C19,30.9,18.9,30.8,18.8,30.8z"/>
<path class="st3" d="M19.8,36.7c1-0.1,1.3,0.1,1.4,0.8c0,0.1-0.1,0.3,0.1,0.3c0.6,0,0.7,0.4,0.8,0.9c0,0.2,0.1,0.3,0.3,0.4
	c0.5,0.2,0.8,0.5,0.6,1.1c-0.1,0.2,0.2,0.2,0.3,0.2c0.5,0.2,0.6,0.5,0.4,0.9c-0.1,0.1-0.1,0.2-0.2,0.3c-0.1,0.3-0.2,0.6-0.6,0.5
	c-0.3-0.1-0.4-0.3-0.5-0.6c-0.3-1.3-1.1-2.4-1.7-3.5C20.4,37.5,20.1,37.1,19.8,36.7z"/>
<path class="st3" d="M15.9,35.7c0.4,0,0.7-0.5,1.2-0.3c0,0.3-0.2,0.4-0.3,0.5c-0.3,0.2-0.6,0.5-0.5,0.9c0,0.1,0,0.2-0.1,0.3
	c-0.6,0.3-0.5,0.8-0.5,1.3c0,0.3-0.1,0.3-0.4,0.3c-0.2,0-0.2,0.3-0.4,0.3c0-0.5,0-1.1,0-1.6l0,0c0.4-0.2,0.4-0.6,0.4-1l0,0
	c0.2-0.1,0.4-0.3,0.4-0.6l0,0C15.8,35.9,15.9,35.8,15.9,35.7C15.9,35.7,15.9,35.7,15.9,35.7z"/>
<path class="st3" d="M15,37.5c-0.3,0.5,0,1.1-0.2,1.6c-0.6-1.2-0.2-3,0.8-3.6c0.3-0.2,0.4,0,0.4,0.3c0,0,0,0,0,0
	c-0.1,0.1-0.1,0.1-0.2,0.2c0,0,0,0,0,0c-0.2,0.1-0.4,0.3-0.4,0.6c0,0,0,0,0,0C15,36.7,15,37.1,15,37.5L15,37.5z"/>
<path class="st3" d="M16.4,35c0.1,0,0.2,0,0.2,0.1c0,0.1-0.1,0.2-0.2,0.2c-0.1,0-0.1,0-0.1-0.1C16.2,35,16.3,35,16.4,35z"/>
<path class="st4" d="M242.1,12.5c0.3-0.2,0.4-0.5,0.5-0.8c0.4-0.9,0.8-1.7,1.3-2.5c0.3-0.4,0.6-0.8,1-1.1c1.1-0.8,2.4-0.5,3.1,0.6
	c0.5,0.8,0.6,1.8,0.4,2.7c-0.6,3.5-2.2,6.6-4.4,9.4c0,0,0,0-0.1,0.1c-1,1.1-1.4,1.2-2.4,0.2c-2.7-2.5-4.9-5.3-6-9
	c-0.2-0.6-0.2-1.2-0.1-1.8c0.2-1.4,1.7-2.8,3.5-1.6c0.9,0.6,1.5,1.4,2.2,2.3C241.5,11.5,241.7,12,242.1,12.5z M246.3,14.1
	c0-0.3-0.1-0.5-0.3-0.6c-0.2-0.1-0.4,0-0.5,0.1c-0.1,0.2-0.3,0.4-0.4,0.6c-0.6,1-1.2,2-1.8,3c-0.1,0.2-0.2,0.3-0.3,0.5
	c-0.1,0.2-0.1,0.4,0.1,0.6c0.2,0.2,0.4,0.2,0.6,0c0.2-0.1,0.3-0.3,0.4-0.4c0.7-1.1,1.4-2.2,2-3.4C246.2,14.4,246.2,14.3,246.3,14.1z
	"/>
<path class="st3" d="M26.8,62.3c0-0.4,0-0.7,0.4-0.8c0.4-0.1,0.6,0.1,0.8,0.4c0.4,0.9,0.8,1.9,1.2,2.8c0.1,0.3-0.1,0.6-0.3,0.7
	c-0.4,0.2-0.7,0.1-0.9-0.3c-0.3-0.7-0.7-1.5-1-2.2C26.9,62.8,26.8,62.6,26.8,62.3z"/>
<path class="st3" d="M24.7,55.5c0-0.4,0.2-0.7,0.6-0.8c0.4-0.1,0.6,0.2,0.7,0.5c0.3,1,0.5,1.9,0.8,2.9c0.1,0.4-0.1,0.7-0.5,0.8
	c-0.3,0.1-0.6,0-0.8-0.4C25.1,57.6,24.9,56.6,24.7,55.5z"/>
<path class="st3" d="M74.2,86.5c-0.3,0-0.5,0-0.8,0c-0.3,0-0.5-0.2-0.5-0.5c0-0.3,0-0.5,0.3-0.7c0.1-0.1,0.3-0.2,0.4-0.2
	c0.9-0.1,1.8-0.2,2.7-0.2c0.6,0,0.8,0.2,0.8,0.6c0,0.5-0.3,0.7-0.7,0.7C75.6,86.3,74.9,86.6,74.2,86.5z"/>
<path class="st3" d="M37.4,76.2c0,0.3-0.1,0.5-0.3,0.6c-0.3,0.2-0.6,0.1-0.8,0c-0.7-0.5-1.2-1.1-1.7-1.7c-0.2-0.2-0.4-0.4-0.5-0.7
	c-0.2-0.3,0-0.6,0.2-0.8c0.2-0.2,0.5-0.3,0.7-0.1c0.8,0.8,1.6,1.6,2.4,2.4C37.4,76.1,37.4,76.2,37.4,76.2z"/>
<path class="st3" d="M32.8,71c0,0.3-0.2,0.5-0.4,0.6c-0.2,0.1-0.4,0.1-0.6-0.1c-0.1-0.1-0.2-0.2-0.3-0.3c-0.5-0.8-1.1-1.6-1.6-2.4
	c-0.2-0.3-0.2-0.6,0.1-0.8c0.3-0.3,0.7-0.3,0.9,0.1c0.6,0.9,1.2,1.8,1.8,2.7C32.7,70.9,32.7,71,32.8,71z"/>
<path class="st3" d="M61.6,86.9c-0.6-0.1-1.3-0.1-2.1-0.2c-0.4,0-0.7-0.3-0.7-0.7c0-0.3,0.3-0.7,0.8-0.7c1,0,2,0.1,3,0.2
	c0.3,0,0.6,0.3,0.6,0.6c0,0.4-0.3,0.6-0.7,0.7C62.2,86.9,62,86.9,61.6,86.9z"/>
<path class="st3" d="M43,80.4c0,0.6-0.5,1-1,0.7c-0.9-0.5-1.8-1.1-2.7-1.8c-0.3-0.2-0.3-0.6-0.1-0.9c0.2-0.3,0.5-0.4,0.8-0.2
	c0.9,0.6,1.8,1.2,2.7,1.8C43,80.1,43,80.3,43,80.4z"/>
<path class="st3" d="M25.2,50.7c0,0.3,0,0.5,0,0.7c0,0.4-0.2,0.6-0.6,0.7c-0.3,0-0.6-0.2-0.7-0.5c-0.2-1.1-0.4-2.2-0.3-3.3
	c0.1-0.4,0.4-0.6,0.8-0.6c0.3,0,0.5,0.3,0.5,0.6C25,49.2,25.2,50,25.2,50.7z"/>
<path class="st3" d="M48.4,84.1c-0.1,0-0.3-0.1-0.5-0.2c-0.7-0.3-1.4-0.5-2-0.8c-0.5-0.2-0.7-0.6-0.5-1c0.2-0.4,0.5-0.5,1-0.3
	c0.8,0.3,1.7,0.7,2.5,1c0.4,0.1,0.6,0.4,0.5,0.8C49.3,84,48.9,84.2,48.4,84.1z"/>
<path class="st3" d="M52.7,84c1,0.2,1.9,0.4,2.9,0.7c0.4,0.1,0.7,0.3,0.6,0.7c0,0.4-0.5,0.7-1,0.6c-0.8-0.2-1.7-0.4-2.5-0.6
	c-0.1,0-0.2-0.1-0.4-0.1c-0.3-0.2-0.4-0.5-0.3-0.8C52.1,84.1,52.4,84,52.7,84z"/>
<path class="st3" d="M67.9,86.9c-0.5,0-1,0-1.4,0c-0.4,0-0.6-0.2-0.7-0.5c0-0.4,0.2-0.6,0.6-0.6c1-0.1,2-0.2,3-0.2
	c0.5,0,0.8,0.3,0.8,0.7c0,0.3-0.3,0.6-0.8,0.7C68.9,86.9,68.4,86.9,67.9,86.9C67.9,86.9,67.9,86.9,67.9,86.9z"/>
<path class="st4" d="M257.9,38.1c0,0.2,0,0.4,0,0.5c0,0.2-0.1,0.4-0.4,0.4c-0.2,0-0.5,0-0.6-0.3c-0.2-0.8-0.4-1.7-0.4-2.5
	c0-0.2,0.2-0.4,0.4-0.4c0.3,0,0.4,0.1,0.5,0.3C257.8,36.8,257.8,37.5,257.9,38.1z"/>
<path class="st4" d="M256.6,33c0,0.4-0.1,0.6-0.3,0.7c-0.3,0.1-0.5,0-0.6-0.3c-0.3-0.7-0.6-1.3-0.9-2c-0.1-0.3-0.1-0.5,0.1-0.7
	c0.2-0.1,0.5-0.2,0.6,0C256,31.5,256.4,32.3,256.6,33z"/>
<path class="st4" d="M257.3,47.4c-0.2,0.7-0.4,1.4-0.7,2.1c-0.1,0.3-0.4,0.5-0.8,0.4c-0.3-0.1-0.3-0.5-0.2-0.7
	c0.2-0.7,0.4-1.3,0.7-2c0.1-0.3,0.3-0.5,0.6-0.4C257.2,46.8,257.4,47,257.3,47.4z"/>
<path class="st4" d="M251.9,26.2c0.2,0,0.4,0.1,0.5,0.2c0.5,0.5,0.9,1.1,1.4,1.6c0.2,0.2,0.2,0.6,0,0.8c-0.3,0.2-0.6,0.1-0.8-0.1
	c-0.5-0.6-1-1.2-1.5-1.8C251.2,26.7,251.4,26.2,251.9,26.2z"/>
<path class="st4" d="M256.9,43.2c0.1-0.5,0.1-1,0.2-1.5c0.1-0.3,0.2-0.5,0.5-0.4c0.3,0,0.4,0.2,0.5,0.5c0,0.8,0,1.6-0.2,2.4
	c-0.1,0.3-0.2,0.5-0.5,0.4c-0.3,0-0.4-0.2-0.4-0.5C256.9,43.8,256.9,43.5,256.9,43.2z"/>
<path class="st4" d="M250.1,24.6c0,0.4-0.5,0.6-0.8,0.4c-0.7-0.4-1.3-1-1.9-1.5c-0.2-0.2-0.2-0.5-0.1-0.7c0.2-0.3,0.4-0.3,0.7-0.1
	c0.7,0.4,1.3,0.9,1.9,1.5C250,24.3,250.1,24.4,250.1,24.6z"/>
<path class="st0" d="M146.2,66.9c-0.4-0.3-0.4-0.7-0.5-1.2c-0.3-1.7-0.1-3.4,0.1-5.1c0.2-1.9,0.6-3.8,1.2-5.7c0.2-0.7,0.5-1.4,0.9-2
	c0.3-0.5,0.6-0.5,1,0c0.3,0.4,0.4,0.8,0.6,1.2c0.4,1.5,0.5,3.1,0.1,4.7c-0.6,2.4-1.5,4.7-2.5,7C146.8,66.2,146.6,66.6,146.2,66.9z
	 M147.5,60c0.5-0.9,0.7-2.1,0.7-3.3C147.7,57.8,147.5,58.9,147.5,60z"/>
<path class="st0" d="M163.2,63.5c0.1-2.5,0.5-5,1.4-7.4c0.2-0.4,0.4-0.9,0.7-1.3c0.5-0.7,0.9-0.7,1.4,0.1c0.3,0.4,0.5,0.9,0.5,1.4
	c0.2,1.1,0.2,2.2-0.1,3.3c-0.6,2-1.5,3.9-2.5,5.7c-0.1,0.1-0.1,0.2-0.2,0.3c-0.2,0.2-0.3,0.6-0.6,0.6c-0.4,0-0.4-0.4-0.5-0.8
	C163.2,64.8,163.2,64.2,163.2,63.5z M165.1,60.3c0.4-0.8,0.7-1.6,0.6-2.5c0.1,0-0.1-0.1-0.1,0C165.4,58.6,165.1,59.4,165.1,60.3z"/>
<path class="st0" d="M180.6,61.9c0,0.1,0,0.1-0.1,0.2c0,0,0-0.1,0-0.1C180.5,62,180.6,61.9,180.6,61.9
	C180.6,61.9,180.6,61.9,180.6,61.9z"/>
<path class="st0" d="M199.3,66.9c-0.4-0.4-0.5-0.8-0.5-1.2c-0.3-1.7-0.1-3.5,0.1-5.2c0.2-1.9,0.6-3.7,1.1-5.5
	c0.2-0.7,0.5-1.5,0.9-2.1c0.3-0.5,0.6-0.5,1,0c0.3,0.4,0.4,0.8,0.6,1.2c0.4,1.6,0.5,3.2,0.1,4.8c-0.6,2.3-1.4,4.5-2.4,6.7
	C199.9,66.1,199.7,66.5,199.3,66.9z M200.6,59.9c0.5-1,0.7-2.1,0.7-3.3C200.8,57.8,200.6,58.9,200.6,59.9z"/>
<path class="st0" d="M115,40c-0.2,3.7-0.5,7.4-0.7,11.2c-1.2-0.4-2.3-0.8-3.5-1.2C112.2,46.6,113.6,43.3,115,40z"/>
<path class="st0" d="M103.6,59.4c-1.8-1.5-1.7-4.3-0.8-5.8c0.3-0.6,0.9-1,1.5-1.2c0.9-0.3,1.8-0.4,3-0.2
	C106.1,54.6,104.9,57,103.6,59.4z M103.7,55.5c0.4-0.5,0.6-1,0.9-1.7C103.9,54.3,103.8,54.9,103.7,55.5z"/>
<path class="st0" d="M77.3,60.4c0.1-2.1,0.3-4.2,1-6.2c0.2-0.6,0.5-1.3,0.9-1.8c0.4-0.5,0.7-0.5,1.3-0.2c0.2,0.1,0.5,0.3,0.7,0.6
	c1.1,1.3,1.6,2.8,1.2,4.5c-0.6,2.3-1.3,4.5-2.3,6.5c-0.2,0.5-0.5,0.9-0.8,1.3c-0.4,0.4-0.6,0.3-1-0.1c-0.3-0.3-0.4-0.7-0.5-1.1
	C77.4,62.7,77.3,61.5,77.3,60.4z M79,61.9c0.9-1.8,1.6-3.6,1.9-5.5c0.1-0.9-0.2-1.7-0.9-2.5C79,56.5,78.8,59.2,79,61.9z"/>
<path class="st0" d="M65.7,56.7c0-0.9,0.1-1.9,0.4-3c0.2-0.6,0.4-1.2,0.9-1.6c0.6-0.5,1.2-0.4,1.5,0.4c0.1,0.2,0.2,0.4,0.2,0.6
	c0.2,1.6-0.2,3.1-1.1,4.4c-0.2,0.3-0.4,0.6-0.8,0.7c-0.8,0.4-1.2,0.2-1.2-0.7C65.7,57.3,65.7,57.1,65.7,56.7z"/>
<path class="st0" d="M83.3,70.2c-0.1,2.2-0.4,4.3-1.5,6.2c-0.3,0.6-0.8,1.1-1.5,1.3c-0.6,0.1-1-0.1-1.1-0.8
	c-0.1-0.7,0.1-1.3,0.4-1.9C80.5,73.2,81.8,71.6,83.3,70.2z"/>
<path class="st0" d="M231.9,34.2c4.1-0.1,8.3,3.8,8,8.5c-0.3,3.9-3.2,7.8-8.4,7.6c-4.6-0.2-8-3.9-7.8-8.5
	C223.9,37.7,227.7,34,231.9,34.2z M231.8,48.8c3.6,0,6.5-2.8,6.5-6.5c0-3.2-2.6-6.4-6.4-6.5c-3.6-0.1-6.6,2.9-6.7,6.4
	C225.3,45.9,228.1,48.7,231.8,48.8z"/>
<path class="st0" d="M245,41c0.6,0,1.1,0.5,1.1,1c0,0.1-0.1,0.2-0.1,0.2c-0.1,0.1-0.2,0-0.2-0.1c-0.2-0.3-0.4-0.6-0.7-0.7
	c-0.1,0-0.1-0.1-0.1-0.2C244.9,41.1,245,41,245,41z"/>
<path class="st0" d="M224.3,53.8c0,0.2,0,0.3-0.1,0.4c-0.2,0.1-0.3,0-0.3-0.2c-0.1-0.3-0.1-0.6-0.2-0.8c0-0.1,0-0.3,0.2-0.3
	c0.2,0,0.2,0.1,0.3,0.2C224.2,53.3,224.3,53.6,224.3,53.8z"/>
<path class="st0" d="M218.4,39.8c-0.2,0-0.4,0-0.4-0.2c-0.1-0.3,0.1-0.3,0.3-0.4c0.1,0,0.2-0.1,0.4-0.1c0.2,0,0.3,0,0.4,0.2
	c0.1,0.3-0.1,0.3-0.3,0.4C218.6,39.8,218.5,39.8,218.4,39.8z"/>
<path class="st0" d="M246.4,40.2c-0.1,0.1-0.2,0.2-0.3,0.1c-0.3-0.2-0.6-0.3-0.6-0.7c0,0,0.1-0.1,0.1-0.1c0.3,0,0.6,0.2,0.7,0.5
	C246.4,40,246.4,40.1,246.4,40.2z"/>
<path class="st0" d="M240.2,52.3c-0.1,0.2-0.1,0.5-0.4,0.6c-0.1,0-0.2-0.1-0.2-0.2c0-0.2,0.1-0.5,0.4-0.6
	C240.1,52.1,240.2,52.2,240.2,52.3z"/>
<path class="st0" d="M219.1,37.8c-0.1,0-0.2-0.1-0.2-0.3c0.1-0.2,0.2-0.3,0.5-0.3c0.2,0,0.2,0.1,0.2,0.3
	C219.4,37.7,219.3,37.8,219.1,37.8z"/>
<path class="st1" d="M18.8,30.8c0.1,0,0.2,0.1,0.2,0.2c0,0.1-0.1,0.2-0.3,0.2c-0.1,0-0.2-0.1-0.2-0.2C18.5,30.9,18.6,30.8,18.8,30.8
	z"/>
<path class="st0" d="M15,37.5c0-0.4,0-0.7,0.4-1C15.3,36.9,15.4,37.3,15,37.5z"/>
<path class="st0" d="M15.4,36.5c0-0.3,0.2-0.5,0.4-0.6C15.7,36.2,15.6,36.4,15.4,36.5z"/>
<path class="st0" d="M15.7,35.9c0.1-0.1,0.1-0.1,0.2-0.2C15.9,35.8,15.8,35.9,15.7,35.9z"/>
<path class="st0" d="M246.3,14.1c0,0.1-0.1,0.3-0.2,0.5c-0.6,1.2-1.3,2.3-2,3.4c-0.1,0.2-0.2,0.3-0.4,0.4c-0.2,0.1-0.4,0.1-0.6,0
	c-0.2-0.2-0.3-0.4-0.1-0.6c0.1-0.2,0.2-0.3,0.3-0.5c0.6-1,1.2-2,1.8-3c0.1-0.2,0.2-0.4,0.4-0.6c0.1-0.1,0.3-0.2,0.5-0.1
	C246.2,13.6,246.3,13.8,246.3,14.1z"/>
</svg>
